G04 #@! TF.GenerationSoftware,KiCad,Pcbnew,(5.1.5-0)*
G04 #@! TF.CreationDate,2022-04-04T15:42:26-07:00*
G04 #@! TF.ProjectId,wvr_v.1.0,7776725f-762e-4312-9e30-2e6b69636164,rev?*
G04 #@! TF.SameCoordinates,Original*
G04 #@! TF.FileFunction,Other,User*
%FSLAX46Y46*%
G04 Gerber Fmt 4.6, Leading zero omitted, Abs format (unit mm)*
G04 Created by KiCad (PCBNEW (5.1.5-0)) date 2022-04-04 15:42:26*
%MOMM*%
%LPD*%
G04 APERTURE LIST*
%ADD10C,0.050000*%
G04 APERTURE END LIST*
D10*
X140523000Y-55340740D02*
X138623000Y-55340740D01*
X138623000Y-55340740D02*
X138623000Y-58540740D01*
X140523000Y-58540740D02*
X138623000Y-58540740D01*
X140523000Y-55340740D02*
X140523000Y-58540740D01*
X130520000Y-62540000D02*
X138420000Y-62540000D01*
X130520000Y-55440000D02*
X138420000Y-55440000D01*
X138420000Y-55440000D02*
X138420000Y-62540000D01*
X130520000Y-55440000D02*
X130520000Y-62540000D01*
X133680000Y-23090000D02*
X130280000Y-23090000D01*
X133680000Y-17590000D02*
X133680000Y-23090000D01*
X130280000Y-17590000D02*
X133680000Y-17590000D01*
X130280000Y-23090000D02*
X130280000Y-17590000D01*
X137480000Y-43240000D02*
X149480000Y-43240000D01*
X137480000Y-55240000D02*
X137480000Y-43240000D01*
X149480000Y-55240000D02*
X137480000Y-55240000D01*
X149480000Y-43240000D02*
X149480000Y-55240000D01*
X139310000Y-60115000D02*
X149210000Y-60115000D01*
X149210000Y-60115000D02*
X149210000Y-66726000D01*
X149210000Y-66726000D02*
X139310000Y-66726000D01*
X139310000Y-66726000D02*
X139310000Y-60115000D01*
X167500000Y-17500000D02*
X153250000Y-17500000D01*
X167500000Y3800000D02*
X167500000Y-17500000D01*
X119500000Y3800000D02*
X167500000Y3800000D01*
X119500000Y-17500000D02*
X119500000Y3800000D01*
X133750000Y-17500000D02*
X119500000Y-17500000D01*
X153250000Y-42850000D02*
X153250000Y-17500000D01*
X133750000Y-42850000D02*
X153250000Y-42850000D01*
X133750000Y-17500000D02*
X133750000Y-42850000D01*
X141033860Y-59796780D02*
X139173860Y-59796780D01*
X141033860Y-58856780D02*
X141033860Y-59796780D01*
X139173860Y-58856780D02*
X141033860Y-58856780D01*
X139173860Y-59796780D02*
X139173860Y-58856780D01*
X148564960Y-59799320D02*
X146704960Y-59799320D01*
X148564960Y-58859320D02*
X148564960Y-59799320D01*
X146704960Y-58859320D02*
X148564960Y-58859320D01*
X146704960Y-59799320D02*
X146704960Y-58859320D01*
X133108600Y-64607800D02*
X133108600Y-62747800D01*
X134048600Y-64607800D02*
X133108600Y-64607800D01*
X134048600Y-62747800D02*
X134048600Y-64607800D01*
X133108600Y-62747800D02*
X134048600Y-62747800D01*
X156533000Y-24098000D02*
X153573000Y-24098000D01*
X156533000Y-22638000D02*
X156533000Y-24098000D01*
X153573000Y-22638000D02*
X156533000Y-22638000D01*
X153573000Y-24098000D02*
X153573000Y-22638000D01*
X156550000Y-55520000D02*
X149350000Y-55520000D01*
X149350000Y-55520000D02*
X149350000Y-64320000D01*
X149350000Y-64320000D02*
X156550000Y-64320000D01*
X156550000Y-64320000D02*
X156550000Y-55520000D01*
X154010000Y-22504500D02*
X154010000Y-21564500D01*
X154010000Y-21564500D02*
X155870000Y-21564500D01*
X155870000Y-21564500D02*
X155870000Y-22504500D01*
X155870000Y-22504500D02*
X154010000Y-22504500D01*
X138442500Y-64640500D02*
X138442500Y-62740500D01*
X138442500Y-62740500D02*
X135242500Y-62740500D01*
X135242500Y-64640500D02*
X135242500Y-62740500D01*
X138442500Y-64640500D02*
X135242500Y-64640500D01*
X156540000Y-26096000D02*
X156540000Y-24196000D01*
X156540000Y-24196000D02*
X153340000Y-24196000D01*
X153340000Y-26096000D02*
X153340000Y-24196000D01*
X156540000Y-26096000D02*
X153340000Y-26096000D01*
X152634000Y-44704000D02*
G75*
G03X152634000Y-44704000I-1250000J0D01*
G01*
X153140000Y-55160000D02*
X156340000Y-55160000D01*
X153140000Y-26160000D02*
X153140000Y-55160000D01*
X156340000Y-26160000D02*
X153140000Y-26160000D01*
X156340000Y-55160000D02*
X156340000Y-26160000D01*
X133880000Y-55160000D02*
X133880000Y-26160000D01*
X133880000Y-26160000D02*
X130680000Y-26160000D01*
X130680000Y-26160000D02*
X130680000Y-55160000D01*
X130680000Y-55160000D02*
X133880000Y-55160000D01*
X131020000Y-23410000D02*
X132880000Y-23410000D01*
X131020000Y-24350000D02*
X131020000Y-23410000D01*
X132880000Y-24350000D02*
X131020000Y-24350000D01*
X132880000Y-23410000D02*
X132880000Y-24350000D01*
X155870000Y-20231000D02*
X155870000Y-21171000D01*
X155870000Y-21171000D02*
X154010000Y-21171000D01*
X154010000Y-21171000D02*
X154010000Y-20231000D01*
X154010000Y-20231000D02*
X155870000Y-20231000D01*
X149210000Y-55440000D02*
X140710000Y-55440000D01*
X149210000Y-58540000D02*
X149210000Y-55440000D01*
X140710000Y-58540000D02*
X149210000Y-58540000D01*
X140710000Y-55440000D02*
X140710000Y-58540000D01*
X136502500Y-52159000D02*
X134642500Y-52159000D01*
X136502500Y-51219000D02*
X136502500Y-52159000D01*
X134642500Y-51219000D02*
X136502500Y-51219000D01*
X134642500Y-52159000D02*
X134642500Y-51219000D01*
X132880000Y-25880000D02*
X131020000Y-25880000D01*
X132880000Y-24940000D02*
X132880000Y-25880000D01*
X131020000Y-24940000D02*
X132880000Y-24940000D01*
X131020000Y-25880000D02*
X131020000Y-24940000D01*
X131559200Y-64633200D02*
X131559200Y-62773200D01*
X132499200Y-64633200D02*
X131559200Y-64633200D01*
X132499200Y-62773200D02*
X132499200Y-64633200D01*
X131559200Y-62773200D02*
X132499200Y-62773200D01*
X134642500Y-45504000D02*
X136502500Y-45504000D01*
X134642500Y-46444000D02*
X134642500Y-45504000D01*
X136502500Y-46444000D02*
X134642500Y-46444000D01*
X136502500Y-45504000D02*
X136502500Y-46444000D01*
X134665500Y-44361000D02*
X136525500Y-44361000D01*
X134665500Y-45301000D02*
X134665500Y-44361000D01*
X136525500Y-45301000D02*
X134665500Y-45301000D01*
X136525500Y-44361000D02*
X136525500Y-45301000D01*
X152314000Y-46952000D02*
X150454000Y-46952000D01*
X152314000Y-46012000D02*
X152314000Y-46952000D01*
X150454000Y-46012000D02*
X152314000Y-46012000D01*
X150454000Y-46952000D02*
X150454000Y-46012000D01*
X152314000Y-50381000D02*
X150454000Y-50381000D01*
X152314000Y-49441000D02*
X152314000Y-50381000D01*
X150454000Y-49441000D02*
X152314000Y-49441000D01*
X150454000Y-50381000D02*
X150454000Y-49441000D01*
X152314000Y-49238000D02*
X150454000Y-49238000D01*
X152314000Y-48298000D02*
X152314000Y-49238000D01*
X150454000Y-48298000D02*
X152314000Y-48298000D01*
X150454000Y-49238000D02*
X150454000Y-48298000D01*
X152314000Y-48095000D02*
X150454000Y-48095000D01*
X152314000Y-47155000D02*
X152314000Y-48095000D01*
X150454000Y-47155000D02*
X152314000Y-47155000D01*
X150454000Y-48095000D02*
X150454000Y-47155000D01*
X150454000Y-52870000D02*
X152314000Y-52870000D01*
X150454000Y-53810000D02*
X150454000Y-52870000D01*
X152314000Y-53810000D02*
X150454000Y-53810000D01*
X152314000Y-52870000D02*
X152314000Y-53810000D01*
X152291000Y-54953000D02*
X150431000Y-54953000D01*
X152291000Y-54013000D02*
X152291000Y-54953000D01*
X150431000Y-54013000D02*
X152291000Y-54013000D01*
X150431000Y-54953000D02*
X150431000Y-54013000D01*
X136502500Y-53302000D02*
X134642500Y-53302000D01*
X136502500Y-52362000D02*
X136502500Y-53302000D01*
X134642500Y-52362000D02*
X136502500Y-52362000D01*
X134642500Y-53302000D02*
X134642500Y-52362000D01*
X136502500Y-51016000D02*
X134642500Y-51016000D01*
X136502500Y-50076000D02*
X136502500Y-51016000D01*
X134642500Y-50076000D02*
X136502500Y-50076000D01*
X134642500Y-51016000D02*
X134642500Y-50076000D01*
X150454000Y-50584000D02*
X152314000Y-50584000D01*
X150454000Y-51524000D02*
X150454000Y-50584000D01*
X152314000Y-51524000D02*
X150454000Y-51524000D01*
X152314000Y-50584000D02*
X152314000Y-51524000D01*
X136502500Y-49873000D02*
X134642500Y-49873000D01*
X136502500Y-48933000D02*
X136502500Y-49873000D01*
X134642500Y-48933000D02*
X136502500Y-48933000D01*
X134642500Y-49873000D02*
X134642500Y-48933000D01*
X136502500Y-48730000D02*
X134642500Y-48730000D01*
X136502500Y-47790000D02*
X136502500Y-48730000D01*
X134642500Y-47790000D02*
X136502500Y-47790000D01*
X134642500Y-48730000D02*
X134642500Y-47790000D01*
X150454000Y-51727000D02*
X152314000Y-51727000D01*
X150454000Y-52667000D02*
X150454000Y-51727000D01*
X152314000Y-52667000D02*
X150454000Y-52667000D01*
X152314000Y-51727000D02*
X152314000Y-52667000D01*
X155870000Y-18072000D02*
X155870000Y-19012000D01*
X155870000Y-19012000D02*
X154010000Y-19012000D01*
X154010000Y-19012000D02*
X154010000Y-18072000D01*
X154010000Y-18072000D02*
X155870000Y-18072000D01*
X134175400Y-64607800D02*
X134175400Y-62747800D01*
X135115400Y-64607800D02*
X134175400Y-64607800D01*
X135115400Y-62747800D02*
X135115400Y-64607800D01*
X134175400Y-62747800D02*
X135115400Y-62747800D01*
X136479500Y-54445000D02*
X134619500Y-54445000D01*
X136479500Y-53505000D02*
X136479500Y-54445000D01*
X134619500Y-53505000D02*
X136479500Y-53505000D01*
X134619500Y-54445000D02*
X134619500Y-53505000D01*
X154010000Y-20091500D02*
X154010000Y-19151500D01*
X154010000Y-19151500D02*
X155870000Y-19151500D01*
X155870000Y-19151500D02*
X155870000Y-20091500D01*
X155870000Y-20091500D02*
X154010000Y-20091500D01*
X134665500Y-43218000D02*
X136525500Y-43218000D01*
X134665500Y-44158000D02*
X134665500Y-43218000D01*
X136525500Y-44158000D02*
X134665500Y-44158000D01*
X136525500Y-43218000D02*
X136525500Y-44158000D01*
X136489800Y-47561600D02*
X134629800Y-47561600D01*
X136489800Y-46621600D02*
X136489800Y-47561600D01*
X134629800Y-46621600D02*
X136489800Y-46621600D01*
X134629800Y-47561600D02*
X134629800Y-46621600D01*
M02*
