G04 #@! TF.GenerationSoftware,KiCad,Pcbnew,(5.1.5-0)*
G04 #@! TF.CreationDate,2022-04-04T15:40:45-07:00*
G04 #@! TF.ProjectId,wvr_v.1.0,7776725f-762e-4312-9e30-2e6b69636164,rev?*
G04 #@! TF.SameCoordinates,Original*
G04 #@! TF.FileFunction,Legend,Top*
G04 #@! TF.FilePolarity,Positive*
%FSLAX46Y46*%
G04 Gerber Fmt 4.6, Leading zero omitted, Abs format (unit mm)*
G04 Created by KiCad (PCBNEW (5.1.5-0)) date 2022-04-04 15:40:45*
%MOMM*%
%LPD*%
G04 APERTURE LIST*
%ADD10C,0.153000*%
%ADD11C,0.120000*%
%ADD12C,0.150000*%
%ADD13C,0.200000*%
%ADD14C,0.127000*%
%ADD15C,0.100000*%
%ADD16C,0.135000*%
G04 APERTURE END LIST*
D10*
X133559523Y-27540000D02*
X133483333Y-27501904D01*
X133369047Y-27501904D01*
X133254761Y-27540000D01*
X133178571Y-27616190D01*
X133140476Y-27692380D01*
X133102380Y-27844761D01*
X133102380Y-27959047D01*
X133140476Y-28111428D01*
X133178571Y-28187619D01*
X133254761Y-28263809D01*
X133369047Y-28301904D01*
X133445238Y-28301904D01*
X133559523Y-28263809D01*
X133597619Y-28225714D01*
X133597619Y-27959047D01*
X133445238Y-27959047D01*
X133788095Y-29908571D02*
X133788095Y-30403809D01*
X133483333Y-30137142D01*
X133483333Y-30251428D01*
X133445238Y-30327619D01*
X133407142Y-30365714D01*
X133330952Y-30403809D01*
X133140476Y-30403809D01*
X133064285Y-30365714D01*
X133026190Y-30327619D01*
X132988095Y-30251428D01*
X132988095Y-30022857D01*
X133026190Y-29946666D01*
X133064285Y-29908571D01*
X133521428Y-30670476D02*
X132988095Y-30860952D01*
X133521428Y-31051428D01*
X133019833Y-32581904D02*
X133553166Y-32581904D01*
X133210309Y-33381904D01*
X133210309Y-35528261D02*
X133134119Y-35490166D01*
X133096023Y-35452071D01*
X133057928Y-35375880D01*
X133057928Y-35337785D01*
X133096023Y-35261595D01*
X133134119Y-35223500D01*
X133210309Y-35185404D01*
X133362690Y-35185404D01*
X133438880Y-35223500D01*
X133476976Y-35261595D01*
X133515071Y-35337785D01*
X133515071Y-35375880D01*
X133476976Y-35452071D01*
X133438880Y-35490166D01*
X133362690Y-35528261D01*
X133210309Y-35528261D01*
X133134119Y-35566357D01*
X133096023Y-35604452D01*
X133057928Y-35680642D01*
X133057928Y-35833023D01*
X133096023Y-35909214D01*
X133134119Y-35947309D01*
X133210309Y-35985404D01*
X133362690Y-35985404D01*
X133438880Y-35947309D01*
X133476976Y-35909214D01*
X133515071Y-35833023D01*
X133515071Y-35680642D01*
X133476976Y-35604452D01*
X133438880Y-35566357D01*
X133362690Y-35528261D01*
X133197619Y-38525404D02*
X133350000Y-38525404D01*
X133426190Y-38487309D01*
X133464285Y-38449214D01*
X133540476Y-38334928D01*
X133578571Y-38182547D01*
X133578571Y-37877785D01*
X133540476Y-37801595D01*
X133502380Y-37763500D01*
X133426190Y-37725404D01*
X133273809Y-37725404D01*
X133197619Y-37763500D01*
X133159523Y-37801595D01*
X133121428Y-37877785D01*
X133121428Y-38068261D01*
X133159523Y-38144452D01*
X133197619Y-38182547D01*
X133273809Y-38220642D01*
X133426190Y-38220642D01*
X133502380Y-38182547D01*
X133540476Y-38144452D01*
X133578571Y-38068261D01*
X132988095Y-40424119D02*
X132988095Y-39966976D01*
X132988095Y-40195547D02*
X133788095Y-40195547D01*
X133673809Y-40119357D01*
X133597619Y-40043166D01*
X133559523Y-39966976D01*
X133788095Y-40919357D02*
X133788095Y-40995547D01*
X133750000Y-41071738D01*
X133711904Y-41109833D01*
X133635714Y-41147928D01*
X133483333Y-41186023D01*
X133292857Y-41186023D01*
X133140476Y-41147928D01*
X133064285Y-41109833D01*
X133026190Y-41071738D01*
X132988095Y-40995547D01*
X132988095Y-40919357D01*
X133026190Y-40843166D01*
X133064285Y-40805071D01*
X133140476Y-40766976D01*
X133292857Y-40728880D01*
X133483333Y-40728880D01*
X133635714Y-40766976D01*
X133711904Y-40805071D01*
X133750000Y-40843166D01*
X133788095Y-40919357D01*
X133578619Y-43605404D02*
X133121476Y-43605404D01*
X133350047Y-43605404D02*
X133350047Y-42805404D01*
X133273857Y-42919690D01*
X133197666Y-42995880D01*
X133121476Y-43033976D01*
X134340523Y-43605404D02*
X133883380Y-43605404D01*
X134111952Y-43605404D02*
X134111952Y-42805404D01*
X134035761Y-42919690D01*
X133959571Y-42995880D01*
X133883380Y-43033976D01*
X133578619Y-46018404D02*
X133121476Y-46018404D01*
X133350047Y-46018404D02*
X133350047Y-45218404D01*
X133273857Y-45332690D01*
X133197666Y-45408880D01*
X133121476Y-45446976D01*
X133883380Y-45294595D02*
X133921476Y-45256500D01*
X133997666Y-45218404D01*
X134188142Y-45218404D01*
X134264333Y-45256500D01*
X134302428Y-45294595D01*
X134340523Y-45370785D01*
X134340523Y-45446976D01*
X134302428Y-45561261D01*
X133845285Y-46018404D01*
X134340523Y-46018404D01*
X133515119Y-48621904D02*
X133057976Y-48621904D01*
X133286547Y-48621904D02*
X133286547Y-47821904D01*
X133210357Y-47936190D01*
X133134166Y-48012380D01*
X133057976Y-48050476D01*
X133781785Y-47821904D02*
X134277023Y-47821904D01*
X134010357Y-48126666D01*
X134124642Y-48126666D01*
X134200833Y-48164761D01*
X134238928Y-48202857D01*
X134277023Y-48279047D01*
X134277023Y-48469523D01*
X134238928Y-48545714D01*
X134200833Y-48583809D01*
X134124642Y-48621904D01*
X133896071Y-48621904D01*
X133819880Y-48583809D01*
X133781785Y-48545714D01*
X133851619Y-51225404D02*
X133584952Y-50844452D01*
X133394476Y-51225404D02*
X133394476Y-50425404D01*
X133699238Y-50425404D01*
X133775428Y-50463500D01*
X133813523Y-50501595D01*
X133851619Y-50577785D01*
X133851619Y-50692071D01*
X133813523Y-50768261D01*
X133775428Y-50806357D01*
X133699238Y-50844452D01*
X133394476Y-50844452D01*
X133788119Y-53765404D02*
X133407166Y-53765404D01*
X133407166Y-52965404D01*
X153174714Y-52965404D02*
X152793761Y-52965404D01*
X152755666Y-53346357D01*
X152793761Y-53308261D01*
X152869952Y-53270166D01*
X153060428Y-53270166D01*
X153136619Y-53308261D01*
X153174714Y-53346357D01*
X153212809Y-53422547D01*
X153212809Y-53613023D01*
X153174714Y-53689214D01*
X153136619Y-53727309D01*
X153060428Y-53765404D01*
X152869952Y-53765404D01*
X152793761Y-53727309D01*
X152755666Y-53689214D01*
X153479476Y-53232071D02*
X153669952Y-53765404D01*
X153860428Y-53232071D01*
X152590571Y-51225404D02*
X152590571Y-50425404D01*
X152857238Y-50996833D01*
X153123904Y-50425404D01*
X153123904Y-51225404D01*
X153428666Y-50692071D02*
X153619142Y-51225404D01*
X153809619Y-50692071D01*
X152768357Y-48748904D02*
X152768357Y-47948904D01*
X153035023Y-48520333D01*
X153301690Y-47948904D01*
X153301690Y-48748904D01*
X153682642Y-48748904D02*
X153682642Y-48215571D01*
X153682642Y-47948904D02*
X153644547Y-47987000D01*
X153682642Y-48025095D01*
X153720738Y-47987000D01*
X153682642Y-47948904D01*
X153682642Y-48025095D01*
X153758880Y-45345404D02*
X153606500Y-45345404D01*
X153530309Y-45383500D01*
X153492214Y-45421595D01*
X153416023Y-45535880D01*
X153377928Y-45688261D01*
X153377928Y-45993023D01*
X153416023Y-46069214D01*
X153454119Y-46107309D01*
X153530309Y-46145404D01*
X153682690Y-46145404D01*
X153758880Y-46107309D01*
X153796976Y-46069214D01*
X153835071Y-45993023D01*
X153835071Y-45802547D01*
X153796976Y-45726357D01*
X153758880Y-45688261D01*
X153682690Y-45650166D01*
X153530309Y-45650166D01*
X153454119Y-45688261D01*
X153416023Y-45726357D01*
X153377928Y-45802547D01*
X153796976Y-42805404D02*
X153416023Y-42805404D01*
X153377928Y-43186357D01*
X153416023Y-43148261D01*
X153492214Y-43110166D01*
X153682690Y-43110166D01*
X153758880Y-43148261D01*
X153796976Y-43186357D01*
X153835071Y-43262547D01*
X153835071Y-43453023D01*
X153796976Y-43529214D01*
X153758880Y-43567309D01*
X153682690Y-43605404D01*
X153492214Y-43605404D01*
X153416023Y-43567309D01*
X153377928Y-43529214D01*
X153758880Y-40532071D02*
X153758880Y-41065404D01*
X153568404Y-40227309D02*
X153377928Y-40798738D01*
X153873166Y-40798738D01*
X153403333Y-37725404D02*
X153898571Y-37725404D01*
X153631904Y-38030166D01*
X153746190Y-38030166D01*
X153822380Y-38068261D01*
X153860476Y-38106357D01*
X153898571Y-38182547D01*
X153898571Y-38373023D01*
X153860476Y-38449214D01*
X153822380Y-38487309D01*
X153746190Y-38525404D01*
X153517619Y-38525404D01*
X153441428Y-38487309D01*
X153403333Y-38449214D01*
X153441428Y-35261595D02*
X153479523Y-35223500D01*
X153555714Y-35185404D01*
X153746190Y-35185404D01*
X153822380Y-35223500D01*
X153860476Y-35261595D01*
X153898571Y-35337785D01*
X153898571Y-35413976D01*
X153860476Y-35528261D01*
X153403333Y-35985404D01*
X153898571Y-35985404D01*
X153962071Y-33508904D02*
X153504928Y-33508904D01*
X153733500Y-33508904D02*
X153733500Y-32708904D01*
X153657309Y-32823190D01*
X153581119Y-32899380D01*
X153504928Y-32937476D01*
X153568404Y-30105404D02*
X153644595Y-30105404D01*
X153720785Y-30143500D01*
X153758880Y-30181595D01*
X153796976Y-30257785D01*
X153835071Y-30410166D01*
X153835071Y-30600642D01*
X153796976Y-30753023D01*
X153758880Y-30829214D01*
X153720785Y-30867309D01*
X153644595Y-30905404D01*
X153568404Y-30905404D01*
X153492214Y-30867309D01*
X153454119Y-30829214D01*
X153416023Y-30753023D01*
X153377928Y-30600642D01*
X153377928Y-30410166D01*
X153416023Y-30257785D01*
X153454119Y-30181595D01*
X153492214Y-30143500D01*
X153568404Y-30105404D01*
X153816023Y-27603500D02*
X153739833Y-27565404D01*
X153625547Y-27565404D01*
X153511261Y-27603500D01*
X153435071Y-27679690D01*
X153396976Y-27755880D01*
X153358880Y-27908261D01*
X153358880Y-28022547D01*
X153396976Y-28174928D01*
X153435071Y-28251119D01*
X153511261Y-28327309D01*
X153625547Y-28365404D01*
X153701738Y-28365404D01*
X153816023Y-28327309D01*
X153854119Y-28289214D01*
X153854119Y-28022547D01*
X153701738Y-28022547D01*
D11*
X140423000Y-55440740D02*
X140423000Y-57990740D01*
X138723000Y-55440740D02*
X138723000Y-57990740D01*
X140423000Y-55440740D02*
X138723000Y-55440740D01*
D12*
X130720000Y-55540000D02*
X136695000Y-55540000D01*
X132245000Y-62440000D02*
X136695000Y-62440000D01*
D11*
X130410000Y-18270000D02*
X130710000Y-18270000D01*
X133550000Y-22410000D02*
X133250000Y-22410000D01*
X130710000Y-22410000D02*
X130410000Y-22410000D01*
X133550000Y-18270000D02*
X133550000Y-22410000D01*
X133250000Y-18270000D02*
X133550000Y-18270000D01*
X130410000Y-22410000D02*
X130410000Y-18270000D01*
D13*
X149330000Y-43490000D02*
G75*
G03X149330000Y-43490000I-100000J0D01*
G01*
D11*
X148230000Y-43370000D02*
X146475000Y-43370000D01*
X149350000Y-44490000D02*
X148230000Y-43370000D01*
X149350000Y-46245000D02*
X149350000Y-44490000D01*
X137610000Y-43370000D02*
X140485000Y-43370000D01*
X137610000Y-46245000D02*
X137610000Y-43370000D01*
X149350000Y-55110000D02*
X146475000Y-55110000D01*
X149350000Y-52235000D02*
X149350000Y-55110000D01*
X137610000Y-55110000D02*
X140485000Y-55110000D01*
X137610000Y-52235000D02*
X137610000Y-55110000D01*
X149350000Y-55110000D02*
X146475000Y-55110000D01*
X149350000Y-52235000D02*
X149350000Y-55110000D01*
X149350000Y-55110000D02*
X146475000Y-55110000D01*
X149350000Y-52235000D02*
X149350000Y-55110000D01*
D14*
X140510000Y-62190000D02*
X140510000Y-62540000D01*
X148010000Y-62190000D02*
X148010000Y-62540000D01*
X140510000Y-64890000D02*
X140510000Y-65165000D01*
X140510000Y-65165000D02*
X148010000Y-65165000D01*
X148010000Y-65165000D02*
X148010000Y-64890000D01*
X142430000Y-60815000D02*
X142540000Y-60815000D01*
X145980000Y-60815000D02*
X146090000Y-60815000D01*
D13*
X133200000Y-18600000D02*
G75*
G03X133200000Y-18600000I-100000J0D01*
G01*
D14*
X152500000Y-42600000D02*
X152500000Y-42260000D01*
X134500000Y-42600000D02*
X152500000Y-42600000D01*
X134500000Y-42260000D02*
X134500000Y-42600000D01*
X152500000Y-11200000D02*
X152500000Y-17870000D01*
X134500000Y-11200000D02*
X152500000Y-11200000D01*
X134500000Y-17870000D02*
X134500000Y-11200000D01*
D11*
X153568000Y-24103000D02*
X155853000Y-24103000D01*
X153568000Y-22633000D02*
X153568000Y-24103000D01*
X155853000Y-22633000D02*
X153568000Y-22633000D01*
X156360000Y-55820000D02*
X156360000Y-61830000D01*
X149540000Y-58070000D02*
X149540000Y-61830000D01*
X156360000Y-61830000D02*
X155100000Y-61830000D01*
X149540000Y-61830000D02*
X150800000Y-61830000D01*
X138342500Y-64540500D02*
X135792500Y-64540500D01*
X138342500Y-62840500D02*
X135792500Y-62840500D01*
X138342500Y-64540500D02*
X138342500Y-62840500D01*
X156440000Y-25996000D02*
X153890000Y-25996000D01*
X156440000Y-24296000D02*
X153890000Y-24296000D01*
X156440000Y-25996000D02*
X156440000Y-24296000D01*
X142650000Y-55795000D02*
X140960000Y-55795000D01*
X142650000Y-55580000D02*
X142650000Y-55795000D01*
X144960000Y-55580000D02*
X142650000Y-55580000D01*
X147270000Y-55580000D02*
X147270000Y-55795000D01*
X144960000Y-55580000D02*
X147270000Y-55580000D01*
X142650000Y-58400000D02*
X142650000Y-58185000D01*
X144960000Y-58400000D02*
X142650000Y-58400000D01*
X147270000Y-58400000D02*
X147270000Y-58185000D01*
X144960000Y-58400000D02*
X147270000Y-58400000D01*
D13*
X134285238Y-58880952D02*
X134285238Y-59544761D01*
X134324285Y-59622857D01*
X134363333Y-59661904D01*
X134441428Y-59700952D01*
X134597619Y-59700952D01*
X134675714Y-59661904D01*
X134714761Y-59622857D01*
X134753809Y-59544761D01*
X134753809Y-58880952D01*
X135495714Y-59154285D02*
X135495714Y-59700952D01*
X135300476Y-58841904D02*
X135105238Y-59427619D01*
X135612857Y-59427619D01*
D12*
X130134761Y-21673333D02*
X130182380Y-21530476D01*
X130182380Y-21292380D01*
X130134761Y-21197142D01*
X130087142Y-21149523D01*
X129991904Y-21101904D01*
X129896666Y-21101904D01*
X129801428Y-21149523D01*
X129753809Y-21197142D01*
X129706190Y-21292380D01*
X129658571Y-21482857D01*
X129610952Y-21578095D01*
X129563333Y-21625714D01*
X129468095Y-21673333D01*
X129372857Y-21673333D01*
X129277619Y-21625714D01*
X129230000Y-21578095D01*
X129182380Y-21482857D01*
X129182380Y-21244761D01*
X129230000Y-21101904D01*
X129182380Y-20768571D02*
X130182380Y-20530476D01*
X129468095Y-20340000D01*
X130182380Y-20149523D01*
X129182380Y-19911428D01*
X130182380Y-19006666D02*
X130182380Y-19578095D01*
X130182380Y-19292380D02*
X129182380Y-19292380D01*
X129325238Y-19387619D01*
X129420476Y-19482857D01*
X129468095Y-19578095D01*
D13*
X142795238Y-48820952D02*
X142795238Y-49484761D01*
X142834285Y-49562857D01*
X142873333Y-49601904D01*
X142951428Y-49640952D01*
X143107619Y-49640952D01*
X143185714Y-49601904D01*
X143224761Y-49562857D01*
X143263809Y-49484761D01*
X143263809Y-48820952D01*
X143576190Y-48820952D02*
X144083809Y-48820952D01*
X143810476Y-49133333D01*
X143927619Y-49133333D01*
X144005714Y-49172380D01*
X144044761Y-49211428D01*
X144083809Y-49289523D01*
X144083809Y-49484761D01*
X144044761Y-49562857D01*
X144005714Y-49601904D01*
X143927619Y-49640952D01*
X143693333Y-49640952D01*
X143615238Y-49601904D01*
X143576190Y-49562857D01*
D15*
X144029133Y-62006990D02*
X144029133Y-62364133D01*
X144005323Y-62435561D01*
X143957704Y-62483180D01*
X143886276Y-62506990D01*
X143838657Y-62506990D01*
X144529133Y-62506990D02*
X144243419Y-62506990D01*
X144386276Y-62506990D02*
X144386276Y-62006990D01*
X144338657Y-62078419D01*
X144291038Y-62126038D01*
X144243419Y-62149847D01*
D13*
X136850238Y-9315952D02*
X136850238Y-9979761D01*
X136889285Y-10057857D01*
X136928333Y-10096904D01*
X137006428Y-10135952D01*
X137162619Y-10135952D01*
X137240714Y-10096904D01*
X137279761Y-10057857D01*
X137318809Y-9979761D01*
X137318809Y-9315952D01*
X138099761Y-9315952D02*
X137709285Y-9315952D01*
X137670238Y-9706428D01*
X137709285Y-9667380D01*
X137787380Y-9628333D01*
X137982619Y-9628333D01*
X138060714Y-9667380D01*
X138099761Y-9706428D01*
X138138809Y-9784523D01*
X138138809Y-9979761D01*
X138099761Y-10057857D01*
X138060714Y-10096904D01*
X137982619Y-10135952D01*
X137787380Y-10135952D01*
X137709285Y-10096904D01*
X137670238Y-10057857D01*
X152085238Y-59510952D02*
X152085238Y-60174761D01*
X152124285Y-60252857D01*
X152163333Y-60291904D01*
X152241428Y-60330952D01*
X152397619Y-60330952D01*
X152475714Y-60291904D01*
X152514761Y-60252857D01*
X152553809Y-60174761D01*
X152553809Y-59510952D01*
X152905238Y-59589047D02*
X152944285Y-59550000D01*
X153022380Y-59510952D01*
X153217619Y-59510952D01*
X153295714Y-59550000D01*
X153334761Y-59589047D01*
X153373809Y-59667142D01*
X153373809Y-59745238D01*
X153334761Y-59862380D01*
X152866190Y-60330952D01*
X153373809Y-60330952D01*
D16*
X149866476Y-42995904D02*
X150323619Y-42995904D01*
X150095047Y-43795904D02*
X150095047Y-42995904D01*
X150590285Y-43795904D02*
X150590285Y-42995904D01*
X150895047Y-42995904D01*
X150971238Y-43034000D01*
X151009333Y-43072095D01*
X151047428Y-43148285D01*
X151047428Y-43262571D01*
X151009333Y-43338761D01*
X150971238Y-43376857D01*
X150895047Y-43414952D01*
X150590285Y-43414952D01*
X151809333Y-43795904D02*
X151352190Y-43795904D01*
X151580761Y-43795904D02*
X151580761Y-42995904D01*
X151504571Y-43110190D01*
X151428380Y-43186380D01*
X151352190Y-43224476D01*
D13*
X143885238Y-56570952D02*
X143885238Y-57234761D01*
X143924285Y-57312857D01*
X143963333Y-57351904D01*
X144041428Y-57390952D01*
X144197619Y-57390952D01*
X144275714Y-57351904D01*
X144314761Y-57312857D01*
X144353809Y-57234761D01*
X144353809Y-56570952D01*
X145173809Y-57390952D02*
X144705238Y-57390952D01*
X144939523Y-57390952D02*
X144939523Y-56570952D01*
X144861428Y-56688095D01*
X144783333Y-56766190D01*
X144705238Y-56805238D01*
M02*
