G04 #@! TF.GenerationSoftware,KiCad,Pcbnew,(5.1.5-0)*
G04 #@! TF.CreationDate,2022-04-04T15:42:26-07:00*
G04 #@! TF.ProjectId,wvr_v.1.0,7776725f-762e-4312-9e30-2e6b69636164,rev?*
G04 #@! TF.SameCoordinates,Original*
G04 #@! TF.FileFunction,Other,Fab,Top*
%FSLAX46Y46*%
G04 Gerber Fmt 4.6, Leading zero omitted, Abs format (unit mm)*
G04 Created by KiCad (PCBNEW (5.1.5-0)) date 2022-04-04 15:42:26*
%MOMM*%
%LPD*%
G04 APERTURE LIST*
%ADD10C,0.100000*%
%ADD11C,0.150000*%
%ADD12C,0.127000*%
%ADD13C,0.200000*%
%ADD14C,0.040000*%
%ADD15C,0.060000*%
G04 APERTURE END LIST*
D10*
X140273000Y-56040740D02*
X140273000Y-57840740D01*
X140273000Y-57840740D02*
X138873000Y-57840740D01*
X138873000Y-57840740D02*
X138873000Y-56040740D01*
X138873000Y-56040740D02*
X140273000Y-56040740D01*
X139923000Y-56640740D02*
X139223000Y-56640740D01*
X139573000Y-56640740D02*
X139573000Y-56440740D01*
X139573000Y-56640740D02*
X139923000Y-57140740D01*
X139923000Y-57140740D02*
X139223000Y-57140740D01*
X139223000Y-57140740D02*
X139573000Y-56640740D01*
X139573000Y-57140740D02*
X139573000Y-57390740D01*
D11*
X132270000Y-56740000D02*
X133270000Y-55740000D01*
X132270000Y-62240000D02*
X132270000Y-56740000D01*
X136670000Y-62240000D02*
X132270000Y-62240000D01*
X136670000Y-55740000D02*
X136670000Y-62240000D01*
X133270000Y-55740000D02*
X136670000Y-55740000D01*
D10*
X130530000Y-18390000D02*
X133430000Y-18390000D01*
X130530000Y-22290000D02*
X130530000Y-18390000D01*
X133430000Y-22290000D02*
X130530000Y-22290000D01*
X133430000Y-18390000D02*
X133430000Y-22290000D01*
X132980000Y-20340000D02*
G75*
G03X132980000Y-20340000I-1000000J0D01*
G01*
X149230000Y-54990000D02*
X149230000Y-44490000D01*
X137730000Y-54990000D02*
X149230000Y-54990000D01*
X137730000Y-43490000D02*
X137730000Y-54990000D01*
X148230000Y-43490000D02*
X137730000Y-43490000D01*
X149230000Y-44490000D02*
X148230000Y-43490000D01*
D12*
X140510000Y-60815000D02*
X148010000Y-60815000D01*
X148010000Y-60815000D02*
X148010000Y-65165000D01*
X148010000Y-65165000D02*
X148010000Y-66476000D01*
X148010000Y-66476000D02*
X140510000Y-66476000D01*
X140510000Y-66476000D02*
X140510000Y-65165000D01*
X140510000Y-65165000D02*
X140510000Y-60815000D01*
X148010000Y-65165000D02*
X140510000Y-65165000D01*
X148010000Y-65165000D02*
X151410000Y-65165000D01*
D13*
X133200000Y-18600000D02*
G75*
G03X133200000Y-18600000I-100000J0D01*
G01*
D12*
X134500000Y-17500000D02*
X152500000Y-17500000D01*
X152500000Y-17500000D02*
X152500000Y-42600000D01*
X152500000Y-11200000D02*
X152500000Y-17500000D01*
X152500000Y-42600000D02*
X134500000Y-42600000D01*
X134500000Y-11200000D02*
X152500000Y-11200000D01*
X134500000Y-17500000D02*
X134500000Y-11200000D01*
X134500000Y-42600000D02*
X134500000Y-17500000D01*
D10*
X140603860Y-59576780D02*
X139603860Y-59576780D01*
X140603860Y-59076780D02*
X140603860Y-59576780D01*
X139603860Y-59076780D02*
X140603860Y-59076780D01*
X139603860Y-59576780D02*
X139603860Y-59076780D01*
X148134960Y-59579320D02*
X147134960Y-59579320D01*
X148134960Y-59079320D02*
X148134960Y-59579320D01*
X147134960Y-59079320D02*
X148134960Y-59079320D01*
X147134960Y-59579320D02*
X147134960Y-59079320D01*
X133328600Y-64177800D02*
X133328600Y-63177800D01*
X133828600Y-64177800D02*
X133328600Y-64177800D01*
X133828600Y-63177800D02*
X133828600Y-64177800D01*
X133328600Y-63177800D02*
X133828600Y-63177800D01*
X155853000Y-23768000D02*
X155853000Y-22968000D01*
X154253000Y-23768000D02*
X155853000Y-23768000D01*
X154253000Y-23268000D02*
X154253000Y-23768000D01*
X154553000Y-22968000D02*
X154253000Y-23268000D01*
X155853000Y-22968000D02*
X154553000Y-22968000D01*
X156300000Y-61770000D02*
X149600000Y-61770000D01*
X149600000Y-58070000D02*
X149600000Y-61770000D01*
X156300000Y-59070000D02*
X156300000Y-61770000D01*
X155300000Y-58070000D02*
X149600000Y-58070000D01*
X155300000Y-58070000D02*
X156300000Y-59070000D01*
X154440000Y-22284500D02*
X154440000Y-21784500D01*
X154440000Y-21784500D02*
X155440000Y-21784500D01*
X155440000Y-21784500D02*
X155440000Y-22284500D01*
X155440000Y-22284500D02*
X154440000Y-22284500D01*
X137742500Y-64390500D02*
X135942500Y-64390500D01*
X135942500Y-64390500D02*
X135942500Y-62990500D01*
X135942500Y-62990500D02*
X137742500Y-62990500D01*
X137742500Y-62990500D02*
X137742500Y-64390500D01*
X137142500Y-64040500D02*
X137142500Y-63340500D01*
X137142500Y-63690500D02*
X137342500Y-63690500D01*
X137142500Y-63690500D02*
X136642500Y-64040500D01*
X136642500Y-64040500D02*
X136642500Y-63340500D01*
X136642500Y-63340500D02*
X137142500Y-63690500D01*
X136642500Y-63690500D02*
X136392500Y-63690500D01*
X155840000Y-25846000D02*
X154040000Y-25846000D01*
X154040000Y-25846000D02*
X154040000Y-24446000D01*
X154040000Y-24446000D02*
X155840000Y-24446000D01*
X155840000Y-24446000D02*
X155840000Y-25846000D01*
X155240000Y-25496000D02*
X155240000Y-24796000D01*
X155240000Y-25146000D02*
X155440000Y-25146000D01*
X155240000Y-25146000D02*
X154740000Y-25496000D01*
X154740000Y-25496000D02*
X154740000Y-24796000D01*
X154740000Y-24796000D02*
X155240000Y-25146000D01*
X154740000Y-25146000D02*
X154490000Y-25146000D01*
X156210000Y-53995000D02*
X155575000Y-54630000D01*
X153670000Y-26690000D02*
X156210000Y-26690000D01*
X153670000Y-54630000D02*
X153670000Y-26690000D01*
X155575000Y-54630000D02*
X153670000Y-54630000D01*
X132715000Y-54630000D02*
X130810000Y-54630000D01*
X130810000Y-54630000D02*
X130810000Y-26690000D01*
X130810000Y-26690000D02*
X133350000Y-26690000D01*
X133350000Y-26690000D02*
X133350000Y-53995000D01*
X133350000Y-53995000D02*
X132715000Y-54630000D01*
X131450000Y-23630000D02*
X132450000Y-23630000D01*
X131450000Y-24130000D02*
X131450000Y-23630000D01*
X132450000Y-24130000D02*
X131450000Y-24130000D01*
X132450000Y-23630000D02*
X132450000Y-24130000D01*
X155440000Y-20451000D02*
X155440000Y-20951000D01*
X155440000Y-20951000D02*
X154440000Y-20951000D01*
X154440000Y-20951000D02*
X154440000Y-20451000D01*
X154440000Y-20451000D02*
X155440000Y-20451000D01*
X142760000Y-56340000D02*
X143410000Y-55690000D01*
X142760000Y-58290000D02*
X142760000Y-56340000D01*
X147160000Y-58290000D02*
X142760000Y-58290000D01*
X147160000Y-55690000D02*
X147160000Y-58290000D01*
X143410000Y-55690000D02*
X147160000Y-55690000D01*
X136072500Y-51939000D02*
X135072500Y-51939000D01*
X136072500Y-51439000D02*
X136072500Y-51939000D01*
X135072500Y-51439000D02*
X136072500Y-51439000D01*
X135072500Y-51939000D02*
X135072500Y-51439000D01*
X132450000Y-25660000D02*
X131450000Y-25660000D01*
X132450000Y-25160000D02*
X132450000Y-25660000D01*
X131450000Y-25160000D02*
X132450000Y-25160000D01*
X131450000Y-25660000D02*
X131450000Y-25160000D01*
X131779200Y-64203200D02*
X131779200Y-63203200D01*
X132279200Y-64203200D02*
X131779200Y-64203200D01*
X132279200Y-63203200D02*
X132279200Y-64203200D01*
X131779200Y-63203200D02*
X132279200Y-63203200D01*
X135072500Y-45724000D02*
X136072500Y-45724000D01*
X135072500Y-46224000D02*
X135072500Y-45724000D01*
X136072500Y-46224000D02*
X135072500Y-46224000D01*
X136072500Y-45724000D02*
X136072500Y-46224000D01*
X135095500Y-44581000D02*
X136095500Y-44581000D01*
X135095500Y-45081000D02*
X135095500Y-44581000D01*
X136095500Y-45081000D02*
X135095500Y-45081000D01*
X136095500Y-44581000D02*
X136095500Y-45081000D01*
X151884000Y-46732000D02*
X150884000Y-46732000D01*
X151884000Y-46232000D02*
X151884000Y-46732000D01*
X150884000Y-46232000D02*
X151884000Y-46232000D01*
X150884000Y-46732000D02*
X150884000Y-46232000D01*
X151884000Y-50161000D02*
X150884000Y-50161000D01*
X151884000Y-49661000D02*
X151884000Y-50161000D01*
X150884000Y-49661000D02*
X151884000Y-49661000D01*
X150884000Y-50161000D02*
X150884000Y-49661000D01*
X151884000Y-49018000D02*
X150884000Y-49018000D01*
X151884000Y-48518000D02*
X151884000Y-49018000D01*
X150884000Y-48518000D02*
X151884000Y-48518000D01*
X150884000Y-49018000D02*
X150884000Y-48518000D01*
X151884000Y-47875000D02*
X150884000Y-47875000D01*
X151884000Y-47375000D02*
X151884000Y-47875000D01*
X150884000Y-47375000D02*
X151884000Y-47375000D01*
X150884000Y-47875000D02*
X150884000Y-47375000D01*
X150884000Y-53090000D02*
X151884000Y-53090000D01*
X150884000Y-53590000D02*
X150884000Y-53090000D01*
X151884000Y-53590000D02*
X150884000Y-53590000D01*
X151884000Y-53090000D02*
X151884000Y-53590000D01*
X151861000Y-54733000D02*
X150861000Y-54733000D01*
X151861000Y-54233000D02*
X151861000Y-54733000D01*
X150861000Y-54233000D02*
X151861000Y-54233000D01*
X150861000Y-54733000D02*
X150861000Y-54233000D01*
X136072500Y-53082000D02*
X135072500Y-53082000D01*
X136072500Y-52582000D02*
X136072500Y-53082000D01*
X135072500Y-52582000D02*
X136072500Y-52582000D01*
X135072500Y-53082000D02*
X135072500Y-52582000D01*
X136072500Y-50796000D02*
X135072500Y-50796000D01*
X136072500Y-50296000D02*
X136072500Y-50796000D01*
X135072500Y-50296000D02*
X136072500Y-50296000D01*
X135072500Y-50796000D02*
X135072500Y-50296000D01*
X150884000Y-50804000D02*
X151884000Y-50804000D01*
X150884000Y-51304000D02*
X150884000Y-50804000D01*
X151884000Y-51304000D02*
X150884000Y-51304000D01*
X151884000Y-50804000D02*
X151884000Y-51304000D01*
X136072500Y-49653000D02*
X135072500Y-49653000D01*
X136072500Y-49153000D02*
X136072500Y-49653000D01*
X135072500Y-49153000D02*
X136072500Y-49153000D01*
X135072500Y-49653000D02*
X135072500Y-49153000D01*
X136072500Y-48510000D02*
X135072500Y-48510000D01*
X136072500Y-48010000D02*
X136072500Y-48510000D01*
X135072500Y-48010000D02*
X136072500Y-48010000D01*
X135072500Y-48510000D02*
X135072500Y-48010000D01*
X150884000Y-51947000D02*
X151884000Y-51947000D01*
X150884000Y-52447000D02*
X150884000Y-51947000D01*
X151884000Y-52447000D02*
X150884000Y-52447000D01*
X151884000Y-51947000D02*
X151884000Y-52447000D01*
X155440000Y-18292000D02*
X155440000Y-18792000D01*
X155440000Y-18792000D02*
X154440000Y-18792000D01*
X154440000Y-18792000D02*
X154440000Y-18292000D01*
X154440000Y-18292000D02*
X155440000Y-18292000D01*
X134395400Y-64177800D02*
X134395400Y-63177800D01*
X134895400Y-64177800D02*
X134395400Y-64177800D01*
X134895400Y-63177800D02*
X134895400Y-64177800D01*
X134395400Y-63177800D02*
X134895400Y-63177800D01*
X136049500Y-54225000D02*
X135049500Y-54225000D01*
X136049500Y-53725000D02*
X136049500Y-54225000D01*
X135049500Y-53725000D02*
X136049500Y-53725000D01*
X135049500Y-54225000D02*
X135049500Y-53725000D01*
X154440000Y-19871500D02*
X154440000Y-19371500D01*
X154440000Y-19371500D02*
X155440000Y-19371500D01*
X155440000Y-19371500D02*
X155440000Y-19871500D01*
X155440000Y-19871500D02*
X154440000Y-19871500D01*
X135095500Y-43438000D02*
X136095500Y-43438000D01*
X135095500Y-43938000D02*
X135095500Y-43438000D01*
X136095500Y-43938000D02*
X135095500Y-43938000D01*
X136095500Y-43438000D02*
X136095500Y-43938000D01*
X136059800Y-47341600D02*
X135059800Y-47341600D01*
X136059800Y-46841600D02*
X136059800Y-47341600D01*
X135059800Y-46841600D02*
X136059800Y-46841600D01*
X135059800Y-47341600D02*
X135059800Y-46841600D01*
D11*
X138125380Y-57302644D02*
X137125380Y-57302644D01*
X137125380Y-57064549D01*
X137173000Y-56921692D01*
X137268238Y-56826454D01*
X137363476Y-56778835D01*
X137553952Y-56731216D01*
X137696809Y-56731216D01*
X137887285Y-56778835D01*
X137982523Y-56826454D01*
X138077761Y-56921692D01*
X138125380Y-57064549D01*
X138125380Y-57302644D01*
X141875380Y-57678835D02*
X140875380Y-57678835D01*
X140875380Y-57440740D01*
X140923000Y-57297882D01*
X141018238Y-57202644D01*
X141113476Y-57155025D01*
X141303952Y-57107406D01*
X141446809Y-57107406D01*
X141637285Y-57155025D01*
X141732523Y-57202644D01*
X141827761Y-57297882D01*
X141875380Y-57440740D01*
X141875380Y-57678835D01*
X141875380Y-56155025D02*
X141875380Y-56726454D01*
X141875380Y-56440740D02*
X140875380Y-56440740D01*
X141018238Y-56535978D01*
X141113476Y-56631216D01*
X141161095Y-56726454D01*
D13*
X131924761Y-60710952D02*
X131924761Y-59890952D01*
X132237142Y-59890952D01*
X132315238Y-59930000D01*
X132354285Y-59969047D01*
X132393333Y-60047142D01*
X132393333Y-60164285D01*
X132354285Y-60242380D01*
X132315238Y-60281428D01*
X132237142Y-60320476D01*
X131924761Y-60320476D01*
X133213333Y-60632857D02*
X133174285Y-60671904D01*
X133057142Y-60710952D01*
X132979047Y-60710952D01*
X132861904Y-60671904D01*
X132783809Y-60593809D01*
X132744761Y-60515714D01*
X132705714Y-60359523D01*
X132705714Y-60242380D01*
X132744761Y-60086190D01*
X132783809Y-60008095D01*
X132861904Y-59930000D01*
X132979047Y-59890952D01*
X133057142Y-59890952D01*
X133174285Y-59930000D01*
X133213333Y-59969047D01*
X133564761Y-60710952D02*
X133564761Y-59890952D01*
X133838095Y-60476666D01*
X134111428Y-59890952D01*
X134111428Y-60710952D01*
X134892380Y-59890952D02*
X134501904Y-59890952D01*
X134462857Y-60281428D01*
X134501904Y-60242380D01*
X134580000Y-60203333D01*
X134775238Y-60203333D01*
X134853333Y-60242380D01*
X134892380Y-60281428D01*
X134931428Y-60359523D01*
X134931428Y-60554761D01*
X134892380Y-60632857D01*
X134853333Y-60671904D01*
X134775238Y-60710952D01*
X134580000Y-60710952D01*
X134501904Y-60671904D01*
X134462857Y-60632857D01*
X135712380Y-60710952D02*
X135243809Y-60710952D01*
X135478095Y-60710952D02*
X135478095Y-59890952D01*
X135400000Y-60008095D01*
X135321904Y-60086190D01*
X135243809Y-60125238D01*
X136220000Y-59890952D02*
X136298095Y-59890952D01*
X136376190Y-59930000D01*
X136415238Y-59969047D01*
X136454285Y-60047142D01*
X136493333Y-60203333D01*
X136493333Y-60398571D01*
X136454285Y-60554761D01*
X136415238Y-60632857D01*
X136376190Y-60671904D01*
X136298095Y-60710952D01*
X136220000Y-60710952D01*
X136141904Y-60671904D01*
X136102857Y-60632857D01*
X136063809Y-60554761D01*
X136024761Y-60398571D01*
X136024761Y-60203333D01*
X136063809Y-60047142D01*
X136102857Y-59969047D01*
X136141904Y-59930000D01*
X136220000Y-59890952D01*
X136805714Y-59969047D02*
X136844761Y-59930000D01*
X136922857Y-59890952D01*
X137118095Y-59890952D01*
X137196190Y-59930000D01*
X137235238Y-59969047D01*
X137274285Y-60047142D01*
X137274285Y-60125238D01*
X137235238Y-60242380D01*
X136766666Y-60710952D01*
X137274285Y-60710952D01*
X133845238Y-58540952D02*
X133845238Y-59204761D01*
X133884285Y-59282857D01*
X133923333Y-59321904D01*
X134001428Y-59360952D01*
X134157619Y-59360952D01*
X134235714Y-59321904D01*
X134274761Y-59282857D01*
X134313809Y-59204761D01*
X134313809Y-58540952D01*
X135055714Y-58814285D02*
X135055714Y-59360952D01*
X134860476Y-58501904D02*
X134665238Y-59087619D01*
X135172857Y-59087619D01*
D11*
X134884761Y-23387619D02*
X134932380Y-23244761D01*
X134932380Y-23006666D01*
X134884761Y-22911428D01*
X134837142Y-22863809D01*
X134741904Y-22816190D01*
X134646666Y-22816190D01*
X134551428Y-22863809D01*
X134503809Y-22911428D01*
X134456190Y-23006666D01*
X134408571Y-23197142D01*
X134360952Y-23292380D01*
X134313333Y-23340000D01*
X134218095Y-23387619D01*
X134122857Y-23387619D01*
X134027619Y-23340000D01*
X133980000Y-23292380D01*
X133932380Y-23197142D01*
X133932380Y-22959047D01*
X133980000Y-22816190D01*
X133932380Y-22482857D02*
X134932380Y-22244761D01*
X134218095Y-22054285D01*
X134932380Y-21863809D01*
X133932380Y-21625714D01*
X135027619Y-21482857D02*
X135027619Y-20720952D01*
X134932380Y-20482857D02*
X133932380Y-20482857D01*
X133932380Y-20101904D01*
X133980000Y-20006666D01*
X134027619Y-19959047D01*
X134122857Y-19911428D01*
X134265714Y-19911428D01*
X134360952Y-19959047D01*
X134408571Y-20006666D01*
X134456190Y-20101904D01*
X134456190Y-20482857D01*
X134265714Y-19054285D02*
X134932380Y-19054285D01*
X134265714Y-19482857D02*
X134789523Y-19482857D01*
X134884761Y-19435238D01*
X134932380Y-19340000D01*
X134932380Y-19197142D01*
X134884761Y-19101904D01*
X134837142Y-19054285D01*
X134884761Y-18625714D02*
X134932380Y-18530476D01*
X134932380Y-18340000D01*
X134884761Y-18244761D01*
X134789523Y-18197142D01*
X134741904Y-18197142D01*
X134646666Y-18244761D01*
X134599047Y-18340000D01*
X134599047Y-18482857D01*
X134551428Y-18578095D01*
X134456190Y-18625714D01*
X134408571Y-18625714D01*
X134313333Y-18578095D01*
X134265714Y-18482857D01*
X134265714Y-18340000D01*
X134313333Y-18244761D01*
X134932380Y-17768571D02*
X133932380Y-17768571D01*
X134932380Y-17340000D02*
X134408571Y-17340000D01*
X134313333Y-17387619D01*
X134265714Y-17482857D01*
X134265714Y-17625714D01*
X134313333Y-17720952D01*
X134360952Y-17768571D01*
X132384761Y-21673333D02*
X132432380Y-21530476D01*
X132432380Y-21292380D01*
X132384761Y-21197142D01*
X132337142Y-21149523D01*
X132241904Y-21101904D01*
X132146666Y-21101904D01*
X132051428Y-21149523D01*
X132003809Y-21197142D01*
X131956190Y-21292380D01*
X131908571Y-21482857D01*
X131860952Y-21578095D01*
X131813333Y-21625714D01*
X131718095Y-21673333D01*
X131622857Y-21673333D01*
X131527619Y-21625714D01*
X131480000Y-21578095D01*
X131432380Y-21482857D01*
X131432380Y-21244761D01*
X131480000Y-21101904D01*
X131432380Y-20768571D02*
X132432380Y-20530476D01*
X131718095Y-20340000D01*
X132432380Y-20149523D01*
X131432380Y-19911428D01*
X132432380Y-19006666D02*
X132432380Y-19578095D01*
X132432380Y-19292380D02*
X131432380Y-19292380D01*
X131575238Y-19387619D01*
X131670476Y-19482857D01*
X131718095Y-19578095D01*
D13*
X143670952Y-52000952D02*
X142850952Y-52000952D01*
X143670952Y-51532380D02*
X143202380Y-51883809D01*
X142850952Y-51532380D02*
X143319523Y-52000952D01*
X143670952Y-50790476D02*
X143670952Y-51180952D01*
X142850952Y-51180952D01*
X143670952Y-50517142D02*
X142850952Y-50517142D01*
X143436666Y-50243809D01*
X142850952Y-49970476D01*
X143670952Y-49970476D01*
X143202380Y-49462857D02*
X143163333Y-49540952D01*
X143124285Y-49580000D01*
X143046190Y-49619047D01*
X143007142Y-49619047D01*
X142929047Y-49580000D01*
X142890000Y-49540952D01*
X142850952Y-49462857D01*
X142850952Y-49306666D01*
X142890000Y-49228571D01*
X142929047Y-49189523D01*
X143007142Y-49150476D01*
X143046190Y-49150476D01*
X143124285Y-49189523D01*
X143163333Y-49228571D01*
X143202380Y-49306666D01*
X143202380Y-49462857D01*
X143241428Y-49540952D01*
X143280476Y-49580000D01*
X143358571Y-49619047D01*
X143514761Y-49619047D01*
X143592857Y-49580000D01*
X143631904Y-49540952D01*
X143670952Y-49462857D01*
X143670952Y-49306666D01*
X143631904Y-49228571D01*
X143592857Y-49189523D01*
X143514761Y-49150476D01*
X143358571Y-49150476D01*
X143280476Y-49189523D01*
X143241428Y-49228571D01*
X143202380Y-49306666D01*
X142890000Y-48369523D02*
X142850952Y-48447619D01*
X142850952Y-48564761D01*
X142890000Y-48681904D01*
X142968095Y-48760000D01*
X143046190Y-48799047D01*
X143202380Y-48838095D01*
X143319523Y-48838095D01*
X143475714Y-48799047D01*
X143553809Y-48760000D01*
X143631904Y-48681904D01*
X143670952Y-48564761D01*
X143670952Y-48486666D01*
X143631904Y-48369523D01*
X143592857Y-48330476D01*
X143319523Y-48330476D01*
X143319523Y-48486666D01*
X143670952Y-47549523D02*
X143670952Y-48018095D01*
X143670952Y-47783809D02*
X142850952Y-47783809D01*
X142968095Y-47861904D01*
X143046190Y-47940000D01*
X143085238Y-48018095D01*
X142890000Y-46768571D02*
X142850952Y-46846666D01*
X142850952Y-46963809D01*
X142890000Y-47080952D01*
X142968095Y-47159047D01*
X143046190Y-47198095D01*
X143202380Y-47237142D01*
X143319523Y-47237142D01*
X143475714Y-47198095D01*
X143553809Y-47159047D01*
X143631904Y-47080952D01*
X143670952Y-46963809D01*
X143670952Y-46885714D01*
X143631904Y-46768571D01*
X143592857Y-46729523D01*
X143319523Y-46729523D01*
X143319523Y-46885714D01*
X143241428Y-46378095D02*
X143241428Y-46104761D01*
X143670952Y-45987619D02*
X143670952Y-46378095D01*
X142850952Y-46378095D01*
X142850952Y-45987619D01*
X142850952Y-45753333D02*
X142850952Y-45284761D01*
X143670952Y-45519047D02*
X142850952Y-45519047D01*
X143241428Y-44738095D02*
X143241428Y-45011428D01*
X143670952Y-45011428D02*
X142850952Y-45011428D01*
X142850952Y-44620952D01*
X139228095Y-62370952D02*
X138759523Y-62370952D01*
X138993809Y-62370952D02*
X138993809Y-61550952D01*
X138915714Y-61668095D01*
X138837619Y-61746190D01*
X138759523Y-61785238D01*
X139735714Y-61550952D02*
X139813809Y-61550952D01*
X139891904Y-61590000D01*
X139930952Y-61629047D01*
X139970000Y-61707142D01*
X140009047Y-61863333D01*
X140009047Y-62058571D01*
X139970000Y-62214761D01*
X139930952Y-62292857D01*
X139891904Y-62331904D01*
X139813809Y-62370952D01*
X139735714Y-62370952D01*
X139657619Y-62331904D01*
X139618571Y-62292857D01*
X139579523Y-62214761D01*
X139540476Y-62058571D01*
X139540476Y-61863333D01*
X139579523Y-61707142D01*
X139618571Y-61629047D01*
X139657619Y-61590000D01*
X139735714Y-61550952D01*
X140790000Y-62370952D02*
X140321428Y-62370952D01*
X140555714Y-62370952D02*
X140555714Y-61550952D01*
X140477619Y-61668095D01*
X140399523Y-61746190D01*
X140321428Y-61785238D01*
X141570952Y-62370952D02*
X141102380Y-62370952D01*
X141336666Y-62370952D02*
X141336666Y-61550952D01*
X141258571Y-61668095D01*
X141180476Y-61746190D01*
X141102380Y-61785238D01*
X142039523Y-61902380D02*
X141961428Y-61863333D01*
X141922380Y-61824285D01*
X141883333Y-61746190D01*
X141883333Y-61707142D01*
X141922380Y-61629047D01*
X141961428Y-61590000D01*
X142039523Y-61550952D01*
X142195714Y-61550952D01*
X142273809Y-61590000D01*
X142312857Y-61629047D01*
X142351904Y-61707142D01*
X142351904Y-61746190D01*
X142312857Y-61824285D01*
X142273809Y-61863333D01*
X142195714Y-61902380D01*
X142039523Y-61902380D01*
X141961428Y-61941428D01*
X141922380Y-61980476D01*
X141883333Y-62058571D01*
X141883333Y-62214761D01*
X141922380Y-62292857D01*
X141961428Y-62331904D01*
X142039523Y-62370952D01*
X142195714Y-62370952D01*
X142273809Y-62331904D01*
X142312857Y-62292857D01*
X142351904Y-62214761D01*
X142351904Y-62058571D01*
X142312857Y-61980476D01*
X142273809Y-61941428D01*
X142195714Y-61902380D01*
X143132857Y-62370952D02*
X142664285Y-62370952D01*
X142898571Y-62370952D02*
X142898571Y-61550952D01*
X142820476Y-61668095D01*
X142742380Y-61746190D01*
X142664285Y-61785238D01*
X143523333Y-62370952D02*
X143679523Y-62370952D01*
X143757619Y-62331904D01*
X143796666Y-62292857D01*
X143874761Y-62175714D01*
X143913809Y-62019523D01*
X143913809Y-61707142D01*
X143874761Y-61629047D01*
X143835714Y-61590000D01*
X143757619Y-61550952D01*
X143601428Y-61550952D01*
X143523333Y-61590000D01*
X143484285Y-61629047D01*
X143445238Y-61707142D01*
X143445238Y-61902380D01*
X143484285Y-61980476D01*
X143523333Y-62019523D01*
X143601428Y-62058571D01*
X143757619Y-62058571D01*
X143835714Y-62019523D01*
X143874761Y-61980476D01*
X143913809Y-61902380D01*
X144226190Y-61629047D02*
X144265238Y-61590000D01*
X144343333Y-61550952D01*
X144538571Y-61550952D01*
X144616666Y-61590000D01*
X144655714Y-61629047D01*
X144694761Y-61707142D01*
X144694761Y-61785238D01*
X144655714Y-61902380D01*
X144187142Y-62370952D01*
X144694761Y-62370952D01*
X145046190Y-62058571D02*
X145670952Y-62058571D01*
X146217619Y-61550952D02*
X146295714Y-61550952D01*
X146373809Y-61590000D01*
X146412857Y-61629047D01*
X146451904Y-61707142D01*
X146490952Y-61863333D01*
X146490952Y-62058571D01*
X146451904Y-62214761D01*
X146412857Y-62292857D01*
X146373809Y-62331904D01*
X146295714Y-62370952D01*
X146217619Y-62370952D01*
X146139523Y-62331904D01*
X146100476Y-62292857D01*
X146061428Y-62214761D01*
X146022380Y-62058571D01*
X146022380Y-61863333D01*
X146061428Y-61707142D01*
X146100476Y-61629047D01*
X146139523Y-61590000D01*
X146217619Y-61550952D01*
X146998571Y-61550952D02*
X147076666Y-61550952D01*
X147154761Y-61590000D01*
X147193809Y-61629047D01*
X147232857Y-61707142D01*
X147271904Y-61863333D01*
X147271904Y-62058571D01*
X147232857Y-62214761D01*
X147193809Y-62292857D01*
X147154761Y-62331904D01*
X147076666Y-62370952D01*
X146998571Y-62370952D01*
X146920476Y-62331904D01*
X146881428Y-62292857D01*
X146842380Y-62214761D01*
X146803333Y-62058571D01*
X146803333Y-61863333D01*
X146842380Y-61707142D01*
X146881428Y-61629047D01*
X146920476Y-61590000D01*
X146998571Y-61550952D01*
X147779523Y-61550952D02*
X147857619Y-61550952D01*
X147935714Y-61590000D01*
X147974761Y-61629047D01*
X148013809Y-61707142D01*
X148052857Y-61863333D01*
X148052857Y-62058571D01*
X148013809Y-62214761D01*
X147974761Y-62292857D01*
X147935714Y-62331904D01*
X147857619Y-62370952D01*
X147779523Y-62370952D01*
X147701428Y-62331904D01*
X147662380Y-62292857D01*
X147623333Y-62214761D01*
X147584285Y-62058571D01*
X147584285Y-61863333D01*
X147623333Y-61707142D01*
X147662380Y-61629047D01*
X147701428Y-61590000D01*
X147779523Y-61550952D01*
X148833809Y-62370952D02*
X148365238Y-62370952D01*
X148599523Y-62370952D02*
X148599523Y-61550952D01*
X148521428Y-61668095D01*
X148443333Y-61746190D01*
X148365238Y-61785238D01*
X149575714Y-62370952D02*
X149185238Y-62370952D01*
X149185238Y-61550952D01*
X150122380Y-61941428D02*
X149849047Y-61941428D01*
X149849047Y-62370952D02*
X149849047Y-61550952D01*
X150239523Y-61550952D01*
X146965912Y-65314672D02*
X146965912Y-64494672D01*
X147278293Y-64494672D01*
X147356388Y-64533720D01*
X147395436Y-64572767D01*
X147434483Y-64650862D01*
X147434483Y-64768005D01*
X147395436Y-64846100D01*
X147356388Y-64885148D01*
X147278293Y-64924196D01*
X146965912Y-64924196D01*
X148254483Y-65236577D02*
X148215436Y-65275624D01*
X148098293Y-65314672D01*
X148020198Y-65314672D01*
X147903055Y-65275624D01*
X147824960Y-65197529D01*
X147785912Y-65119434D01*
X147746864Y-64963243D01*
X147746864Y-64846100D01*
X147785912Y-64689910D01*
X147824960Y-64611815D01*
X147903055Y-64533720D01*
X148020198Y-64494672D01*
X148098293Y-64494672D01*
X148215436Y-64533720D01*
X148254483Y-64572767D01*
X148879245Y-64885148D02*
X148996388Y-64924196D01*
X149035436Y-64963243D01*
X149074483Y-65041339D01*
X149074483Y-65158481D01*
X149035436Y-65236577D01*
X148996388Y-65275624D01*
X148918293Y-65314672D01*
X148605912Y-65314672D01*
X148605912Y-64494672D01*
X148879245Y-64494672D01*
X148957340Y-64533720D01*
X148996388Y-64572767D01*
X149035436Y-64650862D01*
X149035436Y-64728958D01*
X148996388Y-64807053D01*
X148957340Y-64846100D01*
X148879245Y-64885148D01*
X148605912Y-64885148D01*
X149230674Y-64093320D02*
X149972579Y-64093320D01*
X149425912Y-64885148D02*
X149699245Y-64885148D01*
X149816388Y-65314672D02*
X149425912Y-65314672D01*
X149425912Y-64494672D01*
X149816388Y-64494672D01*
X149972579Y-64093320D02*
X150714483Y-64093320D01*
X150519245Y-65314672D02*
X150519245Y-64494672D01*
X150519245Y-65275624D02*
X150441150Y-65314672D01*
X150284960Y-65314672D01*
X150206864Y-65275624D01*
X150167817Y-65236577D01*
X150128769Y-65158481D01*
X150128769Y-64924196D01*
X150167817Y-64846100D01*
X150206864Y-64807053D01*
X150284960Y-64768005D01*
X150441150Y-64768005D01*
X150519245Y-64807053D01*
X150714483Y-64093320D02*
X151456388Y-64093320D01*
X151261150Y-64768005D02*
X151261150Y-65431815D01*
X151222102Y-65509910D01*
X151183055Y-65548958D01*
X151104960Y-65588005D01*
X150987817Y-65588005D01*
X150909721Y-65548958D01*
X151261150Y-65275624D02*
X151183055Y-65314672D01*
X151026864Y-65314672D01*
X150948769Y-65275624D01*
X150909721Y-65236577D01*
X150870674Y-65158481D01*
X150870674Y-64924196D01*
X150909721Y-64846100D01*
X150948769Y-64807053D01*
X151026864Y-64768005D01*
X151183055Y-64768005D01*
X151261150Y-64807053D01*
X151456388Y-64093320D02*
X152159245Y-64093320D01*
X151964007Y-65275624D02*
X151885912Y-65314672D01*
X151729721Y-65314672D01*
X151651626Y-65275624D01*
X151612579Y-65197529D01*
X151612579Y-64885148D01*
X151651626Y-64807053D01*
X151729721Y-64768005D01*
X151885912Y-64768005D01*
X151964007Y-64807053D01*
X152003055Y-64885148D01*
X152003055Y-64963243D01*
X151612579Y-65041339D01*
X146361428Y-38191428D02*
X146361428Y-37918095D01*
X146790952Y-37800952D02*
X146790952Y-38191428D01*
X145970952Y-38191428D01*
X145970952Y-37800952D01*
X146751904Y-37488571D02*
X146790952Y-37371428D01*
X146790952Y-37176190D01*
X146751904Y-37098095D01*
X146712857Y-37059047D01*
X146634761Y-37020000D01*
X146556666Y-37020000D01*
X146478571Y-37059047D01*
X146439523Y-37098095D01*
X146400476Y-37176190D01*
X146361428Y-37332380D01*
X146322380Y-37410476D01*
X146283333Y-37449523D01*
X146205238Y-37488571D01*
X146127142Y-37488571D01*
X146049047Y-37449523D01*
X146010000Y-37410476D01*
X145970952Y-37332380D01*
X145970952Y-37137142D01*
X146010000Y-37020000D01*
X146790952Y-36668571D02*
X145970952Y-36668571D01*
X145970952Y-36356190D01*
X146010000Y-36278095D01*
X146049047Y-36239047D01*
X146127142Y-36200000D01*
X146244285Y-36200000D01*
X146322380Y-36239047D01*
X146361428Y-36278095D01*
X146400476Y-36356190D01*
X146400476Y-36668571D01*
X145970952Y-35926666D02*
X145970952Y-35419047D01*
X146283333Y-35692380D01*
X146283333Y-35575238D01*
X146322380Y-35497142D01*
X146361428Y-35458095D01*
X146439523Y-35419047D01*
X146634761Y-35419047D01*
X146712857Y-35458095D01*
X146751904Y-35497142D01*
X146790952Y-35575238D01*
X146790952Y-35809523D01*
X146751904Y-35887619D01*
X146712857Y-35926666D01*
X146049047Y-35106666D02*
X146010000Y-35067619D01*
X145970952Y-34989523D01*
X145970952Y-34794285D01*
X146010000Y-34716190D01*
X146049047Y-34677142D01*
X146127142Y-34638095D01*
X146205238Y-34638095D01*
X146322380Y-34677142D01*
X146790952Y-35145714D01*
X146790952Y-34638095D01*
X146478571Y-34286666D02*
X146478571Y-33661904D01*
X145970952Y-33349523D02*
X146790952Y-33154285D01*
X146205238Y-32998095D01*
X146790952Y-32841904D01*
X145970952Y-32646666D01*
X146790952Y-31865714D02*
X146400476Y-32139047D01*
X146790952Y-32334285D02*
X145970952Y-32334285D01*
X145970952Y-32021904D01*
X146010000Y-31943809D01*
X146049047Y-31904761D01*
X146127142Y-31865714D01*
X146244285Y-31865714D01*
X146322380Y-31904761D01*
X146361428Y-31943809D01*
X146400476Y-32021904D01*
X146400476Y-32334285D01*
X145970952Y-31358095D02*
X145970952Y-31201904D01*
X146010000Y-31123809D01*
X146088095Y-31045714D01*
X146244285Y-31006666D01*
X146517619Y-31006666D01*
X146673809Y-31045714D01*
X146751904Y-31123809D01*
X146790952Y-31201904D01*
X146790952Y-31358095D01*
X146751904Y-31436190D01*
X146673809Y-31514285D01*
X146517619Y-31553333D01*
X146244285Y-31553333D01*
X146088095Y-31514285D01*
X146010000Y-31436190D01*
X145970952Y-31358095D01*
X145970952Y-30772380D02*
X146790952Y-30499047D01*
X145970952Y-30225714D01*
X146361428Y-29952380D02*
X146361428Y-29679047D01*
X146790952Y-29561904D02*
X146790952Y-29952380D01*
X145970952Y-29952380D01*
X145970952Y-29561904D01*
X146790952Y-28741904D02*
X146400476Y-29015238D01*
X146790952Y-29210476D02*
X145970952Y-29210476D01*
X145970952Y-28898095D01*
X146010000Y-28820000D01*
X146049047Y-28780952D01*
X146127142Y-28741904D01*
X146244285Y-28741904D01*
X146322380Y-28780952D01*
X146361428Y-28820000D01*
X146400476Y-28898095D01*
X146400476Y-29210476D01*
X146478571Y-28390476D02*
X146478571Y-27765714D01*
X146361428Y-27101904D02*
X146400476Y-26984761D01*
X146439523Y-26945714D01*
X146517619Y-26906666D01*
X146634761Y-26906666D01*
X146712857Y-26945714D01*
X146751904Y-26984761D01*
X146790952Y-27062857D01*
X146790952Y-27375238D01*
X145970952Y-27375238D01*
X145970952Y-27101904D01*
X146010000Y-27023809D01*
X146049047Y-26984761D01*
X146127142Y-26945714D01*
X146205238Y-26945714D01*
X146283333Y-26984761D01*
X146322380Y-27023809D01*
X146361428Y-27101904D01*
X146361428Y-27375238D01*
X146869047Y-26750476D02*
X146869047Y-26125714D01*
X147103333Y-25696190D02*
X147064285Y-25735238D01*
X146947142Y-25813333D01*
X146869047Y-25852380D01*
X146751904Y-25891428D01*
X146556666Y-25930476D01*
X146400476Y-25930476D01*
X146205238Y-25891428D01*
X146088095Y-25852380D01*
X146010000Y-25813333D01*
X145892857Y-25735238D01*
X145853809Y-25696190D01*
X146790952Y-24954285D02*
X146790952Y-25422857D01*
X146790952Y-25188571D02*
X145970952Y-25188571D01*
X146088095Y-25266666D01*
X146166190Y-25344761D01*
X146205238Y-25422857D01*
X145970952Y-24251428D02*
X145970952Y-24407619D01*
X146010000Y-24485714D01*
X146049047Y-24524761D01*
X146166190Y-24602857D01*
X146322380Y-24641904D01*
X146634761Y-24641904D01*
X146712857Y-24602857D01*
X146751904Y-24563809D01*
X146790952Y-24485714D01*
X146790952Y-24329523D01*
X146751904Y-24251428D01*
X146712857Y-24212380D01*
X146634761Y-24173333D01*
X146439523Y-24173333D01*
X146361428Y-24212380D01*
X146322380Y-24251428D01*
X146283333Y-24329523D01*
X146283333Y-24485714D01*
X146322380Y-24563809D01*
X146361428Y-24602857D01*
X146439523Y-24641904D01*
X146790952Y-23821904D02*
X145970952Y-23821904D01*
X146556666Y-23548571D01*
X145970952Y-23275238D01*
X146790952Y-23275238D01*
X146361428Y-22611428D02*
X146400476Y-22494285D01*
X146439523Y-22455238D01*
X146517619Y-22416190D01*
X146634761Y-22416190D01*
X146712857Y-22455238D01*
X146751904Y-22494285D01*
X146790952Y-22572380D01*
X146790952Y-22884761D01*
X145970952Y-22884761D01*
X145970952Y-22611428D01*
X146010000Y-22533333D01*
X146049047Y-22494285D01*
X146127142Y-22455238D01*
X146205238Y-22455238D01*
X146283333Y-22494285D01*
X146322380Y-22533333D01*
X146361428Y-22611428D01*
X146361428Y-22884761D01*
X147103333Y-22142857D02*
X147064285Y-22103809D01*
X146947142Y-22025714D01*
X146869047Y-21986666D01*
X146751904Y-21947619D01*
X146556666Y-21908571D01*
X146400476Y-21908571D01*
X146205238Y-21947619D01*
X146088095Y-21986666D01*
X146010000Y-22025714D01*
X145892857Y-22103809D01*
X145853809Y-22142857D01*
X137281428Y-15136666D02*
X137671904Y-15136666D01*
X137203333Y-15370952D02*
X137476666Y-14550952D01*
X137750000Y-15370952D01*
X138023333Y-15370952D02*
X138023333Y-14550952D01*
X138491904Y-15370952D01*
X138491904Y-14550952D01*
X138765238Y-14550952D02*
X139233809Y-14550952D01*
X138999523Y-15370952D02*
X138999523Y-14550952D01*
X139507142Y-14941428D02*
X139780476Y-14941428D01*
X139897619Y-15370952D02*
X139507142Y-15370952D01*
X139507142Y-14550952D01*
X139897619Y-14550952D01*
X140249047Y-15370952D02*
X140249047Y-14550952D01*
X140717619Y-15370952D01*
X140717619Y-14550952D01*
X141108095Y-15370952D02*
X141108095Y-14550952D01*
X141576666Y-15370952D01*
X141576666Y-14550952D01*
X141928095Y-15136666D02*
X142318571Y-15136666D01*
X141850000Y-15370952D02*
X142123333Y-14550952D01*
X142396666Y-15370952D01*
D11*
X139175288Y-60949160D02*
X138603860Y-60949160D01*
X138889574Y-60949160D02*
X138889574Y-59949160D01*
X138794336Y-60092018D01*
X138699098Y-60187256D01*
X138603860Y-60234875D01*
X139794336Y-59949160D02*
X139889574Y-59949160D01*
X139984812Y-59996780D01*
X140032431Y-60044399D01*
X140080050Y-60139637D01*
X140127669Y-60330113D01*
X140127669Y-60568208D01*
X140080050Y-60758684D01*
X140032431Y-60853922D01*
X139984812Y-60901541D01*
X139889574Y-60949160D01*
X139794336Y-60949160D01*
X139699098Y-60901541D01*
X139651479Y-60853922D01*
X139603860Y-60758684D01*
X139556240Y-60568208D01*
X139556240Y-60330113D01*
X139603860Y-60139637D01*
X139651479Y-60044399D01*
X139699098Y-59996780D01*
X139794336Y-59949160D01*
X140984812Y-60282494D02*
X140984812Y-60949160D01*
X140556240Y-60282494D02*
X140556240Y-60806303D01*
X140603860Y-60901541D01*
X140699098Y-60949160D01*
X140841955Y-60949160D01*
X140937193Y-60901541D01*
X140984812Y-60853922D01*
X141318145Y-60282494D02*
X141699098Y-60282494D01*
X141461002Y-60949160D02*
X141461002Y-60092018D01*
X141508621Y-59996780D01*
X141603860Y-59949160D01*
X141699098Y-59949160D01*
D14*
X139943145Y-59416065D02*
X139931240Y-59427970D01*
X139895526Y-59439875D01*
X139871717Y-59439875D01*
X139836002Y-59427970D01*
X139812193Y-59404160D01*
X139800288Y-59380351D01*
X139788383Y-59332732D01*
X139788383Y-59297018D01*
X139800288Y-59249399D01*
X139812193Y-59225589D01*
X139836002Y-59201780D01*
X139871717Y-59189875D01*
X139895526Y-59189875D01*
X139931240Y-59201780D01*
X139943145Y-59213684D01*
X140181240Y-59439875D02*
X140038383Y-59439875D01*
X140109812Y-59439875D02*
X140109812Y-59189875D01*
X140086002Y-59225589D01*
X140062193Y-59249399D01*
X140038383Y-59261303D01*
X140395526Y-59189875D02*
X140347907Y-59189875D01*
X140324098Y-59201780D01*
X140312193Y-59213684D01*
X140288383Y-59249399D01*
X140276479Y-59297018D01*
X140276479Y-59392256D01*
X140288383Y-59416065D01*
X140300288Y-59427970D01*
X140324098Y-59439875D01*
X140371717Y-59439875D01*
X140395526Y-59427970D01*
X140407431Y-59416065D01*
X140419336Y-59392256D01*
X140419336Y-59332732D01*
X140407431Y-59308922D01*
X140395526Y-59297018D01*
X140371717Y-59285113D01*
X140324098Y-59285113D01*
X140300288Y-59297018D01*
X140288383Y-59308922D01*
X140276479Y-59332732D01*
D11*
X146706388Y-60951700D02*
X146134960Y-60951700D01*
X146420674Y-60951700D02*
X146420674Y-59951700D01*
X146325436Y-60094558D01*
X146230198Y-60189796D01*
X146134960Y-60237415D01*
X147325436Y-59951700D02*
X147420674Y-59951700D01*
X147515912Y-59999320D01*
X147563531Y-60046939D01*
X147611150Y-60142177D01*
X147658769Y-60332653D01*
X147658769Y-60570748D01*
X147611150Y-60761224D01*
X147563531Y-60856462D01*
X147515912Y-60904081D01*
X147420674Y-60951700D01*
X147325436Y-60951700D01*
X147230198Y-60904081D01*
X147182579Y-60856462D01*
X147134960Y-60761224D01*
X147087340Y-60570748D01*
X147087340Y-60332653D01*
X147134960Y-60142177D01*
X147182579Y-60046939D01*
X147230198Y-59999320D01*
X147325436Y-59951700D01*
X148515912Y-60285034D02*
X148515912Y-60951700D01*
X148087340Y-60285034D02*
X148087340Y-60808843D01*
X148134960Y-60904081D01*
X148230198Y-60951700D01*
X148373055Y-60951700D01*
X148468293Y-60904081D01*
X148515912Y-60856462D01*
X148849245Y-60285034D02*
X149230198Y-60285034D01*
X148992102Y-60951700D02*
X148992102Y-60094558D01*
X149039721Y-59999320D01*
X149134960Y-59951700D01*
X149230198Y-59951700D01*
D14*
X147593293Y-59418605D02*
X147581388Y-59430510D01*
X147545674Y-59442415D01*
X147521864Y-59442415D01*
X147486150Y-59430510D01*
X147462340Y-59406700D01*
X147450436Y-59382891D01*
X147438531Y-59335272D01*
X147438531Y-59299558D01*
X147450436Y-59251939D01*
X147462340Y-59228129D01*
X147486150Y-59204320D01*
X147521864Y-59192415D01*
X147545674Y-59192415D01*
X147581388Y-59204320D01*
X147593293Y-59216224D01*
X147831388Y-59442415D02*
X147688531Y-59442415D01*
X147759960Y-59442415D02*
X147759960Y-59192415D01*
X147736150Y-59228129D01*
X147712340Y-59251939D01*
X147688531Y-59263843D01*
D11*
X132929380Y-67809857D02*
X132929380Y-67714619D01*
X132977000Y-67619380D01*
X133024619Y-67571761D01*
X133119857Y-67524142D01*
X133310333Y-67476523D01*
X133548428Y-67476523D01*
X133738904Y-67524142D01*
X133834142Y-67571761D01*
X133881761Y-67619380D01*
X133929380Y-67714619D01*
X133929380Y-67809857D01*
X133881761Y-67905095D01*
X133834142Y-67952714D01*
X133738904Y-68000333D01*
X133548428Y-68047952D01*
X133310333Y-68047952D01*
X133119857Y-68000333D01*
X133024619Y-67952714D01*
X132977000Y-67905095D01*
X132929380Y-67809857D01*
X133834142Y-67047952D02*
X133881761Y-67000333D01*
X133929380Y-67047952D01*
X133881761Y-67095571D01*
X133834142Y-67047952D01*
X133929380Y-67047952D01*
X133929380Y-66047952D02*
X133929380Y-66619380D01*
X133929380Y-66333666D02*
X132929380Y-66333666D01*
X133072238Y-66428904D01*
X133167476Y-66524142D01*
X133215095Y-66619380D01*
X133262714Y-65190809D02*
X133929380Y-65190809D01*
X133262714Y-65619380D02*
X133786523Y-65619380D01*
X133881761Y-65571761D01*
X133929380Y-65476523D01*
X133929380Y-65333666D01*
X133881761Y-65238428D01*
X133834142Y-65190809D01*
X133405571Y-64381285D02*
X133405571Y-64714619D01*
X133929380Y-64714619D02*
X132929380Y-64714619D01*
X132929380Y-64238428D01*
D14*
X133667885Y-63719466D02*
X133679790Y-63731371D01*
X133691695Y-63767085D01*
X133691695Y-63790895D01*
X133679790Y-63826609D01*
X133655980Y-63850419D01*
X133632171Y-63862323D01*
X133584552Y-63874228D01*
X133548838Y-63874228D01*
X133501219Y-63862323D01*
X133477409Y-63850419D01*
X133453600Y-63826609D01*
X133441695Y-63790895D01*
X133441695Y-63767085D01*
X133453600Y-63731371D01*
X133465504Y-63719466D01*
X133691695Y-63600419D02*
X133691695Y-63552800D01*
X133679790Y-63528990D01*
X133667885Y-63517085D01*
X133632171Y-63493276D01*
X133584552Y-63481371D01*
X133489314Y-63481371D01*
X133465504Y-63493276D01*
X133453600Y-63505180D01*
X133441695Y-63528990D01*
X133441695Y-63576609D01*
X133453600Y-63600419D01*
X133465504Y-63612323D01*
X133489314Y-63624228D01*
X133548838Y-63624228D01*
X133572647Y-63612323D01*
X133584552Y-63600419D01*
X133596457Y-63576609D01*
X133596457Y-63528990D01*
X133584552Y-63505180D01*
X133572647Y-63493276D01*
X133548838Y-63481371D01*
D11*
X156837142Y-23820380D02*
X156360952Y-23820380D01*
X156360952Y-22820380D01*
X157170476Y-23296571D02*
X157503809Y-23296571D01*
X157646666Y-23820380D02*
X157170476Y-23820380D01*
X157170476Y-22820380D01*
X157646666Y-22820380D01*
X158075238Y-23820380D02*
X158075238Y-22820380D01*
X158313333Y-22820380D01*
X158456190Y-22868000D01*
X158551428Y-22963238D01*
X158599047Y-23058476D01*
X158646666Y-23248952D01*
X158646666Y-23391809D01*
X158599047Y-23582285D01*
X158551428Y-23677523D01*
X158456190Y-23772761D01*
X158313333Y-23820380D01*
X158075238Y-23820380D01*
D15*
X154757761Y-23548952D02*
X154757761Y-23148952D01*
X154853000Y-23148952D01*
X154910142Y-23168000D01*
X154948238Y-23206095D01*
X154967285Y-23244190D01*
X154986333Y-23320380D01*
X154986333Y-23377523D01*
X154967285Y-23453714D01*
X154948238Y-23491809D01*
X154910142Y-23529904D01*
X154853000Y-23548952D01*
X154757761Y-23548952D01*
X155138714Y-23187047D02*
X155157761Y-23168000D01*
X155195857Y-23148952D01*
X155291095Y-23148952D01*
X155329190Y-23168000D01*
X155348238Y-23187047D01*
X155367285Y-23225142D01*
X155367285Y-23263238D01*
X155348238Y-23320380D01*
X155119666Y-23548952D01*
X155367285Y-23548952D01*
D13*
X155130952Y-63120476D02*
X155130952Y-63510952D01*
X154310952Y-63510952D01*
X155130952Y-62847142D02*
X154310952Y-62847142D01*
X154896666Y-62573809D01*
X154310952Y-62300476D01*
X155130952Y-62300476D01*
X155130952Y-61480476D02*
X155130952Y-61949047D01*
X155130952Y-61714761D02*
X154310952Y-61714761D01*
X154428095Y-61792857D01*
X154506190Y-61870952D01*
X154545238Y-61949047D01*
X155130952Y-60699523D02*
X155130952Y-61168095D01*
X155130952Y-60933809D02*
X154310952Y-60933809D01*
X154428095Y-61011904D01*
X154506190Y-61090000D01*
X154545238Y-61168095D01*
X155130952Y-59918571D02*
X155130952Y-60387142D01*
X155130952Y-60152857D02*
X154310952Y-60152857D01*
X154428095Y-60230952D01*
X154506190Y-60309047D01*
X154545238Y-60387142D01*
X154310952Y-59645238D02*
X154310952Y-59098571D01*
X155130952Y-59450000D01*
X154818571Y-58786190D02*
X154818571Y-58161428D01*
X154310952Y-57849047D02*
X154310952Y-57341428D01*
X154623333Y-57614761D01*
X154623333Y-57497619D01*
X154662380Y-57419523D01*
X154701428Y-57380476D01*
X154779523Y-57341428D01*
X154974761Y-57341428D01*
X155052857Y-57380476D01*
X155091904Y-57419523D01*
X155130952Y-57497619D01*
X155130952Y-57731904D01*
X155091904Y-57810000D01*
X155052857Y-57849047D01*
X155052857Y-56990000D02*
X155091904Y-56950952D01*
X155130952Y-56990000D01*
X155091904Y-57029047D01*
X155052857Y-56990000D01*
X155130952Y-56990000D01*
X154310952Y-56677619D02*
X154310952Y-56170000D01*
X154623333Y-56443333D01*
X154623333Y-56326190D01*
X154662380Y-56248095D01*
X154701428Y-56209047D01*
X154779523Y-56170000D01*
X154974761Y-56170000D01*
X155052857Y-56209047D01*
X155091904Y-56248095D01*
X155130952Y-56326190D01*
X155130952Y-56560476D01*
X155091904Y-56638571D01*
X155052857Y-56677619D01*
X152325238Y-59470952D02*
X152325238Y-60134761D01*
X152364285Y-60212857D01*
X152403333Y-60251904D01*
X152481428Y-60290952D01*
X152637619Y-60290952D01*
X152715714Y-60251904D01*
X152754761Y-60212857D01*
X152793809Y-60134761D01*
X152793809Y-59470952D01*
X153145238Y-59549047D02*
X153184285Y-59510000D01*
X153262380Y-59470952D01*
X153457619Y-59470952D01*
X153535714Y-59510000D01*
X153574761Y-59549047D01*
X153613809Y-59627142D01*
X153613809Y-59705238D01*
X153574761Y-59822380D01*
X153106190Y-60290952D01*
X153613809Y-60290952D01*
D11*
X155805333Y-22423380D02*
X155233904Y-22423380D01*
X155519619Y-22423380D02*
X155519619Y-21423380D01*
X155424380Y-21566238D01*
X155329142Y-21661476D01*
X155233904Y-21709095D01*
X156424380Y-21423380D02*
X156519619Y-21423380D01*
X156614857Y-21471000D01*
X156662476Y-21518619D01*
X156710095Y-21613857D01*
X156757714Y-21804333D01*
X156757714Y-22042428D01*
X156710095Y-22232904D01*
X156662476Y-22328142D01*
X156614857Y-22375761D01*
X156519619Y-22423380D01*
X156424380Y-22423380D01*
X156329142Y-22375761D01*
X156281523Y-22328142D01*
X156233904Y-22232904D01*
X156186285Y-22042428D01*
X156186285Y-21804333D01*
X156233904Y-21613857D01*
X156281523Y-21518619D01*
X156329142Y-21471000D01*
X156424380Y-21423380D01*
X157376761Y-21423380D02*
X157472000Y-21423380D01*
X157567238Y-21471000D01*
X157614857Y-21518619D01*
X157662476Y-21613857D01*
X157710095Y-21804333D01*
X157710095Y-22042428D01*
X157662476Y-22232904D01*
X157614857Y-22328142D01*
X157567238Y-22375761D01*
X157472000Y-22423380D01*
X157376761Y-22423380D01*
X157281523Y-22375761D01*
X157233904Y-22328142D01*
X157186285Y-22232904D01*
X157138666Y-22042428D01*
X157138666Y-21804333D01*
X157186285Y-21613857D01*
X157233904Y-21518619D01*
X157281523Y-21471000D01*
X157376761Y-21423380D01*
X158710095Y-22423380D02*
X158376761Y-21947190D01*
X158138666Y-22423380D02*
X158138666Y-21423380D01*
X158519619Y-21423380D01*
X158614857Y-21471000D01*
X158662476Y-21518619D01*
X158710095Y-21613857D01*
X158710095Y-21756714D01*
X158662476Y-21851952D01*
X158614857Y-21899571D01*
X158519619Y-21947190D01*
X158138666Y-21947190D01*
D14*
X154779285Y-22147595D02*
X154695952Y-22028547D01*
X154636428Y-22147595D02*
X154636428Y-21897595D01*
X154731666Y-21897595D01*
X154755476Y-21909500D01*
X154767380Y-21921404D01*
X154779285Y-21945214D01*
X154779285Y-21980928D01*
X154767380Y-22004738D01*
X154755476Y-22016642D01*
X154731666Y-22028547D01*
X154636428Y-22028547D01*
X155017380Y-22147595D02*
X154874523Y-22147595D01*
X154945952Y-22147595D02*
X154945952Y-21897595D01*
X154922142Y-21933309D01*
X154898333Y-21957119D01*
X154874523Y-21969023D01*
X155100714Y-21897595D02*
X155255476Y-21897595D01*
X155172142Y-21992833D01*
X155207857Y-21992833D01*
X155231666Y-22004738D01*
X155243571Y-22016642D01*
X155255476Y-22040452D01*
X155255476Y-22099976D01*
X155243571Y-22123785D01*
X155231666Y-22135690D01*
X155207857Y-22147595D01*
X155136428Y-22147595D01*
X155112619Y-22135690D01*
X155100714Y-22123785D01*
D11*
X136480595Y-62242880D02*
X136480595Y-61242880D01*
X136718690Y-61242880D01*
X136861547Y-61290500D01*
X136956785Y-61385738D01*
X137004404Y-61480976D01*
X137052023Y-61671452D01*
X137052023Y-61814309D01*
X137004404Y-62004785D01*
X136956785Y-62100023D01*
X136861547Y-62195261D01*
X136718690Y-62242880D01*
X136480595Y-62242880D01*
X136104404Y-65992880D02*
X136104404Y-64992880D01*
X136342500Y-64992880D01*
X136485357Y-65040500D01*
X136580595Y-65135738D01*
X136628214Y-65230976D01*
X136675833Y-65421452D01*
X136675833Y-65564309D01*
X136628214Y-65754785D01*
X136580595Y-65850023D01*
X136485357Y-65945261D01*
X136342500Y-65992880D01*
X136104404Y-65992880D01*
X137532976Y-65326214D02*
X137532976Y-65992880D01*
X137294880Y-64945261D02*
X137056785Y-65659547D01*
X137675833Y-65659547D01*
X156964095Y-25598380D02*
X156964095Y-24598380D01*
X157202190Y-24598380D01*
X157345047Y-24646000D01*
X157440285Y-24741238D01*
X157487904Y-24836476D01*
X157535523Y-25026952D01*
X157535523Y-25169809D01*
X157487904Y-25360285D01*
X157440285Y-25455523D01*
X157345047Y-25550761D01*
X157202190Y-25598380D01*
X156964095Y-25598380D01*
X158646904Y-25598380D02*
X158646904Y-24598380D01*
X158885000Y-24598380D01*
X159027857Y-24646000D01*
X159123095Y-24741238D01*
X159170714Y-24836476D01*
X159218333Y-25026952D01*
X159218333Y-25169809D01*
X159170714Y-25360285D01*
X159123095Y-25455523D01*
X159027857Y-25550761D01*
X158885000Y-25598380D01*
X158646904Y-25598380D01*
X159551666Y-24598380D02*
X160170714Y-24598380D01*
X159837380Y-24979333D01*
X159980238Y-24979333D01*
X160075476Y-25026952D01*
X160123095Y-25074571D01*
X160170714Y-25169809D01*
X160170714Y-25407904D01*
X160123095Y-25503142D01*
X160075476Y-25550761D01*
X159980238Y-25598380D01*
X159694523Y-25598380D01*
X159599285Y-25550761D01*
X159551666Y-25503142D01*
X148050666Y-42505380D02*
X148622095Y-42505380D01*
X148336380Y-43505380D02*
X148336380Y-42505380D01*
X149336380Y-43457761D02*
X149241142Y-43505380D01*
X149050666Y-43505380D01*
X148955428Y-43457761D01*
X148907809Y-43362523D01*
X148907809Y-42981571D01*
X148955428Y-42886333D01*
X149050666Y-42838714D01*
X149241142Y-42838714D01*
X149336380Y-42886333D01*
X149384000Y-42981571D01*
X149384000Y-43076809D01*
X148907809Y-43172047D01*
X149764952Y-43457761D02*
X149860190Y-43505380D01*
X150050666Y-43505380D01*
X150145904Y-43457761D01*
X150193523Y-43362523D01*
X150193523Y-43314904D01*
X150145904Y-43219666D01*
X150050666Y-43172047D01*
X149907809Y-43172047D01*
X149812571Y-43124428D01*
X149764952Y-43029190D01*
X149764952Y-42981571D01*
X149812571Y-42886333D01*
X149907809Y-42838714D01*
X150050666Y-42838714D01*
X150145904Y-42886333D01*
X150479238Y-42838714D02*
X150860190Y-42838714D01*
X150622095Y-42505380D02*
X150622095Y-43362523D01*
X150669714Y-43457761D01*
X150764952Y-43505380D01*
X150860190Y-43505380D01*
X151193523Y-43505380D02*
X151193523Y-42505380D01*
X151574476Y-42505380D01*
X151669714Y-42553000D01*
X151717333Y-42600619D01*
X151764952Y-42695857D01*
X151764952Y-42838714D01*
X151717333Y-42933952D01*
X151669714Y-42981571D01*
X151574476Y-43029190D01*
X151193523Y-43029190D01*
X152336380Y-43505380D02*
X152241142Y-43457761D01*
X152193523Y-43410142D01*
X152145904Y-43314904D01*
X152145904Y-43029190D01*
X152193523Y-42933952D01*
X152241142Y-42886333D01*
X152336380Y-42838714D01*
X152479238Y-42838714D01*
X152574476Y-42886333D01*
X152622095Y-42933952D01*
X152669714Y-43029190D01*
X152669714Y-43314904D01*
X152622095Y-43410142D01*
X152574476Y-43457761D01*
X152479238Y-43505380D01*
X152336380Y-43505380D01*
X153098285Y-43505380D02*
X153098285Y-42838714D01*
X153098285Y-42505380D02*
X153050666Y-42553000D01*
X153098285Y-42600619D01*
X153145904Y-42553000D01*
X153098285Y-42505380D01*
X153098285Y-42600619D01*
X153574476Y-42838714D02*
X153574476Y-43505380D01*
X153574476Y-42933952D02*
X153622095Y-42886333D01*
X153717333Y-42838714D01*
X153860190Y-42838714D01*
X153955428Y-42886333D01*
X154003047Y-42981571D01*
X154003047Y-43505380D01*
X154336380Y-42838714D02*
X154717333Y-42838714D01*
X154479238Y-42505380D02*
X154479238Y-43362523D01*
X154526857Y-43457761D01*
X154622095Y-43505380D01*
X154717333Y-43505380D01*
X150122095Y-42506380D02*
X150693523Y-42506380D01*
X150407809Y-43506380D02*
X150407809Y-42506380D01*
X151026857Y-43506380D02*
X151026857Y-42506380D01*
X151407809Y-42506380D01*
X151503047Y-42554000D01*
X151550666Y-42601619D01*
X151598285Y-42696857D01*
X151598285Y-42839714D01*
X151550666Y-42934952D01*
X151503047Y-42982571D01*
X151407809Y-43030190D01*
X151026857Y-43030190D01*
X152550666Y-43506380D02*
X151979238Y-43506380D01*
X152264952Y-43506380D02*
X152264952Y-42506380D01*
X152169714Y-42649238D01*
X152074476Y-42744476D01*
X151979238Y-42792095D01*
X154392380Y-40993333D02*
X155106666Y-40993333D01*
X155249523Y-41040952D01*
X155344761Y-41136190D01*
X155392380Y-41279047D01*
X155392380Y-41374285D01*
X154487619Y-40564761D02*
X154440000Y-40517142D01*
X154392380Y-40421904D01*
X154392380Y-40183809D01*
X154440000Y-40088571D01*
X154487619Y-40040952D01*
X154582857Y-39993333D01*
X154678095Y-39993333D01*
X154820952Y-40040952D01*
X155392380Y-40612380D01*
X155392380Y-39993333D01*
X134072380Y-40993333D02*
X134786666Y-40993333D01*
X134929523Y-41040952D01*
X135024761Y-41136190D01*
X135072380Y-41279047D01*
X135072380Y-41374285D01*
X134072380Y-40612380D02*
X134072380Y-39993333D01*
X134453333Y-40326666D01*
X134453333Y-40183809D01*
X134500952Y-40088571D01*
X134548571Y-40040952D01*
X134643809Y-39993333D01*
X134881904Y-39993333D01*
X134977142Y-40040952D01*
X135024761Y-40088571D01*
X135072380Y-40183809D01*
X135072380Y-40469523D01*
X135024761Y-40564761D01*
X134977142Y-40612380D01*
X135342380Y-40993333D02*
X136056666Y-40993333D01*
X136199523Y-41040952D01*
X136294761Y-41136190D01*
X136342380Y-41279047D01*
X136342380Y-41374285D01*
X135342380Y-40612380D02*
X135342380Y-39993333D01*
X135723333Y-40326666D01*
X135723333Y-40183809D01*
X135770952Y-40088571D01*
X135818571Y-40040952D01*
X135913809Y-39993333D01*
X136151904Y-39993333D01*
X136247142Y-40040952D01*
X136294761Y-40088571D01*
X136342380Y-40183809D01*
X136342380Y-40469523D01*
X136294761Y-40564761D01*
X136247142Y-40612380D01*
X131354761Y-23162380D02*
X130783333Y-23162380D01*
X131069047Y-23162380D02*
X131069047Y-22162380D01*
X130973809Y-22305238D01*
X130878571Y-22400476D01*
X130783333Y-22448095D01*
X131783333Y-22495714D02*
X131783333Y-23162380D01*
X131783333Y-22590952D02*
X131830952Y-22543333D01*
X131926190Y-22495714D01*
X132069047Y-22495714D01*
X132164285Y-22543333D01*
X132211904Y-22638571D01*
X132211904Y-23162380D01*
X133021428Y-22638571D02*
X132688095Y-22638571D01*
X132688095Y-23162380D02*
X132688095Y-22162380D01*
X133164285Y-22162380D01*
D14*
X131789285Y-23969285D02*
X131777380Y-23981190D01*
X131741666Y-23993095D01*
X131717857Y-23993095D01*
X131682142Y-23981190D01*
X131658333Y-23957380D01*
X131646428Y-23933571D01*
X131634523Y-23885952D01*
X131634523Y-23850238D01*
X131646428Y-23802619D01*
X131658333Y-23778809D01*
X131682142Y-23755000D01*
X131717857Y-23743095D01*
X131741666Y-23743095D01*
X131777380Y-23755000D01*
X131789285Y-23766904D01*
X132027380Y-23993095D02*
X131884523Y-23993095D01*
X131955952Y-23993095D02*
X131955952Y-23743095D01*
X131932142Y-23778809D01*
X131908333Y-23802619D01*
X131884523Y-23814523D01*
X132110714Y-23743095D02*
X132265476Y-23743095D01*
X132182142Y-23838333D01*
X132217857Y-23838333D01*
X132241666Y-23850238D01*
X132253571Y-23862142D01*
X132265476Y-23885952D01*
X132265476Y-23945476D01*
X132253571Y-23969285D01*
X132241666Y-23981190D01*
X132217857Y-23993095D01*
X132146428Y-23993095D01*
X132122619Y-23981190D01*
X132110714Y-23969285D01*
D11*
X156884761Y-20010380D02*
X156313333Y-20010380D01*
X156599047Y-20010380D02*
X156599047Y-19010380D01*
X156503809Y-19153238D01*
X156408571Y-19248476D01*
X156313333Y-19296095D01*
X157265714Y-19105619D02*
X157313333Y-19058000D01*
X157408571Y-19010380D01*
X157646666Y-19010380D01*
X157741904Y-19058000D01*
X157789523Y-19105619D01*
X157837142Y-19200857D01*
X157837142Y-19296095D01*
X157789523Y-19438952D01*
X157218095Y-20010380D01*
X157837142Y-20010380D01*
X158265714Y-20010380D02*
X158265714Y-19010380D01*
X158360952Y-19629428D02*
X158646666Y-20010380D01*
X158646666Y-19343714D02*
X158265714Y-19724666D01*
D14*
X154779285Y-20814095D02*
X154695952Y-20695047D01*
X154636428Y-20814095D02*
X154636428Y-20564095D01*
X154731666Y-20564095D01*
X154755476Y-20576000D01*
X154767380Y-20587904D01*
X154779285Y-20611714D01*
X154779285Y-20647428D01*
X154767380Y-20671238D01*
X154755476Y-20683142D01*
X154731666Y-20695047D01*
X154636428Y-20695047D01*
X155017380Y-20814095D02*
X154874523Y-20814095D01*
X154945952Y-20814095D02*
X154945952Y-20564095D01*
X154922142Y-20599809D01*
X154898333Y-20623619D01*
X154874523Y-20635523D01*
X155255476Y-20814095D02*
X155112619Y-20814095D01*
X155184047Y-20814095D02*
X155184047Y-20564095D01*
X155160238Y-20599809D01*
X155136428Y-20623619D01*
X155112619Y-20635523D01*
D13*
X141782857Y-55840952D02*
X142251428Y-55840952D01*
X142017142Y-56660952D02*
X142017142Y-55840952D01*
X142993333Y-56582857D02*
X142954285Y-56621904D01*
X142837142Y-56660952D01*
X142759047Y-56660952D01*
X142641904Y-56621904D01*
X142563809Y-56543809D01*
X142524761Y-56465714D01*
X142485714Y-56309523D01*
X142485714Y-56192380D01*
X142524761Y-56036190D01*
X142563809Y-55958095D01*
X142641904Y-55880000D01*
X142759047Y-55840952D01*
X142837142Y-55840952D01*
X142954285Y-55880000D01*
X142993333Y-55919047D01*
X143344761Y-56660952D02*
X143344761Y-55840952D01*
X143618095Y-56426666D01*
X143891428Y-55840952D01*
X143891428Y-56660952D01*
X144164761Y-55840952D02*
X144633333Y-55840952D01*
X144399047Y-56660952D02*
X144399047Y-55840952D01*
X145336190Y-56660952D02*
X144867619Y-56660952D01*
X145101904Y-56660952D02*
X145101904Y-55840952D01*
X145023809Y-55958095D01*
X144945714Y-56036190D01*
X144867619Y-56075238D01*
X146117142Y-56660952D02*
X145648571Y-56660952D01*
X145882857Y-56660952D02*
X145882857Y-55840952D01*
X145804761Y-55958095D01*
X145726666Y-56036190D01*
X145648571Y-56075238D01*
X146624761Y-55840952D02*
X146702857Y-55840952D01*
X146780952Y-55880000D01*
X146820000Y-55919047D01*
X146859047Y-55997142D01*
X146898095Y-56153333D01*
X146898095Y-56348571D01*
X146859047Y-56504761D01*
X146820000Y-56582857D01*
X146780952Y-56621904D01*
X146702857Y-56660952D01*
X146624761Y-56660952D01*
X146546666Y-56621904D01*
X146507619Y-56582857D01*
X146468571Y-56504761D01*
X146429523Y-56348571D01*
X146429523Y-56153333D01*
X146468571Y-55997142D01*
X146507619Y-55919047D01*
X146546666Y-55880000D01*
X146624761Y-55840952D01*
X147679047Y-56660952D02*
X147210476Y-56660952D01*
X147444761Y-56660952D02*
X147444761Y-55840952D01*
X147366666Y-55958095D01*
X147288571Y-56036190D01*
X147210476Y-56075238D01*
X144295238Y-57130952D02*
X144295238Y-57794761D01*
X144334285Y-57872857D01*
X144373333Y-57911904D01*
X144451428Y-57950952D01*
X144607619Y-57950952D01*
X144685714Y-57911904D01*
X144724761Y-57872857D01*
X144763809Y-57794761D01*
X144763809Y-57130952D01*
X145583809Y-57950952D02*
X145115238Y-57950952D01*
X145349523Y-57950952D02*
X145349523Y-57130952D01*
X145271428Y-57248095D01*
X145193333Y-57326190D01*
X145115238Y-57365238D01*
D11*
X137541095Y-51601714D02*
X137541095Y-52268380D01*
X137303000Y-51220761D02*
X137064904Y-51935047D01*
X137683952Y-51935047D01*
X137969666Y-51268380D02*
X138636333Y-51268380D01*
X138207761Y-52268380D01*
X139207761Y-51268380D02*
X139303000Y-51268380D01*
X139398238Y-51316000D01*
X139445857Y-51363619D01*
X139493476Y-51458857D01*
X139541095Y-51649333D01*
X139541095Y-51887428D01*
X139493476Y-52077904D01*
X139445857Y-52173142D01*
X139398238Y-52220761D01*
X139303000Y-52268380D01*
X139207761Y-52268380D01*
X139112523Y-52220761D01*
X139064904Y-52173142D01*
X139017285Y-52077904D01*
X138969666Y-51887428D01*
X138969666Y-51649333D01*
X139017285Y-51458857D01*
X139064904Y-51363619D01*
X139112523Y-51316000D01*
X139207761Y-51268380D01*
D14*
X135530833Y-51802095D02*
X135447500Y-51683047D01*
X135387976Y-51802095D02*
X135387976Y-51552095D01*
X135483214Y-51552095D01*
X135507023Y-51564000D01*
X135518928Y-51575904D01*
X135530833Y-51599714D01*
X135530833Y-51635428D01*
X135518928Y-51659238D01*
X135507023Y-51671142D01*
X135483214Y-51683047D01*
X135387976Y-51683047D01*
X135649880Y-51802095D02*
X135697500Y-51802095D01*
X135721309Y-51790190D01*
X135733214Y-51778285D01*
X135757023Y-51742571D01*
X135768928Y-51694952D01*
X135768928Y-51599714D01*
X135757023Y-51575904D01*
X135745119Y-51564000D01*
X135721309Y-51552095D01*
X135673690Y-51552095D01*
X135649880Y-51564000D01*
X135637976Y-51575904D01*
X135626071Y-51599714D01*
X135626071Y-51659238D01*
X135637976Y-51683047D01*
X135649880Y-51694952D01*
X135673690Y-51706857D01*
X135721309Y-51706857D01*
X135745119Y-51694952D01*
X135757023Y-51683047D01*
X135768928Y-51659238D01*
D11*
X130878571Y-26365714D02*
X130878571Y-27032380D01*
X130640476Y-25984761D02*
X130402380Y-26699047D01*
X131021428Y-26699047D01*
X131307142Y-26032380D02*
X131973809Y-26032380D01*
X131545238Y-27032380D01*
X132545238Y-26032380D02*
X132640476Y-26032380D01*
X132735714Y-26080000D01*
X132783333Y-26127619D01*
X132830952Y-26222857D01*
X132878571Y-26413333D01*
X132878571Y-26651428D01*
X132830952Y-26841904D01*
X132783333Y-26937142D01*
X132735714Y-26984761D01*
X132640476Y-27032380D01*
X132545238Y-27032380D01*
X132450000Y-26984761D01*
X132402380Y-26937142D01*
X132354761Y-26841904D01*
X132307142Y-26651428D01*
X132307142Y-26413333D01*
X132354761Y-26222857D01*
X132402380Y-26127619D01*
X132450000Y-26080000D01*
X132545238Y-26032380D01*
X133307142Y-27032380D02*
X133307142Y-26365714D01*
X133307142Y-26556190D02*
X133354761Y-26460952D01*
X133402380Y-26413333D01*
X133497619Y-26365714D01*
X133592857Y-26365714D01*
D14*
X131789285Y-25523095D02*
X131705952Y-25404047D01*
X131646428Y-25523095D02*
X131646428Y-25273095D01*
X131741666Y-25273095D01*
X131765476Y-25285000D01*
X131777380Y-25296904D01*
X131789285Y-25320714D01*
X131789285Y-25356428D01*
X131777380Y-25380238D01*
X131765476Y-25392142D01*
X131741666Y-25404047D01*
X131646428Y-25404047D01*
X132027380Y-25523095D02*
X131884523Y-25523095D01*
X131955952Y-25523095D02*
X131955952Y-25273095D01*
X131932142Y-25308809D01*
X131908333Y-25332619D01*
X131884523Y-25344523D01*
X132122619Y-25296904D02*
X132134523Y-25285000D01*
X132158333Y-25273095D01*
X132217857Y-25273095D01*
X132241666Y-25285000D01*
X132253571Y-25296904D01*
X132265476Y-25320714D01*
X132265476Y-25344523D01*
X132253571Y-25380238D01*
X132110714Y-25523095D01*
X132265476Y-25523095D01*
D11*
X131865714Y-66420904D02*
X132532380Y-66420904D01*
X131484761Y-66659000D02*
X132199047Y-66897095D01*
X132199047Y-66278047D01*
X131532380Y-65992333D02*
X131532380Y-65325666D01*
X132532380Y-65754238D01*
X131532380Y-64754238D02*
X131532380Y-64659000D01*
X131580000Y-64563761D01*
X131627619Y-64516142D01*
X131722857Y-64468523D01*
X131913333Y-64420904D01*
X132151428Y-64420904D01*
X132341904Y-64468523D01*
X132437142Y-64516142D01*
X132484761Y-64563761D01*
X132532380Y-64659000D01*
X132532380Y-64754238D01*
X132484761Y-64849476D01*
X132437142Y-64897095D01*
X132341904Y-64944714D01*
X132151428Y-64992333D01*
X131913333Y-64992333D01*
X131722857Y-64944714D01*
X131627619Y-64897095D01*
X131580000Y-64849476D01*
X131532380Y-64754238D01*
D14*
X132142295Y-63863914D02*
X132023247Y-63947247D01*
X132142295Y-64006771D02*
X131892295Y-64006771D01*
X131892295Y-63911533D01*
X131904200Y-63887723D01*
X131916104Y-63875819D01*
X131939914Y-63863914D01*
X131975628Y-63863914D01*
X131999438Y-63875819D01*
X132011342Y-63887723D01*
X132023247Y-63911533D01*
X132023247Y-64006771D01*
X132142295Y-63625819D02*
X132142295Y-63768676D01*
X132142295Y-63697247D02*
X131892295Y-63697247D01*
X131928009Y-63721057D01*
X131951819Y-63744866D01*
X131963723Y-63768676D01*
X131892295Y-63471057D02*
X131892295Y-63447247D01*
X131904200Y-63423438D01*
X131916104Y-63411533D01*
X131939914Y-63399628D01*
X131987533Y-63387723D01*
X132047057Y-63387723D01*
X132094676Y-63399628D01*
X132118485Y-63411533D01*
X132130390Y-63423438D01*
X132142295Y-63447247D01*
X132142295Y-63471057D01*
X132130390Y-63494866D01*
X132118485Y-63506771D01*
X132094676Y-63518676D01*
X132047057Y-63530580D01*
X131987533Y-63530580D01*
X131939914Y-63518676D01*
X131916104Y-63506771D01*
X131904200Y-63494866D01*
X131892295Y-63471057D01*
D11*
X137961761Y-46299380D02*
X137390333Y-46299380D01*
X137676047Y-46299380D02*
X137676047Y-45299380D01*
X137580809Y-45442238D01*
X137485571Y-45537476D01*
X137390333Y-45585095D01*
X138580809Y-45299380D02*
X138676047Y-45299380D01*
X138771285Y-45347000D01*
X138818904Y-45394619D01*
X138866523Y-45489857D01*
X138914142Y-45680333D01*
X138914142Y-45918428D01*
X138866523Y-46108904D01*
X138818904Y-46204142D01*
X138771285Y-46251761D01*
X138676047Y-46299380D01*
X138580809Y-46299380D01*
X138485571Y-46251761D01*
X138437952Y-46204142D01*
X138390333Y-46108904D01*
X138342714Y-45918428D01*
X138342714Y-45680333D01*
X138390333Y-45489857D01*
X138437952Y-45394619D01*
X138485571Y-45347000D01*
X138580809Y-45299380D01*
X139342714Y-46299380D02*
X139342714Y-45299380D01*
X139437952Y-45918428D02*
X139723666Y-46299380D01*
X139723666Y-45632714D02*
X139342714Y-46013666D01*
D14*
X135530833Y-46087095D02*
X135447500Y-45968047D01*
X135387976Y-46087095D02*
X135387976Y-45837095D01*
X135483214Y-45837095D01*
X135507023Y-45849000D01*
X135518928Y-45860904D01*
X135530833Y-45884714D01*
X135530833Y-45920428D01*
X135518928Y-45944238D01*
X135507023Y-45956142D01*
X135483214Y-45968047D01*
X135387976Y-45968047D01*
X135673690Y-45944238D02*
X135649880Y-45932333D01*
X135637976Y-45920428D01*
X135626071Y-45896619D01*
X135626071Y-45884714D01*
X135637976Y-45860904D01*
X135649880Y-45849000D01*
X135673690Y-45837095D01*
X135721309Y-45837095D01*
X135745119Y-45849000D01*
X135757023Y-45860904D01*
X135768928Y-45884714D01*
X135768928Y-45896619D01*
X135757023Y-45920428D01*
X135745119Y-45932333D01*
X135721309Y-45944238D01*
X135673690Y-45944238D01*
X135649880Y-45956142D01*
X135637976Y-45968047D01*
X135626071Y-45991857D01*
X135626071Y-46039476D01*
X135637976Y-46063285D01*
X135649880Y-46075190D01*
X135673690Y-46087095D01*
X135721309Y-46087095D01*
X135745119Y-46075190D01*
X135757023Y-46063285D01*
X135768928Y-46039476D01*
X135768928Y-45991857D01*
X135757023Y-45968047D01*
X135745119Y-45956142D01*
X135721309Y-45944238D01*
D11*
X137961761Y-45156380D02*
X137390333Y-45156380D01*
X137676047Y-45156380D02*
X137676047Y-44156380D01*
X137580809Y-44299238D01*
X137485571Y-44394476D01*
X137390333Y-44442095D01*
X138580809Y-44156380D02*
X138676047Y-44156380D01*
X138771285Y-44204000D01*
X138818904Y-44251619D01*
X138866523Y-44346857D01*
X138914142Y-44537333D01*
X138914142Y-44775428D01*
X138866523Y-44965904D01*
X138818904Y-45061142D01*
X138771285Y-45108761D01*
X138676047Y-45156380D01*
X138580809Y-45156380D01*
X138485571Y-45108761D01*
X138437952Y-45061142D01*
X138390333Y-44965904D01*
X138342714Y-44775428D01*
X138342714Y-44537333D01*
X138390333Y-44346857D01*
X138437952Y-44251619D01*
X138485571Y-44204000D01*
X138580809Y-44156380D01*
X139342714Y-45156380D02*
X139342714Y-44156380D01*
X139437952Y-44775428D02*
X139723666Y-45156380D01*
X139723666Y-44489714D02*
X139342714Y-44870666D01*
D14*
X135553833Y-44944095D02*
X135470500Y-44825047D01*
X135410976Y-44944095D02*
X135410976Y-44694095D01*
X135506214Y-44694095D01*
X135530023Y-44706000D01*
X135541928Y-44717904D01*
X135553833Y-44741714D01*
X135553833Y-44777428D01*
X135541928Y-44801238D01*
X135530023Y-44813142D01*
X135506214Y-44825047D01*
X135410976Y-44825047D01*
X135637166Y-44694095D02*
X135803833Y-44694095D01*
X135696690Y-44944095D01*
D11*
X148502761Y-46934380D02*
X147931333Y-46934380D01*
X148217047Y-46934380D02*
X148217047Y-45934380D01*
X148121809Y-46077238D01*
X148026571Y-46172476D01*
X147931333Y-46220095D01*
X149121809Y-45934380D02*
X149217047Y-45934380D01*
X149312285Y-45982000D01*
X149359904Y-46029619D01*
X149407523Y-46124857D01*
X149455142Y-46315333D01*
X149455142Y-46553428D01*
X149407523Y-46743904D01*
X149359904Y-46839142D01*
X149312285Y-46886761D01*
X149217047Y-46934380D01*
X149121809Y-46934380D01*
X149026571Y-46886761D01*
X148978952Y-46839142D01*
X148931333Y-46743904D01*
X148883714Y-46553428D01*
X148883714Y-46315333D01*
X148931333Y-46124857D01*
X148978952Y-46029619D01*
X149026571Y-45982000D01*
X149121809Y-45934380D01*
X149883714Y-46934380D02*
X149883714Y-45934380D01*
X149978952Y-46553428D02*
X150264666Y-46934380D01*
X150264666Y-46267714D02*
X149883714Y-46648666D01*
D14*
X151342333Y-46595095D02*
X151259000Y-46476047D01*
X151199476Y-46595095D02*
X151199476Y-46345095D01*
X151294714Y-46345095D01*
X151318523Y-46357000D01*
X151330428Y-46368904D01*
X151342333Y-46392714D01*
X151342333Y-46428428D01*
X151330428Y-46452238D01*
X151318523Y-46464142D01*
X151294714Y-46476047D01*
X151199476Y-46476047D01*
X151556619Y-46345095D02*
X151509000Y-46345095D01*
X151485190Y-46357000D01*
X151473285Y-46368904D01*
X151449476Y-46404619D01*
X151437571Y-46452238D01*
X151437571Y-46547476D01*
X151449476Y-46571285D01*
X151461380Y-46583190D01*
X151485190Y-46595095D01*
X151532809Y-46595095D01*
X151556619Y-46583190D01*
X151568523Y-46571285D01*
X151580428Y-46547476D01*
X151580428Y-46487952D01*
X151568523Y-46464142D01*
X151556619Y-46452238D01*
X151532809Y-46440333D01*
X151485190Y-46440333D01*
X151461380Y-46452238D01*
X151449476Y-46464142D01*
X151437571Y-46487952D01*
D11*
X148883761Y-50363380D02*
X148312333Y-50363380D01*
X148598047Y-50363380D02*
X148598047Y-49363380D01*
X148502809Y-49506238D01*
X148407571Y-49601476D01*
X148312333Y-49649095D01*
X149502809Y-49363380D02*
X149598047Y-49363380D01*
X149693285Y-49411000D01*
X149740904Y-49458619D01*
X149788523Y-49553857D01*
X149836142Y-49744333D01*
X149836142Y-49982428D01*
X149788523Y-50172904D01*
X149740904Y-50268142D01*
X149693285Y-50315761D01*
X149598047Y-50363380D01*
X149502809Y-50363380D01*
X149407571Y-50315761D01*
X149359952Y-50268142D01*
X149312333Y-50172904D01*
X149264714Y-49982428D01*
X149264714Y-49744333D01*
X149312333Y-49553857D01*
X149359952Y-49458619D01*
X149407571Y-49411000D01*
X149502809Y-49363380D01*
X150264714Y-50363380D02*
X150264714Y-49363380D01*
X150359952Y-49982428D02*
X150645666Y-50363380D01*
X150645666Y-49696714D02*
X150264714Y-50077666D01*
D14*
X151342333Y-50024095D02*
X151259000Y-49905047D01*
X151199476Y-50024095D02*
X151199476Y-49774095D01*
X151294714Y-49774095D01*
X151318523Y-49786000D01*
X151330428Y-49797904D01*
X151342333Y-49821714D01*
X151342333Y-49857428D01*
X151330428Y-49881238D01*
X151318523Y-49893142D01*
X151294714Y-49905047D01*
X151199476Y-49905047D01*
X151568523Y-49774095D02*
X151449476Y-49774095D01*
X151437571Y-49893142D01*
X151449476Y-49881238D01*
X151473285Y-49869333D01*
X151532809Y-49869333D01*
X151556619Y-49881238D01*
X151568523Y-49893142D01*
X151580428Y-49916952D01*
X151580428Y-49976476D01*
X151568523Y-50000285D01*
X151556619Y-50012190D01*
X151532809Y-50024095D01*
X151473285Y-50024095D01*
X151449476Y-50012190D01*
X151437571Y-50000285D01*
D11*
X148883761Y-49093380D02*
X148312333Y-49093380D01*
X148598047Y-49093380D02*
X148598047Y-48093380D01*
X148502809Y-48236238D01*
X148407571Y-48331476D01*
X148312333Y-48379095D01*
X149502809Y-48093380D02*
X149598047Y-48093380D01*
X149693285Y-48141000D01*
X149740904Y-48188619D01*
X149788523Y-48283857D01*
X149836142Y-48474333D01*
X149836142Y-48712428D01*
X149788523Y-48902904D01*
X149740904Y-48998142D01*
X149693285Y-49045761D01*
X149598047Y-49093380D01*
X149502809Y-49093380D01*
X149407571Y-49045761D01*
X149359952Y-48998142D01*
X149312333Y-48902904D01*
X149264714Y-48712428D01*
X149264714Y-48474333D01*
X149312333Y-48283857D01*
X149359952Y-48188619D01*
X149407571Y-48141000D01*
X149502809Y-48093380D01*
X150264714Y-49093380D02*
X150264714Y-48093380D01*
X150359952Y-48712428D02*
X150645666Y-49093380D01*
X150645666Y-48426714D02*
X150264714Y-48807666D01*
D14*
X151342333Y-48881095D02*
X151259000Y-48762047D01*
X151199476Y-48881095D02*
X151199476Y-48631095D01*
X151294714Y-48631095D01*
X151318523Y-48643000D01*
X151330428Y-48654904D01*
X151342333Y-48678714D01*
X151342333Y-48714428D01*
X151330428Y-48738238D01*
X151318523Y-48750142D01*
X151294714Y-48762047D01*
X151199476Y-48762047D01*
X151556619Y-48714428D02*
X151556619Y-48881095D01*
X151497095Y-48619190D02*
X151437571Y-48797761D01*
X151592333Y-48797761D01*
D11*
X148629761Y-47950380D02*
X148058333Y-47950380D01*
X148344047Y-47950380D02*
X148344047Y-46950380D01*
X148248809Y-47093238D01*
X148153571Y-47188476D01*
X148058333Y-47236095D01*
X149248809Y-46950380D02*
X149344047Y-46950380D01*
X149439285Y-46998000D01*
X149486904Y-47045619D01*
X149534523Y-47140857D01*
X149582142Y-47331333D01*
X149582142Y-47569428D01*
X149534523Y-47759904D01*
X149486904Y-47855142D01*
X149439285Y-47902761D01*
X149344047Y-47950380D01*
X149248809Y-47950380D01*
X149153571Y-47902761D01*
X149105952Y-47855142D01*
X149058333Y-47759904D01*
X149010714Y-47569428D01*
X149010714Y-47331333D01*
X149058333Y-47140857D01*
X149105952Y-47045619D01*
X149153571Y-46998000D01*
X149248809Y-46950380D01*
X150010714Y-47950380D02*
X150010714Y-46950380D01*
X150105952Y-47569428D02*
X150391666Y-47950380D01*
X150391666Y-47283714D02*
X150010714Y-47664666D01*
D14*
X151342333Y-47738095D02*
X151259000Y-47619047D01*
X151199476Y-47738095D02*
X151199476Y-47488095D01*
X151294714Y-47488095D01*
X151318523Y-47500000D01*
X151330428Y-47511904D01*
X151342333Y-47535714D01*
X151342333Y-47571428D01*
X151330428Y-47595238D01*
X151318523Y-47607142D01*
X151294714Y-47619047D01*
X151199476Y-47619047D01*
X151425666Y-47488095D02*
X151580428Y-47488095D01*
X151497095Y-47583333D01*
X151532809Y-47583333D01*
X151556619Y-47595238D01*
X151568523Y-47607142D01*
X151580428Y-47630952D01*
X151580428Y-47690476D01*
X151568523Y-47714285D01*
X151556619Y-47726190D01*
X151532809Y-47738095D01*
X151461380Y-47738095D01*
X151437571Y-47726190D01*
X151425666Y-47714285D01*
D11*
X147939285Y-52792380D02*
X148558333Y-52792380D01*
X148225000Y-53173333D01*
X148367857Y-53173333D01*
X148463095Y-53220952D01*
X148510714Y-53268571D01*
X148558333Y-53363809D01*
X148558333Y-53601904D01*
X148510714Y-53697142D01*
X148463095Y-53744761D01*
X148367857Y-53792380D01*
X148082142Y-53792380D01*
X147986904Y-53744761D01*
X147939285Y-53697142D01*
X149177380Y-52792380D02*
X149272619Y-52792380D01*
X149367857Y-52840000D01*
X149415476Y-52887619D01*
X149463095Y-52982857D01*
X149510714Y-53173333D01*
X149510714Y-53411428D01*
X149463095Y-53601904D01*
X149415476Y-53697142D01*
X149367857Y-53744761D01*
X149272619Y-53792380D01*
X149177380Y-53792380D01*
X149082142Y-53744761D01*
X149034523Y-53697142D01*
X148986904Y-53601904D01*
X148939285Y-53411428D01*
X148939285Y-53173333D01*
X148986904Y-52982857D01*
X149034523Y-52887619D01*
X149082142Y-52840000D01*
X149177380Y-52792380D01*
X150129761Y-52792380D02*
X150225000Y-52792380D01*
X150320238Y-52840000D01*
X150367857Y-52887619D01*
X150415476Y-52982857D01*
X150463095Y-53173333D01*
X150463095Y-53411428D01*
X150415476Y-53601904D01*
X150367857Y-53697142D01*
X150320238Y-53744761D01*
X150225000Y-53792380D01*
X150129761Y-53792380D01*
X150034523Y-53744761D01*
X149986904Y-53697142D01*
X149939285Y-53601904D01*
X149891666Y-53411428D01*
X149891666Y-53173333D01*
X149939285Y-52982857D01*
X149986904Y-52887619D01*
X150034523Y-52840000D01*
X150129761Y-52792380D01*
D14*
X151342333Y-53453095D02*
X151259000Y-53334047D01*
X151199476Y-53453095D02*
X151199476Y-53203095D01*
X151294714Y-53203095D01*
X151318523Y-53215000D01*
X151330428Y-53226904D01*
X151342333Y-53250714D01*
X151342333Y-53286428D01*
X151330428Y-53310238D01*
X151318523Y-53322142D01*
X151294714Y-53334047D01*
X151199476Y-53334047D01*
X151437571Y-53226904D02*
X151449476Y-53215000D01*
X151473285Y-53203095D01*
X151532809Y-53203095D01*
X151556619Y-53215000D01*
X151568523Y-53226904D01*
X151580428Y-53250714D01*
X151580428Y-53274523D01*
X151568523Y-53310238D01*
X151425666Y-53453095D01*
X151580428Y-53453095D01*
D11*
X147859904Y-54030619D02*
X147907523Y-53983000D01*
X148002761Y-53935380D01*
X148240857Y-53935380D01*
X148336095Y-53983000D01*
X148383714Y-54030619D01*
X148431333Y-54125857D01*
X148431333Y-54221095D01*
X148383714Y-54363952D01*
X147812285Y-54935380D01*
X148431333Y-54935380D01*
X148812285Y-54030619D02*
X148859904Y-53983000D01*
X148955142Y-53935380D01*
X149193238Y-53935380D01*
X149288476Y-53983000D01*
X149336095Y-54030619D01*
X149383714Y-54125857D01*
X149383714Y-54221095D01*
X149336095Y-54363952D01*
X148764666Y-54935380D01*
X149383714Y-54935380D01*
X150002761Y-53935380D02*
X150098000Y-53935380D01*
X150193238Y-53983000D01*
X150240857Y-54030619D01*
X150288476Y-54125857D01*
X150336095Y-54316333D01*
X150336095Y-54554428D01*
X150288476Y-54744904D01*
X150240857Y-54840142D01*
X150193238Y-54887761D01*
X150098000Y-54935380D01*
X150002761Y-54935380D01*
X149907523Y-54887761D01*
X149859904Y-54840142D01*
X149812285Y-54744904D01*
X149764666Y-54554428D01*
X149764666Y-54316333D01*
X149812285Y-54125857D01*
X149859904Y-54030619D01*
X149907523Y-53983000D01*
X150002761Y-53935380D01*
D14*
X151319333Y-54576095D02*
X151236000Y-54457047D01*
X151176476Y-54576095D02*
X151176476Y-54326095D01*
X151271714Y-54326095D01*
X151295523Y-54338000D01*
X151307428Y-54349904D01*
X151319333Y-54373714D01*
X151319333Y-54409428D01*
X151307428Y-54433238D01*
X151295523Y-54445142D01*
X151271714Y-54457047D01*
X151176476Y-54457047D01*
X151557428Y-54576095D02*
X151414571Y-54576095D01*
X151486000Y-54576095D02*
X151486000Y-54326095D01*
X151462190Y-54361809D01*
X151438380Y-54385619D01*
X151414571Y-54397523D01*
D11*
X137199904Y-52379619D02*
X137247523Y-52332000D01*
X137342761Y-52284380D01*
X137580857Y-52284380D01*
X137676095Y-52332000D01*
X137723714Y-52379619D01*
X137771333Y-52474857D01*
X137771333Y-52570095D01*
X137723714Y-52712952D01*
X137152285Y-53284380D01*
X137771333Y-53284380D01*
X138199904Y-53189142D02*
X138247523Y-53236761D01*
X138199904Y-53284380D01*
X138152285Y-53236761D01*
X138199904Y-53189142D01*
X138199904Y-53284380D01*
X138628476Y-52379619D02*
X138676095Y-52332000D01*
X138771333Y-52284380D01*
X139009428Y-52284380D01*
X139104666Y-52332000D01*
X139152285Y-52379619D01*
X139199904Y-52474857D01*
X139199904Y-52570095D01*
X139152285Y-52712952D01*
X138580857Y-53284380D01*
X139199904Y-53284380D01*
X139628476Y-52617714D02*
X139628476Y-53284380D01*
X139628476Y-52712952D02*
X139676095Y-52665333D01*
X139771333Y-52617714D01*
X139914190Y-52617714D01*
X140009428Y-52665333D01*
X140057047Y-52760571D01*
X140057047Y-53284380D01*
X140390380Y-52617714D02*
X140771333Y-52617714D01*
X140533238Y-53284380D02*
X140533238Y-52427238D01*
X140580857Y-52332000D01*
X140676095Y-52284380D01*
X140771333Y-52284380D01*
D14*
X135411785Y-52921285D02*
X135399880Y-52933190D01*
X135364166Y-52945095D01*
X135340357Y-52945095D01*
X135304642Y-52933190D01*
X135280833Y-52909380D01*
X135268928Y-52885571D01*
X135257023Y-52837952D01*
X135257023Y-52802238D01*
X135268928Y-52754619D01*
X135280833Y-52730809D01*
X135304642Y-52707000D01*
X135340357Y-52695095D01*
X135364166Y-52695095D01*
X135399880Y-52707000D01*
X135411785Y-52718904D01*
X135649880Y-52945095D02*
X135507023Y-52945095D01*
X135578452Y-52945095D02*
X135578452Y-52695095D01*
X135554642Y-52730809D01*
X135530833Y-52754619D01*
X135507023Y-52766523D01*
X135876071Y-52695095D02*
X135757023Y-52695095D01*
X135745119Y-52814142D01*
X135757023Y-52802238D01*
X135780833Y-52790333D01*
X135840357Y-52790333D01*
X135864166Y-52802238D01*
X135876071Y-52814142D01*
X135887976Y-52837952D01*
X135887976Y-52897476D01*
X135876071Y-52921285D01*
X135864166Y-52933190D01*
X135840357Y-52945095D01*
X135780833Y-52945095D01*
X135757023Y-52933190D01*
X135745119Y-52921285D01*
D11*
X136945904Y-50093619D02*
X136993523Y-50046000D01*
X137088761Y-49998380D01*
X137326857Y-49998380D01*
X137422095Y-50046000D01*
X137469714Y-50093619D01*
X137517333Y-50188857D01*
X137517333Y-50284095D01*
X137469714Y-50426952D01*
X136898285Y-50998380D01*
X137517333Y-50998380D01*
X137945904Y-50903142D02*
X137993523Y-50950761D01*
X137945904Y-50998380D01*
X137898285Y-50950761D01*
X137945904Y-50903142D01*
X137945904Y-50998380D01*
X138374476Y-50093619D02*
X138422095Y-50046000D01*
X138517333Y-49998380D01*
X138755428Y-49998380D01*
X138850666Y-50046000D01*
X138898285Y-50093619D01*
X138945904Y-50188857D01*
X138945904Y-50284095D01*
X138898285Y-50426952D01*
X138326857Y-50998380D01*
X138945904Y-50998380D01*
X139374476Y-50331714D02*
X139374476Y-50998380D01*
X139374476Y-50426952D02*
X139422095Y-50379333D01*
X139517333Y-50331714D01*
X139660190Y-50331714D01*
X139755428Y-50379333D01*
X139803047Y-50474571D01*
X139803047Y-50998380D01*
X140136380Y-50331714D02*
X140517333Y-50331714D01*
X140279238Y-50998380D02*
X140279238Y-50141238D01*
X140326857Y-50046000D01*
X140422095Y-49998380D01*
X140517333Y-49998380D01*
D14*
X135411785Y-50635285D02*
X135399880Y-50647190D01*
X135364166Y-50659095D01*
X135340357Y-50659095D01*
X135304642Y-50647190D01*
X135280833Y-50623380D01*
X135268928Y-50599571D01*
X135257023Y-50551952D01*
X135257023Y-50516238D01*
X135268928Y-50468619D01*
X135280833Y-50444809D01*
X135304642Y-50421000D01*
X135340357Y-50409095D01*
X135364166Y-50409095D01*
X135399880Y-50421000D01*
X135411785Y-50432904D01*
X135649880Y-50659095D02*
X135507023Y-50659095D01*
X135578452Y-50659095D02*
X135578452Y-50409095D01*
X135554642Y-50444809D01*
X135530833Y-50468619D01*
X135507023Y-50480523D01*
X135864166Y-50492428D02*
X135864166Y-50659095D01*
X135804642Y-50397190D02*
X135745119Y-50575761D01*
X135899880Y-50575761D01*
D11*
X147645571Y-51506380D02*
X147074142Y-51506380D01*
X147359857Y-51506380D02*
X147359857Y-50506380D01*
X147264619Y-50649238D01*
X147169380Y-50744476D01*
X147074142Y-50792095D01*
X148264619Y-50506380D02*
X148359857Y-50506380D01*
X148455095Y-50554000D01*
X148502714Y-50601619D01*
X148550333Y-50696857D01*
X148597952Y-50887333D01*
X148597952Y-51125428D01*
X148550333Y-51315904D01*
X148502714Y-51411142D01*
X148455095Y-51458761D01*
X148359857Y-51506380D01*
X148264619Y-51506380D01*
X148169380Y-51458761D01*
X148121761Y-51411142D01*
X148074142Y-51315904D01*
X148026523Y-51125428D01*
X148026523Y-50887333D01*
X148074142Y-50696857D01*
X148121761Y-50601619D01*
X148169380Y-50554000D01*
X148264619Y-50506380D01*
X149455095Y-50839714D02*
X149455095Y-51506380D01*
X149026523Y-50839714D02*
X149026523Y-51363523D01*
X149074142Y-51458761D01*
X149169380Y-51506380D01*
X149312238Y-51506380D01*
X149407476Y-51458761D01*
X149455095Y-51411142D01*
X150264619Y-50982571D02*
X149931285Y-50982571D01*
X149931285Y-51506380D02*
X149931285Y-50506380D01*
X150407476Y-50506380D01*
D14*
X151223285Y-51143285D02*
X151211380Y-51155190D01*
X151175666Y-51167095D01*
X151151857Y-51167095D01*
X151116142Y-51155190D01*
X151092333Y-51131380D01*
X151080428Y-51107571D01*
X151068523Y-51059952D01*
X151068523Y-51024238D01*
X151080428Y-50976619D01*
X151092333Y-50952809D01*
X151116142Y-50929000D01*
X151151857Y-50917095D01*
X151175666Y-50917095D01*
X151211380Y-50929000D01*
X151223285Y-50940904D01*
X151461380Y-51167095D02*
X151318523Y-51167095D01*
X151389952Y-51167095D02*
X151389952Y-50917095D01*
X151366142Y-50952809D01*
X151342333Y-50976619D01*
X151318523Y-50988523D01*
X151556619Y-50940904D02*
X151568523Y-50929000D01*
X151592333Y-50917095D01*
X151651857Y-50917095D01*
X151675666Y-50929000D01*
X151687571Y-50940904D01*
X151699476Y-50964714D01*
X151699476Y-50988523D01*
X151687571Y-51024238D01*
X151544714Y-51167095D01*
X151699476Y-51167095D01*
D11*
X137168142Y-48855380D02*
X137263380Y-48855380D01*
X137358619Y-48903000D01*
X137406238Y-48950619D01*
X137453857Y-49045857D01*
X137501476Y-49236333D01*
X137501476Y-49474428D01*
X137453857Y-49664904D01*
X137406238Y-49760142D01*
X137358619Y-49807761D01*
X137263380Y-49855380D01*
X137168142Y-49855380D01*
X137072904Y-49807761D01*
X137025285Y-49760142D01*
X136977666Y-49664904D01*
X136930047Y-49474428D01*
X136930047Y-49236333D01*
X136977666Y-49045857D01*
X137025285Y-48950619D01*
X137072904Y-48903000D01*
X137168142Y-48855380D01*
X137930047Y-49760142D02*
X137977666Y-49807761D01*
X137930047Y-49855380D01*
X137882428Y-49807761D01*
X137930047Y-49760142D01*
X137930047Y-49855380D01*
X138930047Y-49855380D02*
X138358619Y-49855380D01*
X138644333Y-49855380D02*
X138644333Y-48855380D01*
X138549095Y-48998238D01*
X138453857Y-49093476D01*
X138358619Y-49141095D01*
X139787190Y-49188714D02*
X139787190Y-49855380D01*
X139358619Y-49188714D02*
X139358619Y-49712523D01*
X139406238Y-49807761D01*
X139501476Y-49855380D01*
X139644333Y-49855380D01*
X139739571Y-49807761D01*
X139787190Y-49760142D01*
X140596714Y-49331571D02*
X140263380Y-49331571D01*
X140263380Y-49855380D02*
X140263380Y-48855380D01*
X140739571Y-48855380D01*
D14*
X135411785Y-49492285D02*
X135399880Y-49504190D01*
X135364166Y-49516095D01*
X135340357Y-49516095D01*
X135304642Y-49504190D01*
X135280833Y-49480380D01*
X135268928Y-49456571D01*
X135257023Y-49408952D01*
X135257023Y-49373238D01*
X135268928Y-49325619D01*
X135280833Y-49301809D01*
X135304642Y-49278000D01*
X135340357Y-49266095D01*
X135364166Y-49266095D01*
X135399880Y-49278000D01*
X135411785Y-49289904D01*
X135649880Y-49516095D02*
X135507023Y-49516095D01*
X135578452Y-49516095D02*
X135578452Y-49266095D01*
X135554642Y-49301809D01*
X135530833Y-49325619D01*
X135507023Y-49337523D01*
X135887976Y-49516095D02*
X135745119Y-49516095D01*
X135816547Y-49516095D02*
X135816547Y-49266095D01*
X135792738Y-49301809D01*
X135768928Y-49325619D01*
X135745119Y-49337523D01*
D11*
X137184000Y-47712380D02*
X137279238Y-47712380D01*
X137374476Y-47760000D01*
X137422095Y-47807619D01*
X137469714Y-47902857D01*
X137517333Y-48093333D01*
X137517333Y-48331428D01*
X137469714Y-48521904D01*
X137422095Y-48617142D01*
X137374476Y-48664761D01*
X137279238Y-48712380D01*
X137184000Y-48712380D01*
X137088761Y-48664761D01*
X137041142Y-48617142D01*
X136993523Y-48521904D01*
X136945904Y-48331428D01*
X136945904Y-48093333D01*
X136993523Y-47902857D01*
X137041142Y-47807619D01*
X137088761Y-47760000D01*
X137184000Y-47712380D01*
X137945904Y-48617142D02*
X137993523Y-48664761D01*
X137945904Y-48712380D01*
X137898285Y-48664761D01*
X137945904Y-48617142D01*
X137945904Y-48712380D01*
X138945904Y-48712380D02*
X138374476Y-48712380D01*
X138660190Y-48712380D02*
X138660190Y-47712380D01*
X138564952Y-47855238D01*
X138469714Y-47950476D01*
X138374476Y-47998095D01*
X139803047Y-48045714D02*
X139803047Y-48712380D01*
X139374476Y-48045714D02*
X139374476Y-48569523D01*
X139422095Y-48664761D01*
X139517333Y-48712380D01*
X139660190Y-48712380D01*
X139755428Y-48664761D01*
X139803047Y-48617142D01*
X140136380Y-48045714D02*
X140517333Y-48045714D01*
X140279238Y-48712380D02*
X140279238Y-47855238D01*
X140326857Y-47760000D01*
X140422095Y-47712380D01*
X140517333Y-47712380D01*
D14*
X135411785Y-48349285D02*
X135399880Y-48361190D01*
X135364166Y-48373095D01*
X135340357Y-48373095D01*
X135304642Y-48361190D01*
X135280833Y-48337380D01*
X135268928Y-48313571D01*
X135257023Y-48265952D01*
X135257023Y-48230238D01*
X135268928Y-48182619D01*
X135280833Y-48158809D01*
X135304642Y-48135000D01*
X135340357Y-48123095D01*
X135364166Y-48123095D01*
X135399880Y-48135000D01*
X135411785Y-48146904D01*
X135649880Y-48373095D02*
X135507023Y-48373095D01*
X135578452Y-48373095D02*
X135578452Y-48123095D01*
X135554642Y-48158809D01*
X135530833Y-48182619D01*
X135507023Y-48194523D01*
X135804642Y-48123095D02*
X135828452Y-48123095D01*
X135852261Y-48135000D01*
X135864166Y-48146904D01*
X135876071Y-48170714D01*
X135887976Y-48218333D01*
X135887976Y-48277857D01*
X135876071Y-48325476D01*
X135864166Y-48349285D01*
X135852261Y-48361190D01*
X135828452Y-48373095D01*
X135804642Y-48373095D01*
X135780833Y-48361190D01*
X135768928Y-48349285D01*
X135757023Y-48325476D01*
X135745119Y-48277857D01*
X135745119Y-48218333D01*
X135757023Y-48170714D01*
X135768928Y-48146904D01*
X135780833Y-48135000D01*
X135804642Y-48123095D01*
D11*
X146232809Y-51617619D02*
X146280428Y-51570000D01*
X146375666Y-51522380D01*
X146613761Y-51522380D01*
X146709000Y-51570000D01*
X146756619Y-51617619D01*
X146804238Y-51712857D01*
X146804238Y-51808095D01*
X146756619Y-51950952D01*
X146185190Y-52522380D01*
X146804238Y-52522380D01*
X147185190Y-51617619D02*
X147232809Y-51570000D01*
X147328047Y-51522380D01*
X147566142Y-51522380D01*
X147661380Y-51570000D01*
X147709000Y-51617619D01*
X147756619Y-51712857D01*
X147756619Y-51808095D01*
X147709000Y-51950952D01*
X147137571Y-52522380D01*
X147756619Y-52522380D01*
X148375666Y-51522380D02*
X148470904Y-51522380D01*
X148566142Y-51570000D01*
X148613761Y-51617619D01*
X148661380Y-51712857D01*
X148709000Y-51903333D01*
X148709000Y-52141428D01*
X148661380Y-52331904D01*
X148613761Y-52427142D01*
X148566142Y-52474761D01*
X148470904Y-52522380D01*
X148375666Y-52522380D01*
X148280428Y-52474761D01*
X148232809Y-52427142D01*
X148185190Y-52331904D01*
X148137571Y-52141428D01*
X148137571Y-51903333D01*
X148185190Y-51712857D01*
X148232809Y-51617619D01*
X148280428Y-51570000D01*
X148375666Y-51522380D01*
X149137571Y-51855714D02*
X149137571Y-52522380D01*
X149137571Y-51950952D02*
X149185190Y-51903333D01*
X149280428Y-51855714D01*
X149423285Y-51855714D01*
X149518523Y-51903333D01*
X149566142Y-51998571D01*
X149566142Y-52522380D01*
X149899476Y-51855714D02*
X150280428Y-51855714D01*
X150042333Y-52522380D02*
X150042333Y-51665238D01*
X150089952Y-51570000D01*
X150185190Y-51522380D01*
X150280428Y-51522380D01*
D14*
X151342333Y-52286285D02*
X151330428Y-52298190D01*
X151294714Y-52310095D01*
X151270904Y-52310095D01*
X151235190Y-52298190D01*
X151211380Y-52274380D01*
X151199476Y-52250571D01*
X151187571Y-52202952D01*
X151187571Y-52167238D01*
X151199476Y-52119619D01*
X151211380Y-52095809D01*
X151235190Y-52072000D01*
X151270904Y-52060095D01*
X151294714Y-52060095D01*
X151330428Y-52072000D01*
X151342333Y-52083904D01*
X151485190Y-52167238D02*
X151461380Y-52155333D01*
X151449476Y-52143428D01*
X151437571Y-52119619D01*
X151437571Y-52107714D01*
X151449476Y-52083904D01*
X151461380Y-52072000D01*
X151485190Y-52060095D01*
X151532809Y-52060095D01*
X151556619Y-52072000D01*
X151568523Y-52083904D01*
X151580428Y-52107714D01*
X151580428Y-52119619D01*
X151568523Y-52143428D01*
X151556619Y-52155333D01*
X151532809Y-52167238D01*
X151485190Y-52167238D01*
X151461380Y-52179142D01*
X151449476Y-52191047D01*
X151437571Y-52214857D01*
X151437571Y-52262476D01*
X151449476Y-52286285D01*
X151461380Y-52298190D01*
X151485190Y-52310095D01*
X151532809Y-52310095D01*
X151556619Y-52298190D01*
X151568523Y-52286285D01*
X151580428Y-52262476D01*
X151580428Y-52214857D01*
X151568523Y-52191047D01*
X151556619Y-52179142D01*
X151532809Y-52167238D01*
D11*
X156615000Y-17867380D02*
X156710238Y-17867380D01*
X156805476Y-17915000D01*
X156853095Y-17962619D01*
X156900714Y-18057857D01*
X156948333Y-18248333D01*
X156948333Y-18486428D01*
X156900714Y-18676904D01*
X156853095Y-18772142D01*
X156805476Y-18819761D01*
X156710238Y-18867380D01*
X156615000Y-18867380D01*
X156519761Y-18819761D01*
X156472142Y-18772142D01*
X156424523Y-18676904D01*
X156376904Y-18486428D01*
X156376904Y-18248333D01*
X156424523Y-18057857D01*
X156472142Y-17962619D01*
X156519761Y-17915000D01*
X156615000Y-17867380D01*
X157376904Y-18772142D02*
X157424523Y-18819761D01*
X157376904Y-18867380D01*
X157329285Y-18819761D01*
X157376904Y-18772142D01*
X157376904Y-18867380D01*
X158376904Y-18867380D02*
X157805476Y-18867380D01*
X158091190Y-18867380D02*
X158091190Y-17867380D01*
X157995952Y-18010238D01*
X157900714Y-18105476D01*
X157805476Y-18153095D01*
X159234047Y-18200714D02*
X159234047Y-18867380D01*
X158805476Y-18200714D02*
X158805476Y-18724523D01*
X158853095Y-18819761D01*
X158948333Y-18867380D01*
X159091190Y-18867380D01*
X159186428Y-18819761D01*
X159234047Y-18772142D01*
X159567380Y-18200714D02*
X159948333Y-18200714D01*
X159710238Y-18867380D02*
X159710238Y-18010238D01*
X159757857Y-17915000D01*
X159853095Y-17867380D01*
X159948333Y-17867380D01*
D14*
X154898333Y-18631285D02*
X154886428Y-18643190D01*
X154850714Y-18655095D01*
X154826904Y-18655095D01*
X154791190Y-18643190D01*
X154767380Y-18619380D01*
X154755476Y-18595571D01*
X154743571Y-18547952D01*
X154743571Y-18512238D01*
X154755476Y-18464619D01*
X154767380Y-18440809D01*
X154791190Y-18417000D01*
X154826904Y-18405095D01*
X154850714Y-18405095D01*
X154886428Y-18417000D01*
X154898333Y-18428904D01*
X154981666Y-18405095D02*
X155148333Y-18405095D01*
X155041190Y-18655095D01*
D11*
X134294619Y-68174952D02*
X134247000Y-68127333D01*
X134199380Y-68032095D01*
X134199380Y-67794000D01*
X134247000Y-67698761D01*
X134294619Y-67651142D01*
X134389857Y-67603523D01*
X134485095Y-67603523D01*
X134627952Y-67651142D01*
X135199380Y-68222571D01*
X135199380Y-67603523D01*
X135104142Y-67174952D02*
X135151761Y-67127333D01*
X135199380Y-67174952D01*
X135151761Y-67222571D01*
X135104142Y-67174952D01*
X135199380Y-67174952D01*
X134294619Y-66746380D02*
X134247000Y-66698761D01*
X134199380Y-66603523D01*
X134199380Y-66365428D01*
X134247000Y-66270190D01*
X134294619Y-66222571D01*
X134389857Y-66174952D01*
X134485095Y-66174952D01*
X134627952Y-66222571D01*
X135199380Y-66794000D01*
X135199380Y-66174952D01*
X134532714Y-65317809D02*
X135199380Y-65317809D01*
X134532714Y-65746380D02*
X135056523Y-65746380D01*
X135151761Y-65698761D01*
X135199380Y-65603523D01*
X135199380Y-65460666D01*
X135151761Y-65365428D01*
X135104142Y-65317809D01*
X134675571Y-64508285D02*
X134675571Y-64841619D01*
X135199380Y-64841619D02*
X134199380Y-64841619D01*
X134199380Y-64365428D01*
D14*
X134734685Y-63719466D02*
X134746590Y-63731371D01*
X134758495Y-63767085D01*
X134758495Y-63790895D01*
X134746590Y-63826609D01*
X134722780Y-63850419D01*
X134698971Y-63862323D01*
X134651352Y-63874228D01*
X134615638Y-63874228D01*
X134568019Y-63862323D01*
X134544209Y-63850419D01*
X134520400Y-63826609D01*
X134508495Y-63790895D01*
X134508495Y-63767085D01*
X134520400Y-63731371D01*
X134532304Y-63719466D01*
X134508495Y-63505180D02*
X134508495Y-63552800D01*
X134520400Y-63576609D01*
X134532304Y-63588514D01*
X134568019Y-63612323D01*
X134615638Y-63624228D01*
X134710876Y-63624228D01*
X134734685Y-63612323D01*
X134746590Y-63600419D01*
X134758495Y-63576609D01*
X134758495Y-63528990D01*
X134746590Y-63505180D01*
X134734685Y-63493276D01*
X134710876Y-63481371D01*
X134651352Y-63481371D01*
X134627542Y-63493276D01*
X134615638Y-63505180D01*
X134603733Y-63528990D01*
X134603733Y-63576609D01*
X134615638Y-63600419D01*
X134627542Y-63612323D01*
X134651352Y-63624228D01*
D11*
X137057047Y-53522619D02*
X137104666Y-53475000D01*
X137199904Y-53427380D01*
X137438000Y-53427380D01*
X137533238Y-53475000D01*
X137580857Y-53522619D01*
X137628476Y-53617857D01*
X137628476Y-53713095D01*
X137580857Y-53855952D01*
X137009428Y-54427380D01*
X137628476Y-54427380D01*
X138057047Y-54332142D02*
X138104666Y-54379761D01*
X138057047Y-54427380D01*
X138009428Y-54379761D01*
X138057047Y-54332142D01*
X138057047Y-54427380D01*
X138485619Y-53522619D02*
X138533238Y-53475000D01*
X138628476Y-53427380D01*
X138866571Y-53427380D01*
X138961809Y-53475000D01*
X139009428Y-53522619D01*
X139057047Y-53617857D01*
X139057047Y-53713095D01*
X139009428Y-53855952D01*
X138438000Y-54427380D01*
X139057047Y-54427380D01*
X139914190Y-53760714D02*
X139914190Y-54427380D01*
X139485619Y-53760714D02*
X139485619Y-54284523D01*
X139533238Y-54379761D01*
X139628476Y-54427380D01*
X139771333Y-54427380D01*
X139866571Y-54379761D01*
X139914190Y-54332142D01*
X140723714Y-53903571D02*
X140390380Y-53903571D01*
X140390380Y-54427380D02*
X140390380Y-53427380D01*
X140866571Y-53427380D01*
D14*
X135507833Y-54064285D02*
X135495928Y-54076190D01*
X135460214Y-54088095D01*
X135436404Y-54088095D01*
X135400690Y-54076190D01*
X135376880Y-54052380D01*
X135364976Y-54028571D01*
X135353071Y-53980952D01*
X135353071Y-53945238D01*
X135364976Y-53897619D01*
X135376880Y-53873809D01*
X135400690Y-53850000D01*
X135436404Y-53838095D01*
X135460214Y-53838095D01*
X135495928Y-53850000D01*
X135507833Y-53861904D01*
X135734023Y-53838095D02*
X135614976Y-53838095D01*
X135603071Y-53957142D01*
X135614976Y-53945238D01*
X135638785Y-53933333D01*
X135698309Y-53933333D01*
X135722119Y-53945238D01*
X135734023Y-53957142D01*
X135745928Y-53980952D01*
X135745928Y-54040476D01*
X135734023Y-54064285D01*
X135722119Y-54076190D01*
X135698309Y-54088095D01*
X135638785Y-54088095D01*
X135614976Y-54076190D01*
X135603071Y-54064285D01*
D11*
X156884761Y-21280380D02*
X156313333Y-21280380D01*
X156599047Y-21280380D02*
X156599047Y-20280380D01*
X156503809Y-20423238D01*
X156408571Y-20518476D01*
X156313333Y-20566095D01*
X157313333Y-20613714D02*
X157313333Y-21280380D01*
X157313333Y-20708952D02*
X157360952Y-20661333D01*
X157456190Y-20613714D01*
X157599047Y-20613714D01*
X157694285Y-20661333D01*
X157741904Y-20756571D01*
X157741904Y-21280380D01*
X158551428Y-20756571D02*
X158218095Y-20756571D01*
X158218095Y-21280380D02*
X158218095Y-20280380D01*
X158694285Y-20280380D01*
D14*
X154898333Y-19710785D02*
X154886428Y-19722690D01*
X154850714Y-19734595D01*
X154826904Y-19734595D01*
X154791190Y-19722690D01*
X154767380Y-19698880D01*
X154755476Y-19675071D01*
X154743571Y-19627452D01*
X154743571Y-19591738D01*
X154755476Y-19544119D01*
X154767380Y-19520309D01*
X154791190Y-19496500D01*
X154826904Y-19484595D01*
X154850714Y-19484595D01*
X154886428Y-19496500D01*
X154898333Y-19508404D01*
X155112619Y-19567928D02*
X155112619Y-19734595D01*
X155053095Y-19472690D02*
X154993571Y-19651261D01*
X155148333Y-19651261D01*
D11*
X137977619Y-44140380D02*
X137406190Y-44140380D01*
X137691904Y-44140380D02*
X137691904Y-43140380D01*
X137596666Y-43283238D01*
X137501428Y-43378476D01*
X137406190Y-43426095D01*
X138834761Y-43473714D02*
X138834761Y-44140380D01*
X138406190Y-43473714D02*
X138406190Y-43997523D01*
X138453809Y-44092761D01*
X138549047Y-44140380D01*
X138691904Y-44140380D01*
X138787142Y-44092761D01*
X138834761Y-44045142D01*
X139168095Y-43473714D02*
X139549047Y-43473714D01*
X139310952Y-44140380D02*
X139310952Y-43283238D01*
X139358571Y-43188000D01*
X139453809Y-43140380D01*
X139549047Y-43140380D01*
D14*
X135553833Y-43777285D02*
X135541928Y-43789190D01*
X135506214Y-43801095D01*
X135482404Y-43801095D01*
X135446690Y-43789190D01*
X135422880Y-43765380D01*
X135410976Y-43741571D01*
X135399071Y-43693952D01*
X135399071Y-43658238D01*
X135410976Y-43610619D01*
X135422880Y-43586809D01*
X135446690Y-43563000D01*
X135482404Y-43551095D01*
X135506214Y-43551095D01*
X135541928Y-43563000D01*
X135553833Y-43574904D01*
X135637166Y-43551095D02*
X135791928Y-43551095D01*
X135708595Y-43646333D01*
X135744309Y-43646333D01*
X135768119Y-43658238D01*
X135780023Y-43670142D01*
X135791928Y-43693952D01*
X135791928Y-43753476D01*
X135780023Y-43777285D01*
X135768119Y-43789190D01*
X135744309Y-43801095D01*
X135672880Y-43801095D01*
X135649071Y-43789190D01*
X135637166Y-43777285D01*
D11*
X137615728Y-47416980D02*
X137044300Y-47416980D01*
X137330014Y-47416980D02*
X137330014Y-46416980D01*
X137234776Y-46559838D01*
X137139538Y-46655076D01*
X137044300Y-46702695D01*
X138234776Y-46416980D02*
X138330014Y-46416980D01*
X138425252Y-46464600D01*
X138472871Y-46512219D01*
X138520490Y-46607457D01*
X138568109Y-46797933D01*
X138568109Y-47036028D01*
X138520490Y-47226504D01*
X138472871Y-47321742D01*
X138425252Y-47369361D01*
X138330014Y-47416980D01*
X138234776Y-47416980D01*
X138139538Y-47369361D01*
X138091919Y-47321742D01*
X138044300Y-47226504D01*
X137996680Y-47036028D01*
X137996680Y-46797933D01*
X138044300Y-46607457D01*
X138091919Y-46512219D01*
X138139538Y-46464600D01*
X138234776Y-46416980D01*
X139425252Y-46750314D02*
X139425252Y-47416980D01*
X138996680Y-46750314D02*
X138996680Y-47274123D01*
X139044300Y-47369361D01*
X139139538Y-47416980D01*
X139282395Y-47416980D01*
X139377633Y-47369361D01*
X139425252Y-47321742D01*
X139758585Y-46750314D02*
X140139538Y-46750314D01*
X139901442Y-47416980D02*
X139901442Y-46559838D01*
X139949061Y-46464600D01*
X140044300Y-46416980D01*
X140139538Y-46416980D01*
D14*
X135518133Y-47180885D02*
X135506228Y-47192790D01*
X135470514Y-47204695D01*
X135446704Y-47204695D01*
X135410990Y-47192790D01*
X135387180Y-47168980D01*
X135375276Y-47145171D01*
X135363371Y-47097552D01*
X135363371Y-47061838D01*
X135375276Y-47014219D01*
X135387180Y-46990409D01*
X135410990Y-46966600D01*
X135446704Y-46954695D01*
X135470514Y-46954695D01*
X135506228Y-46966600D01*
X135518133Y-46978504D01*
X135613371Y-46978504D02*
X135625276Y-46966600D01*
X135649085Y-46954695D01*
X135708609Y-46954695D01*
X135732419Y-46966600D01*
X135744323Y-46978504D01*
X135756228Y-47002314D01*
X135756228Y-47026123D01*
X135744323Y-47061838D01*
X135601466Y-47204695D01*
X135756228Y-47204695D01*
M02*
