M48
; DRILL file {KiCad (5.1.5-0)} date Monday, April 04, 2022 at 03:42:32 pm
; FORMAT={-:-/ absolute / inch / decimal}
; #@! TF.CreationDate,2022-04-04T15:42:32-07:00
; #@! TF.GenerationSoftware,Kicad,Pcbnew,(5.1.5-0)
; #@! TF.FileFunction,Plated,1,2,PTH
FMAT,2
INCH
T1C0.0118
T2C0.0394
%
G90
G05
T1
X5.158Y-2.482
X5.1811Y-0.7657
X5.19Y-2.162
X5.228Y-2.446
X5.2291Y-2.356
X5.2291Y-2.302
X5.241Y-2.227
X5.2496Y-1.0421
X5.258Y-1.902
X5.273Y-2.401
X5.285Y-2.104
X5.3748Y-2.5024
X5.3759Y-1.4323
X5.3768Y-1.2827
X5.3772Y-0.8827
X5.3791Y-0.7839
X5.3799Y-0.835
X5.38Y-1.644
X5.388Y-2.533
X5.3979Y-0.9339
X5.403Y-2.001
X5.403Y-2.091
X5.405Y-1.825
X5.4187Y-0.9835
X5.43Y-2.16
X5.4394Y-1.0327
X5.4409Y-1.7126
X5.452Y-2.309
X5.452Y-2.2321
X5.4535Y-1.813
X5.4545Y-2.3862
X5.4546Y-2.3568
X5.4602Y-1.0835
X5.4625Y-2.495
X5.4725Y-2.4275
X5.4728Y-1.872
X5.4809Y-1.1327
X5.4819Y-1.6665
X5.4848Y-1.8053
X5.4925Y-0.8909
X5.4975Y-2.385
X5.498Y-2.126
X5.502Y-2.245
X5.5051Y-1.4563
X5.5209Y-1.7181
X5.5252Y-1.185
X5.528Y-1.2803
X5.5394Y-0.9575
X5.5394Y-0.9913
X5.5394Y-1.0268
X5.5402Y-1.0638
X5.5402Y-1.0984
X5.5669Y-1.4685
X5.5732Y-0.9587
X5.5732Y-0.9925
X5.5732Y-1.028
X5.574Y-1.065
X5.574Y-1.0996
X5.6083Y-1.5898
X5.6098Y-0.9594
X5.6098Y-0.9933
X5.6098Y-1.0287
X5.6106Y-1.0657
X5.6106Y-1.1004
X5.6299Y-1.4291
X5.6433Y-2.2677
X5.6457Y-0.9606
X5.6457Y-0.9945
X5.6457Y-1.0299
X5.6465Y-1.0669
X5.6465Y-1.1016
X5.6476Y-1.5425
X5.6492Y-1.7811
X5.65Y-1.9346
X5.6598Y-2.1106
X5.6835Y-0.9594
X5.6835Y-0.9933
X5.6835Y-1.0287
X5.6843Y-1.0657
X5.6843Y-1.1004
X5.74Y-2.336
X5.7409Y-1.3598
X5.7409Y-1.6374
X5.7475Y-2.1025
X5.748Y-0.7264
X5.748Y-1.7126
X5.758Y-2.226
X5.7583Y-0.9079
X5.7657Y-1.1945
X5.7915Y-1.7602
X5.798Y-2.445
X5.8122Y-1.0181
X5.8295Y-1.9945
X5.8319Y-2.1854
X5.8323Y-1.9106
X5.8354Y-2.1075
X5.855Y-2.02
X5.865Y-2.085
X5.874Y-2.387
X5.879Y-2.243
X5.88Y-1.92
X5.8809Y-1.1835
X5.8823Y-1.5697
X5.885Y-2.175
X5.895Y-1.74
X5.8953Y-1.361
X5.9Y-1.875
X5.9017Y-1.1327
X5.9213Y-0.8858
X5.9217Y-1.4343
X5.9224Y-0.9335
X5.9224Y-1.0831
X5.9226Y-1.3884
X5.927Y-1.709
X6.045Y-0.8075
X6.0475Y-0.855
X6.05Y-1.951
X6.056Y-2.137
X6.1Y-0.955
X6.135Y-2.491
T2
X5.2Y-1.1008
X5.2Y-1.2008
X5.2Y-1.3008
X5.2Y-1.4008
X5.2Y-1.5008
X5.2Y-1.6008
X5.2Y-1.7008
X5.2Y-1.8008
X5.2Y-1.9008
X5.2Y-2.0008
X5.2Y-2.1008
X6.1Y-1.1008
X6.1Y-1.2008
X6.1Y-1.3008
X6.1Y-1.4008
X6.1Y-1.5008
X6.1Y-1.6008
X6.1Y-1.7008
X6.1Y-1.8008
X6.1Y-1.9008
X6.1Y-2.0008
X6.1Y-2.1008
T0
M30
