G04 #@! TF.GenerationSoftware,KiCad,Pcbnew,(5.1.5-0)*
G04 #@! TF.CreationDate,2022-10-31T13:11:27-07:00*
G04 #@! TF.ProjectId,wvr_v.1.0,7776725f-762e-4312-9e30-2e6b69636164,rev?*
G04 #@! TF.SameCoordinates,Original*
G04 #@! TF.FileFunction,Copper,L2,Bot*
G04 #@! TF.FilePolarity,Positive*
%FSLAX46Y46*%
G04 Gerber Fmt 4.6, Leading zero omitted, Abs format (unit mm)*
G04 Created by KiCad (PCBNEW (5.1.5-0)) date 2022-10-31 13:11:27*
%MOMM*%
%LPD*%
G04 APERTURE LIST*
%ADD10O,2.748280X1.998980*%
%ADD11O,1.700000X1.700000*%
%ADD12C,1.700000*%
%ADD13C,0.600000*%
%ADD14C,0.127000*%
%ADD15C,0.300000*%
%ADD16C,0.500000*%
%ADD17C,0.200000*%
G04 APERTURE END LIST*
D10*
X135453120Y-62313820D03*
X135453120Y-59773820D03*
X135453120Y-57233820D03*
X135453120Y-54693820D03*
X135453120Y-52153820D03*
X135453120Y-49613820D03*
X135453120Y-47073820D03*
X151617680Y-47073820D03*
X151617680Y-49613820D03*
X151617680Y-52153820D03*
X151617680Y-54693820D03*
X151617680Y-57233820D03*
X151617680Y-59773820D03*
X151617680Y-62313820D03*
D11*
X154940000Y-27960000D03*
X154940000Y-30500000D03*
X154940000Y-33040000D03*
X154940000Y-35580000D03*
X154940000Y-38120000D03*
X154940000Y-40660000D03*
X154940000Y-43200000D03*
X154940000Y-45740000D03*
X154940000Y-48280000D03*
X154940000Y-50820000D03*
D12*
X154940000Y-53360000D03*
D11*
X156300000Y-33040000D03*
X156300000Y-35580000D03*
X156300000Y-50820000D03*
D12*
X156300000Y-53360000D03*
D11*
X156300000Y-38120000D03*
X156300000Y-40660000D03*
X156300000Y-43200000D03*
X156300000Y-45740000D03*
X156300000Y-48280000D03*
X156300000Y-27960000D03*
X156300000Y-30500000D03*
D12*
X132080000Y-53360000D03*
D11*
X132080000Y-50820000D03*
X132080000Y-48280000D03*
X132080000Y-45740000D03*
X132080000Y-43200000D03*
X132080000Y-40660000D03*
X132080000Y-38120000D03*
X132080000Y-35580000D03*
X132080000Y-33040000D03*
X132080000Y-30500000D03*
X132080000Y-27960000D03*
X130730000Y-45740000D03*
X130730000Y-43200000D03*
X130730000Y-33040000D03*
X130730000Y-40660000D03*
X130730000Y-50820000D03*
D12*
X130730000Y-53360000D03*
D11*
X130730000Y-27960000D03*
X130730000Y-38120000D03*
X130730000Y-35580000D03*
X130730000Y-48280000D03*
X130730000Y-30500000D03*
D13*
X143420000Y-27100000D03*
X143400000Y-26160000D03*
X143420000Y-27980000D03*
X143400000Y-25260000D03*
X143400000Y-24400000D03*
X141580000Y-27050000D03*
X141560000Y-26110000D03*
X141580000Y-27930000D03*
X141560000Y-25210000D03*
X141560000Y-24350000D03*
X140720000Y-27020000D03*
X140700000Y-26080000D03*
X140720000Y-27900000D03*
X140700000Y-25180000D03*
X140700000Y-24320000D03*
X142510000Y-27070000D03*
X142490000Y-26130000D03*
X142510000Y-27950000D03*
X142490000Y-25230000D03*
X142490000Y-24370000D03*
X144360000Y-25230000D03*
X144380000Y-27070000D03*
X144380000Y-27950000D03*
X144360000Y-24370000D03*
X144360000Y-26130000D03*
X143510000Y-49140000D03*
X139010000Y-47550000D03*
X140410000Y-32520000D03*
X145820000Y-34540000D03*
X145820000Y-41590000D03*
X148070000Y-50660000D03*
X146260000Y-23060000D03*
X139313712Y-45853712D03*
X139240000Y-42330000D03*
X149410000Y-39870000D03*
X146450000Y-30340000D03*
X138600000Y-22880000D03*
X136547000Y-36380000D03*
X148220000Y-53530000D03*
X143760000Y-53610000D03*
X131600000Y-19450000D03*
X133300000Y-29200000D03*
X146000000Y-43500000D03*
X139649200Y-54000400D03*
X131013200Y-63042800D03*
X153606500Y-21717000D03*
X145986500Y-53403500D03*
X139001500Y-61658500D03*
X136855200Y-64338200D03*
X138481032Y-56696577D03*
X138480800Y-58648600D03*
X133121400Y-56565800D03*
X136652000Y-41757600D03*
X146253200Y-56540400D03*
X147269200Y-62103000D03*
X149199600Y-60629800D03*
X149326600Y-56972200D03*
X155829000Y-63271400D03*
X131826000Y-54914800D03*
X139750800Y-57023000D03*
X137236200Y-53111400D03*
X137236200Y-50825400D03*
X150545800Y-43408600D03*
X141400000Y-37300000D03*
X137900000Y-31350000D03*
X149850000Y-18550000D03*
X154920000Y-26140000D03*
X145460000Y-18880000D03*
X141260000Y-19420000D03*
X147620000Y-21940000D03*
X138520000Y-46050000D03*
X140230000Y-43640000D03*
X134239000Y-53441600D03*
X136930000Y-20260000D03*
X154940000Y-24257000D03*
X137922000Y-54864000D03*
X153670000Y-49555400D03*
X133553200Y-48310800D03*
X153822400Y-54279800D03*
X148380000Y-19590000D03*
X148470000Y-20680000D03*
X153543000Y-20510500D03*
X132820000Y-58470000D03*
X136519502Y-63562075D03*
X143340000Y-57600000D03*
X149479000Y-55245000D03*
X133934200Y-60985400D03*
X150434895Y-35265106D03*
X149376000Y-30060000D03*
X149903000Y-28770000D03*
X150430000Y-27510000D03*
X133300000Y-25200000D03*
X149500000Y-25000000D03*
X137107000Y-23720000D03*
X136580000Y-22420000D03*
X138161000Y-26230000D03*
X137634000Y-24980000D03*
X139215000Y-28770000D03*
X138688000Y-27520000D03*
X136570000Y-32580000D03*
X150400000Y-22500000D03*
X150430000Y-23710000D03*
X148971000Y-52959000D03*
X148130000Y-55510000D03*
X148717000Y-51308000D03*
X147630000Y-25860000D03*
X150410000Y-36430000D03*
X149860000Y-47625000D03*
X149733000Y-44196000D03*
X149739894Y-34570106D03*
X149352000Y-48768000D03*
X148140000Y-48530000D03*
X147103000Y-44710000D03*
X143450000Y-39180000D03*
X143490000Y-45240000D03*
X137287000Y-46355000D03*
X138200000Y-43500000D03*
X132819945Y-59842000D03*
X132791200Y-62128400D03*
X139636500Y-60579000D03*
X140340000Y-30100000D03*
X142450000Y-40380000D03*
X138546909Y-59861579D03*
X138544300Y-60609480D03*
X139830000Y-36990000D03*
X138747500Y-63373000D03*
X145796000Y-59334400D03*
X133300000Y-26400000D03*
D14*
X143510000Y-53520000D02*
X143470000Y-53560000D01*
X139010000Y-46157424D02*
X139010000Y-47550000D01*
X139313712Y-45853712D02*
X139010000Y-46157424D01*
X143510000Y-53520000D02*
X143740000Y-53520000D01*
D15*
X136547000Y-36303000D02*
X137960000Y-34890000D01*
X136547000Y-36380000D02*
X136547000Y-36303000D01*
D16*
X145670000Y-56080000D02*
X145670000Y-57230000D01*
X148220000Y-53530000D02*
X145670000Y-56080000D01*
X143510000Y-53360000D02*
X143760000Y-53610000D01*
X143510000Y-49140000D02*
X143510000Y-53360000D01*
D17*
X137236200Y-53111400D02*
X137236200Y-50825400D01*
D16*
X138520000Y-45690000D02*
X138520000Y-46050000D01*
D15*
X136202990Y-28363838D02*
X134076828Y-30490000D01*
X134076828Y-30490000D02*
X132000000Y-30490000D01*
X136202990Y-22992990D02*
X136202990Y-28363838D01*
X136002999Y-22792999D02*
X136202990Y-22992990D01*
X136002999Y-20537001D02*
X136002999Y-22792999D01*
D16*
X140230000Y-43640000D02*
X138520000Y-45350000D01*
X138520000Y-45350000D02*
X138520000Y-45690000D01*
X138520000Y-46050000D02*
X138520000Y-46474264D01*
X137963132Y-47031132D02*
X138176000Y-47244000D01*
X138520000Y-46474264D02*
X137963132Y-47031132D01*
D17*
X154940000Y-20637500D02*
X154940000Y-24257000D01*
X153802500Y-19500000D02*
X154940000Y-20637500D01*
X136778680Y-56007320D02*
X133985320Y-56007320D01*
X137922000Y-54864000D02*
X136778680Y-56007320D01*
X137922000Y-54439736D02*
X138176000Y-54185736D01*
X138176000Y-54185736D02*
X138176000Y-54165500D01*
X137922000Y-54864000D02*
X137922000Y-54439736D01*
X133939001Y-53741599D02*
X134239000Y-53441600D01*
X133851970Y-53828630D02*
X133939001Y-53741599D01*
X133851970Y-55201852D02*
X133851970Y-53828630D01*
X133985320Y-55335202D02*
X133851970Y-55201852D01*
X133985320Y-56007320D02*
X133985320Y-55335202D01*
X133553200Y-48310800D02*
X136683464Y-48310800D01*
D16*
X138176000Y-48310800D02*
X138176000Y-54165500D01*
D17*
X136683464Y-48310800D02*
X138176000Y-48310800D01*
D16*
X138176000Y-47244000D02*
X138176000Y-48310800D01*
D17*
X153670000Y-54127400D02*
X153822400Y-54279800D01*
X153670000Y-49555400D02*
X153670000Y-54127400D01*
X153592501Y-19290001D02*
X153802500Y-19500000D01*
X148679999Y-19290001D02*
X153592501Y-19290001D01*
X148380000Y-19590000D02*
X148679999Y-19290001D01*
D15*
X136280000Y-20260000D02*
X136930000Y-20260000D01*
X136002999Y-20537001D02*
X136280000Y-20260000D01*
D17*
X153497001Y-20528001D02*
X153497001Y-19947797D01*
X153497001Y-19947797D02*
X153376107Y-19826903D01*
X153376107Y-19826903D02*
X153377402Y-19828176D01*
X150624730Y-19824730D02*
X153376107Y-19826903D01*
X153525499Y-20528001D02*
X153543000Y-20510500D01*
X153497001Y-20528001D02*
X153525499Y-20528001D01*
X149325270Y-19824730D02*
X148470000Y-20680000D01*
X150624730Y-19824730D02*
X149325270Y-19824730D01*
X134592193Y-63562075D02*
X136519502Y-63562075D01*
X133346946Y-62316828D02*
X134592193Y-63562075D01*
X133346946Y-58996946D02*
X133346946Y-62316828D01*
X132820000Y-58470000D02*
X133346946Y-58996946D01*
X152680000Y-48260000D02*
X154940000Y-48260000D01*
X152552680Y-48387320D02*
X150570880Y-48387320D01*
X152680000Y-48260000D02*
X152552680Y-48387320D01*
X150570880Y-48387320D02*
X149885400Y-49072800D01*
X149885400Y-49072800D02*
X149885400Y-51206400D01*
X149885400Y-51206400D02*
X148971000Y-52120800D01*
X148971000Y-52120800D02*
X148513800Y-52120800D01*
X148513800Y-52120800D02*
X145999200Y-54635400D01*
X145999200Y-54940800D02*
X143340000Y-57600000D01*
X145999200Y-54635400D02*
X145999200Y-54940800D01*
X133157001Y-54969344D02*
X133157001Y-51897001D01*
X132929999Y-51669999D02*
X132080000Y-50820000D01*
X133654800Y-56139261D02*
X133654800Y-55467143D01*
X133654800Y-55467143D02*
X133157001Y-54969344D01*
X133680200Y-56164661D02*
X133654800Y-56139261D01*
X133680200Y-60307136D02*
X133680200Y-56164661D01*
X133157001Y-51897001D02*
X132929999Y-51669999D01*
X133934200Y-60561136D02*
X133680200Y-60307136D01*
X133934200Y-60985400D02*
X133934200Y-60561136D01*
X150734894Y-35565105D02*
X151017724Y-35565105D01*
X150434895Y-35265106D02*
X150734894Y-35565105D01*
X151017724Y-35565105D02*
X152680000Y-37227381D01*
X152680000Y-37230000D02*
X152825980Y-37375980D01*
X152680000Y-37227381D02*
X152680000Y-37230000D01*
X152825980Y-41528441D02*
X153590000Y-42292461D01*
X152825980Y-37375980D02*
X152825980Y-41528441D01*
X153590000Y-44370000D02*
X154940000Y-45720000D01*
X153590000Y-42292461D02*
X153590000Y-44370000D01*
X153152990Y-41392990D02*
X154650000Y-42890000D01*
X153152990Y-37237910D02*
X153152990Y-41392990D01*
X149575990Y-33660911D02*
X153152990Y-37237910D01*
X149575990Y-30684254D02*
X149575990Y-33660911D01*
X149376000Y-30484264D02*
X149575990Y-30684254D01*
X149376000Y-30060000D02*
X149376000Y-30484264D01*
X149903000Y-28770000D02*
X149903000Y-33525460D01*
X149903000Y-33525460D02*
X153480000Y-37102460D01*
X153480000Y-39180000D02*
X154940000Y-40640000D01*
X153480000Y-37102460D02*
X153480000Y-39180000D01*
X150430000Y-33590000D02*
X154940000Y-38100000D01*
X150430000Y-27510000D02*
X150430000Y-33590000D01*
X133300000Y-25200000D02*
X134900000Y-23600000D01*
X134900000Y-23600000D02*
X134900000Y-20000000D01*
X136498764Y-18438764D02*
X136490000Y-18430000D01*
X136490000Y-18430000D02*
X134900000Y-20000000D01*
X142930000Y-18430000D02*
X136490000Y-18430000D01*
X149500000Y-25000000D02*
X142930000Y-18430000D01*
X137107000Y-23720000D02*
X137107000Y-28455460D01*
X137107000Y-28455460D02*
X133200000Y-32362460D01*
X133200000Y-34440000D02*
X132080000Y-35560000D01*
X133200000Y-32362460D02*
X133200000Y-34440000D01*
X136580000Y-28520000D02*
X132080000Y-33020000D01*
X136580000Y-22420000D02*
X136580000Y-28520000D01*
X133854020Y-32633360D02*
X133854020Y-38865980D01*
X138161000Y-28326380D02*
X133854020Y-32633360D01*
X133854020Y-38865980D02*
X132080000Y-40640000D01*
X138161000Y-26230000D02*
X138161000Y-28326380D01*
X133527010Y-36652990D02*
X132929999Y-37250001D01*
X132929999Y-37250001D02*
X132080000Y-38100000D01*
X137634000Y-28390920D02*
X133527010Y-32497910D01*
X133527010Y-32497910D02*
X133527010Y-36652990D01*
X137634000Y-24980000D02*
X137634000Y-28390920D01*
X138915001Y-29069999D02*
X138350001Y-29069999D01*
X139215000Y-28770000D02*
X138915001Y-29069999D01*
X138350001Y-29069999D02*
X134508040Y-32911960D01*
X134508040Y-41214421D02*
X133430000Y-42292461D01*
X134508040Y-32911960D02*
X134508040Y-41214421D01*
X133430000Y-44370000D02*
X132080000Y-45720000D01*
X133430000Y-42292461D02*
X133430000Y-44370000D01*
X134181030Y-41078970D02*
X132080000Y-43180000D01*
X134181030Y-32768810D02*
X134181030Y-41078970D01*
X138688000Y-28261840D02*
X134181030Y-32768810D01*
X138688000Y-27520000D02*
X138688000Y-28261840D01*
X134835050Y-33194950D02*
X134835050Y-41349872D01*
X136270001Y-32879999D02*
X135150001Y-32879999D01*
X133757010Y-46582990D02*
X132080000Y-48260000D01*
X134835050Y-41349872D02*
X133757010Y-42427911D01*
X135150001Y-32879999D02*
X134835050Y-33194950D01*
X136570000Y-32580000D02*
X136270001Y-32879999D01*
X133757010Y-42427911D02*
X133757010Y-46582990D01*
X153042990Y-29035451D02*
X153520000Y-29512460D01*
X153042990Y-26785450D02*
X153042990Y-29035451D01*
X151147540Y-24890000D02*
X153042990Y-26785450D01*
X149690000Y-23130000D02*
X149690000Y-23800000D01*
X150320000Y-22500000D02*
X149690000Y-23130000D01*
X150780000Y-24890000D02*
X151147540Y-24890000D01*
X149690000Y-23800000D02*
X150780000Y-24890000D01*
X150400000Y-22500000D02*
X150320000Y-22500000D01*
X153520000Y-31590000D02*
X154970000Y-33040000D01*
X153520000Y-29512460D02*
X153520000Y-31590000D01*
X150430000Y-23710000D02*
X153370000Y-26650000D01*
X153370000Y-28900000D02*
X154970000Y-30500000D01*
X153370000Y-26650000D02*
X153370000Y-28900000D01*
X148130000Y-54430000D02*
X148130000Y-55510000D01*
X147630000Y-46920000D02*
X147630000Y-25860000D01*
X148971000Y-53589000D02*
X148971000Y-52959000D01*
X148130000Y-54430000D02*
X148971000Y-53589000D01*
X148717000Y-48007000D02*
X147630000Y-46920000D01*
X148717000Y-49403000D02*
X148717000Y-48007000D01*
X148717000Y-49403000D02*
X148717000Y-51308000D01*
X150914264Y-36350000D02*
X151340159Y-36350000D01*
X150834264Y-36430000D02*
X150914264Y-36350000D01*
X150410000Y-36430000D02*
X150834264Y-36430000D01*
X151340159Y-36350000D02*
X152352990Y-37362831D01*
X152352990Y-37365451D02*
X152498970Y-37511431D01*
X152352990Y-37362831D02*
X152352990Y-37365451D01*
X149860000Y-44323000D02*
X149733000Y-44196000D01*
X149860000Y-47625000D02*
X149860000Y-44323000D01*
X152498970Y-37511431D02*
X152498970Y-39860490D01*
X149733000Y-42626460D02*
X149733000Y-44196000D01*
X152498970Y-39860490D02*
X149733000Y-42626460D01*
X150360038Y-37160000D02*
X151687699Y-37160000D01*
X149739894Y-36539856D02*
X150360038Y-37160000D01*
X149739894Y-34570106D02*
X149739894Y-36539856D01*
X151687699Y-37160000D02*
X152090000Y-37562301D01*
X149052001Y-48468001D02*
X149052001Y-42844999D01*
X149352000Y-48768000D02*
X149052001Y-48468001D01*
X149052001Y-42844999D02*
X152146000Y-39751000D01*
X152090000Y-37562301D02*
X152146000Y-39751000D01*
X147302990Y-47692990D02*
X148140000Y-48530000D01*
X147302990Y-47692990D02*
X147302990Y-47717010D01*
X147103000Y-47517020D02*
X147103000Y-44710000D01*
X147302990Y-47717010D02*
X147103000Y-47517020D01*
X143554011Y-39284011D02*
X143450000Y-39180000D01*
X143554011Y-43921725D02*
X143554011Y-39284011D01*
X143500000Y-43975736D02*
X143554011Y-43921725D01*
X143500000Y-44805736D02*
X143500000Y-43975736D01*
X143490000Y-44815736D02*
X143500000Y-44805736D01*
X143490000Y-45240000D02*
X143490000Y-44815736D01*
X137287000Y-44413000D02*
X137287000Y-46355000D01*
X138200000Y-43500000D02*
X137287000Y-44413000D01*
X132819945Y-62099655D02*
X132791200Y-62128400D01*
X132819945Y-59842000D02*
X132819945Y-62099655D01*
X139636500Y-60115960D02*
X139636500Y-60579000D01*
X143279971Y-56472489D02*
X139636500Y-60115960D01*
X144287001Y-51987001D02*
X144287001Y-54721999D01*
X144122999Y-33882999D02*
X144122999Y-51822999D01*
X144287001Y-54721999D02*
X143279971Y-55729029D01*
X144122999Y-51822999D02*
X144287001Y-51987001D01*
X143279971Y-55729029D02*
X143279971Y-56472489D01*
X140340000Y-30100000D02*
X144122999Y-33882999D01*
X142425961Y-40404039D02*
X142450000Y-40380000D01*
X142425961Y-52984039D02*
X142425961Y-40404039D01*
X141224000Y-54876000D02*
X141230000Y-54870000D01*
X141230000Y-54180000D02*
X142425961Y-52984039D01*
X141224000Y-57184488D02*
X141224000Y-54876000D01*
X141230000Y-54870000D02*
X141230000Y-54180000D01*
X138546909Y-59861579D02*
X141224000Y-57184488D01*
X143227001Y-40387001D02*
X139830000Y-36990000D01*
X143227001Y-41762961D02*
X143227001Y-40387001D01*
X142952961Y-42037001D02*
X143227001Y-41762961D01*
X142952961Y-56337039D02*
X142952961Y-42037001D01*
X142816741Y-56337039D02*
X138544300Y-60609480D01*
X142952961Y-56337039D02*
X142816741Y-56337039D01*
D15*
X138775962Y-63373000D02*
X138747500Y-63373000D01*
D16*
X142748000Y-59372500D02*
X138747500Y-63373000D01*
X144145000Y-59372500D02*
X142748000Y-59372500D01*
X144183100Y-59334400D02*
X144145000Y-59372500D01*
X145796000Y-59334400D02*
X144183100Y-59334400D01*
X153491820Y-62313820D02*
X151617680Y-62313820D01*
X148775420Y-62313820D02*
X145796000Y-59334400D01*
X151617680Y-62313820D02*
X148775420Y-62313820D01*
X154940000Y-53360000D02*
X154940000Y-54562081D01*
X155411010Y-60394630D02*
X153491820Y-62313820D01*
X155411010Y-55033091D02*
X155411010Y-60394630D01*
X154940000Y-54562081D02*
X155411010Y-55033091D01*
D17*
X135625990Y-24074010D02*
X133300000Y-26400000D01*
X135625990Y-20134048D02*
X135625990Y-24074010D01*
X139950000Y-29230000D02*
X139950000Y-22121492D01*
X139400000Y-29780000D02*
X139950000Y-29230000D01*
X135450000Y-35050000D02*
X139400000Y-31100000D01*
X139400000Y-31100000D02*
X139400000Y-29780000D01*
X135450000Y-43733322D02*
X135450000Y-35050000D01*
X135453120Y-43736442D02*
X135450000Y-43733322D01*
X135453120Y-47073820D02*
X135453120Y-43736442D01*
X137211507Y-19382999D02*
X139950000Y-22121492D01*
X136377039Y-19382999D02*
X137211507Y-19382999D01*
X135625990Y-20134048D02*
X136377039Y-19382999D01*
X152373820Y-54693820D02*
X151617680Y-54693820D01*
G36*
X140106649Y-30869257D02*
G01*
X140261207Y-30900000D01*
X140291473Y-30900000D01*
X143522999Y-34131527D01*
X143522999Y-38380000D01*
X143371207Y-38380000D01*
X143216649Y-38410743D01*
X143071058Y-38471049D01*
X142940030Y-38558599D01*
X142828599Y-38670030D01*
X142741049Y-38801058D01*
X142680743Y-38946649D01*
X142673183Y-38984655D01*
X140630000Y-36941473D01*
X140630000Y-36911207D01*
X140599257Y-36756649D01*
X140538951Y-36611058D01*
X140451401Y-36480030D01*
X140339970Y-36368599D01*
X140208942Y-36281049D01*
X140063351Y-36220743D01*
X139908793Y-36190000D01*
X139751207Y-36190000D01*
X139596649Y-36220743D01*
X139451058Y-36281049D01*
X139320030Y-36368599D01*
X139208599Y-36480030D01*
X139121049Y-36611058D01*
X139060743Y-36756649D01*
X139030000Y-36911207D01*
X139030000Y-37068793D01*
X139060743Y-37223351D01*
X139121049Y-37368942D01*
X139208599Y-37499970D01*
X139320030Y-37611401D01*
X139451058Y-37698951D01*
X139596649Y-37759257D01*
X139751207Y-37790000D01*
X139781473Y-37790000D01*
X141845051Y-39853578D01*
X141828599Y-39870030D01*
X141741049Y-40001058D01*
X141680743Y-40146649D01*
X141650000Y-40301207D01*
X141650000Y-40458793D01*
X141680743Y-40613351D01*
X141741049Y-40758942D01*
X141825962Y-40886023D01*
X141825961Y-52735511D01*
X140826581Y-53734891D01*
X140803684Y-53753683D01*
X140728705Y-53845045D01*
X140672990Y-53949279D01*
X140638682Y-54062379D01*
X140631428Y-54136026D01*
X140627097Y-54180000D01*
X140630000Y-54209474D01*
X140630000Y-54785610D01*
X140621097Y-54876000D01*
X140624001Y-54905483D01*
X140624000Y-56935959D01*
X138498382Y-59061579D01*
X138468116Y-59061579D01*
X138313558Y-59092322D01*
X138167967Y-59152628D01*
X138036939Y-59240178D01*
X137925508Y-59351609D01*
X137837958Y-59482637D01*
X137777652Y-59628228D01*
X137746909Y-59782786D01*
X137746909Y-59940372D01*
X137777652Y-60094930D01*
X137834586Y-60232380D01*
X137775043Y-60376129D01*
X137744300Y-60530687D01*
X137744300Y-60688273D01*
X137775043Y-60842831D01*
X137835349Y-60988422D01*
X137922899Y-61119450D01*
X138034330Y-61230881D01*
X138165358Y-61318431D01*
X138310949Y-61378737D01*
X138465507Y-61409480D01*
X138623093Y-61409480D01*
X138777651Y-61378737D01*
X138923242Y-61318431D01*
X139054270Y-61230881D01*
X139105640Y-61179511D01*
X139126530Y-61200401D01*
X139257558Y-61287951D01*
X139403149Y-61348257D01*
X139557707Y-61379000D01*
X139680840Y-61379000D01*
X138415049Y-62644792D01*
X138368558Y-62664049D01*
X138237530Y-62751599D01*
X138126099Y-62863030D01*
X138038549Y-62994058D01*
X137978243Y-63139649D01*
X137947500Y-63294207D01*
X137947500Y-63451793D01*
X137978243Y-63606351D01*
X138038549Y-63751942D01*
X138126099Y-63882970D01*
X138237530Y-63994401D01*
X138368558Y-64081951D01*
X138514149Y-64142257D01*
X138668707Y-64173000D01*
X138826293Y-64173000D01*
X138980851Y-64142257D01*
X139126442Y-64081951D01*
X139257470Y-63994401D01*
X139368901Y-63882970D01*
X139456451Y-63751942D01*
X139475708Y-63705451D01*
X141494153Y-61687007D01*
X141514783Y-61790719D01*
X141573204Y-61931760D01*
X141658018Y-62058694D01*
X141765966Y-62166642D01*
X141892900Y-62251456D01*
X142033941Y-62309877D01*
X142183669Y-62339660D01*
X142336331Y-62339660D01*
X142486059Y-62309877D01*
X142627100Y-62251456D01*
X142754034Y-62166642D01*
X142861982Y-62058694D01*
X142946796Y-61931760D01*
X143005217Y-61790719D01*
X143035000Y-61640991D01*
X143035000Y-61488329D01*
X143005217Y-61338601D01*
X142946796Y-61197560D01*
X142861982Y-61070626D01*
X142754034Y-60962678D01*
X142627100Y-60877864D01*
X142486059Y-60819443D01*
X142382347Y-60798813D01*
X143058661Y-60122500D01*
X144108173Y-60122500D01*
X144145000Y-60126127D01*
X144181827Y-60122500D01*
X144181835Y-60122500D01*
X144292026Y-60111647D01*
X144381847Y-60084400D01*
X145485341Y-60084400D01*
X146190601Y-60789660D01*
X146183669Y-60789660D01*
X146033941Y-60819443D01*
X145892900Y-60877864D01*
X145765966Y-60962678D01*
X145658018Y-61070626D01*
X145573204Y-61197560D01*
X145514783Y-61338601D01*
X145485000Y-61488329D01*
X145485000Y-61640991D01*
X145514783Y-61790719D01*
X145573204Y-61931760D01*
X145658018Y-62058694D01*
X145765966Y-62166642D01*
X145892900Y-62251456D01*
X146033941Y-62309877D01*
X146183669Y-62339660D01*
X146336331Y-62339660D01*
X146486059Y-62309877D01*
X146627100Y-62251456D01*
X146754034Y-62166642D01*
X146861982Y-62058694D01*
X146946796Y-61931760D01*
X147005217Y-61790719D01*
X147035000Y-61640991D01*
X147035000Y-61634060D01*
X148219046Y-62818106D01*
X148242525Y-62846715D01*
X148356727Y-62940439D01*
X148457042Y-62994058D01*
X148487019Y-63010081D01*
X148628393Y-63052967D01*
X148643237Y-63054429D01*
X148738585Y-63063820D01*
X148738591Y-63063820D01*
X148775419Y-63067447D01*
X148812247Y-63063820D01*
X149943660Y-63063820D01*
X149990217Y-63150923D01*
X150177600Y-63379250D01*
X150405927Y-63566633D01*
X150666424Y-63705871D01*
X150949079Y-63791613D01*
X151169370Y-63813310D01*
X152065990Y-63813310D01*
X152286281Y-63791613D01*
X152568936Y-63705871D01*
X152829433Y-63566633D01*
X153057760Y-63379250D01*
X153245143Y-63150923D01*
X153291700Y-63063820D01*
X153454993Y-63063820D01*
X153491820Y-63067447D01*
X153528647Y-63063820D01*
X153528655Y-63063820D01*
X153638846Y-63052967D01*
X153780221Y-63010081D01*
X153910513Y-62940439D01*
X154024715Y-62846715D01*
X154048199Y-62818101D01*
X155915296Y-60951004D01*
X155943905Y-60927525D01*
X155967764Y-60898454D01*
X156037629Y-60813323D01*
X156107271Y-60683031D01*
X156150157Y-60541656D01*
X156154239Y-60500207D01*
X156161010Y-60431465D01*
X156161010Y-60431458D01*
X156164637Y-60394630D01*
X156161010Y-60357802D01*
X156161010Y-55428855D01*
X156274703Y-55497071D01*
X156265527Y-64645000D01*
X130715526Y-64645000D01*
X130724701Y-55497429D01*
X130958961Y-55356873D01*
X130993086Y-55338633D01*
X131023199Y-55313919D01*
X131054452Y-55290718D01*
X131063078Y-55281192D01*
X131073027Y-55273027D01*
X131097749Y-55242904D01*
X131123867Y-55214060D01*
X131130469Y-55203034D01*
X131138633Y-55193086D01*
X131156996Y-55158730D01*
X131176993Y-55125334D01*
X131181319Y-55113226D01*
X131187383Y-55101881D01*
X131198689Y-55064611D01*
X131211788Y-55027948D01*
X131213669Y-55015227D01*
X131217403Y-55002918D01*
X131221220Y-54964162D01*
X131226916Y-54925645D01*
X131225000Y-54887007D01*
X131225000Y-54616193D01*
X131369465Y-54556354D01*
X131405000Y-54532610D01*
X131440535Y-54556354D01*
X131686220Y-54658120D01*
X131947037Y-54710000D01*
X132212963Y-54710000D01*
X132473780Y-54658120D01*
X132557001Y-54623649D01*
X132557001Y-54939870D01*
X132554098Y-54969344D01*
X132557001Y-54998817D01*
X132565683Y-55086964D01*
X132599991Y-55200064D01*
X132655705Y-55304298D01*
X132730684Y-55395661D01*
X132753587Y-55414457D01*
X133054800Y-55715671D01*
X133054800Y-56109787D01*
X133051897Y-56139261D01*
X133054800Y-56168734D01*
X133063482Y-56256881D01*
X133080201Y-56311997D01*
X133080201Y-57711865D01*
X133053351Y-57700743D01*
X132898793Y-57670000D01*
X132741207Y-57670000D01*
X132586649Y-57700743D01*
X132441058Y-57761049D01*
X132310030Y-57848599D01*
X132198599Y-57960030D01*
X132111049Y-58091058D01*
X132050743Y-58236649D01*
X132020000Y-58391207D01*
X132020000Y-58548793D01*
X132050743Y-58703351D01*
X132111049Y-58848942D01*
X132198599Y-58979970D01*
X132310030Y-59091401D01*
X132406682Y-59155982D01*
X132309975Y-59220599D01*
X132198544Y-59332030D01*
X132110994Y-59463058D01*
X132050688Y-59608649D01*
X132019945Y-59763207D01*
X132019945Y-59920793D01*
X132050688Y-60075351D01*
X132110994Y-60220942D01*
X132198544Y-60351970D01*
X132219945Y-60373371D01*
X132219946Y-61568283D01*
X132169799Y-61618430D01*
X132082249Y-61749458D01*
X132021943Y-61895049D01*
X131991200Y-62049607D01*
X131991200Y-62207193D01*
X132021943Y-62361751D01*
X132082249Y-62507342D01*
X132169799Y-62638370D01*
X132281230Y-62749801D01*
X132412258Y-62837351D01*
X132557849Y-62897657D01*
X132712407Y-62928400D01*
X132869993Y-62928400D01*
X133024551Y-62897657D01*
X133063227Y-62881637D01*
X134147084Y-63965494D01*
X134165876Y-63988392D01*
X134257238Y-64063371D01*
X134361472Y-64119085D01*
X134474572Y-64153393D01*
X134592192Y-64164978D01*
X134621666Y-64162075D01*
X135988131Y-64162075D01*
X136009532Y-64183476D01*
X136140560Y-64271026D01*
X136286151Y-64331332D01*
X136440709Y-64362075D01*
X136598295Y-64362075D01*
X136752853Y-64331332D01*
X136898444Y-64271026D01*
X137029472Y-64183476D01*
X137140903Y-64072045D01*
X137228453Y-63941017D01*
X137288759Y-63795426D01*
X137319502Y-63640868D01*
X137319502Y-63483282D01*
X137288759Y-63328724D01*
X137228453Y-63183133D01*
X137140903Y-63052105D01*
X137136015Y-63047217D01*
X137219821Y-62890426D01*
X137305563Y-62607771D01*
X137334515Y-62313820D01*
X137305563Y-62019869D01*
X137219821Y-61737214D01*
X137080583Y-61476717D01*
X136893200Y-61248390D01*
X136664873Y-61061007D01*
X136632718Y-61043820D01*
X136664873Y-61026633D01*
X136893200Y-60839250D01*
X137080583Y-60610923D01*
X137219821Y-60350426D01*
X137305563Y-60067771D01*
X137334515Y-59773820D01*
X137305563Y-59479869D01*
X137219821Y-59197214D01*
X137080583Y-58936717D01*
X136893200Y-58708390D01*
X136664873Y-58521007D01*
X136632718Y-58503820D01*
X136664873Y-58486633D01*
X136893200Y-58299250D01*
X137080583Y-58070923D01*
X137219821Y-57810426D01*
X137305563Y-57527771D01*
X137334515Y-57233820D01*
X137305563Y-56939869D01*
X137219821Y-56657214D01*
X137132235Y-56493351D01*
X137204997Y-56433637D01*
X137223793Y-56410734D01*
X137970528Y-55664000D01*
X138000793Y-55664000D01*
X138155351Y-55633257D01*
X138300942Y-55572951D01*
X138431970Y-55485401D01*
X138543401Y-55373970D01*
X138630951Y-55242942D01*
X138691257Y-55097351D01*
X138722000Y-54942793D01*
X138722000Y-54785207D01*
X138705316Y-54701332D01*
X138708895Y-54698395D01*
X138802619Y-54584193D01*
X138872261Y-54453901D01*
X138915147Y-54312526D01*
X138926000Y-54202335D01*
X138926000Y-47280828D01*
X138929627Y-47244000D01*
X138926000Y-47207172D01*
X138926000Y-47207165D01*
X138918985Y-47135940D01*
X139024291Y-47030634D01*
X139052895Y-47007159D01*
X139076369Y-46978556D01*
X139076376Y-46978549D01*
X139116218Y-46930000D01*
X139146619Y-46892957D01*
X139216261Y-46762665D01*
X139259147Y-46621290D01*
X139270000Y-46511098D01*
X139270000Y-46511093D01*
X139273627Y-46474265D01*
X139270000Y-46437437D01*
X139270000Y-46329841D01*
X139289257Y-46283351D01*
X139320000Y-46128793D01*
X139320000Y-45971207D01*
X139289257Y-45816649D01*
X139270000Y-45770159D01*
X139270000Y-45660659D01*
X140562452Y-44368208D01*
X140608942Y-44348951D01*
X140739970Y-44261401D01*
X140851401Y-44149970D01*
X140938951Y-44018942D01*
X140999257Y-43873351D01*
X141030000Y-43718793D01*
X141030000Y-43561207D01*
X140999257Y-43406649D01*
X140938951Y-43261058D01*
X140851401Y-43130030D01*
X140739970Y-43018599D01*
X140608942Y-42931049D01*
X140463351Y-42870743D01*
X140308793Y-42840000D01*
X140151207Y-42840000D01*
X139996649Y-42870743D01*
X139851058Y-42931049D01*
X139720030Y-43018599D01*
X139608599Y-43130030D01*
X139521049Y-43261058D01*
X139501792Y-43307548D01*
X138865763Y-43943577D01*
X138908951Y-43878942D01*
X138969257Y-43733351D01*
X139000000Y-43578793D01*
X139000000Y-43421207D01*
X138969257Y-43266649D01*
X138908951Y-43121058D01*
X138821401Y-42990030D01*
X138709970Y-42878599D01*
X138578942Y-42791049D01*
X138433351Y-42730743D01*
X138278793Y-42700000D01*
X138121207Y-42700000D01*
X137966649Y-42730743D01*
X137821058Y-42791049D01*
X137690030Y-42878599D01*
X137578599Y-42990030D01*
X137491049Y-43121058D01*
X137430743Y-43266649D01*
X137400000Y-43421207D01*
X137400000Y-43451472D01*
X136883586Y-43967887D01*
X136860683Y-43986683D01*
X136785704Y-44078046D01*
X136729990Y-44182280D01*
X136706801Y-44258726D01*
X136695682Y-44295380D01*
X136684097Y-44413000D01*
X136687000Y-44442474D01*
X136687001Y-45823628D01*
X136678466Y-45832163D01*
X136664873Y-45821007D01*
X136404376Y-45681769D01*
X136121721Y-45596027D01*
X136053120Y-45589270D01*
X136053120Y-43765915D01*
X136056023Y-43736441D01*
X136050000Y-43675291D01*
X136050000Y-35298527D01*
X139803420Y-31545108D01*
X139826317Y-31526317D01*
X139901296Y-31434955D01*
X139957010Y-31330721D01*
X139973739Y-31275573D01*
X139991319Y-31217621D01*
X140002903Y-31100000D01*
X140000000Y-31070524D01*
X140000000Y-30825081D01*
X140106649Y-30869257D01*
G37*
X140106649Y-30869257D02*
X140261207Y-30900000D01*
X140291473Y-30900000D01*
X143522999Y-34131527D01*
X143522999Y-38380000D01*
X143371207Y-38380000D01*
X143216649Y-38410743D01*
X143071058Y-38471049D01*
X142940030Y-38558599D01*
X142828599Y-38670030D01*
X142741049Y-38801058D01*
X142680743Y-38946649D01*
X142673183Y-38984655D01*
X140630000Y-36941473D01*
X140630000Y-36911207D01*
X140599257Y-36756649D01*
X140538951Y-36611058D01*
X140451401Y-36480030D01*
X140339970Y-36368599D01*
X140208942Y-36281049D01*
X140063351Y-36220743D01*
X139908793Y-36190000D01*
X139751207Y-36190000D01*
X139596649Y-36220743D01*
X139451058Y-36281049D01*
X139320030Y-36368599D01*
X139208599Y-36480030D01*
X139121049Y-36611058D01*
X139060743Y-36756649D01*
X139030000Y-36911207D01*
X139030000Y-37068793D01*
X139060743Y-37223351D01*
X139121049Y-37368942D01*
X139208599Y-37499970D01*
X139320030Y-37611401D01*
X139451058Y-37698951D01*
X139596649Y-37759257D01*
X139751207Y-37790000D01*
X139781473Y-37790000D01*
X141845051Y-39853578D01*
X141828599Y-39870030D01*
X141741049Y-40001058D01*
X141680743Y-40146649D01*
X141650000Y-40301207D01*
X141650000Y-40458793D01*
X141680743Y-40613351D01*
X141741049Y-40758942D01*
X141825962Y-40886023D01*
X141825961Y-52735511D01*
X140826581Y-53734891D01*
X140803684Y-53753683D01*
X140728705Y-53845045D01*
X140672990Y-53949279D01*
X140638682Y-54062379D01*
X140631428Y-54136026D01*
X140627097Y-54180000D01*
X140630000Y-54209474D01*
X140630000Y-54785610D01*
X140621097Y-54876000D01*
X140624001Y-54905483D01*
X140624000Y-56935959D01*
X138498382Y-59061579D01*
X138468116Y-59061579D01*
X138313558Y-59092322D01*
X138167967Y-59152628D01*
X138036939Y-59240178D01*
X137925508Y-59351609D01*
X137837958Y-59482637D01*
X137777652Y-59628228D01*
X137746909Y-59782786D01*
X137746909Y-59940372D01*
X137777652Y-60094930D01*
X137834586Y-60232380D01*
X137775043Y-60376129D01*
X137744300Y-60530687D01*
X137744300Y-60688273D01*
X137775043Y-60842831D01*
X137835349Y-60988422D01*
X137922899Y-61119450D01*
X138034330Y-61230881D01*
X138165358Y-61318431D01*
X138310949Y-61378737D01*
X138465507Y-61409480D01*
X138623093Y-61409480D01*
X138777651Y-61378737D01*
X138923242Y-61318431D01*
X139054270Y-61230881D01*
X139105640Y-61179511D01*
X139126530Y-61200401D01*
X139257558Y-61287951D01*
X139403149Y-61348257D01*
X139557707Y-61379000D01*
X139680840Y-61379000D01*
X138415049Y-62644792D01*
X138368558Y-62664049D01*
X138237530Y-62751599D01*
X138126099Y-62863030D01*
X138038549Y-62994058D01*
X137978243Y-63139649D01*
X137947500Y-63294207D01*
X137947500Y-63451793D01*
X137978243Y-63606351D01*
X138038549Y-63751942D01*
X138126099Y-63882970D01*
X138237530Y-63994401D01*
X138368558Y-64081951D01*
X138514149Y-64142257D01*
X138668707Y-64173000D01*
X138826293Y-64173000D01*
X138980851Y-64142257D01*
X139126442Y-64081951D01*
X139257470Y-63994401D01*
X139368901Y-63882970D01*
X139456451Y-63751942D01*
X139475708Y-63705451D01*
X141494153Y-61687007D01*
X141514783Y-61790719D01*
X141573204Y-61931760D01*
X141658018Y-62058694D01*
X141765966Y-62166642D01*
X141892900Y-62251456D01*
X142033941Y-62309877D01*
X142183669Y-62339660D01*
X142336331Y-62339660D01*
X142486059Y-62309877D01*
X142627100Y-62251456D01*
X142754034Y-62166642D01*
X142861982Y-62058694D01*
X142946796Y-61931760D01*
X143005217Y-61790719D01*
X143035000Y-61640991D01*
X143035000Y-61488329D01*
X143005217Y-61338601D01*
X142946796Y-61197560D01*
X142861982Y-61070626D01*
X142754034Y-60962678D01*
X142627100Y-60877864D01*
X142486059Y-60819443D01*
X142382347Y-60798813D01*
X143058661Y-60122500D01*
X144108173Y-60122500D01*
X144145000Y-60126127D01*
X144181827Y-60122500D01*
X144181835Y-60122500D01*
X144292026Y-60111647D01*
X144381847Y-60084400D01*
X145485341Y-60084400D01*
X146190601Y-60789660D01*
X146183669Y-60789660D01*
X146033941Y-60819443D01*
X145892900Y-60877864D01*
X145765966Y-60962678D01*
X145658018Y-61070626D01*
X145573204Y-61197560D01*
X145514783Y-61338601D01*
X145485000Y-61488329D01*
X145485000Y-61640991D01*
X145514783Y-61790719D01*
X145573204Y-61931760D01*
X145658018Y-62058694D01*
X145765966Y-62166642D01*
X145892900Y-62251456D01*
X146033941Y-62309877D01*
X146183669Y-62339660D01*
X146336331Y-62339660D01*
X146486059Y-62309877D01*
X146627100Y-62251456D01*
X146754034Y-62166642D01*
X146861982Y-62058694D01*
X146946796Y-61931760D01*
X147005217Y-61790719D01*
X147035000Y-61640991D01*
X147035000Y-61634060D01*
X148219046Y-62818106D01*
X148242525Y-62846715D01*
X148356727Y-62940439D01*
X148457042Y-62994058D01*
X148487019Y-63010081D01*
X148628393Y-63052967D01*
X148643237Y-63054429D01*
X148738585Y-63063820D01*
X148738591Y-63063820D01*
X148775419Y-63067447D01*
X148812247Y-63063820D01*
X149943660Y-63063820D01*
X149990217Y-63150923D01*
X150177600Y-63379250D01*
X150405927Y-63566633D01*
X150666424Y-63705871D01*
X150949079Y-63791613D01*
X151169370Y-63813310D01*
X152065990Y-63813310D01*
X152286281Y-63791613D01*
X152568936Y-63705871D01*
X152829433Y-63566633D01*
X153057760Y-63379250D01*
X153245143Y-63150923D01*
X153291700Y-63063820D01*
X153454993Y-63063820D01*
X153491820Y-63067447D01*
X153528647Y-63063820D01*
X153528655Y-63063820D01*
X153638846Y-63052967D01*
X153780221Y-63010081D01*
X153910513Y-62940439D01*
X154024715Y-62846715D01*
X154048199Y-62818101D01*
X155915296Y-60951004D01*
X155943905Y-60927525D01*
X155967764Y-60898454D01*
X156037629Y-60813323D01*
X156107271Y-60683031D01*
X156150157Y-60541656D01*
X156154239Y-60500207D01*
X156161010Y-60431465D01*
X156161010Y-60431458D01*
X156164637Y-60394630D01*
X156161010Y-60357802D01*
X156161010Y-55428855D01*
X156274703Y-55497071D01*
X156265527Y-64645000D01*
X130715526Y-64645000D01*
X130724701Y-55497429D01*
X130958961Y-55356873D01*
X130993086Y-55338633D01*
X131023199Y-55313919D01*
X131054452Y-55290718D01*
X131063078Y-55281192D01*
X131073027Y-55273027D01*
X131097749Y-55242904D01*
X131123867Y-55214060D01*
X131130469Y-55203034D01*
X131138633Y-55193086D01*
X131156996Y-55158730D01*
X131176993Y-55125334D01*
X131181319Y-55113226D01*
X131187383Y-55101881D01*
X131198689Y-55064611D01*
X131211788Y-55027948D01*
X131213669Y-55015227D01*
X131217403Y-55002918D01*
X131221220Y-54964162D01*
X131226916Y-54925645D01*
X131225000Y-54887007D01*
X131225000Y-54616193D01*
X131369465Y-54556354D01*
X131405000Y-54532610D01*
X131440535Y-54556354D01*
X131686220Y-54658120D01*
X131947037Y-54710000D01*
X132212963Y-54710000D01*
X132473780Y-54658120D01*
X132557001Y-54623649D01*
X132557001Y-54939870D01*
X132554098Y-54969344D01*
X132557001Y-54998817D01*
X132565683Y-55086964D01*
X132599991Y-55200064D01*
X132655705Y-55304298D01*
X132730684Y-55395661D01*
X132753587Y-55414457D01*
X133054800Y-55715671D01*
X133054800Y-56109787D01*
X133051897Y-56139261D01*
X133054800Y-56168734D01*
X133063482Y-56256881D01*
X133080201Y-56311997D01*
X133080201Y-57711865D01*
X133053351Y-57700743D01*
X132898793Y-57670000D01*
X132741207Y-57670000D01*
X132586649Y-57700743D01*
X132441058Y-57761049D01*
X132310030Y-57848599D01*
X132198599Y-57960030D01*
X132111049Y-58091058D01*
X132050743Y-58236649D01*
X132020000Y-58391207D01*
X132020000Y-58548793D01*
X132050743Y-58703351D01*
X132111049Y-58848942D01*
X132198599Y-58979970D01*
X132310030Y-59091401D01*
X132406682Y-59155982D01*
X132309975Y-59220599D01*
X132198544Y-59332030D01*
X132110994Y-59463058D01*
X132050688Y-59608649D01*
X132019945Y-59763207D01*
X132019945Y-59920793D01*
X132050688Y-60075351D01*
X132110994Y-60220942D01*
X132198544Y-60351970D01*
X132219945Y-60373371D01*
X132219946Y-61568283D01*
X132169799Y-61618430D01*
X132082249Y-61749458D01*
X132021943Y-61895049D01*
X131991200Y-62049607D01*
X131991200Y-62207193D01*
X132021943Y-62361751D01*
X132082249Y-62507342D01*
X132169799Y-62638370D01*
X132281230Y-62749801D01*
X132412258Y-62837351D01*
X132557849Y-62897657D01*
X132712407Y-62928400D01*
X132869993Y-62928400D01*
X133024551Y-62897657D01*
X133063227Y-62881637D01*
X134147084Y-63965494D01*
X134165876Y-63988392D01*
X134257238Y-64063371D01*
X134361472Y-64119085D01*
X134474572Y-64153393D01*
X134592192Y-64164978D01*
X134621666Y-64162075D01*
X135988131Y-64162075D01*
X136009532Y-64183476D01*
X136140560Y-64271026D01*
X136286151Y-64331332D01*
X136440709Y-64362075D01*
X136598295Y-64362075D01*
X136752853Y-64331332D01*
X136898444Y-64271026D01*
X137029472Y-64183476D01*
X137140903Y-64072045D01*
X137228453Y-63941017D01*
X137288759Y-63795426D01*
X137319502Y-63640868D01*
X137319502Y-63483282D01*
X137288759Y-63328724D01*
X137228453Y-63183133D01*
X137140903Y-63052105D01*
X137136015Y-63047217D01*
X137219821Y-62890426D01*
X137305563Y-62607771D01*
X137334515Y-62313820D01*
X137305563Y-62019869D01*
X137219821Y-61737214D01*
X137080583Y-61476717D01*
X136893200Y-61248390D01*
X136664873Y-61061007D01*
X136632718Y-61043820D01*
X136664873Y-61026633D01*
X136893200Y-60839250D01*
X137080583Y-60610923D01*
X137219821Y-60350426D01*
X137305563Y-60067771D01*
X137334515Y-59773820D01*
X137305563Y-59479869D01*
X137219821Y-59197214D01*
X137080583Y-58936717D01*
X136893200Y-58708390D01*
X136664873Y-58521007D01*
X136632718Y-58503820D01*
X136664873Y-58486633D01*
X136893200Y-58299250D01*
X137080583Y-58070923D01*
X137219821Y-57810426D01*
X137305563Y-57527771D01*
X137334515Y-57233820D01*
X137305563Y-56939869D01*
X137219821Y-56657214D01*
X137132235Y-56493351D01*
X137204997Y-56433637D01*
X137223793Y-56410734D01*
X137970528Y-55664000D01*
X138000793Y-55664000D01*
X138155351Y-55633257D01*
X138300942Y-55572951D01*
X138431970Y-55485401D01*
X138543401Y-55373970D01*
X138630951Y-55242942D01*
X138691257Y-55097351D01*
X138722000Y-54942793D01*
X138722000Y-54785207D01*
X138705316Y-54701332D01*
X138708895Y-54698395D01*
X138802619Y-54584193D01*
X138872261Y-54453901D01*
X138915147Y-54312526D01*
X138926000Y-54202335D01*
X138926000Y-47280828D01*
X138929627Y-47244000D01*
X138926000Y-47207172D01*
X138926000Y-47207165D01*
X138918985Y-47135940D01*
X139024291Y-47030634D01*
X139052895Y-47007159D01*
X139076369Y-46978556D01*
X139076376Y-46978549D01*
X139116218Y-46930000D01*
X139146619Y-46892957D01*
X139216261Y-46762665D01*
X139259147Y-46621290D01*
X139270000Y-46511098D01*
X139270000Y-46511093D01*
X139273627Y-46474265D01*
X139270000Y-46437437D01*
X139270000Y-46329841D01*
X139289257Y-46283351D01*
X139320000Y-46128793D01*
X139320000Y-45971207D01*
X139289257Y-45816649D01*
X139270000Y-45770159D01*
X139270000Y-45660659D01*
X140562452Y-44368208D01*
X140608942Y-44348951D01*
X140739970Y-44261401D01*
X140851401Y-44149970D01*
X140938951Y-44018942D01*
X140999257Y-43873351D01*
X141030000Y-43718793D01*
X141030000Y-43561207D01*
X140999257Y-43406649D01*
X140938951Y-43261058D01*
X140851401Y-43130030D01*
X140739970Y-43018599D01*
X140608942Y-42931049D01*
X140463351Y-42870743D01*
X140308793Y-42840000D01*
X140151207Y-42840000D01*
X139996649Y-42870743D01*
X139851058Y-42931049D01*
X139720030Y-43018599D01*
X139608599Y-43130030D01*
X139521049Y-43261058D01*
X139501792Y-43307548D01*
X138865763Y-43943577D01*
X138908951Y-43878942D01*
X138969257Y-43733351D01*
X139000000Y-43578793D01*
X139000000Y-43421207D01*
X138969257Y-43266649D01*
X138908951Y-43121058D01*
X138821401Y-42990030D01*
X138709970Y-42878599D01*
X138578942Y-42791049D01*
X138433351Y-42730743D01*
X138278793Y-42700000D01*
X138121207Y-42700000D01*
X137966649Y-42730743D01*
X137821058Y-42791049D01*
X137690030Y-42878599D01*
X137578599Y-42990030D01*
X137491049Y-43121058D01*
X137430743Y-43266649D01*
X137400000Y-43421207D01*
X137400000Y-43451472D01*
X136883586Y-43967887D01*
X136860683Y-43986683D01*
X136785704Y-44078046D01*
X136729990Y-44182280D01*
X136706801Y-44258726D01*
X136695682Y-44295380D01*
X136684097Y-44413000D01*
X136687000Y-44442474D01*
X136687001Y-45823628D01*
X136678466Y-45832163D01*
X136664873Y-45821007D01*
X136404376Y-45681769D01*
X136121721Y-45596027D01*
X136053120Y-45589270D01*
X136053120Y-43765915D01*
X136056023Y-43736441D01*
X136050000Y-43675291D01*
X136050000Y-35298527D01*
X139803420Y-31545108D01*
X139826317Y-31526317D01*
X139901296Y-31434955D01*
X139957010Y-31330721D01*
X139973739Y-31275573D01*
X139991319Y-31217621D01*
X140002903Y-31100000D01*
X140000000Y-31070524D01*
X140000000Y-30825081D01*
X140106649Y-30869257D01*
G36*
X148262049Y-53337942D02*
G01*
X148306702Y-53404770D01*
X147726586Y-53984887D01*
X147703683Y-54003683D01*
X147628704Y-54095046D01*
X147572990Y-54199280D01*
X147543747Y-54295683D01*
X147538682Y-54312380D01*
X147527097Y-54430000D01*
X147530000Y-54459474D01*
X147530001Y-54978628D01*
X147508599Y-55000030D01*
X147421049Y-55131058D01*
X147360743Y-55276649D01*
X147330000Y-55431207D01*
X147330000Y-55588793D01*
X147360743Y-55743351D01*
X147421049Y-55888942D01*
X147508599Y-56019970D01*
X147620030Y-56131401D01*
X147751058Y-56218951D01*
X147896649Y-56279257D01*
X148051207Y-56310000D01*
X148208793Y-56310000D01*
X148363351Y-56279257D01*
X148508942Y-56218951D01*
X148639970Y-56131401D01*
X148751401Y-56019970D01*
X148838951Y-55888942D01*
X148883652Y-55781023D01*
X148969030Y-55866401D01*
X149100058Y-55953951D01*
X149245649Y-56014257D01*
X149400207Y-56045000D01*
X149557793Y-56045000D01*
X149712351Y-56014257D01*
X149857942Y-55953951D01*
X149988970Y-55866401D01*
X150100401Y-55754970D01*
X150133470Y-55705478D01*
X150177600Y-55759250D01*
X150405927Y-55946633D01*
X150438082Y-55963820D01*
X150405927Y-55981007D01*
X150177600Y-56168390D01*
X149990217Y-56396717D01*
X149850979Y-56657214D01*
X149765237Y-56939869D01*
X149736285Y-57233820D01*
X149765237Y-57527771D01*
X149850979Y-57810426D01*
X149990217Y-58070923D01*
X150177600Y-58299250D01*
X150347959Y-58439060D01*
X150221909Y-58522799D01*
X149997467Y-58746048D01*
X149820892Y-59008794D01*
X149698969Y-59300939D01*
X149686725Y-59371406D01*
X149795710Y-59619820D01*
X151463680Y-59619820D01*
X151463680Y-59599820D01*
X151771680Y-59599820D01*
X151771680Y-59619820D01*
X153439650Y-59619820D01*
X153548635Y-59371406D01*
X153536391Y-59300939D01*
X153414468Y-59008794D01*
X153237893Y-58746048D01*
X153013451Y-58522799D01*
X152887401Y-58439060D01*
X153057760Y-58299250D01*
X153245143Y-58070923D01*
X153384381Y-57810426D01*
X153470123Y-57527771D01*
X153499075Y-57233820D01*
X153470123Y-56939869D01*
X153384381Y-56657214D01*
X153245143Y-56396717D01*
X153057760Y-56168390D01*
X152829433Y-55981007D01*
X152797278Y-55963820D01*
X152829433Y-55946633D01*
X153057760Y-55759250D01*
X153245143Y-55530923D01*
X153384381Y-55270426D01*
X153466882Y-54998454D01*
X153589049Y-55049057D01*
X153743607Y-55079800D01*
X153901193Y-55079800D01*
X154055751Y-55049057D01*
X154201342Y-54988751D01*
X154287039Y-54931490D01*
X154313382Y-54980774D01*
X154338721Y-55011649D01*
X154383624Y-55066364D01*
X154383627Y-55066367D01*
X154407106Y-55094976D01*
X154435715Y-55118455D01*
X154661010Y-55343750D01*
X154661011Y-60083969D01*
X153253197Y-61491784D01*
X153245143Y-61476717D01*
X153057760Y-61248390D01*
X152887401Y-61108580D01*
X153013451Y-61024841D01*
X153237893Y-60801592D01*
X153414468Y-60538846D01*
X153536391Y-60246701D01*
X153548635Y-60176234D01*
X153439650Y-59927820D01*
X151771680Y-59927820D01*
X151771680Y-59947820D01*
X151463680Y-59947820D01*
X151463680Y-59927820D01*
X149795710Y-59927820D01*
X149686725Y-60176234D01*
X149698969Y-60246701D01*
X149820892Y-60538846D01*
X149997467Y-60801592D01*
X150221909Y-61024841D01*
X150347959Y-61108580D01*
X150177600Y-61248390D01*
X149990217Y-61476717D01*
X149943660Y-61563820D01*
X149086080Y-61563820D01*
X146524208Y-59001949D01*
X146504951Y-58955458D01*
X146417401Y-58824430D01*
X146305970Y-58712999D01*
X146174942Y-58625449D01*
X146029351Y-58565143D01*
X145874793Y-58534400D01*
X145717207Y-58534400D01*
X145562649Y-58565143D01*
X145516159Y-58584400D01*
X144219928Y-58584400D01*
X144183100Y-58580773D01*
X144146273Y-58584400D01*
X144146265Y-58584400D01*
X144036074Y-58595253D01*
X143946253Y-58622500D01*
X142784824Y-58622500D01*
X142747999Y-58618873D01*
X142711174Y-58622500D01*
X142711165Y-58622500D01*
X142600974Y-58633353D01*
X142459599Y-58676239D01*
X142329307Y-58745881D01*
X142329305Y-58745882D01*
X142329306Y-58745882D01*
X142243715Y-58816124D01*
X142243708Y-58816131D01*
X142215105Y-58839605D01*
X142191630Y-58868209D01*
X140436500Y-60623340D01*
X140436500Y-60500207D01*
X140405757Y-60345649D01*
X140361700Y-60239287D01*
X142628412Y-57972576D01*
X142631049Y-57978942D01*
X142718599Y-58109970D01*
X142830030Y-58221401D01*
X142961058Y-58308951D01*
X143106649Y-58369257D01*
X143261207Y-58400000D01*
X143418793Y-58400000D01*
X143573351Y-58369257D01*
X143718942Y-58308951D01*
X143849970Y-58221401D01*
X143961401Y-58109970D01*
X144048951Y-57978942D01*
X144109257Y-57833351D01*
X144140000Y-57678793D01*
X144140000Y-57648527D01*
X146402619Y-55385909D01*
X146425517Y-55367117D01*
X146500496Y-55275755D01*
X146556210Y-55171521D01*
X146571797Y-55120137D01*
X146590518Y-55058421D01*
X146602103Y-54940800D01*
X146599200Y-54911326D01*
X146599200Y-54883927D01*
X148227821Y-53255308D01*
X148262049Y-53337942D01*
G37*
X148262049Y-53337942D02*
X148306702Y-53404770D01*
X147726586Y-53984887D01*
X147703683Y-54003683D01*
X147628704Y-54095046D01*
X147572990Y-54199280D01*
X147543747Y-54295683D01*
X147538682Y-54312380D01*
X147527097Y-54430000D01*
X147530000Y-54459474D01*
X147530001Y-54978628D01*
X147508599Y-55000030D01*
X147421049Y-55131058D01*
X147360743Y-55276649D01*
X147330000Y-55431207D01*
X147330000Y-55588793D01*
X147360743Y-55743351D01*
X147421049Y-55888942D01*
X147508599Y-56019970D01*
X147620030Y-56131401D01*
X147751058Y-56218951D01*
X147896649Y-56279257D01*
X148051207Y-56310000D01*
X148208793Y-56310000D01*
X148363351Y-56279257D01*
X148508942Y-56218951D01*
X148639970Y-56131401D01*
X148751401Y-56019970D01*
X148838951Y-55888942D01*
X148883652Y-55781023D01*
X148969030Y-55866401D01*
X149100058Y-55953951D01*
X149245649Y-56014257D01*
X149400207Y-56045000D01*
X149557793Y-56045000D01*
X149712351Y-56014257D01*
X149857942Y-55953951D01*
X149988970Y-55866401D01*
X150100401Y-55754970D01*
X150133470Y-55705478D01*
X150177600Y-55759250D01*
X150405927Y-55946633D01*
X150438082Y-55963820D01*
X150405927Y-55981007D01*
X150177600Y-56168390D01*
X149990217Y-56396717D01*
X149850979Y-56657214D01*
X149765237Y-56939869D01*
X149736285Y-57233820D01*
X149765237Y-57527771D01*
X149850979Y-57810426D01*
X149990217Y-58070923D01*
X150177600Y-58299250D01*
X150347959Y-58439060D01*
X150221909Y-58522799D01*
X149997467Y-58746048D01*
X149820892Y-59008794D01*
X149698969Y-59300939D01*
X149686725Y-59371406D01*
X149795710Y-59619820D01*
X151463680Y-59619820D01*
X151463680Y-59599820D01*
X151771680Y-59599820D01*
X151771680Y-59619820D01*
X153439650Y-59619820D01*
X153548635Y-59371406D01*
X153536391Y-59300939D01*
X153414468Y-59008794D01*
X153237893Y-58746048D01*
X153013451Y-58522799D01*
X152887401Y-58439060D01*
X153057760Y-58299250D01*
X153245143Y-58070923D01*
X153384381Y-57810426D01*
X153470123Y-57527771D01*
X153499075Y-57233820D01*
X153470123Y-56939869D01*
X153384381Y-56657214D01*
X153245143Y-56396717D01*
X153057760Y-56168390D01*
X152829433Y-55981007D01*
X152797278Y-55963820D01*
X152829433Y-55946633D01*
X153057760Y-55759250D01*
X153245143Y-55530923D01*
X153384381Y-55270426D01*
X153466882Y-54998454D01*
X153589049Y-55049057D01*
X153743607Y-55079800D01*
X153901193Y-55079800D01*
X154055751Y-55049057D01*
X154201342Y-54988751D01*
X154287039Y-54931490D01*
X154313382Y-54980774D01*
X154338721Y-55011649D01*
X154383624Y-55066364D01*
X154383627Y-55066367D01*
X154407106Y-55094976D01*
X154435715Y-55118455D01*
X154661010Y-55343750D01*
X154661011Y-60083969D01*
X153253197Y-61491784D01*
X153245143Y-61476717D01*
X153057760Y-61248390D01*
X152887401Y-61108580D01*
X153013451Y-61024841D01*
X153237893Y-60801592D01*
X153414468Y-60538846D01*
X153536391Y-60246701D01*
X153548635Y-60176234D01*
X153439650Y-59927820D01*
X151771680Y-59927820D01*
X151771680Y-59947820D01*
X151463680Y-59947820D01*
X151463680Y-59927820D01*
X149795710Y-59927820D01*
X149686725Y-60176234D01*
X149698969Y-60246701D01*
X149820892Y-60538846D01*
X149997467Y-60801592D01*
X150221909Y-61024841D01*
X150347959Y-61108580D01*
X150177600Y-61248390D01*
X149990217Y-61476717D01*
X149943660Y-61563820D01*
X149086080Y-61563820D01*
X146524208Y-59001949D01*
X146504951Y-58955458D01*
X146417401Y-58824430D01*
X146305970Y-58712999D01*
X146174942Y-58625449D01*
X146029351Y-58565143D01*
X145874793Y-58534400D01*
X145717207Y-58534400D01*
X145562649Y-58565143D01*
X145516159Y-58584400D01*
X144219928Y-58584400D01*
X144183100Y-58580773D01*
X144146273Y-58584400D01*
X144146265Y-58584400D01*
X144036074Y-58595253D01*
X143946253Y-58622500D01*
X142784824Y-58622500D01*
X142747999Y-58618873D01*
X142711174Y-58622500D01*
X142711165Y-58622500D01*
X142600974Y-58633353D01*
X142459599Y-58676239D01*
X142329307Y-58745881D01*
X142329305Y-58745882D01*
X142329306Y-58745882D01*
X142243715Y-58816124D01*
X142243708Y-58816131D01*
X142215105Y-58839605D01*
X142191630Y-58868209D01*
X140436500Y-60623340D01*
X140436500Y-60500207D01*
X140405757Y-60345649D01*
X140361700Y-60239287D01*
X142628412Y-57972576D01*
X142631049Y-57978942D01*
X142718599Y-58109970D01*
X142830030Y-58221401D01*
X142961058Y-58308951D01*
X143106649Y-58369257D01*
X143261207Y-58400000D01*
X143418793Y-58400000D01*
X143573351Y-58369257D01*
X143718942Y-58308951D01*
X143849970Y-58221401D01*
X143961401Y-58109970D01*
X144048951Y-57978942D01*
X144109257Y-57833351D01*
X144140000Y-57678793D01*
X144140000Y-57648527D01*
X146402619Y-55385909D01*
X146425517Y-55367117D01*
X146500496Y-55275755D01*
X146556210Y-55171521D01*
X146571797Y-55120137D01*
X146590518Y-55058421D01*
X146602103Y-54940800D01*
X146599200Y-54911326D01*
X146599200Y-54883927D01*
X148227821Y-53255308D01*
X148262049Y-53337942D01*
G36*
X148700000Y-25048528D02*
G01*
X148700000Y-25078793D01*
X148730743Y-25233351D01*
X148791049Y-25378942D01*
X148878599Y-25509970D01*
X148990030Y-25621401D01*
X149121058Y-25708951D01*
X149266649Y-25769257D01*
X149421207Y-25800000D01*
X149578793Y-25800000D01*
X149733351Y-25769257D01*
X149878942Y-25708951D01*
X150009970Y-25621401D01*
X150121401Y-25509970D01*
X150208951Y-25378942D01*
X150269257Y-25233351D01*
X150270180Y-25228708D01*
X150334891Y-25293419D01*
X150353683Y-25316317D01*
X150445045Y-25391296D01*
X150510563Y-25426316D01*
X150549278Y-25447010D01*
X150594551Y-25460743D01*
X150662379Y-25481318D01*
X150750222Y-25489970D01*
X150780000Y-25492903D01*
X150809474Y-25490000D01*
X150899013Y-25490000D01*
X152442990Y-27033978D01*
X152442991Y-29005968D01*
X152440087Y-29035451D01*
X152451672Y-29153072D01*
X152483457Y-29257850D01*
X152485981Y-29266172D01*
X152541695Y-29370406D01*
X152616674Y-29461768D01*
X152639572Y-29480560D01*
X152920000Y-29760988D01*
X152920001Y-31560517D01*
X152917097Y-31590000D01*
X152928682Y-31707620D01*
X152956135Y-31798120D01*
X152962991Y-31820721D01*
X153018705Y-31924955D01*
X153093684Y-32016317D01*
X153116582Y-32035109D01*
X153667014Y-32585541D01*
X153641880Y-32646220D01*
X153590000Y-32907037D01*
X153590000Y-33172963D01*
X153641880Y-33433780D01*
X153743646Y-33679465D01*
X153891387Y-33900575D01*
X154079425Y-34088613D01*
X154300535Y-34236354D01*
X154478332Y-34310000D01*
X154300535Y-34383646D01*
X154079425Y-34531387D01*
X153891387Y-34719425D01*
X153743646Y-34940535D01*
X153641880Y-35186220D01*
X153590000Y-35447037D01*
X153590000Y-35712963D01*
X153636808Y-35948280D01*
X151030000Y-33341473D01*
X151030000Y-28041371D01*
X151051401Y-28019970D01*
X151138951Y-27888942D01*
X151199257Y-27743351D01*
X151230000Y-27588793D01*
X151230000Y-27431207D01*
X151199257Y-27276649D01*
X151138951Y-27131058D01*
X151051401Y-27000030D01*
X150939970Y-26888599D01*
X150808942Y-26801049D01*
X150663351Y-26740743D01*
X150508793Y-26710000D01*
X150351207Y-26710000D01*
X150196649Y-26740743D01*
X150051058Y-26801049D01*
X149920030Y-26888599D01*
X149808599Y-27000030D01*
X149721049Y-27131058D01*
X149660743Y-27276649D01*
X149630000Y-27431207D01*
X149630000Y-27588793D01*
X149660743Y-27743351D01*
X149721049Y-27888942D01*
X149780958Y-27978603D01*
X149669649Y-28000743D01*
X149524058Y-28061049D01*
X149393030Y-28148599D01*
X149281599Y-28260030D01*
X149194049Y-28391058D01*
X149133743Y-28536649D01*
X149103000Y-28691207D01*
X149103000Y-28848793D01*
X149133743Y-29003351D01*
X149194049Y-29148942D01*
X149271652Y-29265083D01*
X149142649Y-29290743D01*
X148997058Y-29351049D01*
X148866030Y-29438599D01*
X148754599Y-29550030D01*
X148667049Y-29681058D01*
X148606743Y-29826649D01*
X148576000Y-29981207D01*
X148576000Y-30138793D01*
X148606743Y-30293351D01*
X148667049Y-30438942D01*
X148754599Y-30569970D01*
X148784482Y-30599853D01*
X148784682Y-30601885D01*
X148818990Y-30714985D01*
X148874705Y-30819219D01*
X148949684Y-30910581D01*
X148972582Y-30929373D01*
X148975990Y-30932781D01*
X148975991Y-33631428D01*
X148973087Y-33660911D01*
X148984672Y-33778531D01*
X149009736Y-33861155D01*
X149018981Y-33891632D01*
X149074695Y-33995866D01*
X149123407Y-34055222D01*
X149118493Y-34060136D01*
X149030943Y-34191164D01*
X148970637Y-34336755D01*
X148939894Y-34491313D01*
X148939894Y-34648899D01*
X148970637Y-34803457D01*
X149030943Y-34949048D01*
X149118493Y-35080076D01*
X149139894Y-35101477D01*
X149139895Y-36510373D01*
X149136991Y-36539856D01*
X149148576Y-36657476D01*
X149177681Y-36753422D01*
X149182885Y-36770577D01*
X149238599Y-36874811D01*
X149313578Y-36966173D01*
X149336475Y-36984964D01*
X149914929Y-37563419D01*
X149933721Y-37586317D01*
X150025083Y-37661296D01*
X150129317Y-37717010D01*
X150242344Y-37751296D01*
X150242417Y-37751318D01*
X150360037Y-37762903D01*
X150389511Y-37760000D01*
X151439172Y-37760000D01*
X151496325Y-37817153D01*
X151539609Y-39508862D01*
X148648583Y-42399890D01*
X148625685Y-42418682D01*
X148550706Y-42510044D01*
X148504235Y-42596986D01*
X148494992Y-42614278D01*
X148460683Y-42727379D01*
X148449098Y-42844999D01*
X148452002Y-42874483D01*
X148452001Y-46893474D01*
X148230000Y-46671473D01*
X148230000Y-26391371D01*
X148251401Y-26369970D01*
X148338951Y-26238942D01*
X148399257Y-26093351D01*
X148430000Y-25938793D01*
X148430000Y-25781207D01*
X148399257Y-25626649D01*
X148338951Y-25481058D01*
X148251401Y-25350030D01*
X148139970Y-25238599D01*
X148008942Y-25151049D01*
X147863351Y-25090743D01*
X147708793Y-25060000D01*
X147551207Y-25060000D01*
X147396649Y-25090743D01*
X147251058Y-25151049D01*
X147120030Y-25238599D01*
X147008599Y-25350030D01*
X146921049Y-25481058D01*
X146860743Y-25626649D01*
X146830000Y-25781207D01*
X146830000Y-25938793D01*
X146860743Y-26093351D01*
X146921049Y-26238942D01*
X147008599Y-26369970D01*
X147030001Y-26391372D01*
X147030000Y-43910000D01*
X147024207Y-43910000D01*
X146869649Y-43940743D01*
X146724058Y-44001049D01*
X146593030Y-44088599D01*
X146481599Y-44200030D01*
X146394049Y-44331058D01*
X146333743Y-44476649D01*
X146303000Y-44631207D01*
X146303000Y-44788793D01*
X146333743Y-44943351D01*
X146394049Y-45088942D01*
X146481599Y-45219970D01*
X146503001Y-45241372D01*
X146503000Y-47487546D01*
X146500097Y-47517020D01*
X146507040Y-47587508D01*
X146511682Y-47634640D01*
X146545990Y-47747740D01*
X146601704Y-47851974D01*
X146676683Y-47943337D01*
X146699586Y-47962133D01*
X146857877Y-48120424D01*
X146876673Y-48143327D01*
X146968036Y-48218306D01*
X146993263Y-48231790D01*
X147340000Y-48578528D01*
X147340000Y-48608793D01*
X147370743Y-48763351D01*
X147431049Y-48908942D01*
X147518599Y-49039970D01*
X147630030Y-49151401D01*
X147761058Y-49238951D01*
X147906649Y-49299257D01*
X148061207Y-49330000D01*
X148117000Y-49330000D01*
X148117000Y-49373527D01*
X148117001Y-50776628D01*
X148095599Y-50798030D01*
X148008049Y-50929058D01*
X147947743Y-51074649D01*
X147917000Y-51229207D01*
X147917000Y-51386793D01*
X147947743Y-51541351D01*
X148008049Y-51686942D01*
X148044531Y-51741541D01*
X145595786Y-54190287D01*
X145572883Y-54209083D01*
X145497904Y-54300446D01*
X145442190Y-54404680D01*
X145417808Y-54485058D01*
X145407882Y-54517780D01*
X145396297Y-54635400D01*
X145399200Y-54664874D01*
X145399200Y-54692272D01*
X143879971Y-56211502D01*
X143879971Y-55977556D01*
X144690420Y-55167108D01*
X144713318Y-55148316D01*
X144788297Y-55056954D01*
X144844011Y-54952720D01*
X144871603Y-54861761D01*
X144878319Y-54839621D01*
X144882118Y-54801049D01*
X144887001Y-54751473D01*
X144887001Y-54751466D01*
X144889903Y-54722000D01*
X144887001Y-54692534D01*
X144887001Y-52016475D01*
X144889904Y-51987001D01*
X144878319Y-51869380D01*
X144844011Y-51756280D01*
X144788297Y-51652046D01*
X144722999Y-51572480D01*
X144722999Y-33912464D01*
X144725901Y-33882998D01*
X144722999Y-33853532D01*
X144722999Y-33853525D01*
X144714317Y-33765378D01*
X144710247Y-33751959D01*
X144696797Y-33707621D01*
X144680009Y-33652278D01*
X144624295Y-33548044D01*
X144549316Y-33456682D01*
X144526419Y-33437891D01*
X141140000Y-30051473D01*
X141140000Y-30021207D01*
X141109257Y-29866649D01*
X141048951Y-29721058D01*
X140961401Y-29590030D01*
X140849970Y-29478599D01*
X140718942Y-29391049D01*
X140573351Y-29330743D01*
X140543564Y-29324818D01*
X140550000Y-29259474D01*
X140550000Y-29259467D01*
X140552902Y-29230001D01*
X140550000Y-29200535D01*
X140550000Y-22150966D01*
X140552903Y-22121492D01*
X140541318Y-22003871D01*
X140539751Y-21998704D01*
X140507010Y-21890771D01*
X140451296Y-21786537D01*
X140376317Y-21695175D01*
X140353419Y-21676383D01*
X137707035Y-19030000D01*
X142681473Y-19030000D01*
X148700000Y-25048528D01*
G37*
X148700000Y-25048528D02*
X148700000Y-25078793D01*
X148730743Y-25233351D01*
X148791049Y-25378942D01*
X148878599Y-25509970D01*
X148990030Y-25621401D01*
X149121058Y-25708951D01*
X149266649Y-25769257D01*
X149421207Y-25800000D01*
X149578793Y-25800000D01*
X149733351Y-25769257D01*
X149878942Y-25708951D01*
X150009970Y-25621401D01*
X150121401Y-25509970D01*
X150208951Y-25378942D01*
X150269257Y-25233351D01*
X150270180Y-25228708D01*
X150334891Y-25293419D01*
X150353683Y-25316317D01*
X150445045Y-25391296D01*
X150510563Y-25426316D01*
X150549278Y-25447010D01*
X150594551Y-25460743D01*
X150662379Y-25481318D01*
X150750222Y-25489970D01*
X150780000Y-25492903D01*
X150809474Y-25490000D01*
X150899013Y-25490000D01*
X152442990Y-27033978D01*
X152442991Y-29005968D01*
X152440087Y-29035451D01*
X152451672Y-29153072D01*
X152483457Y-29257850D01*
X152485981Y-29266172D01*
X152541695Y-29370406D01*
X152616674Y-29461768D01*
X152639572Y-29480560D01*
X152920000Y-29760988D01*
X152920001Y-31560517D01*
X152917097Y-31590000D01*
X152928682Y-31707620D01*
X152956135Y-31798120D01*
X152962991Y-31820721D01*
X153018705Y-31924955D01*
X153093684Y-32016317D01*
X153116582Y-32035109D01*
X153667014Y-32585541D01*
X153641880Y-32646220D01*
X153590000Y-32907037D01*
X153590000Y-33172963D01*
X153641880Y-33433780D01*
X153743646Y-33679465D01*
X153891387Y-33900575D01*
X154079425Y-34088613D01*
X154300535Y-34236354D01*
X154478332Y-34310000D01*
X154300535Y-34383646D01*
X154079425Y-34531387D01*
X153891387Y-34719425D01*
X153743646Y-34940535D01*
X153641880Y-35186220D01*
X153590000Y-35447037D01*
X153590000Y-35712963D01*
X153636808Y-35948280D01*
X151030000Y-33341473D01*
X151030000Y-28041371D01*
X151051401Y-28019970D01*
X151138951Y-27888942D01*
X151199257Y-27743351D01*
X151230000Y-27588793D01*
X151230000Y-27431207D01*
X151199257Y-27276649D01*
X151138951Y-27131058D01*
X151051401Y-27000030D01*
X150939970Y-26888599D01*
X150808942Y-26801049D01*
X150663351Y-26740743D01*
X150508793Y-26710000D01*
X150351207Y-26710000D01*
X150196649Y-26740743D01*
X150051058Y-26801049D01*
X149920030Y-26888599D01*
X149808599Y-27000030D01*
X149721049Y-27131058D01*
X149660743Y-27276649D01*
X149630000Y-27431207D01*
X149630000Y-27588793D01*
X149660743Y-27743351D01*
X149721049Y-27888942D01*
X149780958Y-27978603D01*
X149669649Y-28000743D01*
X149524058Y-28061049D01*
X149393030Y-28148599D01*
X149281599Y-28260030D01*
X149194049Y-28391058D01*
X149133743Y-28536649D01*
X149103000Y-28691207D01*
X149103000Y-28848793D01*
X149133743Y-29003351D01*
X149194049Y-29148942D01*
X149271652Y-29265083D01*
X149142649Y-29290743D01*
X148997058Y-29351049D01*
X148866030Y-29438599D01*
X148754599Y-29550030D01*
X148667049Y-29681058D01*
X148606743Y-29826649D01*
X148576000Y-29981207D01*
X148576000Y-30138793D01*
X148606743Y-30293351D01*
X148667049Y-30438942D01*
X148754599Y-30569970D01*
X148784482Y-30599853D01*
X148784682Y-30601885D01*
X148818990Y-30714985D01*
X148874705Y-30819219D01*
X148949684Y-30910581D01*
X148972582Y-30929373D01*
X148975990Y-30932781D01*
X148975991Y-33631428D01*
X148973087Y-33660911D01*
X148984672Y-33778531D01*
X149009736Y-33861155D01*
X149018981Y-33891632D01*
X149074695Y-33995866D01*
X149123407Y-34055222D01*
X149118493Y-34060136D01*
X149030943Y-34191164D01*
X148970637Y-34336755D01*
X148939894Y-34491313D01*
X148939894Y-34648899D01*
X148970637Y-34803457D01*
X149030943Y-34949048D01*
X149118493Y-35080076D01*
X149139894Y-35101477D01*
X149139895Y-36510373D01*
X149136991Y-36539856D01*
X149148576Y-36657476D01*
X149177681Y-36753422D01*
X149182885Y-36770577D01*
X149238599Y-36874811D01*
X149313578Y-36966173D01*
X149336475Y-36984964D01*
X149914929Y-37563419D01*
X149933721Y-37586317D01*
X150025083Y-37661296D01*
X150129317Y-37717010D01*
X150242344Y-37751296D01*
X150242417Y-37751318D01*
X150360037Y-37762903D01*
X150389511Y-37760000D01*
X151439172Y-37760000D01*
X151496325Y-37817153D01*
X151539609Y-39508862D01*
X148648583Y-42399890D01*
X148625685Y-42418682D01*
X148550706Y-42510044D01*
X148504235Y-42596986D01*
X148494992Y-42614278D01*
X148460683Y-42727379D01*
X148449098Y-42844999D01*
X148452002Y-42874483D01*
X148452001Y-46893474D01*
X148230000Y-46671473D01*
X148230000Y-26391371D01*
X148251401Y-26369970D01*
X148338951Y-26238942D01*
X148399257Y-26093351D01*
X148430000Y-25938793D01*
X148430000Y-25781207D01*
X148399257Y-25626649D01*
X148338951Y-25481058D01*
X148251401Y-25350030D01*
X148139970Y-25238599D01*
X148008942Y-25151049D01*
X147863351Y-25090743D01*
X147708793Y-25060000D01*
X147551207Y-25060000D01*
X147396649Y-25090743D01*
X147251058Y-25151049D01*
X147120030Y-25238599D01*
X147008599Y-25350030D01*
X146921049Y-25481058D01*
X146860743Y-25626649D01*
X146830000Y-25781207D01*
X146830000Y-25938793D01*
X146860743Y-26093351D01*
X146921049Y-26238942D01*
X147008599Y-26369970D01*
X147030001Y-26391372D01*
X147030000Y-43910000D01*
X147024207Y-43910000D01*
X146869649Y-43940743D01*
X146724058Y-44001049D01*
X146593030Y-44088599D01*
X146481599Y-44200030D01*
X146394049Y-44331058D01*
X146333743Y-44476649D01*
X146303000Y-44631207D01*
X146303000Y-44788793D01*
X146333743Y-44943351D01*
X146394049Y-45088942D01*
X146481599Y-45219970D01*
X146503001Y-45241372D01*
X146503000Y-47487546D01*
X146500097Y-47517020D01*
X146507040Y-47587508D01*
X146511682Y-47634640D01*
X146545990Y-47747740D01*
X146601704Y-47851974D01*
X146676683Y-47943337D01*
X146699586Y-47962133D01*
X146857877Y-48120424D01*
X146876673Y-48143327D01*
X146968036Y-48218306D01*
X146993263Y-48231790D01*
X147340000Y-48578528D01*
X147340000Y-48608793D01*
X147370743Y-48763351D01*
X147431049Y-48908942D01*
X147518599Y-49039970D01*
X147630030Y-49151401D01*
X147761058Y-49238951D01*
X147906649Y-49299257D01*
X148061207Y-49330000D01*
X148117000Y-49330000D01*
X148117000Y-49373527D01*
X148117001Y-50776628D01*
X148095599Y-50798030D01*
X148008049Y-50929058D01*
X147947743Y-51074649D01*
X147917000Y-51229207D01*
X147917000Y-51386793D01*
X147947743Y-51541351D01*
X148008049Y-51686942D01*
X148044531Y-51741541D01*
X145595786Y-54190287D01*
X145572883Y-54209083D01*
X145497904Y-54300446D01*
X145442190Y-54404680D01*
X145417808Y-54485058D01*
X145407882Y-54517780D01*
X145396297Y-54635400D01*
X145399200Y-54664874D01*
X145399200Y-54692272D01*
X143879971Y-56211502D01*
X143879971Y-55977556D01*
X144690420Y-55167108D01*
X144713318Y-55148316D01*
X144788297Y-55056954D01*
X144844011Y-54952720D01*
X144871603Y-54861761D01*
X144878319Y-54839621D01*
X144882118Y-54801049D01*
X144887001Y-54751473D01*
X144887001Y-54751466D01*
X144889903Y-54722000D01*
X144887001Y-54692534D01*
X144887001Y-52016475D01*
X144889904Y-51987001D01*
X144878319Y-51869380D01*
X144844011Y-51756280D01*
X144788297Y-51652046D01*
X144722999Y-51572480D01*
X144722999Y-33912464D01*
X144725901Y-33882998D01*
X144722999Y-33853532D01*
X144722999Y-33853525D01*
X144714317Y-33765378D01*
X144710247Y-33751959D01*
X144696797Y-33707621D01*
X144680009Y-33652278D01*
X144624295Y-33548044D01*
X144549316Y-33456682D01*
X144526419Y-33437891D01*
X141140000Y-30051473D01*
X141140000Y-30021207D01*
X141109257Y-29866649D01*
X141048951Y-29721058D01*
X140961401Y-29590030D01*
X140849970Y-29478599D01*
X140718942Y-29391049D01*
X140573351Y-29330743D01*
X140543564Y-29324818D01*
X140550000Y-29259474D01*
X140550000Y-29259467D01*
X140552902Y-29230001D01*
X140550000Y-29200535D01*
X140550000Y-22150966D01*
X140552903Y-22121492D01*
X140541318Y-22003871D01*
X140539751Y-21998704D01*
X140507010Y-21890771D01*
X140451296Y-21786537D01*
X140376317Y-21695175D01*
X140353419Y-21676383D01*
X137707035Y-19030000D01*
X142681473Y-19030000D01*
X148700000Y-25048528D01*
G36*
X143554655Y-52016354D02*
G01*
X143565990Y-52053720D01*
X143621704Y-52157954D01*
X143687001Y-52237519D01*
X143687002Y-54473470D01*
X143552961Y-54607511D01*
X143552961Y-52010769D01*
X143554655Y-52016354D01*
G37*
X143554655Y-52016354D02*
X143565990Y-52053720D01*
X143621704Y-52157954D01*
X143687001Y-52237519D01*
X143687002Y-54473470D01*
X143552961Y-54607511D01*
X143552961Y-52010769D01*
X143554655Y-52016354D01*
G36*
X137426001Y-54098328D02*
G01*
X137420705Y-54104781D01*
X137364990Y-54209015D01*
X137330682Y-54322115D01*
X137330482Y-54324147D01*
X137300599Y-54354030D01*
X137294450Y-54363233D01*
X137219821Y-54117214D01*
X137080583Y-53856717D01*
X136893200Y-53628390D01*
X136664873Y-53441007D01*
X136632718Y-53423820D01*
X136664873Y-53406633D01*
X136893200Y-53219250D01*
X137080583Y-52990923D01*
X137219821Y-52730426D01*
X137305563Y-52447771D01*
X137334515Y-52153820D01*
X137305563Y-51859869D01*
X137219821Y-51577214D01*
X137080583Y-51316717D01*
X136893200Y-51088390D01*
X136664873Y-50901007D01*
X136632718Y-50883820D01*
X136664873Y-50866633D01*
X136893200Y-50679250D01*
X137080583Y-50450923D01*
X137219821Y-50190426D01*
X137305563Y-49907771D01*
X137334515Y-49613820D01*
X137305563Y-49319869D01*
X137219821Y-49037214D01*
X137152252Y-48910800D01*
X137426000Y-48910800D01*
X137426001Y-54098328D01*
G37*
X137426001Y-54098328D02*
X137420705Y-54104781D01*
X137364990Y-54209015D01*
X137330682Y-54322115D01*
X137330482Y-54324147D01*
X137300599Y-54354030D01*
X137294450Y-54363233D01*
X137219821Y-54117214D01*
X137080583Y-53856717D01*
X136893200Y-53628390D01*
X136664873Y-53441007D01*
X136632718Y-53423820D01*
X136664873Y-53406633D01*
X136893200Y-53219250D01*
X137080583Y-52990923D01*
X137219821Y-52730426D01*
X137305563Y-52447771D01*
X137334515Y-52153820D01*
X137305563Y-51859869D01*
X137219821Y-51577214D01*
X137080583Y-51316717D01*
X136893200Y-51088390D01*
X136664873Y-50901007D01*
X136632718Y-50883820D01*
X136664873Y-50866633D01*
X136893200Y-50679250D01*
X137080583Y-50450923D01*
X137219821Y-50190426D01*
X137305563Y-49907771D01*
X137334515Y-49613820D01*
X137305563Y-49319869D01*
X137219821Y-49037214D01*
X137152252Y-48910800D01*
X137426000Y-48910800D01*
X137426001Y-54098328D01*
G36*
X152225981Y-41498957D02*
G01*
X152223077Y-41528441D01*
X152234662Y-41646061D01*
X152261778Y-41735451D01*
X152268971Y-41759162D01*
X152324685Y-41863396D01*
X152399664Y-41954758D01*
X152422561Y-41973549D01*
X152990000Y-42540990D01*
X152990001Y-44340517D01*
X152987097Y-44370000D01*
X152998682Y-44487620D01*
X153031672Y-44596372D01*
X153032991Y-44600721D01*
X153088705Y-44704955D01*
X153163684Y-44796317D01*
X153186581Y-44815108D01*
X153664085Y-45292613D01*
X153641880Y-45346220D01*
X153590000Y-45607037D01*
X153590000Y-45872963D01*
X153641880Y-46133780D01*
X153743646Y-46379465D01*
X153891387Y-46600575D01*
X154079425Y-46788613D01*
X154300535Y-46936354D01*
X154478332Y-47010000D01*
X154300535Y-47083646D01*
X154079425Y-47231387D01*
X153891387Y-47419425D01*
X153743646Y-47640535D01*
X153735583Y-47660000D01*
X153379264Y-47660000D01*
X153384381Y-47650426D01*
X153470123Y-47367771D01*
X153499075Y-47073820D01*
X153470123Y-46779869D01*
X153384381Y-46497214D01*
X153245143Y-46236717D01*
X153057760Y-46008390D01*
X152829433Y-45821007D01*
X152568936Y-45681769D01*
X152286281Y-45596027D01*
X152065990Y-45574330D01*
X151169370Y-45574330D01*
X150949079Y-45596027D01*
X150666424Y-45681769D01*
X150460000Y-45792104D01*
X150460000Y-44531368D01*
X150502257Y-44429351D01*
X150533000Y-44274793D01*
X150533000Y-44117207D01*
X150502257Y-43962649D01*
X150441951Y-43817058D01*
X150354401Y-43686030D01*
X150333000Y-43664629D01*
X150333000Y-42874987D01*
X152225981Y-40982008D01*
X152225981Y-41498957D01*
G37*
X152225981Y-41498957D02*
X152223077Y-41528441D01*
X152234662Y-41646061D01*
X152261778Y-41735451D01*
X152268971Y-41759162D01*
X152324685Y-41863396D01*
X152399664Y-41954758D01*
X152422561Y-41973549D01*
X152990000Y-42540990D01*
X152990001Y-44340517D01*
X152987097Y-44370000D01*
X152998682Y-44487620D01*
X153031672Y-44596372D01*
X153032991Y-44600721D01*
X153088705Y-44704955D01*
X153163684Y-44796317D01*
X153186581Y-44815108D01*
X153664085Y-45292613D01*
X153641880Y-45346220D01*
X153590000Y-45607037D01*
X153590000Y-45872963D01*
X153641880Y-46133780D01*
X153743646Y-46379465D01*
X153891387Y-46600575D01*
X154079425Y-46788613D01*
X154300535Y-46936354D01*
X154478332Y-47010000D01*
X154300535Y-47083646D01*
X154079425Y-47231387D01*
X153891387Y-47419425D01*
X153743646Y-47640535D01*
X153735583Y-47660000D01*
X153379264Y-47660000D01*
X153384381Y-47650426D01*
X153470123Y-47367771D01*
X153499075Y-47073820D01*
X153470123Y-46779869D01*
X153384381Y-46497214D01*
X153245143Y-46236717D01*
X153057760Y-46008390D01*
X152829433Y-45821007D01*
X152568936Y-45681769D01*
X152286281Y-45596027D01*
X152065990Y-45574330D01*
X151169370Y-45574330D01*
X150949079Y-45596027D01*
X150666424Y-45681769D01*
X150460000Y-45792104D01*
X150460000Y-44531368D01*
X150502257Y-44429351D01*
X150533000Y-44274793D01*
X150533000Y-44117207D01*
X150502257Y-43962649D01*
X150441951Y-43817058D01*
X150354401Y-43686030D01*
X150333000Y-43664629D01*
X150333000Y-42874987D01*
X152225981Y-40982008D01*
X152225981Y-41498957D01*
G36*
X138797097Y-29780000D02*
G01*
X138800001Y-29809483D01*
X138800000Y-30851472D01*
X137329172Y-32322301D01*
X137278951Y-32201058D01*
X137191401Y-32070030D01*
X137079970Y-31958599D01*
X136948942Y-31871049D01*
X136803351Y-31810743D01*
X136648793Y-31780000D01*
X136491207Y-31780000D01*
X136487863Y-31780665D01*
X138598530Y-29669999D01*
X138807932Y-29669999D01*
X138797097Y-29780000D01*
G37*
X138797097Y-29780000D02*
X138800001Y-29809483D01*
X138800000Y-30851472D01*
X137329172Y-32322301D01*
X137278951Y-32201058D01*
X137191401Y-32070030D01*
X137079970Y-31958599D01*
X136948942Y-31871049D01*
X136803351Y-31810743D01*
X136648793Y-31780000D01*
X136491207Y-31780000D01*
X136487863Y-31780665D01*
X138598530Y-29669999D01*
X138807932Y-29669999D01*
X138797097Y-29780000D01*
G36*
X136046098Y-18025110D02*
G01*
X134498052Y-19553685D01*
X134473684Y-19573683D01*
X134437361Y-19617943D01*
X134400835Y-19661880D01*
X134399922Y-19663561D01*
X134398705Y-19665045D01*
X134371725Y-19715521D01*
X134344462Y-19765759D01*
X134343894Y-19767590D01*
X134342991Y-19769279D01*
X134326412Y-19823934D01*
X134309438Y-19878640D01*
X134309238Y-19880551D01*
X134308683Y-19882379D01*
X134303093Y-19939133D01*
X134297109Y-19996185D01*
X134300001Y-20027584D01*
X134300000Y-23351472D01*
X133251473Y-24400000D01*
X133221207Y-24400000D01*
X133066649Y-24430743D01*
X132921058Y-24491049D01*
X132790030Y-24578599D01*
X132678599Y-24690030D01*
X132591049Y-24821058D01*
X132530743Y-24966649D01*
X132500000Y-25121207D01*
X132500000Y-25278793D01*
X132530743Y-25433351D01*
X132591049Y-25578942D01*
X132678599Y-25709970D01*
X132768629Y-25800000D01*
X132678599Y-25890030D01*
X132591049Y-26021058D01*
X132530743Y-26166649D01*
X132500000Y-26321207D01*
X132500000Y-26478793D01*
X132519101Y-26574820D01*
X132458911Y-26552091D01*
X132234000Y-26662150D01*
X132234000Y-27806000D01*
X133376889Y-27806000D01*
X133487903Y-27581090D01*
X133461146Y-27492861D01*
X133343473Y-27232389D01*
X133320317Y-27200000D01*
X133378793Y-27200000D01*
X133533351Y-27169257D01*
X133678942Y-27108951D01*
X133809970Y-27021401D01*
X133921401Y-26909970D01*
X134008951Y-26778942D01*
X134069257Y-26633351D01*
X134100000Y-26478793D01*
X134100000Y-26448527D01*
X135552990Y-24995537D01*
X135552991Y-28094598D01*
X133807590Y-29840000D01*
X133262633Y-29840000D01*
X133128613Y-29639425D01*
X132940575Y-29451387D01*
X132719465Y-29303646D01*
X132676363Y-29285793D01*
X132726300Y-29266935D01*
X132968852Y-29115736D01*
X133177246Y-28920122D01*
X133343473Y-28687611D01*
X133461146Y-28427139D01*
X133487903Y-28338910D01*
X133376889Y-28114000D01*
X132234000Y-28114000D01*
X132234000Y-28134000D01*
X132071837Y-28134000D01*
X132080000Y-28092963D01*
X132080000Y-27827037D01*
X132028120Y-27566220D01*
X131926354Y-27320535D01*
X131926000Y-27320005D01*
X131926000Y-26662150D01*
X131701089Y-26552091D01*
X131433700Y-26653065D01*
X131301481Y-26735486D01*
X131225000Y-26703807D01*
X131225000Y-26412993D01*
X131226916Y-26374355D01*
X131221220Y-26335838D01*
X131217403Y-26297082D01*
X131213669Y-26284773D01*
X131211788Y-26272052D01*
X131198689Y-26235389D01*
X131187383Y-26198119D01*
X131181319Y-26186774D01*
X131176993Y-26174666D01*
X131156996Y-26141270D01*
X131138633Y-26106914D01*
X131130469Y-26096966D01*
X131123867Y-26085940D01*
X131097749Y-26057096D01*
X131073027Y-26026973D01*
X131063078Y-26018808D01*
X131054452Y-26009282D01*
X131023199Y-25986081D01*
X130993086Y-25961367D01*
X130958964Y-25943129D01*
X130725000Y-25802750D01*
X130725000Y-18025000D01*
X136046189Y-18025000D01*
X136046098Y-18025110D01*
G37*
X136046098Y-18025110D02*
X134498052Y-19553685D01*
X134473684Y-19573683D01*
X134437361Y-19617943D01*
X134400835Y-19661880D01*
X134399922Y-19663561D01*
X134398705Y-19665045D01*
X134371725Y-19715521D01*
X134344462Y-19765759D01*
X134343894Y-19767590D01*
X134342991Y-19769279D01*
X134326412Y-19823934D01*
X134309438Y-19878640D01*
X134309238Y-19880551D01*
X134308683Y-19882379D01*
X134303093Y-19939133D01*
X134297109Y-19996185D01*
X134300001Y-20027584D01*
X134300000Y-23351472D01*
X133251473Y-24400000D01*
X133221207Y-24400000D01*
X133066649Y-24430743D01*
X132921058Y-24491049D01*
X132790030Y-24578599D01*
X132678599Y-24690030D01*
X132591049Y-24821058D01*
X132530743Y-24966649D01*
X132500000Y-25121207D01*
X132500000Y-25278793D01*
X132530743Y-25433351D01*
X132591049Y-25578942D01*
X132678599Y-25709970D01*
X132768629Y-25800000D01*
X132678599Y-25890030D01*
X132591049Y-26021058D01*
X132530743Y-26166649D01*
X132500000Y-26321207D01*
X132500000Y-26478793D01*
X132519101Y-26574820D01*
X132458911Y-26552091D01*
X132234000Y-26662150D01*
X132234000Y-27806000D01*
X133376889Y-27806000D01*
X133487903Y-27581090D01*
X133461146Y-27492861D01*
X133343473Y-27232389D01*
X133320317Y-27200000D01*
X133378793Y-27200000D01*
X133533351Y-27169257D01*
X133678942Y-27108951D01*
X133809970Y-27021401D01*
X133921401Y-26909970D01*
X134008951Y-26778942D01*
X134069257Y-26633351D01*
X134100000Y-26478793D01*
X134100000Y-26448527D01*
X135552990Y-24995537D01*
X135552991Y-28094598D01*
X133807590Y-29840000D01*
X133262633Y-29840000D01*
X133128613Y-29639425D01*
X132940575Y-29451387D01*
X132719465Y-29303646D01*
X132676363Y-29285793D01*
X132726300Y-29266935D01*
X132968852Y-29115736D01*
X133177246Y-28920122D01*
X133343473Y-28687611D01*
X133461146Y-28427139D01*
X133487903Y-28338910D01*
X133376889Y-28114000D01*
X132234000Y-28114000D01*
X132234000Y-28134000D01*
X132071837Y-28134000D01*
X132080000Y-28092963D01*
X132080000Y-27827037D01*
X132028120Y-27566220D01*
X131926354Y-27320535D01*
X131926000Y-27320005D01*
X131926000Y-26662150D01*
X131701089Y-26552091D01*
X131433700Y-26653065D01*
X131301481Y-26735486D01*
X131225000Y-26703807D01*
X131225000Y-26412993D01*
X131226916Y-26374355D01*
X131221220Y-26335838D01*
X131217403Y-26297082D01*
X131213669Y-26284773D01*
X131211788Y-26272052D01*
X131198689Y-26235389D01*
X131187383Y-26198119D01*
X131181319Y-26186774D01*
X131176993Y-26174666D01*
X131156996Y-26141270D01*
X131138633Y-26106914D01*
X131130469Y-26096966D01*
X131123867Y-26085940D01*
X131097749Y-26057096D01*
X131073027Y-26026973D01*
X131063078Y-26018808D01*
X131054452Y-26009282D01*
X131023199Y-25986081D01*
X130993086Y-25961367D01*
X130958964Y-25943129D01*
X130725000Y-25802750D01*
X130725000Y-18025000D01*
X136046189Y-18025000D01*
X136046098Y-18025110D01*
G36*
X156275001Y-25802750D02*
G01*
X156041053Y-25943120D01*
X156006914Y-25961367D01*
X155976799Y-25986082D01*
X155945547Y-26009282D01*
X155936918Y-26018811D01*
X155926973Y-26026973D01*
X155902261Y-26057085D01*
X155876132Y-26085940D01*
X155869528Y-26096970D01*
X155861367Y-26106914D01*
X155843005Y-26141266D01*
X155823007Y-26174667D01*
X155818681Y-26186775D01*
X155812617Y-26198120D01*
X155801311Y-26235390D01*
X155788212Y-26272053D01*
X155786331Y-26284774D01*
X155782597Y-26297083D01*
X155778780Y-26335839D01*
X155773084Y-26374356D01*
X155775000Y-26412993D01*
X155775000Y-26716233D01*
X155722511Y-26737975D01*
X155586300Y-26653065D01*
X155318911Y-26552091D01*
X155094000Y-26662150D01*
X155094000Y-27343823D01*
X155001880Y-27566220D01*
X154950000Y-27827037D01*
X154950000Y-28092963D01*
X154958163Y-28134000D01*
X154786000Y-28134000D01*
X154786000Y-28114000D01*
X154766000Y-28114000D01*
X154766000Y-27806000D01*
X154786000Y-27806000D01*
X154786000Y-26662150D01*
X154561089Y-26552091D01*
X154293700Y-26653065D01*
X154051148Y-26804264D01*
X153970000Y-26880436D01*
X153970000Y-26679474D01*
X153972903Y-26650000D01*
X153961318Y-26532379D01*
X153927010Y-26419278D01*
X153894861Y-26359133D01*
X153871296Y-26315045D01*
X153796317Y-26223683D01*
X153773420Y-26204892D01*
X151230000Y-23661473D01*
X151230000Y-23631207D01*
X151199257Y-23476649D01*
X151138951Y-23331058D01*
X151051401Y-23200030D01*
X150941371Y-23090000D01*
X151021401Y-23009970D01*
X151108951Y-22878942D01*
X151169257Y-22733351D01*
X151200000Y-22578793D01*
X151200000Y-22421207D01*
X151169257Y-22266649D01*
X151108951Y-22121058D01*
X151021401Y-21990030D01*
X150909970Y-21878599D01*
X150778942Y-21791049D01*
X150633351Y-21730743D01*
X150478793Y-21700000D01*
X150321207Y-21700000D01*
X150166649Y-21730743D01*
X150021058Y-21791049D01*
X149890030Y-21878599D01*
X149778599Y-21990030D01*
X149691049Y-22121058D01*
X149630743Y-22266649D01*
X149612349Y-22359123D01*
X149286586Y-22684887D01*
X149263683Y-22703683D01*
X149188704Y-22795046D01*
X149132990Y-22899280D01*
X149120413Y-22940743D01*
X149098682Y-23012380D01*
X149087097Y-23130000D01*
X149090000Y-23159474D01*
X149090000Y-23741472D01*
X144859735Y-19511207D01*
X147580000Y-19511207D01*
X147580000Y-19668793D01*
X147610743Y-19823351D01*
X147671049Y-19968942D01*
X147758599Y-20099970D01*
X147840612Y-20181983D01*
X147761049Y-20301058D01*
X147700743Y-20446649D01*
X147670000Y-20601207D01*
X147670000Y-20758793D01*
X147700743Y-20913351D01*
X147761049Y-21058942D01*
X147848599Y-21189970D01*
X147960030Y-21301401D01*
X148091058Y-21388951D01*
X148236649Y-21449257D01*
X148391207Y-21480000D01*
X148548793Y-21480000D01*
X148703351Y-21449257D01*
X148848942Y-21388951D01*
X148979970Y-21301401D01*
X149091401Y-21189970D01*
X149178951Y-21058942D01*
X149239257Y-20913351D01*
X149270000Y-20758793D01*
X149270000Y-20728528D01*
X149573799Y-20424730D01*
X150625165Y-20424730D01*
X152744055Y-20426404D01*
X152743000Y-20431707D01*
X152743000Y-20589293D01*
X152773743Y-20743851D01*
X152834049Y-20889442D01*
X152921599Y-21020470D01*
X153033030Y-21131901D01*
X153164058Y-21219451D01*
X153309649Y-21279757D01*
X153464207Y-21310500D01*
X153621793Y-21310500D01*
X153776351Y-21279757D01*
X153921942Y-21219451D01*
X154052970Y-21131901D01*
X154164401Y-21020470D01*
X154251951Y-20889442D01*
X154278740Y-20824768D01*
X154340000Y-20886028D01*
X154340001Y-23725628D01*
X154318599Y-23747030D01*
X154231049Y-23878058D01*
X154170743Y-24023649D01*
X154140000Y-24178207D01*
X154140000Y-24335793D01*
X154170743Y-24490351D01*
X154231049Y-24635942D01*
X154318599Y-24766970D01*
X154430030Y-24878401D01*
X154561058Y-24965951D01*
X154706649Y-25026257D01*
X154861207Y-25057000D01*
X155018793Y-25057000D01*
X155173351Y-25026257D01*
X155318942Y-24965951D01*
X155449970Y-24878401D01*
X155561401Y-24766970D01*
X155648951Y-24635942D01*
X155709257Y-24490351D01*
X155740000Y-24335793D01*
X155740000Y-24178207D01*
X155709257Y-24023649D01*
X155648951Y-23878058D01*
X155561401Y-23747030D01*
X155540000Y-23725629D01*
X155540000Y-20666974D01*
X155542903Y-20637500D01*
X155531318Y-20519879D01*
X155528473Y-20510501D01*
X155497010Y-20406779D01*
X155441296Y-20302545D01*
X155366317Y-20211183D01*
X155343420Y-20192392D01*
X154247609Y-19096582D01*
X154247605Y-19096577D01*
X154037613Y-18886586D01*
X154018818Y-18863684D01*
X153927456Y-18788705D01*
X153823222Y-18732991D01*
X153710122Y-18698683D01*
X153621975Y-18690001D01*
X153592501Y-18687098D01*
X153563027Y-18690001D01*
X148709473Y-18690001D01*
X148679999Y-18687098D01*
X148650525Y-18690001D01*
X148562378Y-18698683D01*
X148449278Y-18732991D01*
X148345044Y-18788705D01*
X148343466Y-18790000D01*
X148301207Y-18790000D01*
X148146649Y-18820743D01*
X148001058Y-18881049D01*
X147870030Y-18968599D01*
X147758599Y-19080030D01*
X147671049Y-19211058D01*
X147610743Y-19356649D01*
X147580000Y-19511207D01*
X144859735Y-19511207D01*
X143375113Y-18026586D01*
X143373811Y-18025000D01*
X156275000Y-18025000D01*
X156275001Y-25802750D01*
G37*
X156275001Y-25802750D02*
X156041053Y-25943120D01*
X156006914Y-25961367D01*
X155976799Y-25986082D01*
X155945547Y-26009282D01*
X155936918Y-26018811D01*
X155926973Y-26026973D01*
X155902261Y-26057085D01*
X155876132Y-26085940D01*
X155869528Y-26096970D01*
X155861367Y-26106914D01*
X155843005Y-26141266D01*
X155823007Y-26174667D01*
X155818681Y-26186775D01*
X155812617Y-26198120D01*
X155801311Y-26235390D01*
X155788212Y-26272053D01*
X155786331Y-26284774D01*
X155782597Y-26297083D01*
X155778780Y-26335839D01*
X155773084Y-26374356D01*
X155775000Y-26412993D01*
X155775000Y-26716233D01*
X155722511Y-26737975D01*
X155586300Y-26653065D01*
X155318911Y-26552091D01*
X155094000Y-26662150D01*
X155094000Y-27343823D01*
X155001880Y-27566220D01*
X154950000Y-27827037D01*
X154950000Y-28092963D01*
X154958163Y-28134000D01*
X154786000Y-28134000D01*
X154786000Y-28114000D01*
X154766000Y-28114000D01*
X154766000Y-27806000D01*
X154786000Y-27806000D01*
X154786000Y-26662150D01*
X154561089Y-26552091D01*
X154293700Y-26653065D01*
X154051148Y-26804264D01*
X153970000Y-26880436D01*
X153970000Y-26679474D01*
X153972903Y-26650000D01*
X153961318Y-26532379D01*
X153927010Y-26419278D01*
X153894861Y-26359133D01*
X153871296Y-26315045D01*
X153796317Y-26223683D01*
X153773420Y-26204892D01*
X151230000Y-23661473D01*
X151230000Y-23631207D01*
X151199257Y-23476649D01*
X151138951Y-23331058D01*
X151051401Y-23200030D01*
X150941371Y-23090000D01*
X151021401Y-23009970D01*
X151108951Y-22878942D01*
X151169257Y-22733351D01*
X151200000Y-22578793D01*
X151200000Y-22421207D01*
X151169257Y-22266649D01*
X151108951Y-22121058D01*
X151021401Y-21990030D01*
X150909970Y-21878599D01*
X150778942Y-21791049D01*
X150633351Y-21730743D01*
X150478793Y-21700000D01*
X150321207Y-21700000D01*
X150166649Y-21730743D01*
X150021058Y-21791049D01*
X149890030Y-21878599D01*
X149778599Y-21990030D01*
X149691049Y-22121058D01*
X149630743Y-22266649D01*
X149612349Y-22359123D01*
X149286586Y-22684887D01*
X149263683Y-22703683D01*
X149188704Y-22795046D01*
X149132990Y-22899280D01*
X149120413Y-22940743D01*
X149098682Y-23012380D01*
X149087097Y-23130000D01*
X149090000Y-23159474D01*
X149090000Y-23741472D01*
X144859735Y-19511207D01*
X147580000Y-19511207D01*
X147580000Y-19668793D01*
X147610743Y-19823351D01*
X147671049Y-19968942D01*
X147758599Y-20099970D01*
X147840612Y-20181983D01*
X147761049Y-20301058D01*
X147700743Y-20446649D01*
X147670000Y-20601207D01*
X147670000Y-20758793D01*
X147700743Y-20913351D01*
X147761049Y-21058942D01*
X147848599Y-21189970D01*
X147960030Y-21301401D01*
X148091058Y-21388951D01*
X148236649Y-21449257D01*
X148391207Y-21480000D01*
X148548793Y-21480000D01*
X148703351Y-21449257D01*
X148848942Y-21388951D01*
X148979970Y-21301401D01*
X149091401Y-21189970D01*
X149178951Y-21058942D01*
X149239257Y-20913351D01*
X149270000Y-20758793D01*
X149270000Y-20728528D01*
X149573799Y-20424730D01*
X150625165Y-20424730D01*
X152744055Y-20426404D01*
X152743000Y-20431707D01*
X152743000Y-20589293D01*
X152773743Y-20743851D01*
X152834049Y-20889442D01*
X152921599Y-21020470D01*
X153033030Y-21131901D01*
X153164058Y-21219451D01*
X153309649Y-21279757D01*
X153464207Y-21310500D01*
X153621793Y-21310500D01*
X153776351Y-21279757D01*
X153921942Y-21219451D01*
X154052970Y-21131901D01*
X154164401Y-21020470D01*
X154251951Y-20889442D01*
X154278740Y-20824768D01*
X154340000Y-20886028D01*
X154340001Y-23725628D01*
X154318599Y-23747030D01*
X154231049Y-23878058D01*
X154170743Y-24023649D01*
X154140000Y-24178207D01*
X154140000Y-24335793D01*
X154170743Y-24490351D01*
X154231049Y-24635942D01*
X154318599Y-24766970D01*
X154430030Y-24878401D01*
X154561058Y-24965951D01*
X154706649Y-25026257D01*
X154861207Y-25057000D01*
X155018793Y-25057000D01*
X155173351Y-25026257D01*
X155318942Y-24965951D01*
X155449970Y-24878401D01*
X155561401Y-24766970D01*
X155648951Y-24635942D01*
X155709257Y-24490351D01*
X155740000Y-24335793D01*
X155740000Y-24178207D01*
X155709257Y-24023649D01*
X155648951Y-23878058D01*
X155561401Y-23747030D01*
X155540000Y-23725629D01*
X155540000Y-20666974D01*
X155542903Y-20637500D01*
X155531318Y-20519879D01*
X155528473Y-20510501D01*
X155497010Y-20406779D01*
X155441296Y-20302545D01*
X155366317Y-20211183D01*
X155343420Y-20192392D01*
X154247609Y-19096582D01*
X154247605Y-19096577D01*
X154037613Y-18886586D01*
X154018818Y-18863684D01*
X153927456Y-18788705D01*
X153823222Y-18732991D01*
X153710122Y-18698683D01*
X153621975Y-18690001D01*
X153592501Y-18687098D01*
X153563027Y-18690001D01*
X148709473Y-18690001D01*
X148679999Y-18687098D01*
X148650525Y-18690001D01*
X148562378Y-18698683D01*
X148449278Y-18732991D01*
X148345044Y-18788705D01*
X148343466Y-18790000D01*
X148301207Y-18790000D01*
X148146649Y-18820743D01*
X148001058Y-18881049D01*
X147870030Y-18968599D01*
X147758599Y-19080030D01*
X147671049Y-19211058D01*
X147610743Y-19356649D01*
X147580000Y-19511207D01*
X144859735Y-19511207D01*
X143375113Y-18026586D01*
X143373811Y-18025000D01*
X156275000Y-18025000D01*
X156275001Y-25802750D01*
G36*
X139350001Y-22370021D02*
G01*
X139350000Y-27070791D01*
X139309401Y-27010030D01*
X139197970Y-26898599D01*
X139066942Y-26811049D01*
X138921351Y-26750743D01*
X138792348Y-26725083D01*
X138869951Y-26608942D01*
X138930257Y-26463351D01*
X138961000Y-26308793D01*
X138961000Y-26151207D01*
X138930257Y-25996649D01*
X138869951Y-25851058D01*
X138782401Y-25720030D01*
X138670970Y-25608599D01*
X138539942Y-25521049D01*
X138394351Y-25460743D01*
X138288940Y-25439776D01*
X138342951Y-25358942D01*
X138403257Y-25213351D01*
X138434000Y-25058793D01*
X138434000Y-24901207D01*
X138403257Y-24746649D01*
X138342951Y-24601058D01*
X138255401Y-24470030D01*
X138143970Y-24358599D01*
X138012942Y-24271049D01*
X137867351Y-24210743D01*
X137756042Y-24188603D01*
X137815951Y-24098942D01*
X137876257Y-23953351D01*
X137907000Y-23798793D01*
X137907000Y-23641207D01*
X137876257Y-23486649D01*
X137815951Y-23341058D01*
X137728401Y-23210030D01*
X137616970Y-23098599D01*
X137485942Y-23011049D01*
X137340351Y-22950743D01*
X137205450Y-22923910D01*
X137288951Y-22798942D01*
X137349257Y-22653351D01*
X137380000Y-22498793D01*
X137380000Y-22341207D01*
X137349257Y-22186649D01*
X137288951Y-22041058D01*
X137201401Y-21910030D01*
X137089970Y-21798599D01*
X136958942Y-21711049D01*
X136813351Y-21650743D01*
X136658793Y-21620000D01*
X136652999Y-21620000D01*
X136652999Y-21011177D01*
X136696649Y-21029257D01*
X136851207Y-21060000D01*
X137008793Y-21060000D01*
X137163351Y-21029257D01*
X137308942Y-20968951D01*
X137439970Y-20881401D01*
X137551401Y-20769970D01*
X137630929Y-20650948D01*
X139350001Y-22370021D01*
G37*
X139350001Y-22370021D02*
X139350000Y-27070791D01*
X139309401Y-27010030D01*
X139197970Y-26898599D01*
X139066942Y-26811049D01*
X138921351Y-26750743D01*
X138792348Y-26725083D01*
X138869951Y-26608942D01*
X138930257Y-26463351D01*
X138961000Y-26308793D01*
X138961000Y-26151207D01*
X138930257Y-25996649D01*
X138869951Y-25851058D01*
X138782401Y-25720030D01*
X138670970Y-25608599D01*
X138539942Y-25521049D01*
X138394351Y-25460743D01*
X138288940Y-25439776D01*
X138342951Y-25358942D01*
X138403257Y-25213351D01*
X138434000Y-25058793D01*
X138434000Y-24901207D01*
X138403257Y-24746649D01*
X138342951Y-24601058D01*
X138255401Y-24470030D01*
X138143970Y-24358599D01*
X138012942Y-24271049D01*
X137867351Y-24210743D01*
X137756042Y-24188603D01*
X137815951Y-24098942D01*
X137876257Y-23953351D01*
X137907000Y-23798793D01*
X137907000Y-23641207D01*
X137876257Y-23486649D01*
X137815951Y-23341058D01*
X137728401Y-23210030D01*
X137616970Y-23098599D01*
X137485942Y-23011049D01*
X137340351Y-22950743D01*
X137205450Y-22923910D01*
X137288951Y-22798942D01*
X137349257Y-22653351D01*
X137380000Y-22498793D01*
X137380000Y-22341207D01*
X137349257Y-22186649D01*
X137288951Y-22041058D01*
X137201401Y-21910030D01*
X137089970Y-21798599D01*
X136958942Y-21711049D01*
X136813351Y-21650743D01*
X136658793Y-21620000D01*
X136652999Y-21620000D01*
X136652999Y-21011177D01*
X136696649Y-21029257D01*
X136851207Y-21060000D01*
X137008793Y-21060000D01*
X137163351Y-21029257D01*
X137308942Y-20968951D01*
X137439970Y-20881401D01*
X137551401Y-20769970D01*
X137630929Y-20650948D01*
X139350001Y-22370021D01*
M02*
