G04 #@! TF.GenerationSoftware,KiCad,Pcbnew,(5.1.5-0)*
G04 #@! TF.CreationDate,2022-04-04T15:41:35-07:00*
G04 #@! TF.ProjectId,wvr_v.1.0,7776725f-762e-4312-9e30-2e6b69636164,rev?*
G04 #@! TF.SameCoordinates,Original*
G04 #@! TF.FileFunction,Soldermask,Bot*
G04 #@! TF.FilePolarity,Negative*
%FSLAX46Y46*%
G04 Gerber Fmt 4.6, Leading zero omitted, Abs format (unit mm)*
G04 Created by KiCad (PCBNEW (5.1.5-0)) date 2022-04-04 15:41:35*
%MOMM*%
%LPD*%
G04 APERTURE LIST*
%ADD10C,0.100000*%
G04 APERTURE END LIST*
D10*
G36*
X152198259Y-61278530D02*
G01*
X152396283Y-61338599D01*
X152578774Y-61436142D01*
X152738732Y-61567418D01*
X152870008Y-61727376D01*
X152967551Y-61909867D01*
X153027620Y-62107891D01*
X153047903Y-62313820D01*
X153027620Y-62519749D01*
X152967551Y-62717773D01*
X152870008Y-62900264D01*
X152738732Y-63060222D01*
X152578774Y-63191498D01*
X152396283Y-63289041D01*
X152198259Y-63349110D01*
X152043937Y-63364310D01*
X151191423Y-63364310D01*
X151037101Y-63349110D01*
X150839077Y-63289041D01*
X150656586Y-63191498D01*
X150496628Y-63060222D01*
X150365352Y-62900264D01*
X150267809Y-62717773D01*
X150207740Y-62519749D01*
X150187457Y-62313820D01*
X150207740Y-62107891D01*
X150267809Y-61909867D01*
X150365352Y-61727376D01*
X150496628Y-61567418D01*
X150656586Y-61436142D01*
X150839077Y-61338599D01*
X151037101Y-61278530D01*
X151191423Y-61263330D01*
X152043937Y-61263330D01*
X152198259Y-61278530D01*
G37*
G36*
X136033699Y-61278530D02*
G01*
X136231723Y-61338599D01*
X136414214Y-61436142D01*
X136574172Y-61567418D01*
X136705448Y-61727376D01*
X136802991Y-61909867D01*
X136863060Y-62107891D01*
X136883343Y-62313820D01*
X136863060Y-62519749D01*
X136802991Y-62717773D01*
X136705448Y-62900264D01*
X136574172Y-63060222D01*
X136414214Y-63191498D01*
X136231723Y-63289041D01*
X136033699Y-63349110D01*
X135879377Y-63364310D01*
X135026863Y-63364310D01*
X134872541Y-63349110D01*
X134674517Y-63289041D01*
X134492026Y-63191498D01*
X134332068Y-63060222D01*
X134200792Y-62900264D01*
X134103249Y-62717773D01*
X134043180Y-62519749D01*
X134022897Y-62313820D01*
X134043180Y-62107891D01*
X134103249Y-61909867D01*
X134200792Y-61727376D01*
X134332068Y-61567418D01*
X134492026Y-61436142D01*
X134674517Y-61338599D01*
X134872541Y-61278530D01*
X135026863Y-61263330D01*
X135879377Y-61263330D01*
X136033699Y-61278530D01*
G37*
G36*
X146307854Y-61241792D02*
G01*
X146355094Y-61251188D01*
X146414420Y-61275762D01*
X146467808Y-61311435D01*
X146513225Y-61356852D01*
X146548898Y-61410240D01*
X146573472Y-61469566D01*
X146586000Y-61532553D01*
X146586000Y-61596767D01*
X146573472Y-61659754D01*
X146548898Y-61719080D01*
X146513225Y-61772468D01*
X146467808Y-61817885D01*
X146414420Y-61853558D01*
X146355094Y-61878132D01*
X146307854Y-61887528D01*
X146292108Y-61890660D01*
X146227892Y-61890660D01*
X146212146Y-61887528D01*
X146164906Y-61878132D01*
X146105580Y-61853558D01*
X146052192Y-61817885D01*
X146006775Y-61772468D01*
X145971102Y-61719080D01*
X145946528Y-61659754D01*
X145934000Y-61596767D01*
X145934000Y-61532553D01*
X145946528Y-61469566D01*
X145971102Y-61410240D01*
X146006775Y-61356852D01*
X146052192Y-61311435D01*
X146105580Y-61275762D01*
X146164906Y-61251188D01*
X146212146Y-61241792D01*
X146227892Y-61238660D01*
X146292108Y-61238660D01*
X146307854Y-61241792D01*
G37*
G36*
X142307854Y-61241792D02*
G01*
X142355094Y-61251188D01*
X142414420Y-61275762D01*
X142467808Y-61311435D01*
X142513225Y-61356852D01*
X142548898Y-61410240D01*
X142573472Y-61469566D01*
X142586000Y-61532553D01*
X142586000Y-61596767D01*
X142573472Y-61659754D01*
X142548898Y-61719080D01*
X142513225Y-61772468D01*
X142467808Y-61817885D01*
X142414420Y-61853558D01*
X142355094Y-61878132D01*
X142307854Y-61887528D01*
X142292108Y-61890660D01*
X142227892Y-61890660D01*
X142212146Y-61887528D01*
X142164906Y-61878132D01*
X142105580Y-61853558D01*
X142052192Y-61817885D01*
X142006775Y-61772468D01*
X141971102Y-61719080D01*
X141946528Y-61659754D01*
X141934000Y-61596767D01*
X141934000Y-61532553D01*
X141946528Y-61469566D01*
X141971102Y-61410240D01*
X142006775Y-61356852D01*
X142052192Y-61311435D01*
X142105580Y-61275762D01*
X142164906Y-61251188D01*
X142212146Y-61241792D01*
X142227892Y-61238660D01*
X142292108Y-61238660D01*
X142307854Y-61241792D01*
G37*
G36*
X152198259Y-58738530D02*
G01*
X152396283Y-58798599D01*
X152578774Y-58896142D01*
X152738732Y-59027418D01*
X152870008Y-59187376D01*
X152967551Y-59369867D01*
X153027620Y-59567891D01*
X153047903Y-59773820D01*
X153027620Y-59979749D01*
X152967551Y-60177773D01*
X152870008Y-60360264D01*
X152738732Y-60520222D01*
X152578774Y-60651498D01*
X152396283Y-60749041D01*
X152198259Y-60809110D01*
X152043937Y-60824310D01*
X151191423Y-60824310D01*
X151037101Y-60809110D01*
X150839077Y-60749041D01*
X150656586Y-60651498D01*
X150496628Y-60520222D01*
X150365352Y-60360264D01*
X150267809Y-60177773D01*
X150207740Y-59979749D01*
X150187457Y-59773820D01*
X150207740Y-59567891D01*
X150267809Y-59369867D01*
X150365352Y-59187376D01*
X150496628Y-59027418D01*
X150656586Y-58896142D01*
X150839077Y-58798599D01*
X151037101Y-58738530D01*
X151191423Y-58723330D01*
X152043937Y-58723330D01*
X152198259Y-58738530D01*
G37*
G36*
X136033699Y-58738530D02*
G01*
X136231723Y-58798599D01*
X136414214Y-58896142D01*
X136574172Y-59027418D01*
X136705448Y-59187376D01*
X136802991Y-59369867D01*
X136863060Y-59567891D01*
X136883343Y-59773820D01*
X136863060Y-59979749D01*
X136802991Y-60177773D01*
X136705448Y-60360264D01*
X136574172Y-60520222D01*
X136414214Y-60651498D01*
X136231723Y-60749041D01*
X136033699Y-60809110D01*
X135879377Y-60824310D01*
X135026863Y-60824310D01*
X134872541Y-60809110D01*
X134674517Y-60749041D01*
X134492026Y-60651498D01*
X134332068Y-60520222D01*
X134200792Y-60360264D01*
X134103249Y-60177773D01*
X134043180Y-59979749D01*
X134022897Y-59773820D01*
X134043180Y-59567891D01*
X134103249Y-59369867D01*
X134200792Y-59187376D01*
X134332068Y-59027418D01*
X134492026Y-58896142D01*
X134674517Y-58798599D01*
X134872541Y-58738530D01*
X135026863Y-58723330D01*
X135879377Y-58723330D01*
X136033699Y-58738530D01*
G37*
G36*
X152198259Y-56198530D02*
G01*
X152396283Y-56258599D01*
X152578774Y-56356142D01*
X152738732Y-56487418D01*
X152870008Y-56647376D01*
X152967551Y-56829867D01*
X153027620Y-57027891D01*
X153047903Y-57233820D01*
X153027620Y-57439749D01*
X152967551Y-57637773D01*
X152870008Y-57820264D01*
X152738732Y-57980222D01*
X152578774Y-58111498D01*
X152396283Y-58209041D01*
X152198259Y-58269110D01*
X152043937Y-58284310D01*
X151191423Y-58284310D01*
X151037101Y-58269110D01*
X150839077Y-58209041D01*
X150656586Y-58111498D01*
X150496628Y-57980222D01*
X150365352Y-57820264D01*
X150267809Y-57637773D01*
X150207740Y-57439749D01*
X150187457Y-57233820D01*
X150207740Y-57027891D01*
X150267809Y-56829867D01*
X150365352Y-56647376D01*
X150496628Y-56487418D01*
X150656586Y-56356142D01*
X150839077Y-56258599D01*
X151037101Y-56198530D01*
X151191423Y-56183330D01*
X152043937Y-56183330D01*
X152198259Y-56198530D01*
G37*
G36*
X136033699Y-56198530D02*
G01*
X136231723Y-56258599D01*
X136414214Y-56356142D01*
X136574172Y-56487418D01*
X136705448Y-56647376D01*
X136802991Y-56829867D01*
X136863060Y-57027891D01*
X136883343Y-57233820D01*
X136863060Y-57439749D01*
X136802991Y-57637773D01*
X136705448Y-57820264D01*
X136574172Y-57980222D01*
X136414214Y-58111498D01*
X136231723Y-58209041D01*
X136033699Y-58269110D01*
X135879377Y-58284310D01*
X135026863Y-58284310D01*
X134872541Y-58269110D01*
X134674517Y-58209041D01*
X134492026Y-58111498D01*
X134332068Y-57980222D01*
X134200792Y-57820264D01*
X134103249Y-57637773D01*
X134043180Y-57439749D01*
X134022897Y-57233820D01*
X134043180Y-57027891D01*
X134103249Y-56829867D01*
X134200792Y-56647376D01*
X134332068Y-56487418D01*
X134492026Y-56356142D01*
X134674517Y-56258599D01*
X134872541Y-56198530D01*
X135026863Y-56183330D01*
X135879377Y-56183330D01*
X136033699Y-56198530D01*
G37*
G36*
X152198259Y-53658530D02*
G01*
X152396283Y-53718599D01*
X152578774Y-53816142D01*
X152738732Y-53947418D01*
X152870008Y-54107376D01*
X152967551Y-54289867D01*
X153027620Y-54487891D01*
X153047903Y-54693820D01*
X153027620Y-54899749D01*
X152967551Y-55097773D01*
X152870008Y-55280264D01*
X152738732Y-55440222D01*
X152578774Y-55571498D01*
X152396283Y-55669041D01*
X152198259Y-55729110D01*
X152043937Y-55744310D01*
X151191423Y-55744310D01*
X151037101Y-55729110D01*
X150839077Y-55669041D01*
X150656586Y-55571498D01*
X150496628Y-55440222D01*
X150365352Y-55280264D01*
X150267809Y-55097773D01*
X150207740Y-54899749D01*
X150187457Y-54693820D01*
X150207740Y-54487891D01*
X150267809Y-54289867D01*
X150365352Y-54107376D01*
X150496628Y-53947418D01*
X150656586Y-53816142D01*
X150839077Y-53718599D01*
X151037101Y-53658530D01*
X151191423Y-53643330D01*
X152043937Y-53643330D01*
X152198259Y-53658530D01*
G37*
G36*
X136033699Y-53658530D02*
G01*
X136231723Y-53718599D01*
X136414214Y-53816142D01*
X136574172Y-53947418D01*
X136705448Y-54107376D01*
X136802991Y-54289867D01*
X136863060Y-54487891D01*
X136883343Y-54693820D01*
X136863060Y-54899749D01*
X136802991Y-55097773D01*
X136705448Y-55280264D01*
X136574172Y-55440222D01*
X136414214Y-55571498D01*
X136231723Y-55669041D01*
X136033699Y-55729110D01*
X135879377Y-55744310D01*
X135026863Y-55744310D01*
X134872541Y-55729110D01*
X134674517Y-55669041D01*
X134492026Y-55571498D01*
X134332068Y-55440222D01*
X134200792Y-55280264D01*
X134103249Y-55097773D01*
X134043180Y-54899749D01*
X134022897Y-54693820D01*
X134043180Y-54487891D01*
X134103249Y-54289867D01*
X134200792Y-54107376D01*
X134332068Y-53947418D01*
X134492026Y-53816142D01*
X134674517Y-53718599D01*
X134872541Y-53658530D01*
X135026863Y-53643330D01*
X135879377Y-53643330D01*
X136033699Y-53658530D01*
G37*
G36*
X155202812Y-52493624D02*
G01*
X155202814Y-52493625D01*
X155202815Y-52493625D01*
X155357673Y-52557770D01*
X155366784Y-52561544D01*
X155514354Y-52660147D01*
X155575110Y-52720903D01*
X155584722Y-52728790D01*
X155595700Y-52734658D01*
X155607612Y-52738272D01*
X155620000Y-52739492D01*
X155632388Y-52738272D01*
X155644300Y-52734658D01*
X155655278Y-52728790D01*
X155664890Y-52720903D01*
X155725646Y-52660147D01*
X155873216Y-52561544D01*
X155882327Y-52557770D01*
X156037185Y-52493625D01*
X156037186Y-52493625D01*
X156037188Y-52493624D01*
X156211259Y-52459000D01*
X156388741Y-52459000D01*
X156562812Y-52493624D01*
X156562814Y-52493625D01*
X156562815Y-52493625D01*
X156717673Y-52557770D01*
X156726784Y-52561544D01*
X156874354Y-52660147D01*
X156999853Y-52785646D01*
X157098456Y-52933216D01*
X157166376Y-53097188D01*
X157201000Y-53271259D01*
X157201000Y-53448741D01*
X157166376Y-53622812D01*
X157098456Y-53786784D01*
X156999853Y-53934354D01*
X156874354Y-54059853D01*
X156726784Y-54158456D01*
X156562815Y-54226375D01*
X156562814Y-54226375D01*
X156562812Y-54226376D01*
X156388741Y-54261000D01*
X156211259Y-54261000D01*
X156037188Y-54226376D01*
X156037186Y-54226375D01*
X156037185Y-54226375D01*
X155873216Y-54158456D01*
X155725646Y-54059853D01*
X155664890Y-53999097D01*
X155655278Y-53991210D01*
X155644300Y-53985342D01*
X155632388Y-53981728D01*
X155620000Y-53980508D01*
X155607612Y-53981728D01*
X155595700Y-53985342D01*
X155584722Y-53991210D01*
X155575110Y-53999097D01*
X155514354Y-54059853D01*
X155366784Y-54158456D01*
X155202815Y-54226375D01*
X155202814Y-54226375D01*
X155202812Y-54226376D01*
X155028741Y-54261000D01*
X154851259Y-54261000D01*
X154677188Y-54226376D01*
X154677186Y-54226375D01*
X154677185Y-54226375D01*
X154513216Y-54158456D01*
X154365646Y-54059853D01*
X154240147Y-53934354D01*
X154141544Y-53786784D01*
X154073624Y-53622812D01*
X154039000Y-53448741D01*
X154039000Y-53271259D01*
X154073624Y-53097188D01*
X154141544Y-52933216D01*
X154240147Y-52785646D01*
X154365646Y-52660147D01*
X154513216Y-52561544D01*
X154522327Y-52557770D01*
X154677185Y-52493625D01*
X154677186Y-52493625D01*
X154677188Y-52493624D01*
X154851259Y-52459000D01*
X155028741Y-52459000D01*
X155202812Y-52493624D01*
G37*
G36*
X130992812Y-52493624D02*
G01*
X130992814Y-52493625D01*
X130992815Y-52493625D01*
X131147673Y-52557770D01*
X131156784Y-52561544D01*
X131304354Y-52660147D01*
X131360110Y-52715903D01*
X131369722Y-52723790D01*
X131380700Y-52729658D01*
X131392612Y-52733272D01*
X131405000Y-52734492D01*
X131417388Y-52733272D01*
X131429300Y-52729658D01*
X131440278Y-52723790D01*
X131449890Y-52715903D01*
X131505646Y-52660147D01*
X131653216Y-52561544D01*
X131662327Y-52557770D01*
X131817185Y-52493625D01*
X131817186Y-52493625D01*
X131817188Y-52493624D01*
X131991259Y-52459000D01*
X132168741Y-52459000D01*
X132342812Y-52493624D01*
X132342814Y-52493625D01*
X132342815Y-52493625D01*
X132497673Y-52557770D01*
X132506784Y-52561544D01*
X132654354Y-52660147D01*
X132779853Y-52785646D01*
X132878456Y-52933216D01*
X132946376Y-53097188D01*
X132981000Y-53271259D01*
X132981000Y-53448741D01*
X132946376Y-53622812D01*
X132878456Y-53786784D01*
X132779853Y-53934354D01*
X132654354Y-54059853D01*
X132506784Y-54158456D01*
X132342815Y-54226375D01*
X132342814Y-54226375D01*
X132342812Y-54226376D01*
X132168741Y-54261000D01*
X131991259Y-54261000D01*
X131817188Y-54226376D01*
X131817186Y-54226375D01*
X131817185Y-54226375D01*
X131653216Y-54158456D01*
X131505646Y-54059853D01*
X131449890Y-54004097D01*
X131440278Y-53996210D01*
X131429300Y-53990342D01*
X131417388Y-53986728D01*
X131405000Y-53985508D01*
X131392612Y-53986728D01*
X131380700Y-53990342D01*
X131369722Y-53996210D01*
X131360110Y-54004097D01*
X131304354Y-54059853D01*
X131156784Y-54158456D01*
X130992815Y-54226375D01*
X130992814Y-54226375D01*
X130992812Y-54226376D01*
X130818741Y-54261000D01*
X130641259Y-54261000D01*
X130467188Y-54226376D01*
X130467186Y-54226375D01*
X130467185Y-54226375D01*
X130303216Y-54158456D01*
X130155646Y-54059853D01*
X130030147Y-53934354D01*
X129931544Y-53786784D01*
X129863624Y-53622812D01*
X129829000Y-53448741D01*
X129829000Y-53271259D01*
X129863624Y-53097188D01*
X129931544Y-52933216D01*
X130030147Y-52785646D01*
X130155646Y-52660147D01*
X130303216Y-52561544D01*
X130312327Y-52557770D01*
X130467185Y-52493625D01*
X130467186Y-52493625D01*
X130467188Y-52493624D01*
X130641259Y-52459000D01*
X130818741Y-52459000D01*
X130992812Y-52493624D01*
G37*
G36*
X152198259Y-51118530D02*
G01*
X152396283Y-51178599D01*
X152578774Y-51276142D01*
X152738732Y-51407418D01*
X152870008Y-51567376D01*
X152967551Y-51749867D01*
X153027620Y-51947891D01*
X153047903Y-52153820D01*
X153027620Y-52359749D01*
X152967551Y-52557773D01*
X152870008Y-52740264D01*
X152738732Y-52900222D01*
X152578774Y-53031498D01*
X152396283Y-53129041D01*
X152198259Y-53189110D01*
X152043937Y-53204310D01*
X151191423Y-53204310D01*
X151037101Y-53189110D01*
X150839077Y-53129041D01*
X150656586Y-53031498D01*
X150496628Y-52900222D01*
X150365352Y-52740264D01*
X150267809Y-52557773D01*
X150207740Y-52359749D01*
X150187457Y-52153820D01*
X150207740Y-51947891D01*
X150267809Y-51749867D01*
X150365352Y-51567376D01*
X150496628Y-51407418D01*
X150656586Y-51276142D01*
X150839077Y-51178599D01*
X151037101Y-51118530D01*
X151191423Y-51103330D01*
X152043937Y-51103330D01*
X152198259Y-51118530D01*
G37*
G36*
X136033699Y-51118530D02*
G01*
X136231723Y-51178599D01*
X136414214Y-51276142D01*
X136574172Y-51407418D01*
X136705448Y-51567376D01*
X136802991Y-51749867D01*
X136863060Y-51947891D01*
X136883343Y-52153820D01*
X136863060Y-52359749D01*
X136802991Y-52557773D01*
X136705448Y-52740264D01*
X136574172Y-52900222D01*
X136414214Y-53031498D01*
X136231723Y-53129041D01*
X136033699Y-53189110D01*
X135879377Y-53204310D01*
X135026863Y-53204310D01*
X134872541Y-53189110D01*
X134674517Y-53129041D01*
X134492026Y-53031498D01*
X134332068Y-52900222D01*
X134200792Y-52740264D01*
X134103249Y-52557773D01*
X134043180Y-52359749D01*
X134022897Y-52153820D01*
X134043180Y-51947891D01*
X134103249Y-51749867D01*
X134200792Y-51567376D01*
X134332068Y-51407418D01*
X134492026Y-51276142D01*
X134674517Y-51178599D01*
X134872541Y-51118530D01*
X135026863Y-51103330D01*
X135879377Y-51103330D01*
X136033699Y-51118530D01*
G37*
G36*
X130992812Y-49953624D02*
G01*
X130992814Y-49953625D01*
X130992815Y-49953625D01*
X131147673Y-50017770D01*
X131156784Y-50021544D01*
X131304354Y-50120147D01*
X131360110Y-50175903D01*
X131369722Y-50183790D01*
X131380700Y-50189658D01*
X131392612Y-50193272D01*
X131405000Y-50194492D01*
X131417388Y-50193272D01*
X131429300Y-50189658D01*
X131440278Y-50183790D01*
X131449890Y-50175903D01*
X131505646Y-50120147D01*
X131653216Y-50021544D01*
X131662327Y-50017770D01*
X131817185Y-49953625D01*
X131817186Y-49953625D01*
X131817188Y-49953624D01*
X131991259Y-49919000D01*
X132168741Y-49919000D01*
X132342812Y-49953624D01*
X132342814Y-49953625D01*
X132342815Y-49953625D01*
X132497673Y-50017770D01*
X132506784Y-50021544D01*
X132654354Y-50120147D01*
X132779853Y-50245646D01*
X132878456Y-50393216D01*
X132946376Y-50557188D01*
X132981000Y-50731259D01*
X132981000Y-50908741D01*
X132946376Y-51082812D01*
X132878456Y-51246784D01*
X132779853Y-51394354D01*
X132654354Y-51519853D01*
X132506784Y-51618456D01*
X132342815Y-51686375D01*
X132342814Y-51686375D01*
X132342812Y-51686376D01*
X132168741Y-51721000D01*
X131991259Y-51721000D01*
X131817188Y-51686376D01*
X131817186Y-51686375D01*
X131817185Y-51686375D01*
X131653216Y-51618456D01*
X131505646Y-51519853D01*
X131449890Y-51464097D01*
X131440278Y-51456210D01*
X131429300Y-51450342D01*
X131417388Y-51446728D01*
X131405000Y-51445508D01*
X131392612Y-51446728D01*
X131380700Y-51450342D01*
X131369722Y-51456210D01*
X131360110Y-51464097D01*
X131304354Y-51519853D01*
X131156784Y-51618456D01*
X130992815Y-51686375D01*
X130992814Y-51686375D01*
X130992812Y-51686376D01*
X130818741Y-51721000D01*
X130641259Y-51721000D01*
X130467188Y-51686376D01*
X130467186Y-51686375D01*
X130467185Y-51686375D01*
X130303216Y-51618456D01*
X130155646Y-51519853D01*
X130030147Y-51394354D01*
X129931544Y-51246784D01*
X129863624Y-51082812D01*
X129829000Y-50908741D01*
X129829000Y-50731259D01*
X129863624Y-50557188D01*
X129931544Y-50393216D01*
X130030147Y-50245646D01*
X130155646Y-50120147D01*
X130303216Y-50021544D01*
X130312327Y-50017770D01*
X130467185Y-49953625D01*
X130467186Y-49953625D01*
X130467188Y-49953624D01*
X130641259Y-49919000D01*
X130818741Y-49919000D01*
X130992812Y-49953624D01*
G37*
G36*
X155202812Y-49953624D02*
G01*
X155202814Y-49953625D01*
X155202815Y-49953625D01*
X155357673Y-50017770D01*
X155366784Y-50021544D01*
X155514354Y-50120147D01*
X155575110Y-50180903D01*
X155584722Y-50188790D01*
X155595700Y-50194658D01*
X155607612Y-50198272D01*
X155620000Y-50199492D01*
X155632388Y-50198272D01*
X155644300Y-50194658D01*
X155655278Y-50188790D01*
X155664890Y-50180903D01*
X155725646Y-50120147D01*
X155873216Y-50021544D01*
X155882327Y-50017770D01*
X156037185Y-49953625D01*
X156037186Y-49953625D01*
X156037188Y-49953624D01*
X156211259Y-49919000D01*
X156388741Y-49919000D01*
X156562812Y-49953624D01*
X156562814Y-49953625D01*
X156562815Y-49953625D01*
X156717673Y-50017770D01*
X156726784Y-50021544D01*
X156874354Y-50120147D01*
X156999853Y-50245646D01*
X157098456Y-50393216D01*
X157166376Y-50557188D01*
X157201000Y-50731259D01*
X157201000Y-50908741D01*
X157166376Y-51082812D01*
X157098456Y-51246784D01*
X156999853Y-51394354D01*
X156874354Y-51519853D01*
X156726784Y-51618456D01*
X156562815Y-51686375D01*
X156562814Y-51686375D01*
X156562812Y-51686376D01*
X156388741Y-51721000D01*
X156211259Y-51721000D01*
X156037188Y-51686376D01*
X156037186Y-51686375D01*
X156037185Y-51686375D01*
X155873216Y-51618456D01*
X155725646Y-51519853D01*
X155664890Y-51459097D01*
X155655278Y-51451210D01*
X155644300Y-51445342D01*
X155632388Y-51441728D01*
X155620000Y-51440508D01*
X155607612Y-51441728D01*
X155595700Y-51445342D01*
X155584722Y-51451210D01*
X155575110Y-51459097D01*
X155514354Y-51519853D01*
X155366784Y-51618456D01*
X155202815Y-51686375D01*
X155202814Y-51686375D01*
X155202812Y-51686376D01*
X155028741Y-51721000D01*
X154851259Y-51721000D01*
X154677188Y-51686376D01*
X154677186Y-51686375D01*
X154677185Y-51686375D01*
X154513216Y-51618456D01*
X154365646Y-51519853D01*
X154240147Y-51394354D01*
X154141544Y-51246784D01*
X154073624Y-51082812D01*
X154039000Y-50908741D01*
X154039000Y-50731259D01*
X154073624Y-50557188D01*
X154141544Y-50393216D01*
X154240147Y-50245646D01*
X154365646Y-50120147D01*
X154513216Y-50021544D01*
X154522327Y-50017770D01*
X154677185Y-49953625D01*
X154677186Y-49953625D01*
X154677188Y-49953624D01*
X154851259Y-49919000D01*
X155028741Y-49919000D01*
X155202812Y-49953624D01*
G37*
G36*
X152198259Y-48578530D02*
G01*
X152396283Y-48638599D01*
X152578774Y-48736142D01*
X152738732Y-48867418D01*
X152870008Y-49027376D01*
X152967551Y-49209867D01*
X153027620Y-49407891D01*
X153047903Y-49613820D01*
X153027620Y-49819749D01*
X152967551Y-50017773D01*
X152870008Y-50200264D01*
X152738732Y-50360222D01*
X152578774Y-50491498D01*
X152396283Y-50589041D01*
X152198259Y-50649110D01*
X152043937Y-50664310D01*
X151191423Y-50664310D01*
X151037101Y-50649110D01*
X150839077Y-50589041D01*
X150656586Y-50491498D01*
X150496628Y-50360222D01*
X150365352Y-50200264D01*
X150267809Y-50017773D01*
X150207740Y-49819749D01*
X150187457Y-49613820D01*
X150207740Y-49407891D01*
X150267809Y-49209867D01*
X150365352Y-49027376D01*
X150496628Y-48867418D01*
X150656586Y-48736142D01*
X150839077Y-48638599D01*
X151037101Y-48578530D01*
X151191423Y-48563330D01*
X152043937Y-48563330D01*
X152198259Y-48578530D01*
G37*
G36*
X136033699Y-48578530D02*
G01*
X136231723Y-48638599D01*
X136414214Y-48736142D01*
X136574172Y-48867418D01*
X136705448Y-49027376D01*
X136802991Y-49209867D01*
X136863060Y-49407891D01*
X136883343Y-49613820D01*
X136863060Y-49819749D01*
X136802991Y-50017773D01*
X136705448Y-50200264D01*
X136574172Y-50360222D01*
X136414214Y-50491498D01*
X136231723Y-50589041D01*
X136033699Y-50649110D01*
X135879377Y-50664310D01*
X135026863Y-50664310D01*
X134872541Y-50649110D01*
X134674517Y-50589041D01*
X134492026Y-50491498D01*
X134332068Y-50360222D01*
X134200792Y-50200264D01*
X134103249Y-50017773D01*
X134043180Y-49819749D01*
X134022897Y-49613820D01*
X134043180Y-49407891D01*
X134103249Y-49209867D01*
X134200792Y-49027376D01*
X134332068Y-48867418D01*
X134492026Y-48736142D01*
X134674517Y-48638599D01*
X134872541Y-48578530D01*
X135026863Y-48563330D01*
X135879377Y-48563330D01*
X136033699Y-48578530D01*
G37*
G36*
X130992812Y-47413624D02*
G01*
X130992814Y-47413625D01*
X130992815Y-47413625D01*
X131147673Y-47477770D01*
X131156784Y-47481544D01*
X131304354Y-47580147D01*
X131360110Y-47635903D01*
X131369722Y-47643790D01*
X131380700Y-47649658D01*
X131392612Y-47653272D01*
X131405000Y-47654492D01*
X131417388Y-47653272D01*
X131429300Y-47649658D01*
X131440278Y-47643790D01*
X131449890Y-47635903D01*
X131505646Y-47580147D01*
X131653216Y-47481544D01*
X131662327Y-47477770D01*
X131817185Y-47413625D01*
X131817186Y-47413625D01*
X131817188Y-47413624D01*
X131991259Y-47379000D01*
X132168741Y-47379000D01*
X132342812Y-47413624D01*
X132342814Y-47413625D01*
X132342815Y-47413625D01*
X132497673Y-47477770D01*
X132506784Y-47481544D01*
X132654354Y-47580147D01*
X132779853Y-47705646D01*
X132878456Y-47853216D01*
X132946376Y-48017188D01*
X132981000Y-48191259D01*
X132981000Y-48368741D01*
X132946376Y-48542812D01*
X132878456Y-48706784D01*
X132779853Y-48854354D01*
X132654354Y-48979853D01*
X132506784Y-49078456D01*
X132342815Y-49146375D01*
X132342814Y-49146375D01*
X132342812Y-49146376D01*
X132168741Y-49181000D01*
X131991259Y-49181000D01*
X131817188Y-49146376D01*
X131817186Y-49146375D01*
X131817185Y-49146375D01*
X131653216Y-49078456D01*
X131505646Y-48979853D01*
X131449890Y-48924097D01*
X131440278Y-48916210D01*
X131429300Y-48910342D01*
X131417388Y-48906728D01*
X131405000Y-48905508D01*
X131392612Y-48906728D01*
X131380700Y-48910342D01*
X131369722Y-48916210D01*
X131360110Y-48924097D01*
X131304354Y-48979853D01*
X131156784Y-49078456D01*
X130992815Y-49146375D01*
X130992814Y-49146375D01*
X130992812Y-49146376D01*
X130818741Y-49181000D01*
X130641259Y-49181000D01*
X130467188Y-49146376D01*
X130467186Y-49146375D01*
X130467185Y-49146375D01*
X130303216Y-49078456D01*
X130155646Y-48979853D01*
X130030147Y-48854354D01*
X129931544Y-48706784D01*
X129863624Y-48542812D01*
X129829000Y-48368741D01*
X129829000Y-48191259D01*
X129863624Y-48017188D01*
X129931544Y-47853216D01*
X130030147Y-47705646D01*
X130155646Y-47580147D01*
X130303216Y-47481544D01*
X130312327Y-47477770D01*
X130467185Y-47413625D01*
X130467186Y-47413625D01*
X130467188Y-47413624D01*
X130641259Y-47379000D01*
X130818741Y-47379000D01*
X130992812Y-47413624D01*
G37*
G36*
X155202812Y-47413624D02*
G01*
X155202814Y-47413625D01*
X155202815Y-47413625D01*
X155357673Y-47477770D01*
X155366784Y-47481544D01*
X155514354Y-47580147D01*
X155575110Y-47640903D01*
X155584722Y-47648790D01*
X155595700Y-47654658D01*
X155607612Y-47658272D01*
X155620000Y-47659492D01*
X155632388Y-47658272D01*
X155644300Y-47654658D01*
X155655278Y-47648790D01*
X155664890Y-47640903D01*
X155725646Y-47580147D01*
X155873216Y-47481544D01*
X155882327Y-47477770D01*
X156037185Y-47413625D01*
X156037186Y-47413625D01*
X156037188Y-47413624D01*
X156211259Y-47379000D01*
X156388741Y-47379000D01*
X156562812Y-47413624D01*
X156562814Y-47413625D01*
X156562815Y-47413625D01*
X156717673Y-47477770D01*
X156726784Y-47481544D01*
X156874354Y-47580147D01*
X156999853Y-47705646D01*
X157098456Y-47853216D01*
X157166376Y-48017188D01*
X157201000Y-48191259D01*
X157201000Y-48368741D01*
X157166376Y-48542812D01*
X157098456Y-48706784D01*
X156999853Y-48854354D01*
X156874354Y-48979853D01*
X156726784Y-49078456D01*
X156562815Y-49146375D01*
X156562814Y-49146375D01*
X156562812Y-49146376D01*
X156388741Y-49181000D01*
X156211259Y-49181000D01*
X156037188Y-49146376D01*
X156037186Y-49146375D01*
X156037185Y-49146375D01*
X155873216Y-49078456D01*
X155725646Y-48979853D01*
X155664890Y-48919097D01*
X155655278Y-48911210D01*
X155644300Y-48905342D01*
X155632388Y-48901728D01*
X155620000Y-48900508D01*
X155607612Y-48901728D01*
X155595700Y-48905342D01*
X155584722Y-48911210D01*
X155575110Y-48919097D01*
X155514354Y-48979853D01*
X155366784Y-49078456D01*
X155202815Y-49146375D01*
X155202814Y-49146375D01*
X155202812Y-49146376D01*
X155028741Y-49181000D01*
X154851259Y-49181000D01*
X154677188Y-49146376D01*
X154677186Y-49146375D01*
X154677185Y-49146375D01*
X154513216Y-49078456D01*
X154365646Y-48979853D01*
X154240147Y-48854354D01*
X154141544Y-48706784D01*
X154073624Y-48542812D01*
X154039000Y-48368741D01*
X154039000Y-48191259D01*
X154073624Y-48017188D01*
X154141544Y-47853216D01*
X154240147Y-47705646D01*
X154365646Y-47580147D01*
X154513216Y-47481544D01*
X154522327Y-47477770D01*
X154677185Y-47413625D01*
X154677186Y-47413625D01*
X154677188Y-47413624D01*
X154851259Y-47379000D01*
X155028741Y-47379000D01*
X155202812Y-47413624D01*
G37*
G36*
X152198259Y-46038530D02*
G01*
X152396283Y-46098599D01*
X152578774Y-46196142D01*
X152738732Y-46327418D01*
X152870008Y-46487376D01*
X152967551Y-46669867D01*
X153027620Y-46867891D01*
X153047903Y-47073820D01*
X153027620Y-47279749D01*
X152967551Y-47477773D01*
X152870008Y-47660264D01*
X152738732Y-47820222D01*
X152578774Y-47951498D01*
X152396283Y-48049041D01*
X152198259Y-48109110D01*
X152043937Y-48124310D01*
X151191423Y-48124310D01*
X151037101Y-48109110D01*
X150839077Y-48049041D01*
X150656586Y-47951498D01*
X150496628Y-47820222D01*
X150365352Y-47660264D01*
X150267809Y-47477773D01*
X150207740Y-47279749D01*
X150187457Y-47073820D01*
X150207740Y-46867891D01*
X150267809Y-46669867D01*
X150365352Y-46487376D01*
X150496628Y-46327418D01*
X150656586Y-46196142D01*
X150839077Y-46098599D01*
X151037101Y-46038530D01*
X151191423Y-46023330D01*
X152043937Y-46023330D01*
X152198259Y-46038530D01*
G37*
G36*
X136033699Y-46038530D02*
G01*
X136231723Y-46098599D01*
X136414214Y-46196142D01*
X136574172Y-46327418D01*
X136705448Y-46487376D01*
X136802991Y-46669867D01*
X136863060Y-46867891D01*
X136883343Y-47073820D01*
X136863060Y-47279749D01*
X136802991Y-47477773D01*
X136705448Y-47660264D01*
X136574172Y-47820222D01*
X136414214Y-47951498D01*
X136231723Y-48049041D01*
X136033699Y-48109110D01*
X135879377Y-48124310D01*
X135026863Y-48124310D01*
X134872541Y-48109110D01*
X134674517Y-48049041D01*
X134492026Y-47951498D01*
X134332068Y-47820222D01*
X134200792Y-47660264D01*
X134103249Y-47477773D01*
X134043180Y-47279749D01*
X134022897Y-47073820D01*
X134043180Y-46867891D01*
X134103249Y-46669867D01*
X134200792Y-46487376D01*
X134332068Y-46327418D01*
X134492026Y-46196142D01*
X134674517Y-46098599D01*
X134872541Y-46038530D01*
X135026863Y-46023330D01*
X135879377Y-46023330D01*
X136033699Y-46038530D01*
G37*
G36*
X130992812Y-44873624D02*
G01*
X130992814Y-44873625D01*
X130992815Y-44873625D01*
X131156784Y-44941544D01*
X131304354Y-45040147D01*
X131360110Y-45095903D01*
X131369722Y-45103790D01*
X131380700Y-45109658D01*
X131392612Y-45113272D01*
X131405000Y-45114492D01*
X131417388Y-45113272D01*
X131429300Y-45109658D01*
X131440278Y-45103790D01*
X131449890Y-45095903D01*
X131505646Y-45040147D01*
X131653216Y-44941544D01*
X131817185Y-44873625D01*
X131817186Y-44873625D01*
X131817188Y-44873624D01*
X131991259Y-44839000D01*
X132168741Y-44839000D01*
X132342812Y-44873624D01*
X132342814Y-44873625D01*
X132342815Y-44873625D01*
X132506784Y-44941544D01*
X132654354Y-45040147D01*
X132779853Y-45165646D01*
X132878456Y-45313216D01*
X132946376Y-45477188D01*
X132981000Y-45651259D01*
X132981000Y-45828741D01*
X132946376Y-46002812D01*
X132878456Y-46166784D01*
X132779853Y-46314354D01*
X132654354Y-46439853D01*
X132506784Y-46538456D01*
X132342815Y-46606375D01*
X132342814Y-46606375D01*
X132342812Y-46606376D01*
X132168741Y-46641000D01*
X131991259Y-46641000D01*
X131817188Y-46606376D01*
X131817186Y-46606375D01*
X131817185Y-46606375D01*
X131653216Y-46538456D01*
X131505646Y-46439853D01*
X131449890Y-46384097D01*
X131440278Y-46376210D01*
X131429300Y-46370342D01*
X131417388Y-46366728D01*
X131405000Y-46365508D01*
X131392612Y-46366728D01*
X131380700Y-46370342D01*
X131369722Y-46376210D01*
X131360110Y-46384097D01*
X131304354Y-46439853D01*
X131156784Y-46538456D01*
X130992815Y-46606375D01*
X130992814Y-46606375D01*
X130992812Y-46606376D01*
X130818741Y-46641000D01*
X130641259Y-46641000D01*
X130467188Y-46606376D01*
X130467186Y-46606375D01*
X130467185Y-46606375D01*
X130303216Y-46538456D01*
X130155646Y-46439853D01*
X130030147Y-46314354D01*
X129931544Y-46166784D01*
X129863624Y-46002812D01*
X129829000Y-45828741D01*
X129829000Y-45651259D01*
X129863624Y-45477188D01*
X129931544Y-45313216D01*
X130030147Y-45165646D01*
X130155646Y-45040147D01*
X130303216Y-44941544D01*
X130467185Y-44873625D01*
X130467186Y-44873625D01*
X130467188Y-44873624D01*
X130641259Y-44839000D01*
X130818741Y-44839000D01*
X130992812Y-44873624D01*
G37*
G36*
X155202812Y-44873624D02*
G01*
X155202814Y-44873625D01*
X155202815Y-44873625D01*
X155366784Y-44941544D01*
X155514354Y-45040147D01*
X155575110Y-45100903D01*
X155584722Y-45108790D01*
X155595700Y-45114658D01*
X155607612Y-45118272D01*
X155620000Y-45119492D01*
X155632388Y-45118272D01*
X155644300Y-45114658D01*
X155655278Y-45108790D01*
X155664890Y-45100903D01*
X155725646Y-45040147D01*
X155873216Y-44941544D01*
X156037185Y-44873625D01*
X156037186Y-44873625D01*
X156037188Y-44873624D01*
X156211259Y-44839000D01*
X156388741Y-44839000D01*
X156562812Y-44873624D01*
X156562814Y-44873625D01*
X156562815Y-44873625D01*
X156726784Y-44941544D01*
X156874354Y-45040147D01*
X156999853Y-45165646D01*
X157098456Y-45313216D01*
X157166376Y-45477188D01*
X157201000Y-45651259D01*
X157201000Y-45828741D01*
X157166376Y-46002812D01*
X157098456Y-46166784D01*
X156999853Y-46314354D01*
X156874354Y-46439853D01*
X156726784Y-46538456D01*
X156562815Y-46606375D01*
X156562814Y-46606375D01*
X156562812Y-46606376D01*
X156388741Y-46641000D01*
X156211259Y-46641000D01*
X156037188Y-46606376D01*
X156037186Y-46606375D01*
X156037185Y-46606375D01*
X155873216Y-46538456D01*
X155725646Y-46439853D01*
X155664890Y-46379097D01*
X155655278Y-46371210D01*
X155644300Y-46365342D01*
X155632388Y-46361728D01*
X155620000Y-46360508D01*
X155607612Y-46361728D01*
X155595700Y-46365342D01*
X155584722Y-46371210D01*
X155575110Y-46379097D01*
X155514354Y-46439853D01*
X155366784Y-46538456D01*
X155202815Y-46606375D01*
X155202814Y-46606375D01*
X155202812Y-46606376D01*
X155028741Y-46641000D01*
X154851259Y-46641000D01*
X154677188Y-46606376D01*
X154677186Y-46606375D01*
X154677185Y-46606375D01*
X154513216Y-46538456D01*
X154365646Y-46439853D01*
X154240147Y-46314354D01*
X154141544Y-46166784D01*
X154073624Y-46002812D01*
X154039000Y-45828741D01*
X154039000Y-45651259D01*
X154073624Y-45477188D01*
X154141544Y-45313216D01*
X154240147Y-45165646D01*
X154365646Y-45040147D01*
X154513216Y-44941544D01*
X154677185Y-44873625D01*
X154677186Y-44873625D01*
X154677188Y-44873624D01*
X154851259Y-44839000D01*
X155028741Y-44839000D01*
X155202812Y-44873624D01*
G37*
G36*
X155202812Y-42333624D02*
G01*
X155202814Y-42333625D01*
X155202815Y-42333625D01*
X155366784Y-42401544D01*
X155514354Y-42500147D01*
X155575110Y-42560903D01*
X155584722Y-42568790D01*
X155595700Y-42574658D01*
X155607612Y-42578272D01*
X155620000Y-42579492D01*
X155632388Y-42578272D01*
X155644300Y-42574658D01*
X155655278Y-42568790D01*
X155664890Y-42560903D01*
X155725646Y-42500147D01*
X155873216Y-42401544D01*
X156037185Y-42333625D01*
X156037186Y-42333625D01*
X156037188Y-42333624D01*
X156211259Y-42299000D01*
X156388741Y-42299000D01*
X156562812Y-42333624D01*
X156562814Y-42333625D01*
X156562815Y-42333625D01*
X156726784Y-42401544D01*
X156874354Y-42500147D01*
X156999853Y-42625646D01*
X157098456Y-42773216D01*
X157166376Y-42937188D01*
X157201000Y-43111259D01*
X157201000Y-43288741D01*
X157166376Y-43462812D01*
X157098456Y-43626784D01*
X156999853Y-43774354D01*
X156874354Y-43899853D01*
X156726784Y-43998456D01*
X156562815Y-44066375D01*
X156562814Y-44066375D01*
X156562812Y-44066376D01*
X156388741Y-44101000D01*
X156211259Y-44101000D01*
X156037188Y-44066376D01*
X156037186Y-44066375D01*
X156037185Y-44066375D01*
X155873216Y-43998456D01*
X155725646Y-43899853D01*
X155664890Y-43839097D01*
X155655278Y-43831210D01*
X155644300Y-43825342D01*
X155632388Y-43821728D01*
X155620000Y-43820508D01*
X155607612Y-43821728D01*
X155595700Y-43825342D01*
X155584722Y-43831210D01*
X155575110Y-43839097D01*
X155514354Y-43899853D01*
X155366784Y-43998456D01*
X155202815Y-44066375D01*
X155202814Y-44066375D01*
X155202812Y-44066376D01*
X155028741Y-44101000D01*
X154851259Y-44101000D01*
X154677188Y-44066376D01*
X154677186Y-44066375D01*
X154677185Y-44066375D01*
X154513216Y-43998456D01*
X154365646Y-43899853D01*
X154240147Y-43774354D01*
X154141544Y-43626784D01*
X154073624Y-43462812D01*
X154039000Y-43288741D01*
X154039000Y-43111259D01*
X154073624Y-42937188D01*
X154141544Y-42773216D01*
X154240147Y-42625646D01*
X154365646Y-42500147D01*
X154513216Y-42401544D01*
X154677185Y-42333625D01*
X154677186Y-42333625D01*
X154677188Y-42333624D01*
X154851259Y-42299000D01*
X155028741Y-42299000D01*
X155202812Y-42333624D01*
G37*
G36*
X130992812Y-42333624D02*
G01*
X130992814Y-42333625D01*
X130992815Y-42333625D01*
X131156784Y-42401544D01*
X131304354Y-42500147D01*
X131360110Y-42555903D01*
X131369722Y-42563790D01*
X131380700Y-42569658D01*
X131392612Y-42573272D01*
X131405000Y-42574492D01*
X131417388Y-42573272D01*
X131429300Y-42569658D01*
X131440278Y-42563790D01*
X131449890Y-42555903D01*
X131505646Y-42500147D01*
X131653216Y-42401544D01*
X131817185Y-42333625D01*
X131817186Y-42333625D01*
X131817188Y-42333624D01*
X131991259Y-42299000D01*
X132168741Y-42299000D01*
X132342812Y-42333624D01*
X132342814Y-42333625D01*
X132342815Y-42333625D01*
X132506784Y-42401544D01*
X132654354Y-42500147D01*
X132779853Y-42625646D01*
X132878456Y-42773216D01*
X132946376Y-42937188D01*
X132981000Y-43111259D01*
X132981000Y-43288741D01*
X132946376Y-43462812D01*
X132878456Y-43626784D01*
X132779853Y-43774354D01*
X132654354Y-43899853D01*
X132506784Y-43998456D01*
X132342815Y-44066375D01*
X132342814Y-44066375D01*
X132342812Y-44066376D01*
X132168741Y-44101000D01*
X131991259Y-44101000D01*
X131817188Y-44066376D01*
X131817186Y-44066375D01*
X131817185Y-44066375D01*
X131653216Y-43998456D01*
X131505646Y-43899853D01*
X131449890Y-43844097D01*
X131440278Y-43836210D01*
X131429300Y-43830342D01*
X131417388Y-43826728D01*
X131405000Y-43825508D01*
X131392612Y-43826728D01*
X131380700Y-43830342D01*
X131369722Y-43836210D01*
X131360110Y-43844097D01*
X131304354Y-43899853D01*
X131156784Y-43998456D01*
X130992815Y-44066375D01*
X130992814Y-44066375D01*
X130992812Y-44066376D01*
X130818741Y-44101000D01*
X130641259Y-44101000D01*
X130467188Y-44066376D01*
X130467186Y-44066375D01*
X130467185Y-44066375D01*
X130303216Y-43998456D01*
X130155646Y-43899853D01*
X130030147Y-43774354D01*
X129931544Y-43626784D01*
X129863624Y-43462812D01*
X129829000Y-43288741D01*
X129829000Y-43111259D01*
X129863624Y-42937188D01*
X129931544Y-42773216D01*
X130030147Y-42625646D01*
X130155646Y-42500147D01*
X130303216Y-42401544D01*
X130467185Y-42333625D01*
X130467186Y-42333625D01*
X130467188Y-42333624D01*
X130641259Y-42299000D01*
X130818741Y-42299000D01*
X130992812Y-42333624D01*
G37*
G36*
X130992812Y-39793624D02*
G01*
X130992814Y-39793625D01*
X130992815Y-39793625D01*
X131156784Y-39861544D01*
X131304354Y-39960147D01*
X131360110Y-40015903D01*
X131369722Y-40023790D01*
X131380700Y-40029658D01*
X131392612Y-40033272D01*
X131405000Y-40034492D01*
X131417388Y-40033272D01*
X131429300Y-40029658D01*
X131440278Y-40023790D01*
X131449890Y-40015903D01*
X131505646Y-39960147D01*
X131653216Y-39861544D01*
X131817185Y-39793625D01*
X131817186Y-39793625D01*
X131817188Y-39793624D01*
X131991259Y-39759000D01*
X132168741Y-39759000D01*
X132342812Y-39793624D01*
X132342814Y-39793625D01*
X132342815Y-39793625D01*
X132506784Y-39861544D01*
X132654354Y-39960147D01*
X132779853Y-40085646D01*
X132878456Y-40233216D01*
X132946376Y-40397188D01*
X132981000Y-40571259D01*
X132981000Y-40748741D01*
X132946376Y-40922812D01*
X132878456Y-41086784D01*
X132779853Y-41234354D01*
X132654354Y-41359853D01*
X132506784Y-41458456D01*
X132342815Y-41526375D01*
X132342814Y-41526375D01*
X132342812Y-41526376D01*
X132168741Y-41561000D01*
X131991259Y-41561000D01*
X131817188Y-41526376D01*
X131817186Y-41526375D01*
X131817185Y-41526375D01*
X131653216Y-41458456D01*
X131505646Y-41359853D01*
X131449890Y-41304097D01*
X131440278Y-41296210D01*
X131429300Y-41290342D01*
X131417388Y-41286728D01*
X131405000Y-41285508D01*
X131392612Y-41286728D01*
X131380700Y-41290342D01*
X131369722Y-41296210D01*
X131360110Y-41304097D01*
X131304354Y-41359853D01*
X131156784Y-41458456D01*
X130992815Y-41526375D01*
X130992814Y-41526375D01*
X130992812Y-41526376D01*
X130818741Y-41561000D01*
X130641259Y-41561000D01*
X130467188Y-41526376D01*
X130467186Y-41526375D01*
X130467185Y-41526375D01*
X130303216Y-41458456D01*
X130155646Y-41359853D01*
X130030147Y-41234354D01*
X129931544Y-41086784D01*
X129863624Y-40922812D01*
X129829000Y-40748741D01*
X129829000Y-40571259D01*
X129863624Y-40397188D01*
X129931544Y-40233216D01*
X130030147Y-40085646D01*
X130155646Y-39960147D01*
X130303216Y-39861544D01*
X130467185Y-39793625D01*
X130467186Y-39793625D01*
X130467188Y-39793624D01*
X130641259Y-39759000D01*
X130818741Y-39759000D01*
X130992812Y-39793624D01*
G37*
G36*
X155202812Y-39793624D02*
G01*
X155202814Y-39793625D01*
X155202815Y-39793625D01*
X155366784Y-39861544D01*
X155514354Y-39960147D01*
X155575110Y-40020903D01*
X155584722Y-40028790D01*
X155595700Y-40034658D01*
X155607612Y-40038272D01*
X155620000Y-40039492D01*
X155632388Y-40038272D01*
X155644300Y-40034658D01*
X155655278Y-40028790D01*
X155664890Y-40020903D01*
X155725646Y-39960147D01*
X155873216Y-39861544D01*
X156037185Y-39793625D01*
X156037186Y-39793625D01*
X156037188Y-39793624D01*
X156211259Y-39759000D01*
X156388741Y-39759000D01*
X156562812Y-39793624D01*
X156562814Y-39793625D01*
X156562815Y-39793625D01*
X156726784Y-39861544D01*
X156874354Y-39960147D01*
X156999853Y-40085646D01*
X157098456Y-40233216D01*
X157166376Y-40397188D01*
X157201000Y-40571259D01*
X157201000Y-40748741D01*
X157166376Y-40922812D01*
X157098456Y-41086784D01*
X156999853Y-41234354D01*
X156874354Y-41359853D01*
X156726784Y-41458456D01*
X156562815Y-41526375D01*
X156562814Y-41526375D01*
X156562812Y-41526376D01*
X156388741Y-41561000D01*
X156211259Y-41561000D01*
X156037188Y-41526376D01*
X156037186Y-41526375D01*
X156037185Y-41526375D01*
X155873216Y-41458456D01*
X155725646Y-41359853D01*
X155664890Y-41299097D01*
X155655278Y-41291210D01*
X155644300Y-41285342D01*
X155632388Y-41281728D01*
X155620000Y-41280508D01*
X155607612Y-41281728D01*
X155595700Y-41285342D01*
X155584722Y-41291210D01*
X155575110Y-41299097D01*
X155514354Y-41359853D01*
X155366784Y-41458456D01*
X155202815Y-41526375D01*
X155202814Y-41526375D01*
X155202812Y-41526376D01*
X155028741Y-41561000D01*
X154851259Y-41561000D01*
X154677188Y-41526376D01*
X154677186Y-41526375D01*
X154677185Y-41526375D01*
X154513216Y-41458456D01*
X154365646Y-41359853D01*
X154240147Y-41234354D01*
X154141544Y-41086784D01*
X154073624Y-40922812D01*
X154039000Y-40748741D01*
X154039000Y-40571259D01*
X154073624Y-40397188D01*
X154141544Y-40233216D01*
X154240147Y-40085646D01*
X154365646Y-39960147D01*
X154513216Y-39861544D01*
X154677185Y-39793625D01*
X154677186Y-39793625D01*
X154677188Y-39793624D01*
X154851259Y-39759000D01*
X155028741Y-39759000D01*
X155202812Y-39793624D01*
G37*
G36*
X130992812Y-37253624D02*
G01*
X130992814Y-37253625D01*
X130992815Y-37253625D01*
X131156784Y-37321544D01*
X131304354Y-37420147D01*
X131360110Y-37475903D01*
X131369722Y-37483790D01*
X131380700Y-37489658D01*
X131392612Y-37493272D01*
X131405000Y-37494492D01*
X131417388Y-37493272D01*
X131429300Y-37489658D01*
X131440278Y-37483790D01*
X131449890Y-37475903D01*
X131505646Y-37420147D01*
X131653216Y-37321544D01*
X131817185Y-37253625D01*
X131817186Y-37253625D01*
X131817188Y-37253624D01*
X131991259Y-37219000D01*
X132168741Y-37219000D01*
X132342812Y-37253624D01*
X132342814Y-37253625D01*
X132342815Y-37253625D01*
X132506784Y-37321544D01*
X132654354Y-37420147D01*
X132779853Y-37545646D01*
X132878456Y-37693216D01*
X132946376Y-37857188D01*
X132981000Y-38031259D01*
X132981000Y-38208741D01*
X132946376Y-38382812D01*
X132878456Y-38546784D01*
X132779853Y-38694354D01*
X132654354Y-38819853D01*
X132506784Y-38918456D01*
X132342815Y-38986375D01*
X132342814Y-38986375D01*
X132342812Y-38986376D01*
X132168741Y-39021000D01*
X131991259Y-39021000D01*
X131817188Y-38986376D01*
X131817186Y-38986375D01*
X131817185Y-38986375D01*
X131653216Y-38918456D01*
X131505646Y-38819853D01*
X131449890Y-38764097D01*
X131440278Y-38756210D01*
X131429300Y-38750342D01*
X131417388Y-38746728D01*
X131405000Y-38745508D01*
X131392612Y-38746728D01*
X131380700Y-38750342D01*
X131369722Y-38756210D01*
X131360110Y-38764097D01*
X131304354Y-38819853D01*
X131156784Y-38918456D01*
X130992815Y-38986375D01*
X130992814Y-38986375D01*
X130992812Y-38986376D01*
X130818741Y-39021000D01*
X130641259Y-39021000D01*
X130467188Y-38986376D01*
X130467186Y-38986375D01*
X130467185Y-38986375D01*
X130303216Y-38918456D01*
X130155646Y-38819853D01*
X130030147Y-38694354D01*
X129931544Y-38546784D01*
X129863624Y-38382812D01*
X129829000Y-38208741D01*
X129829000Y-38031259D01*
X129863624Y-37857188D01*
X129931544Y-37693216D01*
X130030147Y-37545646D01*
X130155646Y-37420147D01*
X130303216Y-37321544D01*
X130467185Y-37253625D01*
X130467186Y-37253625D01*
X130467188Y-37253624D01*
X130641259Y-37219000D01*
X130818741Y-37219000D01*
X130992812Y-37253624D01*
G37*
G36*
X155202812Y-37253624D02*
G01*
X155202814Y-37253625D01*
X155202815Y-37253625D01*
X155366784Y-37321544D01*
X155514354Y-37420147D01*
X155575110Y-37480903D01*
X155584722Y-37488790D01*
X155595700Y-37494658D01*
X155607612Y-37498272D01*
X155620000Y-37499492D01*
X155632388Y-37498272D01*
X155644300Y-37494658D01*
X155655278Y-37488790D01*
X155664890Y-37480903D01*
X155725646Y-37420147D01*
X155873216Y-37321544D01*
X156037185Y-37253625D01*
X156037186Y-37253625D01*
X156037188Y-37253624D01*
X156211259Y-37219000D01*
X156388741Y-37219000D01*
X156562812Y-37253624D01*
X156562814Y-37253625D01*
X156562815Y-37253625D01*
X156726784Y-37321544D01*
X156874354Y-37420147D01*
X156999853Y-37545646D01*
X157098456Y-37693216D01*
X157166376Y-37857188D01*
X157201000Y-38031259D01*
X157201000Y-38208741D01*
X157166376Y-38382812D01*
X157098456Y-38546784D01*
X156999853Y-38694354D01*
X156874354Y-38819853D01*
X156726784Y-38918456D01*
X156562815Y-38986375D01*
X156562814Y-38986375D01*
X156562812Y-38986376D01*
X156388741Y-39021000D01*
X156211259Y-39021000D01*
X156037188Y-38986376D01*
X156037186Y-38986375D01*
X156037185Y-38986375D01*
X155873216Y-38918456D01*
X155725646Y-38819853D01*
X155664890Y-38759097D01*
X155655278Y-38751210D01*
X155644300Y-38745342D01*
X155632388Y-38741728D01*
X155620000Y-38740508D01*
X155607612Y-38741728D01*
X155595700Y-38745342D01*
X155584722Y-38751210D01*
X155575110Y-38759097D01*
X155514354Y-38819853D01*
X155366784Y-38918456D01*
X155202815Y-38986375D01*
X155202814Y-38986375D01*
X155202812Y-38986376D01*
X155028741Y-39021000D01*
X154851259Y-39021000D01*
X154677188Y-38986376D01*
X154677186Y-38986375D01*
X154677185Y-38986375D01*
X154513216Y-38918456D01*
X154365646Y-38819853D01*
X154240147Y-38694354D01*
X154141544Y-38546784D01*
X154073624Y-38382812D01*
X154039000Y-38208741D01*
X154039000Y-38031259D01*
X154073624Y-37857188D01*
X154141544Y-37693216D01*
X154240147Y-37545646D01*
X154365646Y-37420147D01*
X154513216Y-37321544D01*
X154677185Y-37253625D01*
X154677186Y-37253625D01*
X154677188Y-37253624D01*
X154851259Y-37219000D01*
X155028741Y-37219000D01*
X155202812Y-37253624D01*
G37*
G36*
X130992812Y-34713624D02*
G01*
X130992814Y-34713625D01*
X130992815Y-34713625D01*
X131156784Y-34781544D01*
X131304354Y-34880147D01*
X131360110Y-34935903D01*
X131369722Y-34943790D01*
X131380700Y-34949658D01*
X131392612Y-34953272D01*
X131405000Y-34954492D01*
X131417388Y-34953272D01*
X131429300Y-34949658D01*
X131440278Y-34943790D01*
X131449890Y-34935903D01*
X131505646Y-34880147D01*
X131653216Y-34781544D01*
X131817185Y-34713625D01*
X131817186Y-34713625D01*
X131817188Y-34713624D01*
X131991259Y-34679000D01*
X132168741Y-34679000D01*
X132342812Y-34713624D01*
X132342814Y-34713625D01*
X132342815Y-34713625D01*
X132506784Y-34781544D01*
X132654354Y-34880147D01*
X132779853Y-35005646D01*
X132779856Y-35005651D01*
X132878456Y-35153216D01*
X132945184Y-35314309D01*
X132946376Y-35317188D01*
X132981000Y-35491259D01*
X132981000Y-35668741D01*
X132946376Y-35842812D01*
X132878456Y-36006784D01*
X132779853Y-36154354D01*
X132654354Y-36279853D01*
X132506784Y-36378456D01*
X132342815Y-36446375D01*
X132342814Y-36446375D01*
X132342812Y-36446376D01*
X132168741Y-36481000D01*
X131991259Y-36481000D01*
X131817188Y-36446376D01*
X131817186Y-36446375D01*
X131817185Y-36446375D01*
X131653216Y-36378456D01*
X131505646Y-36279853D01*
X131449890Y-36224097D01*
X131440278Y-36216210D01*
X131429300Y-36210342D01*
X131417388Y-36206728D01*
X131405000Y-36205508D01*
X131392612Y-36206728D01*
X131380700Y-36210342D01*
X131369722Y-36216210D01*
X131360110Y-36224097D01*
X131304354Y-36279853D01*
X131156784Y-36378456D01*
X130992815Y-36446375D01*
X130992814Y-36446375D01*
X130992812Y-36446376D01*
X130818741Y-36481000D01*
X130641259Y-36481000D01*
X130467188Y-36446376D01*
X130467186Y-36446375D01*
X130467185Y-36446375D01*
X130303216Y-36378456D01*
X130155646Y-36279853D01*
X130030147Y-36154354D01*
X129931544Y-36006784D01*
X129863624Y-35842812D01*
X129829000Y-35668741D01*
X129829000Y-35491259D01*
X129863624Y-35317188D01*
X129864817Y-35314309D01*
X129931544Y-35153216D01*
X130030144Y-35005651D01*
X130030147Y-35005646D01*
X130155646Y-34880147D01*
X130303216Y-34781544D01*
X130467185Y-34713625D01*
X130467186Y-34713625D01*
X130467188Y-34713624D01*
X130641259Y-34679000D01*
X130818741Y-34679000D01*
X130992812Y-34713624D01*
G37*
G36*
X155202812Y-34713624D02*
G01*
X155202814Y-34713625D01*
X155202815Y-34713625D01*
X155366784Y-34781544D01*
X155514354Y-34880147D01*
X155575110Y-34940903D01*
X155584722Y-34948790D01*
X155595700Y-34954658D01*
X155607612Y-34958272D01*
X155620000Y-34959492D01*
X155632388Y-34958272D01*
X155644300Y-34954658D01*
X155655278Y-34948790D01*
X155664890Y-34940903D01*
X155725646Y-34880147D01*
X155873216Y-34781544D01*
X156037185Y-34713625D01*
X156037186Y-34713625D01*
X156037188Y-34713624D01*
X156211259Y-34679000D01*
X156388741Y-34679000D01*
X156562812Y-34713624D01*
X156562814Y-34713625D01*
X156562815Y-34713625D01*
X156726784Y-34781544D01*
X156874354Y-34880147D01*
X156999853Y-35005646D01*
X156999856Y-35005651D01*
X157098456Y-35153216D01*
X157165184Y-35314309D01*
X157166376Y-35317188D01*
X157201000Y-35491259D01*
X157201000Y-35668741D01*
X157166376Y-35842812D01*
X157098456Y-36006784D01*
X156999853Y-36154354D01*
X156874354Y-36279853D01*
X156726784Y-36378456D01*
X156562815Y-36446375D01*
X156562814Y-36446375D01*
X156562812Y-36446376D01*
X156388741Y-36481000D01*
X156211259Y-36481000D01*
X156037188Y-36446376D01*
X156037186Y-36446375D01*
X156037185Y-36446375D01*
X155873216Y-36378456D01*
X155725646Y-36279853D01*
X155664890Y-36219097D01*
X155655278Y-36211210D01*
X155644300Y-36205342D01*
X155632388Y-36201728D01*
X155620000Y-36200508D01*
X155607612Y-36201728D01*
X155595700Y-36205342D01*
X155584722Y-36211210D01*
X155575110Y-36219097D01*
X155514354Y-36279853D01*
X155366784Y-36378456D01*
X155202815Y-36446375D01*
X155202814Y-36446375D01*
X155202812Y-36446376D01*
X155028741Y-36481000D01*
X154851259Y-36481000D01*
X154677188Y-36446376D01*
X154677186Y-36446375D01*
X154677185Y-36446375D01*
X154513216Y-36378456D01*
X154365646Y-36279853D01*
X154240147Y-36154354D01*
X154141544Y-36006784D01*
X154073624Y-35842812D01*
X154039000Y-35668741D01*
X154039000Y-35491259D01*
X154073624Y-35317188D01*
X154074817Y-35314309D01*
X154141544Y-35153216D01*
X154240144Y-35005651D01*
X154240147Y-35005646D01*
X154365646Y-34880147D01*
X154513216Y-34781544D01*
X154677185Y-34713625D01*
X154677186Y-34713625D01*
X154677188Y-34713624D01*
X154851259Y-34679000D01*
X155028741Y-34679000D01*
X155202812Y-34713624D01*
G37*
G36*
X139239804Y-34478745D02*
G01*
X139283127Y-34491886D01*
X139323055Y-34513228D01*
X139358051Y-34541949D01*
X139386772Y-34576945D01*
X139408114Y-34616873D01*
X139421255Y-34660196D01*
X139426000Y-34708367D01*
X139426000Y-35291633D01*
X139421255Y-35339804D01*
X139408114Y-35383127D01*
X139386772Y-35423055D01*
X139358051Y-35458051D01*
X139323055Y-35486772D01*
X139283127Y-35508114D01*
X139239804Y-35521255D01*
X139191633Y-35526000D01*
X138508367Y-35526000D01*
X138460196Y-35521255D01*
X138416873Y-35508114D01*
X138376945Y-35486772D01*
X138341949Y-35458051D01*
X138313228Y-35423055D01*
X138291886Y-35383127D01*
X138278745Y-35339804D01*
X138274000Y-35291633D01*
X138274000Y-34708367D01*
X138278745Y-34660196D01*
X138291886Y-34616873D01*
X138313228Y-34576945D01*
X138341949Y-34541949D01*
X138376945Y-34513228D01*
X138416873Y-34491886D01*
X138460196Y-34478745D01*
X138508367Y-34474000D01*
X139191633Y-34474000D01*
X139239804Y-34478745D01*
G37*
G36*
X140989804Y-34478745D02*
G01*
X141033127Y-34491886D01*
X141073055Y-34513228D01*
X141108051Y-34541949D01*
X141136772Y-34576945D01*
X141158114Y-34616873D01*
X141171255Y-34660196D01*
X141176000Y-34708367D01*
X141176000Y-35291633D01*
X141171255Y-35339804D01*
X141158114Y-35383127D01*
X141136772Y-35423055D01*
X141108051Y-35458051D01*
X141073055Y-35486772D01*
X141033127Y-35508114D01*
X140989804Y-35521255D01*
X140941633Y-35526000D01*
X140258367Y-35526000D01*
X140210196Y-35521255D01*
X140166873Y-35508114D01*
X140126945Y-35486772D01*
X140091949Y-35458051D01*
X140063228Y-35423055D01*
X140041886Y-35383127D01*
X140028745Y-35339804D01*
X140024000Y-35291633D01*
X140024000Y-34708367D01*
X140028745Y-34660196D01*
X140041886Y-34616873D01*
X140063228Y-34576945D01*
X140091949Y-34541949D01*
X140126945Y-34513228D01*
X140166873Y-34491886D01*
X140210196Y-34478745D01*
X140258367Y-34474000D01*
X140941633Y-34474000D01*
X140989804Y-34478745D01*
G37*
G36*
X130992812Y-32173624D02*
G01*
X130992814Y-32173625D01*
X130992815Y-32173625D01*
X131156784Y-32241544D01*
X131304354Y-32340147D01*
X131360110Y-32395903D01*
X131369722Y-32403790D01*
X131380700Y-32409658D01*
X131392612Y-32413272D01*
X131405000Y-32414492D01*
X131417388Y-32413272D01*
X131429300Y-32409658D01*
X131440278Y-32403790D01*
X131449890Y-32395903D01*
X131505646Y-32340147D01*
X131653216Y-32241544D01*
X131817185Y-32173625D01*
X131817186Y-32173625D01*
X131817188Y-32173624D01*
X131991259Y-32139000D01*
X132168741Y-32139000D01*
X132342812Y-32173624D01*
X132342814Y-32173625D01*
X132342815Y-32173625D01*
X132506784Y-32241544D01*
X132654354Y-32340147D01*
X132779853Y-32465646D01*
X132878456Y-32613216D01*
X132946376Y-32777188D01*
X132981000Y-32951259D01*
X132981000Y-33128741D01*
X132946376Y-33302812D01*
X132878456Y-33466784D01*
X132779853Y-33614354D01*
X132654354Y-33739853D01*
X132506784Y-33838456D01*
X132342815Y-33906375D01*
X132342814Y-33906375D01*
X132342812Y-33906376D01*
X132168741Y-33941000D01*
X131991259Y-33941000D01*
X131817188Y-33906376D01*
X131817186Y-33906375D01*
X131817185Y-33906375D01*
X131653216Y-33838456D01*
X131505646Y-33739853D01*
X131449890Y-33684097D01*
X131440278Y-33676210D01*
X131429300Y-33670342D01*
X131417388Y-33666728D01*
X131405000Y-33665508D01*
X131392612Y-33666728D01*
X131380700Y-33670342D01*
X131369722Y-33676210D01*
X131360110Y-33684097D01*
X131304354Y-33739853D01*
X131156784Y-33838456D01*
X130992815Y-33906375D01*
X130992814Y-33906375D01*
X130992812Y-33906376D01*
X130818741Y-33941000D01*
X130641259Y-33941000D01*
X130467188Y-33906376D01*
X130467186Y-33906375D01*
X130467185Y-33906375D01*
X130303216Y-33838456D01*
X130155646Y-33739853D01*
X130030147Y-33614354D01*
X129931544Y-33466784D01*
X129863624Y-33302812D01*
X129829000Y-33128741D01*
X129829000Y-32951259D01*
X129863624Y-32777188D01*
X129931544Y-32613216D01*
X130030147Y-32465646D01*
X130155646Y-32340147D01*
X130303216Y-32241544D01*
X130467185Y-32173625D01*
X130467186Y-32173625D01*
X130467188Y-32173624D01*
X130641259Y-32139000D01*
X130818741Y-32139000D01*
X130992812Y-32173624D01*
G37*
G36*
X155202812Y-32173624D02*
G01*
X155202814Y-32173625D01*
X155202815Y-32173625D01*
X155366784Y-32241544D01*
X155514354Y-32340147D01*
X155575110Y-32400903D01*
X155584722Y-32408790D01*
X155595700Y-32414658D01*
X155607612Y-32418272D01*
X155620000Y-32419492D01*
X155632388Y-32418272D01*
X155644300Y-32414658D01*
X155655278Y-32408790D01*
X155664890Y-32400903D01*
X155725646Y-32340147D01*
X155873216Y-32241544D01*
X156037185Y-32173625D01*
X156037186Y-32173625D01*
X156037188Y-32173624D01*
X156211259Y-32139000D01*
X156388741Y-32139000D01*
X156562812Y-32173624D01*
X156562814Y-32173625D01*
X156562815Y-32173625D01*
X156726784Y-32241544D01*
X156874354Y-32340147D01*
X156999853Y-32465646D01*
X157098456Y-32613216D01*
X157166376Y-32777188D01*
X157201000Y-32951259D01*
X157201000Y-33128741D01*
X157166376Y-33302812D01*
X157098456Y-33466784D01*
X156999853Y-33614354D01*
X156874354Y-33739853D01*
X156726784Y-33838456D01*
X156562815Y-33906375D01*
X156562814Y-33906375D01*
X156562812Y-33906376D01*
X156388741Y-33941000D01*
X156211259Y-33941000D01*
X156037188Y-33906376D01*
X156037186Y-33906375D01*
X156037185Y-33906375D01*
X155873216Y-33838456D01*
X155725646Y-33739853D01*
X155664890Y-33679097D01*
X155655278Y-33671210D01*
X155644300Y-33665342D01*
X155632388Y-33661728D01*
X155620000Y-33660508D01*
X155607612Y-33661728D01*
X155595700Y-33665342D01*
X155584722Y-33671210D01*
X155575110Y-33679097D01*
X155514354Y-33739853D01*
X155366784Y-33838456D01*
X155202815Y-33906375D01*
X155202814Y-33906375D01*
X155202812Y-33906376D01*
X155028741Y-33941000D01*
X154851259Y-33941000D01*
X154677188Y-33906376D01*
X154677186Y-33906375D01*
X154677185Y-33906375D01*
X154513216Y-33838456D01*
X154365646Y-33739853D01*
X154240147Y-33614354D01*
X154141544Y-33466784D01*
X154073624Y-33302812D01*
X154039000Y-33128741D01*
X154039000Y-32951259D01*
X154073624Y-32777188D01*
X154141544Y-32613216D01*
X154240147Y-32465646D01*
X154365646Y-32340147D01*
X154513216Y-32241544D01*
X154677185Y-32173625D01*
X154677186Y-32173625D01*
X154677188Y-32173624D01*
X154851259Y-32139000D01*
X155028741Y-32139000D01*
X155202812Y-32173624D01*
G37*
G36*
X155202812Y-29633624D02*
G01*
X155202814Y-29633625D01*
X155202815Y-29633625D01*
X155366784Y-29701544D01*
X155514354Y-29800147D01*
X155575110Y-29860903D01*
X155584722Y-29868790D01*
X155595700Y-29874658D01*
X155607612Y-29878272D01*
X155620000Y-29879492D01*
X155632388Y-29878272D01*
X155644300Y-29874658D01*
X155655278Y-29868790D01*
X155664890Y-29860903D01*
X155725646Y-29800147D01*
X155873216Y-29701544D01*
X156037185Y-29633625D01*
X156037186Y-29633625D01*
X156037188Y-29633624D01*
X156211259Y-29599000D01*
X156388741Y-29599000D01*
X156562812Y-29633624D01*
X156562814Y-29633625D01*
X156562815Y-29633625D01*
X156726784Y-29701544D01*
X156874354Y-29800147D01*
X156999853Y-29925646D01*
X157098456Y-30073216D01*
X157166376Y-30237188D01*
X157201000Y-30411259D01*
X157201000Y-30588741D01*
X157166376Y-30762812D01*
X157098456Y-30926784D01*
X156999853Y-31074354D01*
X156874354Y-31199853D01*
X156726784Y-31298456D01*
X156562815Y-31366375D01*
X156562814Y-31366375D01*
X156562812Y-31366376D01*
X156388741Y-31401000D01*
X156211259Y-31401000D01*
X156037188Y-31366376D01*
X156037186Y-31366375D01*
X156037185Y-31366375D01*
X155873216Y-31298456D01*
X155725646Y-31199853D01*
X155664890Y-31139097D01*
X155655278Y-31131210D01*
X155644300Y-31125342D01*
X155632388Y-31121728D01*
X155620000Y-31120508D01*
X155607612Y-31121728D01*
X155595700Y-31125342D01*
X155584722Y-31131210D01*
X155575110Y-31139097D01*
X155514354Y-31199853D01*
X155366784Y-31298456D01*
X155202815Y-31366375D01*
X155202814Y-31366375D01*
X155202812Y-31366376D01*
X155028741Y-31401000D01*
X154851259Y-31401000D01*
X154677188Y-31366376D01*
X154677186Y-31366375D01*
X154677185Y-31366375D01*
X154513216Y-31298456D01*
X154365646Y-31199853D01*
X154240147Y-31074354D01*
X154141544Y-30926784D01*
X154073624Y-30762812D01*
X154039000Y-30588741D01*
X154039000Y-30411259D01*
X154073624Y-30237188D01*
X154141544Y-30073216D01*
X154240147Y-29925646D01*
X154365646Y-29800147D01*
X154513216Y-29701544D01*
X154677185Y-29633625D01*
X154677186Y-29633625D01*
X154677188Y-29633624D01*
X154851259Y-29599000D01*
X155028741Y-29599000D01*
X155202812Y-29633624D01*
G37*
G36*
X130992812Y-29633624D02*
G01*
X130992814Y-29633625D01*
X130992815Y-29633625D01*
X131156784Y-29701544D01*
X131304354Y-29800147D01*
X131360110Y-29855903D01*
X131369722Y-29863790D01*
X131380700Y-29869658D01*
X131392612Y-29873272D01*
X131405000Y-29874492D01*
X131417388Y-29873272D01*
X131429300Y-29869658D01*
X131440278Y-29863790D01*
X131449890Y-29855903D01*
X131505646Y-29800147D01*
X131653216Y-29701544D01*
X131817185Y-29633625D01*
X131817186Y-29633625D01*
X131817188Y-29633624D01*
X131991259Y-29599000D01*
X132168741Y-29599000D01*
X132342812Y-29633624D01*
X132342814Y-29633625D01*
X132342815Y-29633625D01*
X132506784Y-29701544D01*
X132654354Y-29800147D01*
X132779853Y-29925646D01*
X132878456Y-30073216D01*
X132946376Y-30237188D01*
X132981000Y-30411259D01*
X132981000Y-30588741D01*
X132946376Y-30762812D01*
X132878456Y-30926784D01*
X132779853Y-31074354D01*
X132654354Y-31199853D01*
X132506784Y-31298456D01*
X132342815Y-31366375D01*
X132342814Y-31366375D01*
X132342812Y-31366376D01*
X132168741Y-31401000D01*
X131991259Y-31401000D01*
X131817188Y-31366376D01*
X131817186Y-31366375D01*
X131817185Y-31366375D01*
X131653216Y-31298456D01*
X131505646Y-31199853D01*
X131449890Y-31144097D01*
X131440278Y-31136210D01*
X131429300Y-31130342D01*
X131417388Y-31126728D01*
X131405000Y-31125508D01*
X131392612Y-31126728D01*
X131380700Y-31130342D01*
X131369722Y-31136210D01*
X131360110Y-31144097D01*
X131304354Y-31199853D01*
X131156784Y-31298456D01*
X130992815Y-31366375D01*
X130992814Y-31366375D01*
X130992812Y-31366376D01*
X130818741Y-31401000D01*
X130641259Y-31401000D01*
X130467188Y-31366376D01*
X130467186Y-31366375D01*
X130467185Y-31366375D01*
X130303216Y-31298456D01*
X130155646Y-31199853D01*
X130030147Y-31074354D01*
X129931544Y-30926784D01*
X129863624Y-30762812D01*
X129829000Y-30588741D01*
X129829000Y-30411259D01*
X129863624Y-30237188D01*
X129931544Y-30073216D01*
X130030147Y-29925646D01*
X130155646Y-29800147D01*
X130303216Y-29701544D01*
X130467185Y-29633625D01*
X130467186Y-29633625D01*
X130467188Y-29633624D01*
X130641259Y-29599000D01*
X130818741Y-29599000D01*
X130992812Y-29633624D01*
G37*
G36*
X155202812Y-27093624D02*
G01*
X155202814Y-27093625D01*
X155202815Y-27093625D01*
X155366784Y-27161544D01*
X155514354Y-27260147D01*
X155575110Y-27320903D01*
X155584722Y-27328790D01*
X155595700Y-27334658D01*
X155607612Y-27338272D01*
X155620000Y-27339492D01*
X155632388Y-27338272D01*
X155644300Y-27334658D01*
X155655278Y-27328790D01*
X155664890Y-27320903D01*
X155725646Y-27260147D01*
X155873216Y-27161544D01*
X156037185Y-27093625D01*
X156037186Y-27093625D01*
X156037188Y-27093624D01*
X156211259Y-27059000D01*
X156388741Y-27059000D01*
X156562812Y-27093624D01*
X156562814Y-27093625D01*
X156562815Y-27093625D01*
X156726784Y-27161544D01*
X156874354Y-27260147D01*
X156999853Y-27385646D01*
X157098456Y-27533216D01*
X157166376Y-27697188D01*
X157201000Y-27871259D01*
X157201000Y-28048741D01*
X157166376Y-28222812D01*
X157098456Y-28386784D01*
X156999853Y-28534354D01*
X156874354Y-28659853D01*
X156726784Y-28758456D01*
X156562815Y-28826375D01*
X156562814Y-28826375D01*
X156562812Y-28826376D01*
X156388741Y-28861000D01*
X156211259Y-28861000D01*
X156037188Y-28826376D01*
X156037186Y-28826375D01*
X156037185Y-28826375D01*
X155873216Y-28758456D01*
X155725646Y-28659853D01*
X155664890Y-28599097D01*
X155655278Y-28591210D01*
X155644300Y-28585342D01*
X155632388Y-28581728D01*
X155620000Y-28580508D01*
X155607612Y-28581728D01*
X155595700Y-28585342D01*
X155584722Y-28591210D01*
X155575110Y-28599097D01*
X155514354Y-28659853D01*
X155366784Y-28758456D01*
X155202815Y-28826375D01*
X155202814Y-28826375D01*
X155202812Y-28826376D01*
X155028741Y-28861000D01*
X154851259Y-28861000D01*
X154677188Y-28826376D01*
X154677186Y-28826375D01*
X154677185Y-28826375D01*
X154513216Y-28758456D01*
X154365646Y-28659853D01*
X154240147Y-28534354D01*
X154141544Y-28386784D01*
X154073624Y-28222812D01*
X154039000Y-28048741D01*
X154039000Y-27871259D01*
X154073624Y-27697188D01*
X154141544Y-27533216D01*
X154240147Y-27385646D01*
X154365646Y-27260147D01*
X154513216Y-27161544D01*
X154677185Y-27093625D01*
X154677186Y-27093625D01*
X154677188Y-27093624D01*
X154851259Y-27059000D01*
X155028741Y-27059000D01*
X155202812Y-27093624D01*
G37*
G36*
X130992812Y-27093624D02*
G01*
X130992814Y-27093625D01*
X130992815Y-27093625D01*
X131156784Y-27161544D01*
X131304354Y-27260147D01*
X131360110Y-27315903D01*
X131369722Y-27323790D01*
X131380700Y-27329658D01*
X131392612Y-27333272D01*
X131405000Y-27334492D01*
X131417388Y-27333272D01*
X131429300Y-27329658D01*
X131440278Y-27323790D01*
X131449890Y-27315903D01*
X131505646Y-27260147D01*
X131653216Y-27161544D01*
X131817185Y-27093625D01*
X131817186Y-27093625D01*
X131817188Y-27093624D01*
X131991259Y-27059000D01*
X132168741Y-27059000D01*
X132342812Y-27093624D01*
X132342814Y-27093625D01*
X132342815Y-27093625D01*
X132506784Y-27161544D01*
X132654354Y-27260147D01*
X132779853Y-27385646D01*
X132878456Y-27533216D01*
X132946376Y-27697188D01*
X132981000Y-27871259D01*
X132981000Y-28048741D01*
X132946376Y-28222812D01*
X132878456Y-28386784D01*
X132779853Y-28534354D01*
X132654354Y-28659853D01*
X132506784Y-28758456D01*
X132342815Y-28826375D01*
X132342814Y-28826375D01*
X132342812Y-28826376D01*
X132168741Y-28861000D01*
X131991259Y-28861000D01*
X131817188Y-28826376D01*
X131817186Y-28826375D01*
X131817185Y-28826375D01*
X131653216Y-28758456D01*
X131505646Y-28659853D01*
X131449890Y-28604097D01*
X131440278Y-28596210D01*
X131429300Y-28590342D01*
X131417388Y-28586728D01*
X131405000Y-28585508D01*
X131392612Y-28586728D01*
X131380700Y-28590342D01*
X131369722Y-28596210D01*
X131360110Y-28604097D01*
X131304354Y-28659853D01*
X131156784Y-28758456D01*
X130992815Y-28826375D01*
X130992814Y-28826375D01*
X130992812Y-28826376D01*
X130818741Y-28861000D01*
X130641259Y-28861000D01*
X130467188Y-28826376D01*
X130467186Y-28826375D01*
X130467185Y-28826375D01*
X130303216Y-28758456D01*
X130155646Y-28659853D01*
X130030147Y-28534354D01*
X129931544Y-28386784D01*
X129863624Y-28222812D01*
X129829000Y-28048741D01*
X129829000Y-27871259D01*
X129863624Y-27697188D01*
X129931544Y-27533216D01*
X130030147Y-27385646D01*
X130155646Y-27260147D01*
X130303216Y-27161544D01*
X130467185Y-27093625D01*
X130467186Y-27093625D01*
X130467188Y-27093624D01*
X130641259Y-27059000D01*
X130818741Y-27059000D01*
X130992812Y-27093624D01*
G37*
M02*
