G04 #@! TF.GenerationSoftware,KiCad,Pcbnew,(5.1.5-0)*
G04 #@! TF.CreationDate,2024-09-01T10:03:29-07:00*
G04 #@! TF.ProjectId,wvr_v.1.0,7776725f-762e-4312-9e30-2e6b69636164,rev?*
G04 #@! TF.SameCoordinates,Original*
G04 #@! TF.FileFunction,Paste,Top*
G04 #@! TF.FilePolarity,Positive*
%FSLAX46Y46*%
G04 Gerber Fmt 4.6, Leading zero omitted, Abs format (unit mm)*
G04 Created by KiCad (PCBNEW (5.1.5-0)) date 2024-09-01 10:03:29*
%MOMM*%
%LPD*%
G04 APERTURE LIST*
%ADD10C,0.010000*%
%ADD11C,0.100000*%
%ADD12R,0.450000X0.600000*%
%ADD13R,1.450000X0.450000*%
%ADD14C,0.250000*%
%ADD15R,0.400000X1.350000*%
%ADD16R,1.800000X1.900000*%
%ADD17R,1.900000X1.900000*%
%ADD18R,2.000000X0.900000*%
%ADD19R,1.500000X2.000000*%
%ADD20R,3.800000X2.000000*%
%ADD21R,0.600000X0.450000*%
G04 APERTURE END LIST*
D10*
G36*
X140920000Y-24560000D02*
G01*
X144080000Y-24560000D01*
X144080000Y-27720000D01*
X140920000Y-27720000D01*
X140920000Y-24560000D01*
G37*
X140920000Y-24560000D02*
X144080000Y-24560000D01*
X144080000Y-27720000D01*
X140920000Y-27720000D01*
X140920000Y-24560000D01*
D11*
G36*
X131626958Y-25340710D02*
G01*
X131641276Y-25342834D01*
X131655317Y-25346351D01*
X131668946Y-25351228D01*
X131682031Y-25357417D01*
X131694447Y-25364858D01*
X131706073Y-25373481D01*
X131716798Y-25383202D01*
X131726519Y-25393927D01*
X131735142Y-25405553D01*
X131742583Y-25417969D01*
X131748772Y-25431054D01*
X131753649Y-25444683D01*
X131757166Y-25458724D01*
X131759290Y-25473042D01*
X131760000Y-25487500D01*
X131760000Y-25832500D01*
X131759290Y-25846958D01*
X131757166Y-25861276D01*
X131753649Y-25875317D01*
X131748772Y-25888946D01*
X131742583Y-25902031D01*
X131735142Y-25914447D01*
X131726519Y-25926073D01*
X131716798Y-25936798D01*
X131706073Y-25946519D01*
X131694447Y-25955142D01*
X131682031Y-25962583D01*
X131668946Y-25968772D01*
X131655317Y-25973649D01*
X131641276Y-25977166D01*
X131626958Y-25979290D01*
X131612500Y-25980000D01*
X131317500Y-25980000D01*
X131303042Y-25979290D01*
X131288724Y-25977166D01*
X131274683Y-25973649D01*
X131261054Y-25968772D01*
X131247969Y-25962583D01*
X131235553Y-25955142D01*
X131223927Y-25946519D01*
X131213202Y-25936798D01*
X131203481Y-25926073D01*
X131194858Y-25914447D01*
X131187417Y-25902031D01*
X131181228Y-25888946D01*
X131176351Y-25875317D01*
X131172834Y-25861276D01*
X131170710Y-25846958D01*
X131170000Y-25832500D01*
X131170000Y-25487500D01*
X131170710Y-25473042D01*
X131172834Y-25458724D01*
X131176351Y-25444683D01*
X131181228Y-25431054D01*
X131187417Y-25417969D01*
X131194858Y-25405553D01*
X131203481Y-25393927D01*
X131213202Y-25383202D01*
X131223927Y-25373481D01*
X131235553Y-25364858D01*
X131247969Y-25357417D01*
X131261054Y-25351228D01*
X131274683Y-25346351D01*
X131288724Y-25342834D01*
X131303042Y-25340710D01*
X131317500Y-25340000D01*
X131612500Y-25340000D01*
X131626958Y-25340710D01*
G37*
G36*
X132596958Y-25340710D02*
G01*
X132611276Y-25342834D01*
X132625317Y-25346351D01*
X132638946Y-25351228D01*
X132652031Y-25357417D01*
X132664447Y-25364858D01*
X132676073Y-25373481D01*
X132686798Y-25383202D01*
X132696519Y-25393927D01*
X132705142Y-25405553D01*
X132712583Y-25417969D01*
X132718772Y-25431054D01*
X132723649Y-25444683D01*
X132727166Y-25458724D01*
X132729290Y-25473042D01*
X132730000Y-25487500D01*
X132730000Y-25832500D01*
X132729290Y-25846958D01*
X132727166Y-25861276D01*
X132723649Y-25875317D01*
X132718772Y-25888946D01*
X132712583Y-25902031D01*
X132705142Y-25914447D01*
X132696519Y-25926073D01*
X132686798Y-25936798D01*
X132676073Y-25946519D01*
X132664447Y-25955142D01*
X132652031Y-25962583D01*
X132638946Y-25968772D01*
X132625317Y-25973649D01*
X132611276Y-25977166D01*
X132596958Y-25979290D01*
X132582500Y-25980000D01*
X132287500Y-25980000D01*
X132273042Y-25979290D01*
X132258724Y-25977166D01*
X132244683Y-25973649D01*
X132231054Y-25968772D01*
X132217969Y-25962583D01*
X132205553Y-25955142D01*
X132193927Y-25946519D01*
X132183202Y-25936798D01*
X132173481Y-25926073D01*
X132164858Y-25914447D01*
X132157417Y-25902031D01*
X132151228Y-25888946D01*
X132146351Y-25875317D01*
X132142834Y-25861276D01*
X132140710Y-25846958D01*
X132140000Y-25832500D01*
X132140000Y-25487500D01*
X132140710Y-25473042D01*
X132142834Y-25458724D01*
X132146351Y-25444683D01*
X132151228Y-25431054D01*
X132157417Y-25417969D01*
X132164858Y-25405553D01*
X132173481Y-25393927D01*
X132183202Y-25383202D01*
X132193927Y-25373481D01*
X132205553Y-25364858D01*
X132217969Y-25357417D01*
X132231054Y-25351228D01*
X132244683Y-25346351D01*
X132258724Y-25342834D01*
X132273042Y-25340710D01*
X132287500Y-25340000D01*
X132582500Y-25340000D01*
X132596958Y-25340710D01*
G37*
D12*
X139573000Y-57990740D03*
X139573000Y-55890740D03*
D13*
X137420000Y-56065000D03*
X137420000Y-56715000D03*
X137420000Y-57365000D03*
X137420000Y-58015000D03*
X137420000Y-58665000D03*
X137420000Y-59315000D03*
X137420000Y-59965000D03*
X137420000Y-60615000D03*
X137420000Y-61265000D03*
X137420000Y-61915000D03*
X131520000Y-61915000D03*
X131520000Y-61265000D03*
X131520000Y-60615000D03*
X131520000Y-59965000D03*
X131520000Y-59315000D03*
X131520000Y-58665000D03*
X131520000Y-58015000D03*
X131520000Y-57365000D03*
X131520000Y-56715000D03*
X131520000Y-56065000D03*
D11*
G36*
X132799603Y-22040963D02*
G01*
X132819018Y-22043843D01*
X132838057Y-22048612D01*
X132856537Y-22055224D01*
X132874279Y-22063616D01*
X132891114Y-22073706D01*
X132906879Y-22085398D01*
X132921421Y-22098579D01*
X132934602Y-22113121D01*
X132946294Y-22128886D01*
X132956384Y-22145721D01*
X132964776Y-22163463D01*
X132971388Y-22181943D01*
X132976157Y-22200982D01*
X132979037Y-22220397D01*
X132980000Y-22240000D01*
X132980000Y-22640000D01*
X132979037Y-22659603D01*
X132976157Y-22679018D01*
X132971388Y-22698057D01*
X132964776Y-22716537D01*
X132956384Y-22734279D01*
X132946294Y-22751114D01*
X132934602Y-22766879D01*
X132921421Y-22781421D01*
X132906879Y-22794602D01*
X132891114Y-22806294D01*
X132874279Y-22816384D01*
X132856537Y-22824776D01*
X132838057Y-22831388D01*
X132819018Y-22836157D01*
X132799603Y-22839037D01*
X132780000Y-22840000D01*
X131180000Y-22840000D01*
X131160397Y-22839037D01*
X131140982Y-22836157D01*
X131121943Y-22831388D01*
X131103463Y-22824776D01*
X131085721Y-22816384D01*
X131068886Y-22806294D01*
X131053121Y-22794602D01*
X131038579Y-22781421D01*
X131025398Y-22766879D01*
X131013706Y-22751114D01*
X131003616Y-22734279D01*
X130995224Y-22716537D01*
X130988612Y-22698057D01*
X130983843Y-22679018D01*
X130980963Y-22659603D01*
X130980000Y-22640000D01*
X130980000Y-22240000D01*
X130980963Y-22220397D01*
X130983843Y-22200982D01*
X130988612Y-22181943D01*
X130995224Y-22163463D01*
X131003616Y-22145721D01*
X131013706Y-22128886D01*
X131025398Y-22113121D01*
X131038579Y-22098579D01*
X131053121Y-22085398D01*
X131068886Y-22073706D01*
X131085721Y-22063616D01*
X131103463Y-22055224D01*
X131121943Y-22048612D01*
X131140982Y-22043843D01*
X131160397Y-22040963D01*
X131180000Y-22040000D01*
X132780000Y-22040000D01*
X132799603Y-22040963D01*
G37*
G36*
X132799603Y-17840963D02*
G01*
X132819018Y-17843843D01*
X132838057Y-17848612D01*
X132856537Y-17855224D01*
X132874279Y-17863616D01*
X132891114Y-17873706D01*
X132906879Y-17885398D01*
X132921421Y-17898579D01*
X132934602Y-17913121D01*
X132946294Y-17928886D01*
X132956384Y-17945721D01*
X132964776Y-17963463D01*
X132971388Y-17981943D01*
X132976157Y-18000982D01*
X132979037Y-18020397D01*
X132980000Y-18040000D01*
X132980000Y-18440000D01*
X132979037Y-18459603D01*
X132976157Y-18479018D01*
X132971388Y-18498057D01*
X132964776Y-18516537D01*
X132956384Y-18534279D01*
X132946294Y-18551114D01*
X132934602Y-18566879D01*
X132921421Y-18581421D01*
X132906879Y-18594602D01*
X132891114Y-18606294D01*
X132874279Y-18616384D01*
X132856537Y-18624776D01*
X132838057Y-18631388D01*
X132819018Y-18636157D01*
X132799603Y-18639037D01*
X132780000Y-18640000D01*
X131180000Y-18640000D01*
X131160397Y-18639037D01*
X131140982Y-18636157D01*
X131121943Y-18631388D01*
X131103463Y-18624776D01*
X131085721Y-18616384D01*
X131068886Y-18606294D01*
X131053121Y-18594602D01*
X131038579Y-18581421D01*
X131025398Y-18566879D01*
X131013706Y-18551114D01*
X131003616Y-18534279D01*
X130995224Y-18516537D01*
X130988612Y-18498057D01*
X130983843Y-18479018D01*
X130980963Y-18459603D01*
X130980000Y-18440000D01*
X130980000Y-18040000D01*
X130980963Y-18020397D01*
X130983843Y-18000982D01*
X130988612Y-17981943D01*
X130995224Y-17963463D01*
X131003616Y-17945721D01*
X131013706Y-17928886D01*
X131025398Y-17913121D01*
X131038579Y-17898579D01*
X131053121Y-17885398D01*
X131068886Y-17873706D01*
X131085721Y-17863616D01*
X131103463Y-17855224D01*
X131121943Y-17848612D01*
X131140982Y-17843843D01*
X131160397Y-17840963D01*
X131180000Y-17840000D01*
X132780000Y-17840000D01*
X132799603Y-17840963D01*
G37*
D14*
X140730000Y-46990000D03*
X146730000Y-52490000D03*
X146230000Y-52490000D03*
X146730000Y-51990000D03*
X146230000Y-51990000D03*
X144230000Y-52490000D03*
X143730000Y-52490000D03*
X143230000Y-52490000D03*
X140230000Y-51990000D03*
X140230000Y-52490000D03*
X140730000Y-52490000D03*
X140730000Y-51990000D03*
X145230000Y-47490000D03*
X141230000Y-52490000D03*
X141230000Y-51990000D03*
X140730000Y-51490000D03*
X140230000Y-51490000D03*
X140730000Y-48490000D03*
X140230000Y-46490000D03*
X140230000Y-45990000D03*
X140730000Y-45990000D03*
X142730000Y-46990000D03*
X143230000Y-46990000D03*
X145730000Y-47990000D03*
X145730000Y-46990000D03*
X146730000Y-46490000D03*
X142230000Y-45990000D03*
X141230000Y-45990000D03*
X141730000Y-45990000D03*
X143730000Y-45990000D03*
X143230000Y-45990000D03*
X142730000Y-45990000D03*
X144730000Y-45990000D03*
X144230000Y-45990000D03*
X145230000Y-45990000D03*
X146230000Y-45990000D03*
X146730000Y-45990000D03*
X145730000Y-45990000D03*
X145230000Y-46990000D03*
X144730000Y-46990000D03*
X144230000Y-46990000D03*
X142230000Y-46990000D03*
X141230000Y-46990000D03*
X141730000Y-46990000D03*
X141230000Y-46490000D03*
X142230000Y-46490000D03*
X141730000Y-46490000D03*
X143730000Y-46490000D03*
X142730000Y-46490000D03*
X143230000Y-46490000D03*
X145230000Y-46490000D03*
X144230000Y-46490000D03*
X144730000Y-46490000D03*
X140230000Y-50990000D03*
X141230000Y-50990000D03*
X140730000Y-50990000D03*
X140730000Y-50490000D03*
X140230000Y-50490000D03*
X141230000Y-50490000D03*
X140230000Y-49990000D03*
X140730000Y-49990000D03*
X141230000Y-49990000D03*
X140230000Y-49490000D03*
X141230000Y-49490000D03*
X140730000Y-49490000D03*
X140230000Y-48990000D03*
X140730000Y-48990000D03*
X141230000Y-48990000D03*
X142730000Y-52490000D03*
X141730000Y-52490000D03*
X142230000Y-52490000D03*
X142730000Y-51990000D03*
X141730000Y-51990000D03*
X142230000Y-51990000D03*
X143230000Y-51990000D03*
X144230000Y-51990000D03*
X143730000Y-51990000D03*
X141730000Y-51490000D03*
X142230000Y-51490000D03*
X141230000Y-51490000D03*
X143730000Y-51490000D03*
X142730000Y-51490000D03*
X143230000Y-51490000D03*
X145230000Y-51490000D03*
X144230000Y-51490000D03*
X144730000Y-51490000D03*
X144730000Y-51990000D03*
X145730000Y-51990000D03*
X145230000Y-51990000D03*
X144730000Y-52490000D03*
X145730000Y-52490000D03*
X145230000Y-52490000D03*
X145730000Y-51490000D03*
X146730000Y-51490000D03*
X146230000Y-51490000D03*
X146730000Y-50990000D03*
X146230000Y-50990000D03*
X145730000Y-50990000D03*
X146230000Y-50490000D03*
X145730000Y-50490000D03*
X146730000Y-50490000D03*
X145730000Y-49990000D03*
X146730000Y-49990000D03*
X146230000Y-49990000D03*
X145730000Y-49490000D03*
X145730000Y-48990000D03*
X146230000Y-49490000D03*
X146730000Y-49490000D03*
X146230000Y-48990000D03*
X142230000Y-50490000D03*
X142730000Y-50490000D03*
X143230000Y-50490000D03*
X143730000Y-50490000D03*
X144230000Y-50490000D03*
X144730000Y-50490000D03*
X142230000Y-49990000D03*
X144730000Y-49990000D03*
X142230000Y-49490000D03*
X144730000Y-49490000D03*
X142230000Y-48990000D03*
X144730000Y-48990000D03*
X146730000Y-48990000D03*
X140230000Y-48490000D03*
X141230000Y-48490000D03*
X142230000Y-48490000D03*
X144730000Y-48490000D03*
X145730000Y-48490000D03*
X146230000Y-48490000D03*
X146730000Y-48490000D03*
X140230000Y-47990000D03*
X140730000Y-47990000D03*
X141230000Y-47990000D03*
X142230000Y-47990000D03*
X142730000Y-47990000D03*
X143230000Y-47990000D03*
X143730000Y-47990000D03*
X144230000Y-47990000D03*
X144730000Y-47990000D03*
X146230000Y-47990000D03*
X146730000Y-47990000D03*
X140230000Y-47490000D03*
X140730000Y-47490000D03*
X141230000Y-47490000D03*
X145730000Y-47490000D03*
X146230000Y-47490000D03*
X146730000Y-47490000D03*
X140230000Y-46990000D03*
X143730000Y-46990000D03*
X146230000Y-46990000D03*
X146730000Y-46990000D03*
X140730000Y-46490000D03*
X145730000Y-46490000D03*
X146230000Y-46490000D03*
D15*
X144260000Y-61040000D03*
X143610000Y-61040000D03*
X144910000Y-61040000D03*
X142960000Y-61040000D03*
X145560000Y-61040000D03*
D16*
X140460000Y-63715000D03*
X148060000Y-63715000D03*
D17*
X143060000Y-63715000D03*
X145460000Y-63715000D03*
D18*
X152000000Y-18640000D03*
X152000000Y-19910000D03*
X152000000Y-21180000D03*
X152000000Y-22450000D03*
X152000000Y-23720000D03*
X152000000Y-24990000D03*
X152000000Y-26260000D03*
X152000000Y-27530000D03*
X152000000Y-28800000D03*
X152000000Y-30070000D03*
X152000000Y-31340000D03*
X152000000Y-32610000D03*
X152000000Y-33880000D03*
X152000000Y-35150000D03*
X152000000Y-36420000D03*
X152000000Y-37690000D03*
X152000000Y-38960000D03*
X152000000Y-40230000D03*
X152000000Y-41500000D03*
X135000000Y-41500000D03*
X135000000Y-40230000D03*
X135000000Y-38960000D03*
X135000000Y-37690000D03*
X135000000Y-36420000D03*
X135000000Y-35150000D03*
X135000000Y-33880000D03*
X135000000Y-32610000D03*
X135000000Y-31340000D03*
X135000000Y-30070000D03*
X135000000Y-28800000D03*
X135000000Y-27530000D03*
X135000000Y-26260000D03*
X135000000Y-24990000D03*
X135000000Y-23720000D03*
X135000000Y-22450000D03*
X135000000Y-21180000D03*
X135000000Y-19910000D03*
X135000000Y-18640000D03*
D11*
G36*
X140750818Y-59007490D02*
G01*
X140765136Y-59009614D01*
X140779177Y-59013131D01*
X140792806Y-59018008D01*
X140805891Y-59024197D01*
X140818307Y-59031638D01*
X140829933Y-59040261D01*
X140840658Y-59049982D01*
X140850379Y-59060707D01*
X140859002Y-59072333D01*
X140866443Y-59084749D01*
X140872632Y-59097834D01*
X140877509Y-59111463D01*
X140881026Y-59125504D01*
X140883150Y-59139822D01*
X140883860Y-59154280D01*
X140883860Y-59499280D01*
X140883150Y-59513738D01*
X140881026Y-59528056D01*
X140877509Y-59542097D01*
X140872632Y-59555726D01*
X140866443Y-59568811D01*
X140859002Y-59581227D01*
X140850379Y-59592853D01*
X140840658Y-59603578D01*
X140829933Y-59613299D01*
X140818307Y-59621922D01*
X140805891Y-59629363D01*
X140792806Y-59635552D01*
X140779177Y-59640429D01*
X140765136Y-59643946D01*
X140750818Y-59646070D01*
X140736360Y-59646780D01*
X140441360Y-59646780D01*
X140426902Y-59646070D01*
X140412584Y-59643946D01*
X140398543Y-59640429D01*
X140384914Y-59635552D01*
X140371829Y-59629363D01*
X140359413Y-59621922D01*
X140347787Y-59613299D01*
X140337062Y-59603578D01*
X140327341Y-59592853D01*
X140318718Y-59581227D01*
X140311277Y-59568811D01*
X140305088Y-59555726D01*
X140300211Y-59542097D01*
X140296694Y-59528056D01*
X140294570Y-59513738D01*
X140293860Y-59499280D01*
X140293860Y-59154280D01*
X140294570Y-59139822D01*
X140296694Y-59125504D01*
X140300211Y-59111463D01*
X140305088Y-59097834D01*
X140311277Y-59084749D01*
X140318718Y-59072333D01*
X140327341Y-59060707D01*
X140337062Y-59049982D01*
X140347787Y-59040261D01*
X140359413Y-59031638D01*
X140371829Y-59024197D01*
X140384914Y-59018008D01*
X140398543Y-59013131D01*
X140412584Y-59009614D01*
X140426902Y-59007490D01*
X140441360Y-59006780D01*
X140736360Y-59006780D01*
X140750818Y-59007490D01*
G37*
G36*
X139780818Y-59007490D02*
G01*
X139795136Y-59009614D01*
X139809177Y-59013131D01*
X139822806Y-59018008D01*
X139835891Y-59024197D01*
X139848307Y-59031638D01*
X139859933Y-59040261D01*
X139870658Y-59049982D01*
X139880379Y-59060707D01*
X139889002Y-59072333D01*
X139896443Y-59084749D01*
X139902632Y-59097834D01*
X139907509Y-59111463D01*
X139911026Y-59125504D01*
X139913150Y-59139822D01*
X139913860Y-59154280D01*
X139913860Y-59499280D01*
X139913150Y-59513738D01*
X139911026Y-59528056D01*
X139907509Y-59542097D01*
X139902632Y-59555726D01*
X139896443Y-59568811D01*
X139889002Y-59581227D01*
X139880379Y-59592853D01*
X139870658Y-59603578D01*
X139859933Y-59613299D01*
X139848307Y-59621922D01*
X139835891Y-59629363D01*
X139822806Y-59635552D01*
X139809177Y-59640429D01*
X139795136Y-59643946D01*
X139780818Y-59646070D01*
X139766360Y-59646780D01*
X139471360Y-59646780D01*
X139456902Y-59646070D01*
X139442584Y-59643946D01*
X139428543Y-59640429D01*
X139414914Y-59635552D01*
X139401829Y-59629363D01*
X139389413Y-59621922D01*
X139377787Y-59613299D01*
X139367062Y-59603578D01*
X139357341Y-59592853D01*
X139348718Y-59581227D01*
X139341277Y-59568811D01*
X139335088Y-59555726D01*
X139330211Y-59542097D01*
X139326694Y-59528056D01*
X139324570Y-59513738D01*
X139323860Y-59499280D01*
X139323860Y-59154280D01*
X139324570Y-59139822D01*
X139326694Y-59125504D01*
X139330211Y-59111463D01*
X139335088Y-59097834D01*
X139341277Y-59084749D01*
X139348718Y-59072333D01*
X139357341Y-59060707D01*
X139367062Y-59049982D01*
X139377787Y-59040261D01*
X139389413Y-59031638D01*
X139401829Y-59024197D01*
X139414914Y-59018008D01*
X139428543Y-59013131D01*
X139442584Y-59009614D01*
X139456902Y-59007490D01*
X139471360Y-59006780D01*
X139766360Y-59006780D01*
X139780818Y-59007490D01*
G37*
G36*
X148281918Y-59010030D02*
G01*
X148296236Y-59012154D01*
X148310277Y-59015671D01*
X148323906Y-59020548D01*
X148336991Y-59026737D01*
X148349407Y-59034178D01*
X148361033Y-59042801D01*
X148371758Y-59052522D01*
X148381479Y-59063247D01*
X148390102Y-59074873D01*
X148397543Y-59087289D01*
X148403732Y-59100374D01*
X148408609Y-59114003D01*
X148412126Y-59128044D01*
X148414250Y-59142362D01*
X148414960Y-59156820D01*
X148414960Y-59501820D01*
X148414250Y-59516278D01*
X148412126Y-59530596D01*
X148408609Y-59544637D01*
X148403732Y-59558266D01*
X148397543Y-59571351D01*
X148390102Y-59583767D01*
X148381479Y-59595393D01*
X148371758Y-59606118D01*
X148361033Y-59615839D01*
X148349407Y-59624462D01*
X148336991Y-59631903D01*
X148323906Y-59638092D01*
X148310277Y-59642969D01*
X148296236Y-59646486D01*
X148281918Y-59648610D01*
X148267460Y-59649320D01*
X147972460Y-59649320D01*
X147958002Y-59648610D01*
X147943684Y-59646486D01*
X147929643Y-59642969D01*
X147916014Y-59638092D01*
X147902929Y-59631903D01*
X147890513Y-59624462D01*
X147878887Y-59615839D01*
X147868162Y-59606118D01*
X147858441Y-59595393D01*
X147849818Y-59583767D01*
X147842377Y-59571351D01*
X147836188Y-59558266D01*
X147831311Y-59544637D01*
X147827794Y-59530596D01*
X147825670Y-59516278D01*
X147824960Y-59501820D01*
X147824960Y-59156820D01*
X147825670Y-59142362D01*
X147827794Y-59128044D01*
X147831311Y-59114003D01*
X147836188Y-59100374D01*
X147842377Y-59087289D01*
X147849818Y-59074873D01*
X147858441Y-59063247D01*
X147868162Y-59052522D01*
X147878887Y-59042801D01*
X147890513Y-59034178D01*
X147902929Y-59026737D01*
X147916014Y-59020548D01*
X147929643Y-59015671D01*
X147943684Y-59012154D01*
X147958002Y-59010030D01*
X147972460Y-59009320D01*
X148267460Y-59009320D01*
X148281918Y-59010030D01*
G37*
G36*
X147311918Y-59010030D02*
G01*
X147326236Y-59012154D01*
X147340277Y-59015671D01*
X147353906Y-59020548D01*
X147366991Y-59026737D01*
X147379407Y-59034178D01*
X147391033Y-59042801D01*
X147401758Y-59052522D01*
X147411479Y-59063247D01*
X147420102Y-59074873D01*
X147427543Y-59087289D01*
X147433732Y-59100374D01*
X147438609Y-59114003D01*
X147442126Y-59128044D01*
X147444250Y-59142362D01*
X147444960Y-59156820D01*
X147444960Y-59501820D01*
X147444250Y-59516278D01*
X147442126Y-59530596D01*
X147438609Y-59544637D01*
X147433732Y-59558266D01*
X147427543Y-59571351D01*
X147420102Y-59583767D01*
X147411479Y-59595393D01*
X147401758Y-59606118D01*
X147391033Y-59615839D01*
X147379407Y-59624462D01*
X147366991Y-59631903D01*
X147353906Y-59638092D01*
X147340277Y-59642969D01*
X147326236Y-59646486D01*
X147311918Y-59648610D01*
X147297460Y-59649320D01*
X147002460Y-59649320D01*
X146988002Y-59648610D01*
X146973684Y-59646486D01*
X146959643Y-59642969D01*
X146946014Y-59638092D01*
X146932929Y-59631903D01*
X146920513Y-59624462D01*
X146908887Y-59615839D01*
X146898162Y-59606118D01*
X146888441Y-59595393D01*
X146879818Y-59583767D01*
X146872377Y-59571351D01*
X146866188Y-59558266D01*
X146861311Y-59544637D01*
X146857794Y-59530596D01*
X146855670Y-59516278D01*
X146854960Y-59501820D01*
X146854960Y-59156820D01*
X146855670Y-59142362D01*
X146857794Y-59128044D01*
X146861311Y-59114003D01*
X146866188Y-59100374D01*
X146872377Y-59087289D01*
X146879818Y-59074873D01*
X146888441Y-59063247D01*
X146898162Y-59052522D01*
X146908887Y-59042801D01*
X146920513Y-59034178D01*
X146932929Y-59026737D01*
X146946014Y-59020548D01*
X146959643Y-59015671D01*
X146973684Y-59012154D01*
X146988002Y-59010030D01*
X147002460Y-59009320D01*
X147297460Y-59009320D01*
X147311918Y-59010030D01*
G37*
G36*
X133765558Y-63868510D02*
G01*
X133779876Y-63870634D01*
X133793917Y-63874151D01*
X133807546Y-63879028D01*
X133820631Y-63885217D01*
X133833047Y-63892658D01*
X133844673Y-63901281D01*
X133855398Y-63911002D01*
X133865119Y-63921727D01*
X133873742Y-63933353D01*
X133881183Y-63945769D01*
X133887372Y-63958854D01*
X133892249Y-63972483D01*
X133895766Y-63986524D01*
X133897890Y-64000842D01*
X133898600Y-64015300D01*
X133898600Y-64310300D01*
X133897890Y-64324758D01*
X133895766Y-64339076D01*
X133892249Y-64353117D01*
X133887372Y-64366746D01*
X133881183Y-64379831D01*
X133873742Y-64392247D01*
X133865119Y-64403873D01*
X133855398Y-64414598D01*
X133844673Y-64424319D01*
X133833047Y-64432942D01*
X133820631Y-64440383D01*
X133807546Y-64446572D01*
X133793917Y-64451449D01*
X133779876Y-64454966D01*
X133765558Y-64457090D01*
X133751100Y-64457800D01*
X133406100Y-64457800D01*
X133391642Y-64457090D01*
X133377324Y-64454966D01*
X133363283Y-64451449D01*
X133349654Y-64446572D01*
X133336569Y-64440383D01*
X133324153Y-64432942D01*
X133312527Y-64424319D01*
X133301802Y-64414598D01*
X133292081Y-64403873D01*
X133283458Y-64392247D01*
X133276017Y-64379831D01*
X133269828Y-64366746D01*
X133264951Y-64353117D01*
X133261434Y-64339076D01*
X133259310Y-64324758D01*
X133258600Y-64310300D01*
X133258600Y-64015300D01*
X133259310Y-64000842D01*
X133261434Y-63986524D01*
X133264951Y-63972483D01*
X133269828Y-63958854D01*
X133276017Y-63945769D01*
X133283458Y-63933353D01*
X133292081Y-63921727D01*
X133301802Y-63911002D01*
X133312527Y-63901281D01*
X133324153Y-63892658D01*
X133336569Y-63885217D01*
X133349654Y-63879028D01*
X133363283Y-63874151D01*
X133377324Y-63870634D01*
X133391642Y-63868510D01*
X133406100Y-63867800D01*
X133751100Y-63867800D01*
X133765558Y-63868510D01*
G37*
G36*
X133765558Y-62898510D02*
G01*
X133779876Y-62900634D01*
X133793917Y-62904151D01*
X133807546Y-62909028D01*
X133820631Y-62915217D01*
X133833047Y-62922658D01*
X133844673Y-62931281D01*
X133855398Y-62941002D01*
X133865119Y-62951727D01*
X133873742Y-62963353D01*
X133881183Y-62975769D01*
X133887372Y-62988854D01*
X133892249Y-63002483D01*
X133895766Y-63016524D01*
X133897890Y-63030842D01*
X133898600Y-63045300D01*
X133898600Y-63340300D01*
X133897890Y-63354758D01*
X133895766Y-63369076D01*
X133892249Y-63383117D01*
X133887372Y-63396746D01*
X133881183Y-63409831D01*
X133873742Y-63422247D01*
X133865119Y-63433873D01*
X133855398Y-63444598D01*
X133844673Y-63454319D01*
X133833047Y-63462942D01*
X133820631Y-63470383D01*
X133807546Y-63476572D01*
X133793917Y-63481449D01*
X133779876Y-63484966D01*
X133765558Y-63487090D01*
X133751100Y-63487800D01*
X133406100Y-63487800D01*
X133391642Y-63487090D01*
X133377324Y-63484966D01*
X133363283Y-63481449D01*
X133349654Y-63476572D01*
X133336569Y-63470383D01*
X133324153Y-63462942D01*
X133312527Y-63454319D01*
X133301802Y-63444598D01*
X133292081Y-63433873D01*
X133283458Y-63422247D01*
X133276017Y-63409831D01*
X133269828Y-63396746D01*
X133264951Y-63383117D01*
X133261434Y-63369076D01*
X133259310Y-63354758D01*
X133258600Y-63340300D01*
X133258600Y-63045300D01*
X133259310Y-63030842D01*
X133261434Y-63016524D01*
X133264951Y-63002483D01*
X133269828Y-62988854D01*
X133276017Y-62975769D01*
X133283458Y-62963353D01*
X133292081Y-62951727D01*
X133301802Y-62941002D01*
X133312527Y-62931281D01*
X133324153Y-62922658D01*
X133336569Y-62915217D01*
X133349654Y-62909028D01*
X133363283Y-62904151D01*
X133377324Y-62900634D01*
X133391642Y-62898510D01*
X133406100Y-62897800D01*
X133751100Y-62897800D01*
X133765558Y-62898510D01*
G37*
G36*
X156080691Y-22894053D02*
G01*
X156101926Y-22897203D01*
X156122750Y-22902419D01*
X156142962Y-22909651D01*
X156162368Y-22918830D01*
X156180781Y-22929866D01*
X156198024Y-22942654D01*
X156213930Y-22957070D01*
X156228346Y-22972976D01*
X156241134Y-22990219D01*
X156252170Y-23008632D01*
X156261349Y-23028038D01*
X156268581Y-23048250D01*
X156273797Y-23069074D01*
X156276947Y-23090309D01*
X156278000Y-23111750D01*
X156278000Y-23624250D01*
X156276947Y-23645691D01*
X156273797Y-23666926D01*
X156268581Y-23687750D01*
X156261349Y-23707962D01*
X156252170Y-23727368D01*
X156241134Y-23745781D01*
X156228346Y-23763024D01*
X156213930Y-23778930D01*
X156198024Y-23793346D01*
X156180781Y-23806134D01*
X156162368Y-23817170D01*
X156142962Y-23826349D01*
X156122750Y-23833581D01*
X156101926Y-23838797D01*
X156080691Y-23841947D01*
X156059250Y-23843000D01*
X155621750Y-23843000D01*
X155600309Y-23841947D01*
X155579074Y-23838797D01*
X155558250Y-23833581D01*
X155538038Y-23826349D01*
X155518632Y-23817170D01*
X155500219Y-23806134D01*
X155482976Y-23793346D01*
X155467070Y-23778930D01*
X155452654Y-23763024D01*
X155439866Y-23745781D01*
X155428830Y-23727368D01*
X155419651Y-23707962D01*
X155412419Y-23687750D01*
X155407203Y-23666926D01*
X155404053Y-23645691D01*
X155403000Y-23624250D01*
X155403000Y-23111750D01*
X155404053Y-23090309D01*
X155407203Y-23069074D01*
X155412419Y-23048250D01*
X155419651Y-23028038D01*
X155428830Y-23008632D01*
X155439866Y-22990219D01*
X155452654Y-22972976D01*
X155467070Y-22957070D01*
X155482976Y-22942654D01*
X155500219Y-22929866D01*
X155518632Y-22918830D01*
X155538038Y-22909651D01*
X155558250Y-22902419D01*
X155579074Y-22897203D01*
X155600309Y-22894053D01*
X155621750Y-22893000D01*
X156059250Y-22893000D01*
X156080691Y-22894053D01*
G37*
G36*
X154505691Y-22894053D02*
G01*
X154526926Y-22897203D01*
X154547750Y-22902419D01*
X154567962Y-22909651D01*
X154587368Y-22918830D01*
X154605781Y-22929866D01*
X154623024Y-22942654D01*
X154638930Y-22957070D01*
X154653346Y-22972976D01*
X154666134Y-22990219D01*
X154677170Y-23008632D01*
X154686349Y-23028038D01*
X154693581Y-23048250D01*
X154698797Y-23069074D01*
X154701947Y-23090309D01*
X154703000Y-23111750D01*
X154703000Y-23624250D01*
X154701947Y-23645691D01*
X154698797Y-23666926D01*
X154693581Y-23687750D01*
X154686349Y-23707962D01*
X154677170Y-23727368D01*
X154666134Y-23745781D01*
X154653346Y-23763024D01*
X154638930Y-23778930D01*
X154623024Y-23793346D01*
X154605781Y-23806134D01*
X154587368Y-23817170D01*
X154567962Y-23826349D01*
X154547750Y-23833581D01*
X154526926Y-23838797D01*
X154505691Y-23841947D01*
X154484250Y-23843000D01*
X154046750Y-23843000D01*
X154025309Y-23841947D01*
X154004074Y-23838797D01*
X153983250Y-23833581D01*
X153963038Y-23826349D01*
X153943632Y-23817170D01*
X153925219Y-23806134D01*
X153907976Y-23793346D01*
X153892070Y-23778930D01*
X153877654Y-23763024D01*
X153864866Y-23745781D01*
X153853830Y-23727368D01*
X153844651Y-23707962D01*
X153837419Y-23687750D01*
X153832203Y-23666926D01*
X153829053Y-23645691D01*
X153828000Y-23624250D01*
X153828000Y-23111750D01*
X153829053Y-23090309D01*
X153832203Y-23069074D01*
X153837419Y-23048250D01*
X153844651Y-23028038D01*
X153853830Y-23008632D01*
X153864866Y-22990219D01*
X153877654Y-22972976D01*
X153892070Y-22957070D01*
X153907976Y-22942654D01*
X153925219Y-22929866D01*
X153943632Y-22918830D01*
X153963038Y-22909651D01*
X153983250Y-22902419D01*
X154004074Y-22897203D01*
X154025309Y-22894053D01*
X154046750Y-22893000D01*
X154484250Y-22893000D01*
X154505691Y-22894053D01*
G37*
D19*
X155250000Y-56770000D03*
X150650000Y-56770000D03*
X152950000Y-56770000D03*
D20*
X152950000Y-63070000D03*
D11*
G36*
X154616958Y-21715210D02*
G01*
X154631276Y-21717334D01*
X154645317Y-21720851D01*
X154658946Y-21725728D01*
X154672031Y-21731917D01*
X154684447Y-21739358D01*
X154696073Y-21747981D01*
X154706798Y-21757702D01*
X154716519Y-21768427D01*
X154725142Y-21780053D01*
X154732583Y-21792469D01*
X154738772Y-21805554D01*
X154743649Y-21819183D01*
X154747166Y-21833224D01*
X154749290Y-21847542D01*
X154750000Y-21862000D01*
X154750000Y-22207000D01*
X154749290Y-22221458D01*
X154747166Y-22235776D01*
X154743649Y-22249817D01*
X154738772Y-22263446D01*
X154732583Y-22276531D01*
X154725142Y-22288947D01*
X154716519Y-22300573D01*
X154706798Y-22311298D01*
X154696073Y-22321019D01*
X154684447Y-22329642D01*
X154672031Y-22337083D01*
X154658946Y-22343272D01*
X154645317Y-22348149D01*
X154631276Y-22351666D01*
X154616958Y-22353790D01*
X154602500Y-22354500D01*
X154307500Y-22354500D01*
X154293042Y-22353790D01*
X154278724Y-22351666D01*
X154264683Y-22348149D01*
X154251054Y-22343272D01*
X154237969Y-22337083D01*
X154225553Y-22329642D01*
X154213927Y-22321019D01*
X154203202Y-22311298D01*
X154193481Y-22300573D01*
X154184858Y-22288947D01*
X154177417Y-22276531D01*
X154171228Y-22263446D01*
X154166351Y-22249817D01*
X154162834Y-22235776D01*
X154160710Y-22221458D01*
X154160000Y-22207000D01*
X154160000Y-21862000D01*
X154160710Y-21847542D01*
X154162834Y-21833224D01*
X154166351Y-21819183D01*
X154171228Y-21805554D01*
X154177417Y-21792469D01*
X154184858Y-21780053D01*
X154193481Y-21768427D01*
X154203202Y-21757702D01*
X154213927Y-21747981D01*
X154225553Y-21739358D01*
X154237969Y-21731917D01*
X154251054Y-21725728D01*
X154264683Y-21720851D01*
X154278724Y-21717334D01*
X154293042Y-21715210D01*
X154307500Y-21714500D01*
X154602500Y-21714500D01*
X154616958Y-21715210D01*
G37*
G36*
X155586958Y-21715210D02*
G01*
X155601276Y-21717334D01*
X155615317Y-21720851D01*
X155628946Y-21725728D01*
X155642031Y-21731917D01*
X155654447Y-21739358D01*
X155666073Y-21747981D01*
X155676798Y-21757702D01*
X155686519Y-21768427D01*
X155695142Y-21780053D01*
X155702583Y-21792469D01*
X155708772Y-21805554D01*
X155713649Y-21819183D01*
X155717166Y-21833224D01*
X155719290Y-21847542D01*
X155720000Y-21862000D01*
X155720000Y-22207000D01*
X155719290Y-22221458D01*
X155717166Y-22235776D01*
X155713649Y-22249817D01*
X155708772Y-22263446D01*
X155702583Y-22276531D01*
X155695142Y-22288947D01*
X155686519Y-22300573D01*
X155676798Y-22311298D01*
X155666073Y-22321019D01*
X155654447Y-22329642D01*
X155642031Y-22337083D01*
X155628946Y-22343272D01*
X155615317Y-22348149D01*
X155601276Y-22351666D01*
X155586958Y-22353790D01*
X155572500Y-22354500D01*
X155277500Y-22354500D01*
X155263042Y-22353790D01*
X155248724Y-22351666D01*
X155234683Y-22348149D01*
X155221054Y-22343272D01*
X155207969Y-22337083D01*
X155195553Y-22329642D01*
X155183927Y-22321019D01*
X155173202Y-22311298D01*
X155163481Y-22300573D01*
X155154858Y-22288947D01*
X155147417Y-22276531D01*
X155141228Y-22263446D01*
X155136351Y-22249817D01*
X155132834Y-22235776D01*
X155130710Y-22221458D01*
X155130000Y-22207000D01*
X155130000Y-21862000D01*
X155130710Y-21847542D01*
X155132834Y-21833224D01*
X155136351Y-21819183D01*
X155141228Y-21805554D01*
X155147417Y-21792469D01*
X155154858Y-21780053D01*
X155163481Y-21768427D01*
X155173202Y-21757702D01*
X155183927Y-21747981D01*
X155195553Y-21739358D01*
X155207969Y-21731917D01*
X155221054Y-21725728D01*
X155234683Y-21720851D01*
X155248724Y-21717334D01*
X155263042Y-21715210D01*
X155277500Y-21714500D01*
X155572500Y-21714500D01*
X155586958Y-21715210D01*
G37*
D21*
X135792500Y-63690500D03*
X137892500Y-63690500D03*
X153890000Y-25146000D03*
X155990000Y-25146000D03*
D11*
G36*
X131626958Y-23340710D02*
G01*
X131641276Y-23342834D01*
X131655317Y-23346351D01*
X131668946Y-23351228D01*
X131682031Y-23357417D01*
X131694447Y-23364858D01*
X131706073Y-23373481D01*
X131716798Y-23383202D01*
X131726519Y-23393927D01*
X131735142Y-23405553D01*
X131742583Y-23417969D01*
X131748772Y-23431054D01*
X131753649Y-23444683D01*
X131757166Y-23458724D01*
X131759290Y-23473042D01*
X131760000Y-23487500D01*
X131760000Y-23832500D01*
X131759290Y-23846958D01*
X131757166Y-23861276D01*
X131753649Y-23875317D01*
X131748772Y-23888946D01*
X131742583Y-23902031D01*
X131735142Y-23914447D01*
X131726519Y-23926073D01*
X131716798Y-23936798D01*
X131706073Y-23946519D01*
X131694447Y-23955142D01*
X131682031Y-23962583D01*
X131668946Y-23968772D01*
X131655317Y-23973649D01*
X131641276Y-23977166D01*
X131626958Y-23979290D01*
X131612500Y-23980000D01*
X131317500Y-23980000D01*
X131303042Y-23979290D01*
X131288724Y-23977166D01*
X131274683Y-23973649D01*
X131261054Y-23968772D01*
X131247969Y-23962583D01*
X131235553Y-23955142D01*
X131223927Y-23946519D01*
X131213202Y-23936798D01*
X131203481Y-23926073D01*
X131194858Y-23914447D01*
X131187417Y-23902031D01*
X131181228Y-23888946D01*
X131176351Y-23875317D01*
X131172834Y-23861276D01*
X131170710Y-23846958D01*
X131170000Y-23832500D01*
X131170000Y-23487500D01*
X131170710Y-23473042D01*
X131172834Y-23458724D01*
X131176351Y-23444683D01*
X131181228Y-23431054D01*
X131187417Y-23417969D01*
X131194858Y-23405553D01*
X131203481Y-23393927D01*
X131213202Y-23383202D01*
X131223927Y-23373481D01*
X131235553Y-23364858D01*
X131247969Y-23357417D01*
X131261054Y-23351228D01*
X131274683Y-23346351D01*
X131288724Y-23342834D01*
X131303042Y-23340710D01*
X131317500Y-23340000D01*
X131612500Y-23340000D01*
X131626958Y-23340710D01*
G37*
G36*
X132596958Y-23340710D02*
G01*
X132611276Y-23342834D01*
X132625317Y-23346351D01*
X132638946Y-23351228D01*
X132652031Y-23357417D01*
X132664447Y-23364858D01*
X132676073Y-23373481D01*
X132686798Y-23383202D01*
X132696519Y-23393927D01*
X132705142Y-23405553D01*
X132712583Y-23417969D01*
X132718772Y-23431054D01*
X132723649Y-23444683D01*
X132727166Y-23458724D01*
X132729290Y-23473042D01*
X132730000Y-23487500D01*
X132730000Y-23832500D01*
X132729290Y-23846958D01*
X132727166Y-23861276D01*
X132723649Y-23875317D01*
X132718772Y-23888946D01*
X132712583Y-23902031D01*
X132705142Y-23914447D01*
X132696519Y-23926073D01*
X132686798Y-23936798D01*
X132676073Y-23946519D01*
X132664447Y-23955142D01*
X132652031Y-23962583D01*
X132638946Y-23968772D01*
X132625317Y-23973649D01*
X132611276Y-23977166D01*
X132596958Y-23979290D01*
X132582500Y-23980000D01*
X132287500Y-23980000D01*
X132273042Y-23979290D01*
X132258724Y-23977166D01*
X132244683Y-23973649D01*
X132231054Y-23968772D01*
X132217969Y-23962583D01*
X132205553Y-23955142D01*
X132193927Y-23946519D01*
X132183202Y-23936798D01*
X132173481Y-23926073D01*
X132164858Y-23914447D01*
X132157417Y-23902031D01*
X132151228Y-23888946D01*
X132146351Y-23875317D01*
X132142834Y-23861276D01*
X132140710Y-23846958D01*
X132140000Y-23832500D01*
X132140000Y-23487500D01*
X132140710Y-23473042D01*
X132142834Y-23458724D01*
X132146351Y-23444683D01*
X132151228Y-23431054D01*
X132157417Y-23417969D01*
X132164858Y-23405553D01*
X132173481Y-23393927D01*
X132183202Y-23383202D01*
X132193927Y-23373481D01*
X132205553Y-23364858D01*
X132217969Y-23357417D01*
X132231054Y-23351228D01*
X132244683Y-23346351D01*
X132258724Y-23342834D01*
X132273042Y-23340710D01*
X132287500Y-23340000D01*
X132582500Y-23340000D01*
X132596958Y-23340710D01*
G37*
G36*
X155586958Y-20381710D02*
G01*
X155601276Y-20383834D01*
X155615317Y-20387351D01*
X155628946Y-20392228D01*
X155642031Y-20398417D01*
X155654447Y-20405858D01*
X155666073Y-20414481D01*
X155676798Y-20424202D01*
X155686519Y-20434927D01*
X155695142Y-20446553D01*
X155702583Y-20458969D01*
X155708772Y-20472054D01*
X155713649Y-20485683D01*
X155717166Y-20499724D01*
X155719290Y-20514042D01*
X155720000Y-20528500D01*
X155720000Y-20873500D01*
X155719290Y-20887958D01*
X155717166Y-20902276D01*
X155713649Y-20916317D01*
X155708772Y-20929946D01*
X155702583Y-20943031D01*
X155695142Y-20955447D01*
X155686519Y-20967073D01*
X155676798Y-20977798D01*
X155666073Y-20987519D01*
X155654447Y-20996142D01*
X155642031Y-21003583D01*
X155628946Y-21009772D01*
X155615317Y-21014649D01*
X155601276Y-21018166D01*
X155586958Y-21020290D01*
X155572500Y-21021000D01*
X155277500Y-21021000D01*
X155263042Y-21020290D01*
X155248724Y-21018166D01*
X155234683Y-21014649D01*
X155221054Y-21009772D01*
X155207969Y-21003583D01*
X155195553Y-20996142D01*
X155183927Y-20987519D01*
X155173202Y-20977798D01*
X155163481Y-20967073D01*
X155154858Y-20955447D01*
X155147417Y-20943031D01*
X155141228Y-20929946D01*
X155136351Y-20916317D01*
X155132834Y-20902276D01*
X155130710Y-20887958D01*
X155130000Y-20873500D01*
X155130000Y-20528500D01*
X155130710Y-20514042D01*
X155132834Y-20499724D01*
X155136351Y-20485683D01*
X155141228Y-20472054D01*
X155147417Y-20458969D01*
X155154858Y-20446553D01*
X155163481Y-20434927D01*
X155173202Y-20424202D01*
X155183927Y-20414481D01*
X155195553Y-20405858D01*
X155207969Y-20398417D01*
X155221054Y-20392228D01*
X155234683Y-20387351D01*
X155248724Y-20383834D01*
X155263042Y-20381710D01*
X155277500Y-20381000D01*
X155572500Y-20381000D01*
X155586958Y-20381710D01*
G37*
G36*
X154616958Y-20381710D02*
G01*
X154631276Y-20383834D01*
X154645317Y-20387351D01*
X154658946Y-20392228D01*
X154672031Y-20398417D01*
X154684447Y-20405858D01*
X154696073Y-20414481D01*
X154706798Y-20424202D01*
X154716519Y-20434927D01*
X154725142Y-20446553D01*
X154732583Y-20458969D01*
X154738772Y-20472054D01*
X154743649Y-20485683D01*
X154747166Y-20499724D01*
X154749290Y-20514042D01*
X154750000Y-20528500D01*
X154750000Y-20873500D01*
X154749290Y-20887958D01*
X154747166Y-20902276D01*
X154743649Y-20916317D01*
X154738772Y-20929946D01*
X154732583Y-20943031D01*
X154725142Y-20955447D01*
X154716519Y-20967073D01*
X154706798Y-20977798D01*
X154696073Y-20987519D01*
X154684447Y-20996142D01*
X154672031Y-21003583D01*
X154658946Y-21009772D01*
X154645317Y-21014649D01*
X154631276Y-21018166D01*
X154616958Y-21020290D01*
X154602500Y-21021000D01*
X154307500Y-21021000D01*
X154293042Y-21020290D01*
X154278724Y-21018166D01*
X154264683Y-21014649D01*
X154251054Y-21009772D01*
X154237969Y-21003583D01*
X154225553Y-20996142D01*
X154213927Y-20987519D01*
X154203202Y-20977798D01*
X154193481Y-20967073D01*
X154184858Y-20955447D01*
X154177417Y-20943031D01*
X154171228Y-20929946D01*
X154166351Y-20916317D01*
X154162834Y-20902276D01*
X154160710Y-20887958D01*
X154160000Y-20873500D01*
X154160000Y-20528500D01*
X154160710Y-20514042D01*
X154162834Y-20499724D01*
X154166351Y-20485683D01*
X154171228Y-20472054D01*
X154177417Y-20458969D01*
X154184858Y-20446553D01*
X154193481Y-20434927D01*
X154203202Y-20424202D01*
X154213927Y-20414481D01*
X154225553Y-20405858D01*
X154237969Y-20398417D01*
X154251054Y-20392228D01*
X154264683Y-20387351D01*
X154278724Y-20383834D01*
X154293042Y-20381710D01*
X154307500Y-20381000D01*
X154602500Y-20381000D01*
X154616958Y-20381710D01*
G37*
G36*
X148824703Y-56055722D02*
G01*
X148839264Y-56057882D01*
X148853543Y-56061459D01*
X148867403Y-56066418D01*
X148880710Y-56072712D01*
X148893336Y-56080280D01*
X148905159Y-56089048D01*
X148916066Y-56098934D01*
X148925952Y-56109841D01*
X148934720Y-56121664D01*
X148942288Y-56134290D01*
X148948582Y-56147597D01*
X148953541Y-56161457D01*
X148957118Y-56175736D01*
X148959278Y-56190297D01*
X148960000Y-56205000D01*
X148960000Y-56505000D01*
X148959278Y-56519703D01*
X148957118Y-56534264D01*
X148953541Y-56548543D01*
X148948582Y-56562403D01*
X148942288Y-56575710D01*
X148934720Y-56588336D01*
X148925952Y-56600159D01*
X148916066Y-56611066D01*
X148905159Y-56620952D01*
X148893336Y-56629720D01*
X148880710Y-56637288D01*
X148867403Y-56643582D01*
X148853543Y-56648541D01*
X148839264Y-56652118D01*
X148824703Y-56654278D01*
X148810000Y-56655000D01*
X147485000Y-56655000D01*
X147470297Y-56654278D01*
X147455736Y-56652118D01*
X147441457Y-56648541D01*
X147427597Y-56643582D01*
X147414290Y-56637288D01*
X147401664Y-56629720D01*
X147389841Y-56620952D01*
X147378934Y-56611066D01*
X147369048Y-56600159D01*
X147360280Y-56588336D01*
X147352712Y-56575710D01*
X147346418Y-56562403D01*
X147341459Y-56548543D01*
X147337882Y-56534264D01*
X147335722Y-56519703D01*
X147335000Y-56505000D01*
X147335000Y-56205000D01*
X147335722Y-56190297D01*
X147337882Y-56175736D01*
X147341459Y-56161457D01*
X147346418Y-56147597D01*
X147352712Y-56134290D01*
X147360280Y-56121664D01*
X147369048Y-56109841D01*
X147378934Y-56098934D01*
X147389841Y-56089048D01*
X147401664Y-56080280D01*
X147414290Y-56072712D01*
X147427597Y-56066418D01*
X147441457Y-56061459D01*
X147455736Y-56057882D01*
X147470297Y-56055722D01*
X147485000Y-56055000D01*
X148810000Y-56055000D01*
X148824703Y-56055722D01*
G37*
G36*
X148824703Y-57325722D02*
G01*
X148839264Y-57327882D01*
X148853543Y-57331459D01*
X148867403Y-57336418D01*
X148880710Y-57342712D01*
X148893336Y-57350280D01*
X148905159Y-57359048D01*
X148916066Y-57368934D01*
X148925952Y-57379841D01*
X148934720Y-57391664D01*
X148942288Y-57404290D01*
X148948582Y-57417597D01*
X148953541Y-57431457D01*
X148957118Y-57445736D01*
X148959278Y-57460297D01*
X148960000Y-57475000D01*
X148960000Y-57775000D01*
X148959278Y-57789703D01*
X148957118Y-57804264D01*
X148953541Y-57818543D01*
X148948582Y-57832403D01*
X148942288Y-57845710D01*
X148934720Y-57858336D01*
X148925952Y-57870159D01*
X148916066Y-57881066D01*
X148905159Y-57890952D01*
X148893336Y-57899720D01*
X148880710Y-57907288D01*
X148867403Y-57913582D01*
X148853543Y-57918541D01*
X148839264Y-57922118D01*
X148824703Y-57924278D01*
X148810000Y-57925000D01*
X147485000Y-57925000D01*
X147470297Y-57924278D01*
X147455736Y-57922118D01*
X147441457Y-57918541D01*
X147427597Y-57913582D01*
X147414290Y-57907288D01*
X147401664Y-57899720D01*
X147389841Y-57890952D01*
X147378934Y-57881066D01*
X147369048Y-57870159D01*
X147360280Y-57858336D01*
X147352712Y-57845710D01*
X147346418Y-57832403D01*
X147341459Y-57818543D01*
X147337882Y-57804264D01*
X147335722Y-57789703D01*
X147335000Y-57775000D01*
X147335000Y-57475000D01*
X147335722Y-57460297D01*
X147337882Y-57445736D01*
X147341459Y-57431457D01*
X147346418Y-57417597D01*
X147352712Y-57404290D01*
X147360280Y-57391664D01*
X147369048Y-57379841D01*
X147378934Y-57368934D01*
X147389841Y-57359048D01*
X147401664Y-57350280D01*
X147414290Y-57342712D01*
X147427597Y-57336418D01*
X147441457Y-57331459D01*
X147455736Y-57327882D01*
X147470297Y-57325722D01*
X147485000Y-57325000D01*
X148810000Y-57325000D01*
X148824703Y-57325722D01*
G37*
G36*
X142449703Y-57325722D02*
G01*
X142464264Y-57327882D01*
X142478543Y-57331459D01*
X142492403Y-57336418D01*
X142505710Y-57342712D01*
X142518336Y-57350280D01*
X142530159Y-57359048D01*
X142541066Y-57368934D01*
X142550952Y-57379841D01*
X142559720Y-57391664D01*
X142567288Y-57404290D01*
X142573582Y-57417597D01*
X142578541Y-57431457D01*
X142582118Y-57445736D01*
X142584278Y-57460297D01*
X142585000Y-57475000D01*
X142585000Y-57775000D01*
X142584278Y-57789703D01*
X142582118Y-57804264D01*
X142578541Y-57818543D01*
X142573582Y-57832403D01*
X142567288Y-57845710D01*
X142559720Y-57858336D01*
X142550952Y-57870159D01*
X142541066Y-57881066D01*
X142530159Y-57890952D01*
X142518336Y-57899720D01*
X142505710Y-57907288D01*
X142492403Y-57913582D01*
X142478543Y-57918541D01*
X142464264Y-57922118D01*
X142449703Y-57924278D01*
X142435000Y-57925000D01*
X141110000Y-57925000D01*
X141095297Y-57924278D01*
X141080736Y-57922118D01*
X141066457Y-57918541D01*
X141052597Y-57913582D01*
X141039290Y-57907288D01*
X141026664Y-57899720D01*
X141014841Y-57890952D01*
X141003934Y-57881066D01*
X140994048Y-57870159D01*
X140985280Y-57858336D01*
X140977712Y-57845710D01*
X140971418Y-57832403D01*
X140966459Y-57818543D01*
X140962882Y-57804264D01*
X140960722Y-57789703D01*
X140960000Y-57775000D01*
X140960000Y-57475000D01*
X140960722Y-57460297D01*
X140962882Y-57445736D01*
X140966459Y-57431457D01*
X140971418Y-57417597D01*
X140977712Y-57404290D01*
X140985280Y-57391664D01*
X140994048Y-57379841D01*
X141003934Y-57368934D01*
X141014841Y-57359048D01*
X141026664Y-57350280D01*
X141039290Y-57342712D01*
X141052597Y-57336418D01*
X141066457Y-57331459D01*
X141080736Y-57327882D01*
X141095297Y-57325722D01*
X141110000Y-57325000D01*
X142435000Y-57325000D01*
X142449703Y-57325722D01*
G37*
G36*
X142449703Y-56055722D02*
G01*
X142464264Y-56057882D01*
X142478543Y-56061459D01*
X142492403Y-56066418D01*
X142505710Y-56072712D01*
X142518336Y-56080280D01*
X142530159Y-56089048D01*
X142541066Y-56098934D01*
X142550952Y-56109841D01*
X142559720Y-56121664D01*
X142567288Y-56134290D01*
X142573582Y-56147597D01*
X142578541Y-56161457D01*
X142582118Y-56175736D01*
X142584278Y-56190297D01*
X142585000Y-56205000D01*
X142585000Y-56505000D01*
X142584278Y-56519703D01*
X142582118Y-56534264D01*
X142578541Y-56548543D01*
X142573582Y-56562403D01*
X142567288Y-56575710D01*
X142559720Y-56588336D01*
X142550952Y-56600159D01*
X142541066Y-56611066D01*
X142530159Y-56620952D01*
X142518336Y-56629720D01*
X142505710Y-56637288D01*
X142492403Y-56643582D01*
X142478543Y-56648541D01*
X142464264Y-56652118D01*
X142449703Y-56654278D01*
X142435000Y-56655000D01*
X141110000Y-56655000D01*
X141095297Y-56654278D01*
X141080736Y-56652118D01*
X141066457Y-56648541D01*
X141052597Y-56643582D01*
X141039290Y-56637288D01*
X141026664Y-56629720D01*
X141014841Y-56620952D01*
X141003934Y-56611066D01*
X140994048Y-56600159D01*
X140985280Y-56588336D01*
X140977712Y-56575710D01*
X140971418Y-56562403D01*
X140966459Y-56548543D01*
X140962882Y-56534264D01*
X140960722Y-56519703D01*
X140960000Y-56505000D01*
X140960000Y-56205000D01*
X140960722Y-56190297D01*
X140962882Y-56175736D01*
X140966459Y-56161457D01*
X140971418Y-56147597D01*
X140977712Y-56134290D01*
X140985280Y-56121664D01*
X140994048Y-56109841D01*
X141003934Y-56098934D01*
X141014841Y-56089048D01*
X141026664Y-56080280D01*
X141039290Y-56072712D01*
X141052597Y-56066418D01*
X141066457Y-56061459D01*
X141080736Y-56057882D01*
X141095297Y-56055722D01*
X141110000Y-56055000D01*
X142435000Y-56055000D01*
X142449703Y-56055722D01*
G37*
G36*
X136219458Y-51369710D02*
G01*
X136233776Y-51371834D01*
X136247817Y-51375351D01*
X136261446Y-51380228D01*
X136274531Y-51386417D01*
X136286947Y-51393858D01*
X136298573Y-51402481D01*
X136309298Y-51412202D01*
X136319019Y-51422927D01*
X136327642Y-51434553D01*
X136335083Y-51446969D01*
X136341272Y-51460054D01*
X136346149Y-51473683D01*
X136349666Y-51487724D01*
X136351790Y-51502042D01*
X136352500Y-51516500D01*
X136352500Y-51861500D01*
X136351790Y-51875958D01*
X136349666Y-51890276D01*
X136346149Y-51904317D01*
X136341272Y-51917946D01*
X136335083Y-51931031D01*
X136327642Y-51943447D01*
X136319019Y-51955073D01*
X136309298Y-51965798D01*
X136298573Y-51975519D01*
X136286947Y-51984142D01*
X136274531Y-51991583D01*
X136261446Y-51997772D01*
X136247817Y-52002649D01*
X136233776Y-52006166D01*
X136219458Y-52008290D01*
X136205000Y-52009000D01*
X135910000Y-52009000D01*
X135895542Y-52008290D01*
X135881224Y-52006166D01*
X135867183Y-52002649D01*
X135853554Y-51997772D01*
X135840469Y-51991583D01*
X135828053Y-51984142D01*
X135816427Y-51975519D01*
X135805702Y-51965798D01*
X135795981Y-51955073D01*
X135787358Y-51943447D01*
X135779917Y-51931031D01*
X135773728Y-51917946D01*
X135768851Y-51904317D01*
X135765334Y-51890276D01*
X135763210Y-51875958D01*
X135762500Y-51861500D01*
X135762500Y-51516500D01*
X135763210Y-51502042D01*
X135765334Y-51487724D01*
X135768851Y-51473683D01*
X135773728Y-51460054D01*
X135779917Y-51446969D01*
X135787358Y-51434553D01*
X135795981Y-51422927D01*
X135805702Y-51412202D01*
X135816427Y-51402481D01*
X135828053Y-51393858D01*
X135840469Y-51386417D01*
X135853554Y-51380228D01*
X135867183Y-51375351D01*
X135881224Y-51371834D01*
X135895542Y-51369710D01*
X135910000Y-51369000D01*
X136205000Y-51369000D01*
X136219458Y-51369710D01*
G37*
G36*
X135249458Y-51369710D02*
G01*
X135263776Y-51371834D01*
X135277817Y-51375351D01*
X135291446Y-51380228D01*
X135304531Y-51386417D01*
X135316947Y-51393858D01*
X135328573Y-51402481D01*
X135339298Y-51412202D01*
X135349019Y-51422927D01*
X135357642Y-51434553D01*
X135365083Y-51446969D01*
X135371272Y-51460054D01*
X135376149Y-51473683D01*
X135379666Y-51487724D01*
X135381790Y-51502042D01*
X135382500Y-51516500D01*
X135382500Y-51861500D01*
X135381790Y-51875958D01*
X135379666Y-51890276D01*
X135376149Y-51904317D01*
X135371272Y-51917946D01*
X135365083Y-51931031D01*
X135357642Y-51943447D01*
X135349019Y-51955073D01*
X135339298Y-51965798D01*
X135328573Y-51975519D01*
X135316947Y-51984142D01*
X135304531Y-51991583D01*
X135291446Y-51997772D01*
X135277817Y-52002649D01*
X135263776Y-52006166D01*
X135249458Y-52008290D01*
X135235000Y-52009000D01*
X134940000Y-52009000D01*
X134925542Y-52008290D01*
X134911224Y-52006166D01*
X134897183Y-52002649D01*
X134883554Y-51997772D01*
X134870469Y-51991583D01*
X134858053Y-51984142D01*
X134846427Y-51975519D01*
X134835702Y-51965798D01*
X134825981Y-51955073D01*
X134817358Y-51943447D01*
X134809917Y-51931031D01*
X134803728Y-51917946D01*
X134798851Y-51904317D01*
X134795334Y-51890276D01*
X134793210Y-51875958D01*
X134792500Y-51861500D01*
X134792500Y-51516500D01*
X134793210Y-51502042D01*
X134795334Y-51487724D01*
X134798851Y-51473683D01*
X134803728Y-51460054D01*
X134809917Y-51446969D01*
X134817358Y-51434553D01*
X134825981Y-51422927D01*
X134835702Y-51412202D01*
X134846427Y-51402481D01*
X134858053Y-51393858D01*
X134870469Y-51386417D01*
X134883554Y-51380228D01*
X134897183Y-51375351D01*
X134911224Y-51371834D01*
X134925542Y-51369710D01*
X134940000Y-51369000D01*
X135235000Y-51369000D01*
X135249458Y-51369710D01*
G37*
G36*
X132596958Y-24340710D02*
G01*
X132611276Y-24342834D01*
X132625317Y-24346351D01*
X132638946Y-24351228D01*
X132652031Y-24357417D01*
X132664447Y-24364858D01*
X132676073Y-24373481D01*
X132686798Y-24383202D01*
X132696519Y-24393927D01*
X132705142Y-24405553D01*
X132712583Y-24417969D01*
X132718772Y-24431054D01*
X132723649Y-24444683D01*
X132727166Y-24458724D01*
X132729290Y-24473042D01*
X132730000Y-24487500D01*
X132730000Y-24832500D01*
X132729290Y-24846958D01*
X132727166Y-24861276D01*
X132723649Y-24875317D01*
X132718772Y-24888946D01*
X132712583Y-24902031D01*
X132705142Y-24914447D01*
X132696519Y-24926073D01*
X132686798Y-24936798D01*
X132676073Y-24946519D01*
X132664447Y-24955142D01*
X132652031Y-24962583D01*
X132638946Y-24968772D01*
X132625317Y-24973649D01*
X132611276Y-24977166D01*
X132596958Y-24979290D01*
X132582500Y-24980000D01*
X132287500Y-24980000D01*
X132273042Y-24979290D01*
X132258724Y-24977166D01*
X132244683Y-24973649D01*
X132231054Y-24968772D01*
X132217969Y-24962583D01*
X132205553Y-24955142D01*
X132193927Y-24946519D01*
X132183202Y-24936798D01*
X132173481Y-24926073D01*
X132164858Y-24914447D01*
X132157417Y-24902031D01*
X132151228Y-24888946D01*
X132146351Y-24875317D01*
X132142834Y-24861276D01*
X132140710Y-24846958D01*
X132140000Y-24832500D01*
X132140000Y-24487500D01*
X132140710Y-24473042D01*
X132142834Y-24458724D01*
X132146351Y-24444683D01*
X132151228Y-24431054D01*
X132157417Y-24417969D01*
X132164858Y-24405553D01*
X132173481Y-24393927D01*
X132183202Y-24383202D01*
X132193927Y-24373481D01*
X132205553Y-24364858D01*
X132217969Y-24357417D01*
X132231054Y-24351228D01*
X132244683Y-24346351D01*
X132258724Y-24342834D01*
X132273042Y-24340710D01*
X132287500Y-24340000D01*
X132582500Y-24340000D01*
X132596958Y-24340710D01*
G37*
G36*
X131626958Y-24340710D02*
G01*
X131641276Y-24342834D01*
X131655317Y-24346351D01*
X131668946Y-24351228D01*
X131682031Y-24357417D01*
X131694447Y-24364858D01*
X131706073Y-24373481D01*
X131716798Y-24383202D01*
X131726519Y-24393927D01*
X131735142Y-24405553D01*
X131742583Y-24417969D01*
X131748772Y-24431054D01*
X131753649Y-24444683D01*
X131757166Y-24458724D01*
X131759290Y-24473042D01*
X131760000Y-24487500D01*
X131760000Y-24832500D01*
X131759290Y-24846958D01*
X131757166Y-24861276D01*
X131753649Y-24875317D01*
X131748772Y-24888946D01*
X131742583Y-24902031D01*
X131735142Y-24914447D01*
X131726519Y-24926073D01*
X131716798Y-24936798D01*
X131706073Y-24946519D01*
X131694447Y-24955142D01*
X131682031Y-24962583D01*
X131668946Y-24968772D01*
X131655317Y-24973649D01*
X131641276Y-24977166D01*
X131626958Y-24979290D01*
X131612500Y-24980000D01*
X131317500Y-24980000D01*
X131303042Y-24979290D01*
X131288724Y-24977166D01*
X131274683Y-24973649D01*
X131261054Y-24968772D01*
X131247969Y-24962583D01*
X131235553Y-24955142D01*
X131223927Y-24946519D01*
X131213202Y-24936798D01*
X131203481Y-24926073D01*
X131194858Y-24914447D01*
X131187417Y-24902031D01*
X131181228Y-24888946D01*
X131176351Y-24875317D01*
X131172834Y-24861276D01*
X131170710Y-24846958D01*
X131170000Y-24832500D01*
X131170000Y-24487500D01*
X131170710Y-24473042D01*
X131172834Y-24458724D01*
X131176351Y-24444683D01*
X131181228Y-24431054D01*
X131187417Y-24417969D01*
X131194858Y-24405553D01*
X131203481Y-24393927D01*
X131213202Y-24383202D01*
X131223927Y-24373481D01*
X131235553Y-24364858D01*
X131247969Y-24357417D01*
X131261054Y-24351228D01*
X131274683Y-24346351D01*
X131288724Y-24342834D01*
X131303042Y-24340710D01*
X131317500Y-24340000D01*
X131612500Y-24340000D01*
X131626958Y-24340710D01*
G37*
G36*
X132216158Y-63893910D02*
G01*
X132230476Y-63896034D01*
X132244517Y-63899551D01*
X132258146Y-63904428D01*
X132271231Y-63910617D01*
X132283647Y-63918058D01*
X132295273Y-63926681D01*
X132305998Y-63936402D01*
X132315719Y-63947127D01*
X132324342Y-63958753D01*
X132331783Y-63971169D01*
X132337972Y-63984254D01*
X132342849Y-63997883D01*
X132346366Y-64011924D01*
X132348490Y-64026242D01*
X132349200Y-64040700D01*
X132349200Y-64335700D01*
X132348490Y-64350158D01*
X132346366Y-64364476D01*
X132342849Y-64378517D01*
X132337972Y-64392146D01*
X132331783Y-64405231D01*
X132324342Y-64417647D01*
X132315719Y-64429273D01*
X132305998Y-64439998D01*
X132295273Y-64449719D01*
X132283647Y-64458342D01*
X132271231Y-64465783D01*
X132258146Y-64471972D01*
X132244517Y-64476849D01*
X132230476Y-64480366D01*
X132216158Y-64482490D01*
X132201700Y-64483200D01*
X131856700Y-64483200D01*
X131842242Y-64482490D01*
X131827924Y-64480366D01*
X131813883Y-64476849D01*
X131800254Y-64471972D01*
X131787169Y-64465783D01*
X131774753Y-64458342D01*
X131763127Y-64449719D01*
X131752402Y-64439998D01*
X131742681Y-64429273D01*
X131734058Y-64417647D01*
X131726617Y-64405231D01*
X131720428Y-64392146D01*
X131715551Y-64378517D01*
X131712034Y-64364476D01*
X131709910Y-64350158D01*
X131709200Y-64335700D01*
X131709200Y-64040700D01*
X131709910Y-64026242D01*
X131712034Y-64011924D01*
X131715551Y-63997883D01*
X131720428Y-63984254D01*
X131726617Y-63971169D01*
X131734058Y-63958753D01*
X131742681Y-63947127D01*
X131752402Y-63936402D01*
X131763127Y-63926681D01*
X131774753Y-63918058D01*
X131787169Y-63910617D01*
X131800254Y-63904428D01*
X131813883Y-63899551D01*
X131827924Y-63896034D01*
X131842242Y-63893910D01*
X131856700Y-63893200D01*
X132201700Y-63893200D01*
X132216158Y-63893910D01*
G37*
G36*
X132216158Y-62923910D02*
G01*
X132230476Y-62926034D01*
X132244517Y-62929551D01*
X132258146Y-62934428D01*
X132271231Y-62940617D01*
X132283647Y-62948058D01*
X132295273Y-62956681D01*
X132305998Y-62966402D01*
X132315719Y-62977127D01*
X132324342Y-62988753D01*
X132331783Y-63001169D01*
X132337972Y-63014254D01*
X132342849Y-63027883D01*
X132346366Y-63041924D01*
X132348490Y-63056242D01*
X132349200Y-63070700D01*
X132349200Y-63365700D01*
X132348490Y-63380158D01*
X132346366Y-63394476D01*
X132342849Y-63408517D01*
X132337972Y-63422146D01*
X132331783Y-63435231D01*
X132324342Y-63447647D01*
X132315719Y-63459273D01*
X132305998Y-63469998D01*
X132295273Y-63479719D01*
X132283647Y-63488342D01*
X132271231Y-63495783D01*
X132258146Y-63501972D01*
X132244517Y-63506849D01*
X132230476Y-63510366D01*
X132216158Y-63512490D01*
X132201700Y-63513200D01*
X131856700Y-63513200D01*
X131842242Y-63512490D01*
X131827924Y-63510366D01*
X131813883Y-63506849D01*
X131800254Y-63501972D01*
X131787169Y-63495783D01*
X131774753Y-63488342D01*
X131763127Y-63479719D01*
X131752402Y-63469998D01*
X131742681Y-63459273D01*
X131734058Y-63447647D01*
X131726617Y-63435231D01*
X131720428Y-63422146D01*
X131715551Y-63408517D01*
X131712034Y-63394476D01*
X131709910Y-63380158D01*
X131709200Y-63365700D01*
X131709200Y-63070700D01*
X131709910Y-63056242D01*
X131712034Y-63041924D01*
X131715551Y-63027883D01*
X131720428Y-63014254D01*
X131726617Y-63001169D01*
X131734058Y-62988753D01*
X131742681Y-62977127D01*
X131752402Y-62966402D01*
X131763127Y-62956681D01*
X131774753Y-62948058D01*
X131787169Y-62940617D01*
X131800254Y-62934428D01*
X131813883Y-62929551D01*
X131827924Y-62926034D01*
X131842242Y-62923910D01*
X131856700Y-62923200D01*
X132201700Y-62923200D01*
X132216158Y-62923910D01*
G37*
G36*
X135249458Y-45654710D02*
G01*
X135263776Y-45656834D01*
X135277817Y-45660351D01*
X135291446Y-45665228D01*
X135304531Y-45671417D01*
X135316947Y-45678858D01*
X135328573Y-45687481D01*
X135339298Y-45697202D01*
X135349019Y-45707927D01*
X135357642Y-45719553D01*
X135365083Y-45731969D01*
X135371272Y-45745054D01*
X135376149Y-45758683D01*
X135379666Y-45772724D01*
X135381790Y-45787042D01*
X135382500Y-45801500D01*
X135382500Y-46146500D01*
X135381790Y-46160958D01*
X135379666Y-46175276D01*
X135376149Y-46189317D01*
X135371272Y-46202946D01*
X135365083Y-46216031D01*
X135357642Y-46228447D01*
X135349019Y-46240073D01*
X135339298Y-46250798D01*
X135328573Y-46260519D01*
X135316947Y-46269142D01*
X135304531Y-46276583D01*
X135291446Y-46282772D01*
X135277817Y-46287649D01*
X135263776Y-46291166D01*
X135249458Y-46293290D01*
X135235000Y-46294000D01*
X134940000Y-46294000D01*
X134925542Y-46293290D01*
X134911224Y-46291166D01*
X134897183Y-46287649D01*
X134883554Y-46282772D01*
X134870469Y-46276583D01*
X134858053Y-46269142D01*
X134846427Y-46260519D01*
X134835702Y-46250798D01*
X134825981Y-46240073D01*
X134817358Y-46228447D01*
X134809917Y-46216031D01*
X134803728Y-46202946D01*
X134798851Y-46189317D01*
X134795334Y-46175276D01*
X134793210Y-46160958D01*
X134792500Y-46146500D01*
X134792500Y-45801500D01*
X134793210Y-45787042D01*
X134795334Y-45772724D01*
X134798851Y-45758683D01*
X134803728Y-45745054D01*
X134809917Y-45731969D01*
X134817358Y-45719553D01*
X134825981Y-45707927D01*
X134835702Y-45697202D01*
X134846427Y-45687481D01*
X134858053Y-45678858D01*
X134870469Y-45671417D01*
X134883554Y-45665228D01*
X134897183Y-45660351D01*
X134911224Y-45656834D01*
X134925542Y-45654710D01*
X134940000Y-45654000D01*
X135235000Y-45654000D01*
X135249458Y-45654710D01*
G37*
G36*
X136219458Y-45654710D02*
G01*
X136233776Y-45656834D01*
X136247817Y-45660351D01*
X136261446Y-45665228D01*
X136274531Y-45671417D01*
X136286947Y-45678858D01*
X136298573Y-45687481D01*
X136309298Y-45697202D01*
X136319019Y-45707927D01*
X136327642Y-45719553D01*
X136335083Y-45731969D01*
X136341272Y-45745054D01*
X136346149Y-45758683D01*
X136349666Y-45772724D01*
X136351790Y-45787042D01*
X136352500Y-45801500D01*
X136352500Y-46146500D01*
X136351790Y-46160958D01*
X136349666Y-46175276D01*
X136346149Y-46189317D01*
X136341272Y-46202946D01*
X136335083Y-46216031D01*
X136327642Y-46228447D01*
X136319019Y-46240073D01*
X136309298Y-46250798D01*
X136298573Y-46260519D01*
X136286947Y-46269142D01*
X136274531Y-46276583D01*
X136261446Y-46282772D01*
X136247817Y-46287649D01*
X136233776Y-46291166D01*
X136219458Y-46293290D01*
X136205000Y-46294000D01*
X135910000Y-46294000D01*
X135895542Y-46293290D01*
X135881224Y-46291166D01*
X135867183Y-46287649D01*
X135853554Y-46282772D01*
X135840469Y-46276583D01*
X135828053Y-46269142D01*
X135816427Y-46260519D01*
X135805702Y-46250798D01*
X135795981Y-46240073D01*
X135787358Y-46228447D01*
X135779917Y-46216031D01*
X135773728Y-46202946D01*
X135768851Y-46189317D01*
X135765334Y-46175276D01*
X135763210Y-46160958D01*
X135762500Y-46146500D01*
X135762500Y-45801500D01*
X135763210Y-45787042D01*
X135765334Y-45772724D01*
X135768851Y-45758683D01*
X135773728Y-45745054D01*
X135779917Y-45731969D01*
X135787358Y-45719553D01*
X135795981Y-45707927D01*
X135805702Y-45697202D01*
X135816427Y-45687481D01*
X135828053Y-45678858D01*
X135840469Y-45671417D01*
X135853554Y-45665228D01*
X135867183Y-45660351D01*
X135881224Y-45656834D01*
X135895542Y-45654710D01*
X135910000Y-45654000D01*
X136205000Y-45654000D01*
X136219458Y-45654710D01*
G37*
G36*
X135272458Y-44511710D02*
G01*
X135286776Y-44513834D01*
X135300817Y-44517351D01*
X135314446Y-44522228D01*
X135327531Y-44528417D01*
X135339947Y-44535858D01*
X135351573Y-44544481D01*
X135362298Y-44554202D01*
X135372019Y-44564927D01*
X135380642Y-44576553D01*
X135388083Y-44588969D01*
X135394272Y-44602054D01*
X135399149Y-44615683D01*
X135402666Y-44629724D01*
X135404790Y-44644042D01*
X135405500Y-44658500D01*
X135405500Y-45003500D01*
X135404790Y-45017958D01*
X135402666Y-45032276D01*
X135399149Y-45046317D01*
X135394272Y-45059946D01*
X135388083Y-45073031D01*
X135380642Y-45085447D01*
X135372019Y-45097073D01*
X135362298Y-45107798D01*
X135351573Y-45117519D01*
X135339947Y-45126142D01*
X135327531Y-45133583D01*
X135314446Y-45139772D01*
X135300817Y-45144649D01*
X135286776Y-45148166D01*
X135272458Y-45150290D01*
X135258000Y-45151000D01*
X134963000Y-45151000D01*
X134948542Y-45150290D01*
X134934224Y-45148166D01*
X134920183Y-45144649D01*
X134906554Y-45139772D01*
X134893469Y-45133583D01*
X134881053Y-45126142D01*
X134869427Y-45117519D01*
X134858702Y-45107798D01*
X134848981Y-45097073D01*
X134840358Y-45085447D01*
X134832917Y-45073031D01*
X134826728Y-45059946D01*
X134821851Y-45046317D01*
X134818334Y-45032276D01*
X134816210Y-45017958D01*
X134815500Y-45003500D01*
X134815500Y-44658500D01*
X134816210Y-44644042D01*
X134818334Y-44629724D01*
X134821851Y-44615683D01*
X134826728Y-44602054D01*
X134832917Y-44588969D01*
X134840358Y-44576553D01*
X134848981Y-44564927D01*
X134858702Y-44554202D01*
X134869427Y-44544481D01*
X134881053Y-44535858D01*
X134893469Y-44528417D01*
X134906554Y-44522228D01*
X134920183Y-44517351D01*
X134934224Y-44513834D01*
X134948542Y-44511710D01*
X134963000Y-44511000D01*
X135258000Y-44511000D01*
X135272458Y-44511710D01*
G37*
G36*
X136242458Y-44511710D02*
G01*
X136256776Y-44513834D01*
X136270817Y-44517351D01*
X136284446Y-44522228D01*
X136297531Y-44528417D01*
X136309947Y-44535858D01*
X136321573Y-44544481D01*
X136332298Y-44554202D01*
X136342019Y-44564927D01*
X136350642Y-44576553D01*
X136358083Y-44588969D01*
X136364272Y-44602054D01*
X136369149Y-44615683D01*
X136372666Y-44629724D01*
X136374790Y-44644042D01*
X136375500Y-44658500D01*
X136375500Y-45003500D01*
X136374790Y-45017958D01*
X136372666Y-45032276D01*
X136369149Y-45046317D01*
X136364272Y-45059946D01*
X136358083Y-45073031D01*
X136350642Y-45085447D01*
X136342019Y-45097073D01*
X136332298Y-45107798D01*
X136321573Y-45117519D01*
X136309947Y-45126142D01*
X136297531Y-45133583D01*
X136284446Y-45139772D01*
X136270817Y-45144649D01*
X136256776Y-45148166D01*
X136242458Y-45150290D01*
X136228000Y-45151000D01*
X135933000Y-45151000D01*
X135918542Y-45150290D01*
X135904224Y-45148166D01*
X135890183Y-45144649D01*
X135876554Y-45139772D01*
X135863469Y-45133583D01*
X135851053Y-45126142D01*
X135839427Y-45117519D01*
X135828702Y-45107798D01*
X135818981Y-45097073D01*
X135810358Y-45085447D01*
X135802917Y-45073031D01*
X135796728Y-45059946D01*
X135791851Y-45046317D01*
X135788334Y-45032276D01*
X135786210Y-45017958D01*
X135785500Y-45003500D01*
X135785500Y-44658500D01*
X135786210Y-44644042D01*
X135788334Y-44629724D01*
X135791851Y-44615683D01*
X135796728Y-44602054D01*
X135802917Y-44588969D01*
X135810358Y-44576553D01*
X135818981Y-44564927D01*
X135828702Y-44554202D01*
X135839427Y-44544481D01*
X135851053Y-44535858D01*
X135863469Y-44528417D01*
X135876554Y-44522228D01*
X135890183Y-44517351D01*
X135904224Y-44513834D01*
X135918542Y-44511710D01*
X135933000Y-44511000D01*
X136228000Y-44511000D01*
X136242458Y-44511710D01*
G37*
G36*
X152030958Y-46162710D02*
G01*
X152045276Y-46164834D01*
X152059317Y-46168351D01*
X152072946Y-46173228D01*
X152086031Y-46179417D01*
X152098447Y-46186858D01*
X152110073Y-46195481D01*
X152120798Y-46205202D01*
X152130519Y-46215927D01*
X152139142Y-46227553D01*
X152146583Y-46239969D01*
X152152772Y-46253054D01*
X152157649Y-46266683D01*
X152161166Y-46280724D01*
X152163290Y-46295042D01*
X152164000Y-46309500D01*
X152164000Y-46654500D01*
X152163290Y-46668958D01*
X152161166Y-46683276D01*
X152157649Y-46697317D01*
X152152772Y-46710946D01*
X152146583Y-46724031D01*
X152139142Y-46736447D01*
X152130519Y-46748073D01*
X152120798Y-46758798D01*
X152110073Y-46768519D01*
X152098447Y-46777142D01*
X152086031Y-46784583D01*
X152072946Y-46790772D01*
X152059317Y-46795649D01*
X152045276Y-46799166D01*
X152030958Y-46801290D01*
X152016500Y-46802000D01*
X151721500Y-46802000D01*
X151707042Y-46801290D01*
X151692724Y-46799166D01*
X151678683Y-46795649D01*
X151665054Y-46790772D01*
X151651969Y-46784583D01*
X151639553Y-46777142D01*
X151627927Y-46768519D01*
X151617202Y-46758798D01*
X151607481Y-46748073D01*
X151598858Y-46736447D01*
X151591417Y-46724031D01*
X151585228Y-46710946D01*
X151580351Y-46697317D01*
X151576834Y-46683276D01*
X151574710Y-46668958D01*
X151574000Y-46654500D01*
X151574000Y-46309500D01*
X151574710Y-46295042D01*
X151576834Y-46280724D01*
X151580351Y-46266683D01*
X151585228Y-46253054D01*
X151591417Y-46239969D01*
X151598858Y-46227553D01*
X151607481Y-46215927D01*
X151617202Y-46205202D01*
X151627927Y-46195481D01*
X151639553Y-46186858D01*
X151651969Y-46179417D01*
X151665054Y-46173228D01*
X151678683Y-46168351D01*
X151692724Y-46164834D01*
X151707042Y-46162710D01*
X151721500Y-46162000D01*
X152016500Y-46162000D01*
X152030958Y-46162710D01*
G37*
G36*
X151060958Y-46162710D02*
G01*
X151075276Y-46164834D01*
X151089317Y-46168351D01*
X151102946Y-46173228D01*
X151116031Y-46179417D01*
X151128447Y-46186858D01*
X151140073Y-46195481D01*
X151150798Y-46205202D01*
X151160519Y-46215927D01*
X151169142Y-46227553D01*
X151176583Y-46239969D01*
X151182772Y-46253054D01*
X151187649Y-46266683D01*
X151191166Y-46280724D01*
X151193290Y-46295042D01*
X151194000Y-46309500D01*
X151194000Y-46654500D01*
X151193290Y-46668958D01*
X151191166Y-46683276D01*
X151187649Y-46697317D01*
X151182772Y-46710946D01*
X151176583Y-46724031D01*
X151169142Y-46736447D01*
X151160519Y-46748073D01*
X151150798Y-46758798D01*
X151140073Y-46768519D01*
X151128447Y-46777142D01*
X151116031Y-46784583D01*
X151102946Y-46790772D01*
X151089317Y-46795649D01*
X151075276Y-46799166D01*
X151060958Y-46801290D01*
X151046500Y-46802000D01*
X150751500Y-46802000D01*
X150737042Y-46801290D01*
X150722724Y-46799166D01*
X150708683Y-46795649D01*
X150695054Y-46790772D01*
X150681969Y-46784583D01*
X150669553Y-46777142D01*
X150657927Y-46768519D01*
X150647202Y-46758798D01*
X150637481Y-46748073D01*
X150628858Y-46736447D01*
X150621417Y-46724031D01*
X150615228Y-46710946D01*
X150610351Y-46697317D01*
X150606834Y-46683276D01*
X150604710Y-46668958D01*
X150604000Y-46654500D01*
X150604000Y-46309500D01*
X150604710Y-46295042D01*
X150606834Y-46280724D01*
X150610351Y-46266683D01*
X150615228Y-46253054D01*
X150621417Y-46239969D01*
X150628858Y-46227553D01*
X150637481Y-46215927D01*
X150647202Y-46205202D01*
X150657927Y-46195481D01*
X150669553Y-46186858D01*
X150681969Y-46179417D01*
X150695054Y-46173228D01*
X150708683Y-46168351D01*
X150722724Y-46164834D01*
X150737042Y-46162710D01*
X150751500Y-46162000D01*
X151046500Y-46162000D01*
X151060958Y-46162710D01*
G37*
G36*
X152030958Y-49591710D02*
G01*
X152045276Y-49593834D01*
X152059317Y-49597351D01*
X152072946Y-49602228D01*
X152086031Y-49608417D01*
X152098447Y-49615858D01*
X152110073Y-49624481D01*
X152120798Y-49634202D01*
X152130519Y-49644927D01*
X152139142Y-49656553D01*
X152146583Y-49668969D01*
X152152772Y-49682054D01*
X152157649Y-49695683D01*
X152161166Y-49709724D01*
X152163290Y-49724042D01*
X152164000Y-49738500D01*
X152164000Y-50083500D01*
X152163290Y-50097958D01*
X152161166Y-50112276D01*
X152157649Y-50126317D01*
X152152772Y-50139946D01*
X152146583Y-50153031D01*
X152139142Y-50165447D01*
X152130519Y-50177073D01*
X152120798Y-50187798D01*
X152110073Y-50197519D01*
X152098447Y-50206142D01*
X152086031Y-50213583D01*
X152072946Y-50219772D01*
X152059317Y-50224649D01*
X152045276Y-50228166D01*
X152030958Y-50230290D01*
X152016500Y-50231000D01*
X151721500Y-50231000D01*
X151707042Y-50230290D01*
X151692724Y-50228166D01*
X151678683Y-50224649D01*
X151665054Y-50219772D01*
X151651969Y-50213583D01*
X151639553Y-50206142D01*
X151627927Y-50197519D01*
X151617202Y-50187798D01*
X151607481Y-50177073D01*
X151598858Y-50165447D01*
X151591417Y-50153031D01*
X151585228Y-50139946D01*
X151580351Y-50126317D01*
X151576834Y-50112276D01*
X151574710Y-50097958D01*
X151574000Y-50083500D01*
X151574000Y-49738500D01*
X151574710Y-49724042D01*
X151576834Y-49709724D01*
X151580351Y-49695683D01*
X151585228Y-49682054D01*
X151591417Y-49668969D01*
X151598858Y-49656553D01*
X151607481Y-49644927D01*
X151617202Y-49634202D01*
X151627927Y-49624481D01*
X151639553Y-49615858D01*
X151651969Y-49608417D01*
X151665054Y-49602228D01*
X151678683Y-49597351D01*
X151692724Y-49593834D01*
X151707042Y-49591710D01*
X151721500Y-49591000D01*
X152016500Y-49591000D01*
X152030958Y-49591710D01*
G37*
G36*
X151060958Y-49591710D02*
G01*
X151075276Y-49593834D01*
X151089317Y-49597351D01*
X151102946Y-49602228D01*
X151116031Y-49608417D01*
X151128447Y-49615858D01*
X151140073Y-49624481D01*
X151150798Y-49634202D01*
X151160519Y-49644927D01*
X151169142Y-49656553D01*
X151176583Y-49668969D01*
X151182772Y-49682054D01*
X151187649Y-49695683D01*
X151191166Y-49709724D01*
X151193290Y-49724042D01*
X151194000Y-49738500D01*
X151194000Y-50083500D01*
X151193290Y-50097958D01*
X151191166Y-50112276D01*
X151187649Y-50126317D01*
X151182772Y-50139946D01*
X151176583Y-50153031D01*
X151169142Y-50165447D01*
X151160519Y-50177073D01*
X151150798Y-50187798D01*
X151140073Y-50197519D01*
X151128447Y-50206142D01*
X151116031Y-50213583D01*
X151102946Y-50219772D01*
X151089317Y-50224649D01*
X151075276Y-50228166D01*
X151060958Y-50230290D01*
X151046500Y-50231000D01*
X150751500Y-50231000D01*
X150737042Y-50230290D01*
X150722724Y-50228166D01*
X150708683Y-50224649D01*
X150695054Y-50219772D01*
X150681969Y-50213583D01*
X150669553Y-50206142D01*
X150657927Y-50197519D01*
X150647202Y-50187798D01*
X150637481Y-50177073D01*
X150628858Y-50165447D01*
X150621417Y-50153031D01*
X150615228Y-50139946D01*
X150610351Y-50126317D01*
X150606834Y-50112276D01*
X150604710Y-50097958D01*
X150604000Y-50083500D01*
X150604000Y-49738500D01*
X150604710Y-49724042D01*
X150606834Y-49709724D01*
X150610351Y-49695683D01*
X150615228Y-49682054D01*
X150621417Y-49668969D01*
X150628858Y-49656553D01*
X150637481Y-49644927D01*
X150647202Y-49634202D01*
X150657927Y-49624481D01*
X150669553Y-49615858D01*
X150681969Y-49608417D01*
X150695054Y-49602228D01*
X150708683Y-49597351D01*
X150722724Y-49593834D01*
X150737042Y-49591710D01*
X150751500Y-49591000D01*
X151046500Y-49591000D01*
X151060958Y-49591710D01*
G37*
G36*
X152030958Y-48448710D02*
G01*
X152045276Y-48450834D01*
X152059317Y-48454351D01*
X152072946Y-48459228D01*
X152086031Y-48465417D01*
X152098447Y-48472858D01*
X152110073Y-48481481D01*
X152120798Y-48491202D01*
X152130519Y-48501927D01*
X152139142Y-48513553D01*
X152146583Y-48525969D01*
X152152772Y-48539054D01*
X152157649Y-48552683D01*
X152161166Y-48566724D01*
X152163290Y-48581042D01*
X152164000Y-48595500D01*
X152164000Y-48940500D01*
X152163290Y-48954958D01*
X152161166Y-48969276D01*
X152157649Y-48983317D01*
X152152772Y-48996946D01*
X152146583Y-49010031D01*
X152139142Y-49022447D01*
X152130519Y-49034073D01*
X152120798Y-49044798D01*
X152110073Y-49054519D01*
X152098447Y-49063142D01*
X152086031Y-49070583D01*
X152072946Y-49076772D01*
X152059317Y-49081649D01*
X152045276Y-49085166D01*
X152030958Y-49087290D01*
X152016500Y-49088000D01*
X151721500Y-49088000D01*
X151707042Y-49087290D01*
X151692724Y-49085166D01*
X151678683Y-49081649D01*
X151665054Y-49076772D01*
X151651969Y-49070583D01*
X151639553Y-49063142D01*
X151627927Y-49054519D01*
X151617202Y-49044798D01*
X151607481Y-49034073D01*
X151598858Y-49022447D01*
X151591417Y-49010031D01*
X151585228Y-48996946D01*
X151580351Y-48983317D01*
X151576834Y-48969276D01*
X151574710Y-48954958D01*
X151574000Y-48940500D01*
X151574000Y-48595500D01*
X151574710Y-48581042D01*
X151576834Y-48566724D01*
X151580351Y-48552683D01*
X151585228Y-48539054D01*
X151591417Y-48525969D01*
X151598858Y-48513553D01*
X151607481Y-48501927D01*
X151617202Y-48491202D01*
X151627927Y-48481481D01*
X151639553Y-48472858D01*
X151651969Y-48465417D01*
X151665054Y-48459228D01*
X151678683Y-48454351D01*
X151692724Y-48450834D01*
X151707042Y-48448710D01*
X151721500Y-48448000D01*
X152016500Y-48448000D01*
X152030958Y-48448710D01*
G37*
G36*
X151060958Y-48448710D02*
G01*
X151075276Y-48450834D01*
X151089317Y-48454351D01*
X151102946Y-48459228D01*
X151116031Y-48465417D01*
X151128447Y-48472858D01*
X151140073Y-48481481D01*
X151150798Y-48491202D01*
X151160519Y-48501927D01*
X151169142Y-48513553D01*
X151176583Y-48525969D01*
X151182772Y-48539054D01*
X151187649Y-48552683D01*
X151191166Y-48566724D01*
X151193290Y-48581042D01*
X151194000Y-48595500D01*
X151194000Y-48940500D01*
X151193290Y-48954958D01*
X151191166Y-48969276D01*
X151187649Y-48983317D01*
X151182772Y-48996946D01*
X151176583Y-49010031D01*
X151169142Y-49022447D01*
X151160519Y-49034073D01*
X151150798Y-49044798D01*
X151140073Y-49054519D01*
X151128447Y-49063142D01*
X151116031Y-49070583D01*
X151102946Y-49076772D01*
X151089317Y-49081649D01*
X151075276Y-49085166D01*
X151060958Y-49087290D01*
X151046500Y-49088000D01*
X150751500Y-49088000D01*
X150737042Y-49087290D01*
X150722724Y-49085166D01*
X150708683Y-49081649D01*
X150695054Y-49076772D01*
X150681969Y-49070583D01*
X150669553Y-49063142D01*
X150657927Y-49054519D01*
X150647202Y-49044798D01*
X150637481Y-49034073D01*
X150628858Y-49022447D01*
X150621417Y-49010031D01*
X150615228Y-48996946D01*
X150610351Y-48983317D01*
X150606834Y-48969276D01*
X150604710Y-48954958D01*
X150604000Y-48940500D01*
X150604000Y-48595500D01*
X150604710Y-48581042D01*
X150606834Y-48566724D01*
X150610351Y-48552683D01*
X150615228Y-48539054D01*
X150621417Y-48525969D01*
X150628858Y-48513553D01*
X150637481Y-48501927D01*
X150647202Y-48491202D01*
X150657927Y-48481481D01*
X150669553Y-48472858D01*
X150681969Y-48465417D01*
X150695054Y-48459228D01*
X150708683Y-48454351D01*
X150722724Y-48450834D01*
X150737042Y-48448710D01*
X150751500Y-48448000D01*
X151046500Y-48448000D01*
X151060958Y-48448710D01*
G37*
G36*
X152030958Y-47305710D02*
G01*
X152045276Y-47307834D01*
X152059317Y-47311351D01*
X152072946Y-47316228D01*
X152086031Y-47322417D01*
X152098447Y-47329858D01*
X152110073Y-47338481D01*
X152120798Y-47348202D01*
X152130519Y-47358927D01*
X152139142Y-47370553D01*
X152146583Y-47382969D01*
X152152772Y-47396054D01*
X152157649Y-47409683D01*
X152161166Y-47423724D01*
X152163290Y-47438042D01*
X152164000Y-47452500D01*
X152164000Y-47797500D01*
X152163290Y-47811958D01*
X152161166Y-47826276D01*
X152157649Y-47840317D01*
X152152772Y-47853946D01*
X152146583Y-47867031D01*
X152139142Y-47879447D01*
X152130519Y-47891073D01*
X152120798Y-47901798D01*
X152110073Y-47911519D01*
X152098447Y-47920142D01*
X152086031Y-47927583D01*
X152072946Y-47933772D01*
X152059317Y-47938649D01*
X152045276Y-47942166D01*
X152030958Y-47944290D01*
X152016500Y-47945000D01*
X151721500Y-47945000D01*
X151707042Y-47944290D01*
X151692724Y-47942166D01*
X151678683Y-47938649D01*
X151665054Y-47933772D01*
X151651969Y-47927583D01*
X151639553Y-47920142D01*
X151627927Y-47911519D01*
X151617202Y-47901798D01*
X151607481Y-47891073D01*
X151598858Y-47879447D01*
X151591417Y-47867031D01*
X151585228Y-47853946D01*
X151580351Y-47840317D01*
X151576834Y-47826276D01*
X151574710Y-47811958D01*
X151574000Y-47797500D01*
X151574000Y-47452500D01*
X151574710Y-47438042D01*
X151576834Y-47423724D01*
X151580351Y-47409683D01*
X151585228Y-47396054D01*
X151591417Y-47382969D01*
X151598858Y-47370553D01*
X151607481Y-47358927D01*
X151617202Y-47348202D01*
X151627927Y-47338481D01*
X151639553Y-47329858D01*
X151651969Y-47322417D01*
X151665054Y-47316228D01*
X151678683Y-47311351D01*
X151692724Y-47307834D01*
X151707042Y-47305710D01*
X151721500Y-47305000D01*
X152016500Y-47305000D01*
X152030958Y-47305710D01*
G37*
G36*
X151060958Y-47305710D02*
G01*
X151075276Y-47307834D01*
X151089317Y-47311351D01*
X151102946Y-47316228D01*
X151116031Y-47322417D01*
X151128447Y-47329858D01*
X151140073Y-47338481D01*
X151150798Y-47348202D01*
X151160519Y-47358927D01*
X151169142Y-47370553D01*
X151176583Y-47382969D01*
X151182772Y-47396054D01*
X151187649Y-47409683D01*
X151191166Y-47423724D01*
X151193290Y-47438042D01*
X151194000Y-47452500D01*
X151194000Y-47797500D01*
X151193290Y-47811958D01*
X151191166Y-47826276D01*
X151187649Y-47840317D01*
X151182772Y-47853946D01*
X151176583Y-47867031D01*
X151169142Y-47879447D01*
X151160519Y-47891073D01*
X151150798Y-47901798D01*
X151140073Y-47911519D01*
X151128447Y-47920142D01*
X151116031Y-47927583D01*
X151102946Y-47933772D01*
X151089317Y-47938649D01*
X151075276Y-47942166D01*
X151060958Y-47944290D01*
X151046500Y-47945000D01*
X150751500Y-47945000D01*
X150737042Y-47944290D01*
X150722724Y-47942166D01*
X150708683Y-47938649D01*
X150695054Y-47933772D01*
X150681969Y-47927583D01*
X150669553Y-47920142D01*
X150657927Y-47911519D01*
X150647202Y-47901798D01*
X150637481Y-47891073D01*
X150628858Y-47879447D01*
X150621417Y-47867031D01*
X150615228Y-47853946D01*
X150610351Y-47840317D01*
X150606834Y-47826276D01*
X150604710Y-47811958D01*
X150604000Y-47797500D01*
X150604000Y-47452500D01*
X150604710Y-47438042D01*
X150606834Y-47423724D01*
X150610351Y-47409683D01*
X150615228Y-47396054D01*
X150621417Y-47382969D01*
X150628858Y-47370553D01*
X150637481Y-47358927D01*
X150647202Y-47348202D01*
X150657927Y-47338481D01*
X150669553Y-47329858D01*
X150681969Y-47322417D01*
X150695054Y-47316228D01*
X150708683Y-47311351D01*
X150722724Y-47307834D01*
X150737042Y-47305710D01*
X150751500Y-47305000D01*
X151046500Y-47305000D01*
X151060958Y-47305710D01*
G37*
G36*
X151060958Y-53020710D02*
G01*
X151075276Y-53022834D01*
X151089317Y-53026351D01*
X151102946Y-53031228D01*
X151116031Y-53037417D01*
X151128447Y-53044858D01*
X151140073Y-53053481D01*
X151150798Y-53063202D01*
X151160519Y-53073927D01*
X151169142Y-53085553D01*
X151176583Y-53097969D01*
X151182772Y-53111054D01*
X151187649Y-53124683D01*
X151191166Y-53138724D01*
X151193290Y-53153042D01*
X151194000Y-53167500D01*
X151194000Y-53512500D01*
X151193290Y-53526958D01*
X151191166Y-53541276D01*
X151187649Y-53555317D01*
X151182772Y-53568946D01*
X151176583Y-53582031D01*
X151169142Y-53594447D01*
X151160519Y-53606073D01*
X151150798Y-53616798D01*
X151140073Y-53626519D01*
X151128447Y-53635142D01*
X151116031Y-53642583D01*
X151102946Y-53648772D01*
X151089317Y-53653649D01*
X151075276Y-53657166D01*
X151060958Y-53659290D01*
X151046500Y-53660000D01*
X150751500Y-53660000D01*
X150737042Y-53659290D01*
X150722724Y-53657166D01*
X150708683Y-53653649D01*
X150695054Y-53648772D01*
X150681969Y-53642583D01*
X150669553Y-53635142D01*
X150657927Y-53626519D01*
X150647202Y-53616798D01*
X150637481Y-53606073D01*
X150628858Y-53594447D01*
X150621417Y-53582031D01*
X150615228Y-53568946D01*
X150610351Y-53555317D01*
X150606834Y-53541276D01*
X150604710Y-53526958D01*
X150604000Y-53512500D01*
X150604000Y-53167500D01*
X150604710Y-53153042D01*
X150606834Y-53138724D01*
X150610351Y-53124683D01*
X150615228Y-53111054D01*
X150621417Y-53097969D01*
X150628858Y-53085553D01*
X150637481Y-53073927D01*
X150647202Y-53063202D01*
X150657927Y-53053481D01*
X150669553Y-53044858D01*
X150681969Y-53037417D01*
X150695054Y-53031228D01*
X150708683Y-53026351D01*
X150722724Y-53022834D01*
X150737042Y-53020710D01*
X150751500Y-53020000D01*
X151046500Y-53020000D01*
X151060958Y-53020710D01*
G37*
G36*
X152030958Y-53020710D02*
G01*
X152045276Y-53022834D01*
X152059317Y-53026351D01*
X152072946Y-53031228D01*
X152086031Y-53037417D01*
X152098447Y-53044858D01*
X152110073Y-53053481D01*
X152120798Y-53063202D01*
X152130519Y-53073927D01*
X152139142Y-53085553D01*
X152146583Y-53097969D01*
X152152772Y-53111054D01*
X152157649Y-53124683D01*
X152161166Y-53138724D01*
X152163290Y-53153042D01*
X152164000Y-53167500D01*
X152164000Y-53512500D01*
X152163290Y-53526958D01*
X152161166Y-53541276D01*
X152157649Y-53555317D01*
X152152772Y-53568946D01*
X152146583Y-53582031D01*
X152139142Y-53594447D01*
X152130519Y-53606073D01*
X152120798Y-53616798D01*
X152110073Y-53626519D01*
X152098447Y-53635142D01*
X152086031Y-53642583D01*
X152072946Y-53648772D01*
X152059317Y-53653649D01*
X152045276Y-53657166D01*
X152030958Y-53659290D01*
X152016500Y-53660000D01*
X151721500Y-53660000D01*
X151707042Y-53659290D01*
X151692724Y-53657166D01*
X151678683Y-53653649D01*
X151665054Y-53648772D01*
X151651969Y-53642583D01*
X151639553Y-53635142D01*
X151627927Y-53626519D01*
X151617202Y-53616798D01*
X151607481Y-53606073D01*
X151598858Y-53594447D01*
X151591417Y-53582031D01*
X151585228Y-53568946D01*
X151580351Y-53555317D01*
X151576834Y-53541276D01*
X151574710Y-53526958D01*
X151574000Y-53512500D01*
X151574000Y-53167500D01*
X151574710Y-53153042D01*
X151576834Y-53138724D01*
X151580351Y-53124683D01*
X151585228Y-53111054D01*
X151591417Y-53097969D01*
X151598858Y-53085553D01*
X151607481Y-53073927D01*
X151617202Y-53063202D01*
X151627927Y-53053481D01*
X151639553Y-53044858D01*
X151651969Y-53037417D01*
X151665054Y-53031228D01*
X151678683Y-53026351D01*
X151692724Y-53022834D01*
X151707042Y-53020710D01*
X151721500Y-53020000D01*
X152016500Y-53020000D01*
X152030958Y-53020710D01*
G37*
G36*
X152007958Y-54163710D02*
G01*
X152022276Y-54165834D01*
X152036317Y-54169351D01*
X152049946Y-54174228D01*
X152063031Y-54180417D01*
X152075447Y-54187858D01*
X152087073Y-54196481D01*
X152097798Y-54206202D01*
X152107519Y-54216927D01*
X152116142Y-54228553D01*
X152123583Y-54240969D01*
X152129772Y-54254054D01*
X152134649Y-54267683D01*
X152138166Y-54281724D01*
X152140290Y-54296042D01*
X152141000Y-54310500D01*
X152141000Y-54655500D01*
X152140290Y-54669958D01*
X152138166Y-54684276D01*
X152134649Y-54698317D01*
X152129772Y-54711946D01*
X152123583Y-54725031D01*
X152116142Y-54737447D01*
X152107519Y-54749073D01*
X152097798Y-54759798D01*
X152087073Y-54769519D01*
X152075447Y-54778142D01*
X152063031Y-54785583D01*
X152049946Y-54791772D01*
X152036317Y-54796649D01*
X152022276Y-54800166D01*
X152007958Y-54802290D01*
X151993500Y-54803000D01*
X151698500Y-54803000D01*
X151684042Y-54802290D01*
X151669724Y-54800166D01*
X151655683Y-54796649D01*
X151642054Y-54791772D01*
X151628969Y-54785583D01*
X151616553Y-54778142D01*
X151604927Y-54769519D01*
X151594202Y-54759798D01*
X151584481Y-54749073D01*
X151575858Y-54737447D01*
X151568417Y-54725031D01*
X151562228Y-54711946D01*
X151557351Y-54698317D01*
X151553834Y-54684276D01*
X151551710Y-54669958D01*
X151551000Y-54655500D01*
X151551000Y-54310500D01*
X151551710Y-54296042D01*
X151553834Y-54281724D01*
X151557351Y-54267683D01*
X151562228Y-54254054D01*
X151568417Y-54240969D01*
X151575858Y-54228553D01*
X151584481Y-54216927D01*
X151594202Y-54206202D01*
X151604927Y-54196481D01*
X151616553Y-54187858D01*
X151628969Y-54180417D01*
X151642054Y-54174228D01*
X151655683Y-54169351D01*
X151669724Y-54165834D01*
X151684042Y-54163710D01*
X151698500Y-54163000D01*
X151993500Y-54163000D01*
X152007958Y-54163710D01*
G37*
G36*
X151037958Y-54163710D02*
G01*
X151052276Y-54165834D01*
X151066317Y-54169351D01*
X151079946Y-54174228D01*
X151093031Y-54180417D01*
X151105447Y-54187858D01*
X151117073Y-54196481D01*
X151127798Y-54206202D01*
X151137519Y-54216927D01*
X151146142Y-54228553D01*
X151153583Y-54240969D01*
X151159772Y-54254054D01*
X151164649Y-54267683D01*
X151168166Y-54281724D01*
X151170290Y-54296042D01*
X151171000Y-54310500D01*
X151171000Y-54655500D01*
X151170290Y-54669958D01*
X151168166Y-54684276D01*
X151164649Y-54698317D01*
X151159772Y-54711946D01*
X151153583Y-54725031D01*
X151146142Y-54737447D01*
X151137519Y-54749073D01*
X151127798Y-54759798D01*
X151117073Y-54769519D01*
X151105447Y-54778142D01*
X151093031Y-54785583D01*
X151079946Y-54791772D01*
X151066317Y-54796649D01*
X151052276Y-54800166D01*
X151037958Y-54802290D01*
X151023500Y-54803000D01*
X150728500Y-54803000D01*
X150714042Y-54802290D01*
X150699724Y-54800166D01*
X150685683Y-54796649D01*
X150672054Y-54791772D01*
X150658969Y-54785583D01*
X150646553Y-54778142D01*
X150634927Y-54769519D01*
X150624202Y-54759798D01*
X150614481Y-54749073D01*
X150605858Y-54737447D01*
X150598417Y-54725031D01*
X150592228Y-54711946D01*
X150587351Y-54698317D01*
X150583834Y-54684276D01*
X150581710Y-54669958D01*
X150581000Y-54655500D01*
X150581000Y-54310500D01*
X150581710Y-54296042D01*
X150583834Y-54281724D01*
X150587351Y-54267683D01*
X150592228Y-54254054D01*
X150598417Y-54240969D01*
X150605858Y-54228553D01*
X150614481Y-54216927D01*
X150624202Y-54206202D01*
X150634927Y-54196481D01*
X150646553Y-54187858D01*
X150658969Y-54180417D01*
X150672054Y-54174228D01*
X150685683Y-54169351D01*
X150699724Y-54165834D01*
X150714042Y-54163710D01*
X150728500Y-54163000D01*
X151023500Y-54163000D01*
X151037958Y-54163710D01*
G37*
G36*
X136219458Y-52512710D02*
G01*
X136233776Y-52514834D01*
X136247817Y-52518351D01*
X136261446Y-52523228D01*
X136274531Y-52529417D01*
X136286947Y-52536858D01*
X136298573Y-52545481D01*
X136309298Y-52555202D01*
X136319019Y-52565927D01*
X136327642Y-52577553D01*
X136335083Y-52589969D01*
X136341272Y-52603054D01*
X136346149Y-52616683D01*
X136349666Y-52630724D01*
X136351790Y-52645042D01*
X136352500Y-52659500D01*
X136352500Y-53004500D01*
X136351790Y-53018958D01*
X136349666Y-53033276D01*
X136346149Y-53047317D01*
X136341272Y-53060946D01*
X136335083Y-53074031D01*
X136327642Y-53086447D01*
X136319019Y-53098073D01*
X136309298Y-53108798D01*
X136298573Y-53118519D01*
X136286947Y-53127142D01*
X136274531Y-53134583D01*
X136261446Y-53140772D01*
X136247817Y-53145649D01*
X136233776Y-53149166D01*
X136219458Y-53151290D01*
X136205000Y-53152000D01*
X135910000Y-53152000D01*
X135895542Y-53151290D01*
X135881224Y-53149166D01*
X135867183Y-53145649D01*
X135853554Y-53140772D01*
X135840469Y-53134583D01*
X135828053Y-53127142D01*
X135816427Y-53118519D01*
X135805702Y-53108798D01*
X135795981Y-53098073D01*
X135787358Y-53086447D01*
X135779917Y-53074031D01*
X135773728Y-53060946D01*
X135768851Y-53047317D01*
X135765334Y-53033276D01*
X135763210Y-53018958D01*
X135762500Y-53004500D01*
X135762500Y-52659500D01*
X135763210Y-52645042D01*
X135765334Y-52630724D01*
X135768851Y-52616683D01*
X135773728Y-52603054D01*
X135779917Y-52589969D01*
X135787358Y-52577553D01*
X135795981Y-52565927D01*
X135805702Y-52555202D01*
X135816427Y-52545481D01*
X135828053Y-52536858D01*
X135840469Y-52529417D01*
X135853554Y-52523228D01*
X135867183Y-52518351D01*
X135881224Y-52514834D01*
X135895542Y-52512710D01*
X135910000Y-52512000D01*
X136205000Y-52512000D01*
X136219458Y-52512710D01*
G37*
G36*
X135249458Y-52512710D02*
G01*
X135263776Y-52514834D01*
X135277817Y-52518351D01*
X135291446Y-52523228D01*
X135304531Y-52529417D01*
X135316947Y-52536858D01*
X135328573Y-52545481D01*
X135339298Y-52555202D01*
X135349019Y-52565927D01*
X135357642Y-52577553D01*
X135365083Y-52589969D01*
X135371272Y-52603054D01*
X135376149Y-52616683D01*
X135379666Y-52630724D01*
X135381790Y-52645042D01*
X135382500Y-52659500D01*
X135382500Y-53004500D01*
X135381790Y-53018958D01*
X135379666Y-53033276D01*
X135376149Y-53047317D01*
X135371272Y-53060946D01*
X135365083Y-53074031D01*
X135357642Y-53086447D01*
X135349019Y-53098073D01*
X135339298Y-53108798D01*
X135328573Y-53118519D01*
X135316947Y-53127142D01*
X135304531Y-53134583D01*
X135291446Y-53140772D01*
X135277817Y-53145649D01*
X135263776Y-53149166D01*
X135249458Y-53151290D01*
X135235000Y-53152000D01*
X134940000Y-53152000D01*
X134925542Y-53151290D01*
X134911224Y-53149166D01*
X134897183Y-53145649D01*
X134883554Y-53140772D01*
X134870469Y-53134583D01*
X134858053Y-53127142D01*
X134846427Y-53118519D01*
X134835702Y-53108798D01*
X134825981Y-53098073D01*
X134817358Y-53086447D01*
X134809917Y-53074031D01*
X134803728Y-53060946D01*
X134798851Y-53047317D01*
X134795334Y-53033276D01*
X134793210Y-53018958D01*
X134792500Y-53004500D01*
X134792500Y-52659500D01*
X134793210Y-52645042D01*
X134795334Y-52630724D01*
X134798851Y-52616683D01*
X134803728Y-52603054D01*
X134809917Y-52589969D01*
X134817358Y-52577553D01*
X134825981Y-52565927D01*
X134835702Y-52555202D01*
X134846427Y-52545481D01*
X134858053Y-52536858D01*
X134870469Y-52529417D01*
X134883554Y-52523228D01*
X134897183Y-52518351D01*
X134911224Y-52514834D01*
X134925542Y-52512710D01*
X134940000Y-52512000D01*
X135235000Y-52512000D01*
X135249458Y-52512710D01*
G37*
G36*
X136219458Y-50226710D02*
G01*
X136233776Y-50228834D01*
X136247817Y-50232351D01*
X136261446Y-50237228D01*
X136274531Y-50243417D01*
X136286947Y-50250858D01*
X136298573Y-50259481D01*
X136309298Y-50269202D01*
X136319019Y-50279927D01*
X136327642Y-50291553D01*
X136335083Y-50303969D01*
X136341272Y-50317054D01*
X136346149Y-50330683D01*
X136349666Y-50344724D01*
X136351790Y-50359042D01*
X136352500Y-50373500D01*
X136352500Y-50718500D01*
X136351790Y-50732958D01*
X136349666Y-50747276D01*
X136346149Y-50761317D01*
X136341272Y-50774946D01*
X136335083Y-50788031D01*
X136327642Y-50800447D01*
X136319019Y-50812073D01*
X136309298Y-50822798D01*
X136298573Y-50832519D01*
X136286947Y-50841142D01*
X136274531Y-50848583D01*
X136261446Y-50854772D01*
X136247817Y-50859649D01*
X136233776Y-50863166D01*
X136219458Y-50865290D01*
X136205000Y-50866000D01*
X135910000Y-50866000D01*
X135895542Y-50865290D01*
X135881224Y-50863166D01*
X135867183Y-50859649D01*
X135853554Y-50854772D01*
X135840469Y-50848583D01*
X135828053Y-50841142D01*
X135816427Y-50832519D01*
X135805702Y-50822798D01*
X135795981Y-50812073D01*
X135787358Y-50800447D01*
X135779917Y-50788031D01*
X135773728Y-50774946D01*
X135768851Y-50761317D01*
X135765334Y-50747276D01*
X135763210Y-50732958D01*
X135762500Y-50718500D01*
X135762500Y-50373500D01*
X135763210Y-50359042D01*
X135765334Y-50344724D01*
X135768851Y-50330683D01*
X135773728Y-50317054D01*
X135779917Y-50303969D01*
X135787358Y-50291553D01*
X135795981Y-50279927D01*
X135805702Y-50269202D01*
X135816427Y-50259481D01*
X135828053Y-50250858D01*
X135840469Y-50243417D01*
X135853554Y-50237228D01*
X135867183Y-50232351D01*
X135881224Y-50228834D01*
X135895542Y-50226710D01*
X135910000Y-50226000D01*
X136205000Y-50226000D01*
X136219458Y-50226710D01*
G37*
G36*
X135249458Y-50226710D02*
G01*
X135263776Y-50228834D01*
X135277817Y-50232351D01*
X135291446Y-50237228D01*
X135304531Y-50243417D01*
X135316947Y-50250858D01*
X135328573Y-50259481D01*
X135339298Y-50269202D01*
X135349019Y-50279927D01*
X135357642Y-50291553D01*
X135365083Y-50303969D01*
X135371272Y-50317054D01*
X135376149Y-50330683D01*
X135379666Y-50344724D01*
X135381790Y-50359042D01*
X135382500Y-50373500D01*
X135382500Y-50718500D01*
X135381790Y-50732958D01*
X135379666Y-50747276D01*
X135376149Y-50761317D01*
X135371272Y-50774946D01*
X135365083Y-50788031D01*
X135357642Y-50800447D01*
X135349019Y-50812073D01*
X135339298Y-50822798D01*
X135328573Y-50832519D01*
X135316947Y-50841142D01*
X135304531Y-50848583D01*
X135291446Y-50854772D01*
X135277817Y-50859649D01*
X135263776Y-50863166D01*
X135249458Y-50865290D01*
X135235000Y-50866000D01*
X134940000Y-50866000D01*
X134925542Y-50865290D01*
X134911224Y-50863166D01*
X134897183Y-50859649D01*
X134883554Y-50854772D01*
X134870469Y-50848583D01*
X134858053Y-50841142D01*
X134846427Y-50832519D01*
X134835702Y-50822798D01*
X134825981Y-50812073D01*
X134817358Y-50800447D01*
X134809917Y-50788031D01*
X134803728Y-50774946D01*
X134798851Y-50761317D01*
X134795334Y-50747276D01*
X134793210Y-50732958D01*
X134792500Y-50718500D01*
X134792500Y-50373500D01*
X134793210Y-50359042D01*
X134795334Y-50344724D01*
X134798851Y-50330683D01*
X134803728Y-50317054D01*
X134809917Y-50303969D01*
X134817358Y-50291553D01*
X134825981Y-50279927D01*
X134835702Y-50269202D01*
X134846427Y-50259481D01*
X134858053Y-50250858D01*
X134870469Y-50243417D01*
X134883554Y-50237228D01*
X134897183Y-50232351D01*
X134911224Y-50228834D01*
X134925542Y-50226710D01*
X134940000Y-50226000D01*
X135235000Y-50226000D01*
X135249458Y-50226710D01*
G37*
G36*
X151060958Y-50734710D02*
G01*
X151075276Y-50736834D01*
X151089317Y-50740351D01*
X151102946Y-50745228D01*
X151116031Y-50751417D01*
X151128447Y-50758858D01*
X151140073Y-50767481D01*
X151150798Y-50777202D01*
X151160519Y-50787927D01*
X151169142Y-50799553D01*
X151176583Y-50811969D01*
X151182772Y-50825054D01*
X151187649Y-50838683D01*
X151191166Y-50852724D01*
X151193290Y-50867042D01*
X151194000Y-50881500D01*
X151194000Y-51226500D01*
X151193290Y-51240958D01*
X151191166Y-51255276D01*
X151187649Y-51269317D01*
X151182772Y-51282946D01*
X151176583Y-51296031D01*
X151169142Y-51308447D01*
X151160519Y-51320073D01*
X151150798Y-51330798D01*
X151140073Y-51340519D01*
X151128447Y-51349142D01*
X151116031Y-51356583D01*
X151102946Y-51362772D01*
X151089317Y-51367649D01*
X151075276Y-51371166D01*
X151060958Y-51373290D01*
X151046500Y-51374000D01*
X150751500Y-51374000D01*
X150737042Y-51373290D01*
X150722724Y-51371166D01*
X150708683Y-51367649D01*
X150695054Y-51362772D01*
X150681969Y-51356583D01*
X150669553Y-51349142D01*
X150657927Y-51340519D01*
X150647202Y-51330798D01*
X150637481Y-51320073D01*
X150628858Y-51308447D01*
X150621417Y-51296031D01*
X150615228Y-51282946D01*
X150610351Y-51269317D01*
X150606834Y-51255276D01*
X150604710Y-51240958D01*
X150604000Y-51226500D01*
X150604000Y-50881500D01*
X150604710Y-50867042D01*
X150606834Y-50852724D01*
X150610351Y-50838683D01*
X150615228Y-50825054D01*
X150621417Y-50811969D01*
X150628858Y-50799553D01*
X150637481Y-50787927D01*
X150647202Y-50777202D01*
X150657927Y-50767481D01*
X150669553Y-50758858D01*
X150681969Y-50751417D01*
X150695054Y-50745228D01*
X150708683Y-50740351D01*
X150722724Y-50736834D01*
X150737042Y-50734710D01*
X150751500Y-50734000D01*
X151046500Y-50734000D01*
X151060958Y-50734710D01*
G37*
G36*
X152030958Y-50734710D02*
G01*
X152045276Y-50736834D01*
X152059317Y-50740351D01*
X152072946Y-50745228D01*
X152086031Y-50751417D01*
X152098447Y-50758858D01*
X152110073Y-50767481D01*
X152120798Y-50777202D01*
X152130519Y-50787927D01*
X152139142Y-50799553D01*
X152146583Y-50811969D01*
X152152772Y-50825054D01*
X152157649Y-50838683D01*
X152161166Y-50852724D01*
X152163290Y-50867042D01*
X152164000Y-50881500D01*
X152164000Y-51226500D01*
X152163290Y-51240958D01*
X152161166Y-51255276D01*
X152157649Y-51269317D01*
X152152772Y-51282946D01*
X152146583Y-51296031D01*
X152139142Y-51308447D01*
X152130519Y-51320073D01*
X152120798Y-51330798D01*
X152110073Y-51340519D01*
X152098447Y-51349142D01*
X152086031Y-51356583D01*
X152072946Y-51362772D01*
X152059317Y-51367649D01*
X152045276Y-51371166D01*
X152030958Y-51373290D01*
X152016500Y-51374000D01*
X151721500Y-51374000D01*
X151707042Y-51373290D01*
X151692724Y-51371166D01*
X151678683Y-51367649D01*
X151665054Y-51362772D01*
X151651969Y-51356583D01*
X151639553Y-51349142D01*
X151627927Y-51340519D01*
X151617202Y-51330798D01*
X151607481Y-51320073D01*
X151598858Y-51308447D01*
X151591417Y-51296031D01*
X151585228Y-51282946D01*
X151580351Y-51269317D01*
X151576834Y-51255276D01*
X151574710Y-51240958D01*
X151574000Y-51226500D01*
X151574000Y-50881500D01*
X151574710Y-50867042D01*
X151576834Y-50852724D01*
X151580351Y-50838683D01*
X151585228Y-50825054D01*
X151591417Y-50811969D01*
X151598858Y-50799553D01*
X151607481Y-50787927D01*
X151617202Y-50777202D01*
X151627927Y-50767481D01*
X151639553Y-50758858D01*
X151651969Y-50751417D01*
X151665054Y-50745228D01*
X151678683Y-50740351D01*
X151692724Y-50736834D01*
X151707042Y-50734710D01*
X151721500Y-50734000D01*
X152016500Y-50734000D01*
X152030958Y-50734710D01*
G37*
G36*
X136219458Y-49083710D02*
G01*
X136233776Y-49085834D01*
X136247817Y-49089351D01*
X136261446Y-49094228D01*
X136274531Y-49100417D01*
X136286947Y-49107858D01*
X136298573Y-49116481D01*
X136309298Y-49126202D01*
X136319019Y-49136927D01*
X136327642Y-49148553D01*
X136335083Y-49160969D01*
X136341272Y-49174054D01*
X136346149Y-49187683D01*
X136349666Y-49201724D01*
X136351790Y-49216042D01*
X136352500Y-49230500D01*
X136352500Y-49575500D01*
X136351790Y-49589958D01*
X136349666Y-49604276D01*
X136346149Y-49618317D01*
X136341272Y-49631946D01*
X136335083Y-49645031D01*
X136327642Y-49657447D01*
X136319019Y-49669073D01*
X136309298Y-49679798D01*
X136298573Y-49689519D01*
X136286947Y-49698142D01*
X136274531Y-49705583D01*
X136261446Y-49711772D01*
X136247817Y-49716649D01*
X136233776Y-49720166D01*
X136219458Y-49722290D01*
X136205000Y-49723000D01*
X135910000Y-49723000D01*
X135895542Y-49722290D01*
X135881224Y-49720166D01*
X135867183Y-49716649D01*
X135853554Y-49711772D01*
X135840469Y-49705583D01*
X135828053Y-49698142D01*
X135816427Y-49689519D01*
X135805702Y-49679798D01*
X135795981Y-49669073D01*
X135787358Y-49657447D01*
X135779917Y-49645031D01*
X135773728Y-49631946D01*
X135768851Y-49618317D01*
X135765334Y-49604276D01*
X135763210Y-49589958D01*
X135762500Y-49575500D01*
X135762500Y-49230500D01*
X135763210Y-49216042D01*
X135765334Y-49201724D01*
X135768851Y-49187683D01*
X135773728Y-49174054D01*
X135779917Y-49160969D01*
X135787358Y-49148553D01*
X135795981Y-49136927D01*
X135805702Y-49126202D01*
X135816427Y-49116481D01*
X135828053Y-49107858D01*
X135840469Y-49100417D01*
X135853554Y-49094228D01*
X135867183Y-49089351D01*
X135881224Y-49085834D01*
X135895542Y-49083710D01*
X135910000Y-49083000D01*
X136205000Y-49083000D01*
X136219458Y-49083710D01*
G37*
G36*
X135249458Y-49083710D02*
G01*
X135263776Y-49085834D01*
X135277817Y-49089351D01*
X135291446Y-49094228D01*
X135304531Y-49100417D01*
X135316947Y-49107858D01*
X135328573Y-49116481D01*
X135339298Y-49126202D01*
X135349019Y-49136927D01*
X135357642Y-49148553D01*
X135365083Y-49160969D01*
X135371272Y-49174054D01*
X135376149Y-49187683D01*
X135379666Y-49201724D01*
X135381790Y-49216042D01*
X135382500Y-49230500D01*
X135382500Y-49575500D01*
X135381790Y-49589958D01*
X135379666Y-49604276D01*
X135376149Y-49618317D01*
X135371272Y-49631946D01*
X135365083Y-49645031D01*
X135357642Y-49657447D01*
X135349019Y-49669073D01*
X135339298Y-49679798D01*
X135328573Y-49689519D01*
X135316947Y-49698142D01*
X135304531Y-49705583D01*
X135291446Y-49711772D01*
X135277817Y-49716649D01*
X135263776Y-49720166D01*
X135249458Y-49722290D01*
X135235000Y-49723000D01*
X134940000Y-49723000D01*
X134925542Y-49722290D01*
X134911224Y-49720166D01*
X134897183Y-49716649D01*
X134883554Y-49711772D01*
X134870469Y-49705583D01*
X134858053Y-49698142D01*
X134846427Y-49689519D01*
X134835702Y-49679798D01*
X134825981Y-49669073D01*
X134817358Y-49657447D01*
X134809917Y-49645031D01*
X134803728Y-49631946D01*
X134798851Y-49618317D01*
X134795334Y-49604276D01*
X134793210Y-49589958D01*
X134792500Y-49575500D01*
X134792500Y-49230500D01*
X134793210Y-49216042D01*
X134795334Y-49201724D01*
X134798851Y-49187683D01*
X134803728Y-49174054D01*
X134809917Y-49160969D01*
X134817358Y-49148553D01*
X134825981Y-49136927D01*
X134835702Y-49126202D01*
X134846427Y-49116481D01*
X134858053Y-49107858D01*
X134870469Y-49100417D01*
X134883554Y-49094228D01*
X134897183Y-49089351D01*
X134911224Y-49085834D01*
X134925542Y-49083710D01*
X134940000Y-49083000D01*
X135235000Y-49083000D01*
X135249458Y-49083710D01*
G37*
G36*
X136219458Y-47940710D02*
G01*
X136233776Y-47942834D01*
X136247817Y-47946351D01*
X136261446Y-47951228D01*
X136274531Y-47957417D01*
X136286947Y-47964858D01*
X136298573Y-47973481D01*
X136309298Y-47983202D01*
X136319019Y-47993927D01*
X136327642Y-48005553D01*
X136335083Y-48017969D01*
X136341272Y-48031054D01*
X136346149Y-48044683D01*
X136349666Y-48058724D01*
X136351790Y-48073042D01*
X136352500Y-48087500D01*
X136352500Y-48432500D01*
X136351790Y-48446958D01*
X136349666Y-48461276D01*
X136346149Y-48475317D01*
X136341272Y-48488946D01*
X136335083Y-48502031D01*
X136327642Y-48514447D01*
X136319019Y-48526073D01*
X136309298Y-48536798D01*
X136298573Y-48546519D01*
X136286947Y-48555142D01*
X136274531Y-48562583D01*
X136261446Y-48568772D01*
X136247817Y-48573649D01*
X136233776Y-48577166D01*
X136219458Y-48579290D01*
X136205000Y-48580000D01*
X135910000Y-48580000D01*
X135895542Y-48579290D01*
X135881224Y-48577166D01*
X135867183Y-48573649D01*
X135853554Y-48568772D01*
X135840469Y-48562583D01*
X135828053Y-48555142D01*
X135816427Y-48546519D01*
X135805702Y-48536798D01*
X135795981Y-48526073D01*
X135787358Y-48514447D01*
X135779917Y-48502031D01*
X135773728Y-48488946D01*
X135768851Y-48475317D01*
X135765334Y-48461276D01*
X135763210Y-48446958D01*
X135762500Y-48432500D01*
X135762500Y-48087500D01*
X135763210Y-48073042D01*
X135765334Y-48058724D01*
X135768851Y-48044683D01*
X135773728Y-48031054D01*
X135779917Y-48017969D01*
X135787358Y-48005553D01*
X135795981Y-47993927D01*
X135805702Y-47983202D01*
X135816427Y-47973481D01*
X135828053Y-47964858D01*
X135840469Y-47957417D01*
X135853554Y-47951228D01*
X135867183Y-47946351D01*
X135881224Y-47942834D01*
X135895542Y-47940710D01*
X135910000Y-47940000D01*
X136205000Y-47940000D01*
X136219458Y-47940710D01*
G37*
G36*
X135249458Y-47940710D02*
G01*
X135263776Y-47942834D01*
X135277817Y-47946351D01*
X135291446Y-47951228D01*
X135304531Y-47957417D01*
X135316947Y-47964858D01*
X135328573Y-47973481D01*
X135339298Y-47983202D01*
X135349019Y-47993927D01*
X135357642Y-48005553D01*
X135365083Y-48017969D01*
X135371272Y-48031054D01*
X135376149Y-48044683D01*
X135379666Y-48058724D01*
X135381790Y-48073042D01*
X135382500Y-48087500D01*
X135382500Y-48432500D01*
X135381790Y-48446958D01*
X135379666Y-48461276D01*
X135376149Y-48475317D01*
X135371272Y-48488946D01*
X135365083Y-48502031D01*
X135357642Y-48514447D01*
X135349019Y-48526073D01*
X135339298Y-48536798D01*
X135328573Y-48546519D01*
X135316947Y-48555142D01*
X135304531Y-48562583D01*
X135291446Y-48568772D01*
X135277817Y-48573649D01*
X135263776Y-48577166D01*
X135249458Y-48579290D01*
X135235000Y-48580000D01*
X134940000Y-48580000D01*
X134925542Y-48579290D01*
X134911224Y-48577166D01*
X134897183Y-48573649D01*
X134883554Y-48568772D01*
X134870469Y-48562583D01*
X134858053Y-48555142D01*
X134846427Y-48546519D01*
X134835702Y-48536798D01*
X134825981Y-48526073D01*
X134817358Y-48514447D01*
X134809917Y-48502031D01*
X134803728Y-48488946D01*
X134798851Y-48475317D01*
X134795334Y-48461276D01*
X134793210Y-48446958D01*
X134792500Y-48432500D01*
X134792500Y-48087500D01*
X134793210Y-48073042D01*
X134795334Y-48058724D01*
X134798851Y-48044683D01*
X134803728Y-48031054D01*
X134809917Y-48017969D01*
X134817358Y-48005553D01*
X134825981Y-47993927D01*
X134835702Y-47983202D01*
X134846427Y-47973481D01*
X134858053Y-47964858D01*
X134870469Y-47957417D01*
X134883554Y-47951228D01*
X134897183Y-47946351D01*
X134911224Y-47942834D01*
X134925542Y-47940710D01*
X134940000Y-47940000D01*
X135235000Y-47940000D01*
X135249458Y-47940710D01*
G37*
G36*
X151060958Y-51877710D02*
G01*
X151075276Y-51879834D01*
X151089317Y-51883351D01*
X151102946Y-51888228D01*
X151116031Y-51894417D01*
X151128447Y-51901858D01*
X151140073Y-51910481D01*
X151150798Y-51920202D01*
X151160519Y-51930927D01*
X151169142Y-51942553D01*
X151176583Y-51954969D01*
X151182772Y-51968054D01*
X151187649Y-51981683D01*
X151191166Y-51995724D01*
X151193290Y-52010042D01*
X151194000Y-52024500D01*
X151194000Y-52369500D01*
X151193290Y-52383958D01*
X151191166Y-52398276D01*
X151187649Y-52412317D01*
X151182772Y-52425946D01*
X151176583Y-52439031D01*
X151169142Y-52451447D01*
X151160519Y-52463073D01*
X151150798Y-52473798D01*
X151140073Y-52483519D01*
X151128447Y-52492142D01*
X151116031Y-52499583D01*
X151102946Y-52505772D01*
X151089317Y-52510649D01*
X151075276Y-52514166D01*
X151060958Y-52516290D01*
X151046500Y-52517000D01*
X150751500Y-52517000D01*
X150737042Y-52516290D01*
X150722724Y-52514166D01*
X150708683Y-52510649D01*
X150695054Y-52505772D01*
X150681969Y-52499583D01*
X150669553Y-52492142D01*
X150657927Y-52483519D01*
X150647202Y-52473798D01*
X150637481Y-52463073D01*
X150628858Y-52451447D01*
X150621417Y-52439031D01*
X150615228Y-52425946D01*
X150610351Y-52412317D01*
X150606834Y-52398276D01*
X150604710Y-52383958D01*
X150604000Y-52369500D01*
X150604000Y-52024500D01*
X150604710Y-52010042D01*
X150606834Y-51995724D01*
X150610351Y-51981683D01*
X150615228Y-51968054D01*
X150621417Y-51954969D01*
X150628858Y-51942553D01*
X150637481Y-51930927D01*
X150647202Y-51920202D01*
X150657927Y-51910481D01*
X150669553Y-51901858D01*
X150681969Y-51894417D01*
X150695054Y-51888228D01*
X150708683Y-51883351D01*
X150722724Y-51879834D01*
X150737042Y-51877710D01*
X150751500Y-51877000D01*
X151046500Y-51877000D01*
X151060958Y-51877710D01*
G37*
G36*
X152030958Y-51877710D02*
G01*
X152045276Y-51879834D01*
X152059317Y-51883351D01*
X152072946Y-51888228D01*
X152086031Y-51894417D01*
X152098447Y-51901858D01*
X152110073Y-51910481D01*
X152120798Y-51920202D01*
X152130519Y-51930927D01*
X152139142Y-51942553D01*
X152146583Y-51954969D01*
X152152772Y-51968054D01*
X152157649Y-51981683D01*
X152161166Y-51995724D01*
X152163290Y-52010042D01*
X152164000Y-52024500D01*
X152164000Y-52369500D01*
X152163290Y-52383958D01*
X152161166Y-52398276D01*
X152157649Y-52412317D01*
X152152772Y-52425946D01*
X152146583Y-52439031D01*
X152139142Y-52451447D01*
X152130519Y-52463073D01*
X152120798Y-52473798D01*
X152110073Y-52483519D01*
X152098447Y-52492142D01*
X152086031Y-52499583D01*
X152072946Y-52505772D01*
X152059317Y-52510649D01*
X152045276Y-52514166D01*
X152030958Y-52516290D01*
X152016500Y-52517000D01*
X151721500Y-52517000D01*
X151707042Y-52516290D01*
X151692724Y-52514166D01*
X151678683Y-52510649D01*
X151665054Y-52505772D01*
X151651969Y-52499583D01*
X151639553Y-52492142D01*
X151627927Y-52483519D01*
X151617202Y-52473798D01*
X151607481Y-52463073D01*
X151598858Y-52451447D01*
X151591417Y-52439031D01*
X151585228Y-52425946D01*
X151580351Y-52412317D01*
X151576834Y-52398276D01*
X151574710Y-52383958D01*
X151574000Y-52369500D01*
X151574000Y-52024500D01*
X151574710Y-52010042D01*
X151576834Y-51995724D01*
X151580351Y-51981683D01*
X151585228Y-51968054D01*
X151591417Y-51954969D01*
X151598858Y-51942553D01*
X151607481Y-51930927D01*
X151617202Y-51920202D01*
X151627927Y-51910481D01*
X151639553Y-51901858D01*
X151651969Y-51894417D01*
X151665054Y-51888228D01*
X151678683Y-51883351D01*
X151692724Y-51879834D01*
X151707042Y-51877710D01*
X151721500Y-51877000D01*
X152016500Y-51877000D01*
X152030958Y-51877710D01*
G37*
G36*
X155586958Y-18222710D02*
G01*
X155601276Y-18224834D01*
X155615317Y-18228351D01*
X155628946Y-18233228D01*
X155642031Y-18239417D01*
X155654447Y-18246858D01*
X155666073Y-18255481D01*
X155676798Y-18265202D01*
X155686519Y-18275927D01*
X155695142Y-18287553D01*
X155702583Y-18299969D01*
X155708772Y-18313054D01*
X155713649Y-18326683D01*
X155717166Y-18340724D01*
X155719290Y-18355042D01*
X155720000Y-18369500D01*
X155720000Y-18714500D01*
X155719290Y-18728958D01*
X155717166Y-18743276D01*
X155713649Y-18757317D01*
X155708772Y-18770946D01*
X155702583Y-18784031D01*
X155695142Y-18796447D01*
X155686519Y-18808073D01*
X155676798Y-18818798D01*
X155666073Y-18828519D01*
X155654447Y-18837142D01*
X155642031Y-18844583D01*
X155628946Y-18850772D01*
X155615317Y-18855649D01*
X155601276Y-18859166D01*
X155586958Y-18861290D01*
X155572500Y-18862000D01*
X155277500Y-18862000D01*
X155263042Y-18861290D01*
X155248724Y-18859166D01*
X155234683Y-18855649D01*
X155221054Y-18850772D01*
X155207969Y-18844583D01*
X155195553Y-18837142D01*
X155183927Y-18828519D01*
X155173202Y-18818798D01*
X155163481Y-18808073D01*
X155154858Y-18796447D01*
X155147417Y-18784031D01*
X155141228Y-18770946D01*
X155136351Y-18757317D01*
X155132834Y-18743276D01*
X155130710Y-18728958D01*
X155130000Y-18714500D01*
X155130000Y-18369500D01*
X155130710Y-18355042D01*
X155132834Y-18340724D01*
X155136351Y-18326683D01*
X155141228Y-18313054D01*
X155147417Y-18299969D01*
X155154858Y-18287553D01*
X155163481Y-18275927D01*
X155173202Y-18265202D01*
X155183927Y-18255481D01*
X155195553Y-18246858D01*
X155207969Y-18239417D01*
X155221054Y-18233228D01*
X155234683Y-18228351D01*
X155248724Y-18224834D01*
X155263042Y-18222710D01*
X155277500Y-18222000D01*
X155572500Y-18222000D01*
X155586958Y-18222710D01*
G37*
G36*
X154616958Y-18222710D02*
G01*
X154631276Y-18224834D01*
X154645317Y-18228351D01*
X154658946Y-18233228D01*
X154672031Y-18239417D01*
X154684447Y-18246858D01*
X154696073Y-18255481D01*
X154706798Y-18265202D01*
X154716519Y-18275927D01*
X154725142Y-18287553D01*
X154732583Y-18299969D01*
X154738772Y-18313054D01*
X154743649Y-18326683D01*
X154747166Y-18340724D01*
X154749290Y-18355042D01*
X154750000Y-18369500D01*
X154750000Y-18714500D01*
X154749290Y-18728958D01*
X154747166Y-18743276D01*
X154743649Y-18757317D01*
X154738772Y-18770946D01*
X154732583Y-18784031D01*
X154725142Y-18796447D01*
X154716519Y-18808073D01*
X154706798Y-18818798D01*
X154696073Y-18828519D01*
X154684447Y-18837142D01*
X154672031Y-18844583D01*
X154658946Y-18850772D01*
X154645317Y-18855649D01*
X154631276Y-18859166D01*
X154616958Y-18861290D01*
X154602500Y-18862000D01*
X154307500Y-18862000D01*
X154293042Y-18861290D01*
X154278724Y-18859166D01*
X154264683Y-18855649D01*
X154251054Y-18850772D01*
X154237969Y-18844583D01*
X154225553Y-18837142D01*
X154213927Y-18828519D01*
X154203202Y-18818798D01*
X154193481Y-18808073D01*
X154184858Y-18796447D01*
X154177417Y-18784031D01*
X154171228Y-18770946D01*
X154166351Y-18757317D01*
X154162834Y-18743276D01*
X154160710Y-18728958D01*
X154160000Y-18714500D01*
X154160000Y-18369500D01*
X154160710Y-18355042D01*
X154162834Y-18340724D01*
X154166351Y-18326683D01*
X154171228Y-18313054D01*
X154177417Y-18299969D01*
X154184858Y-18287553D01*
X154193481Y-18275927D01*
X154203202Y-18265202D01*
X154213927Y-18255481D01*
X154225553Y-18246858D01*
X154237969Y-18239417D01*
X154251054Y-18233228D01*
X154264683Y-18228351D01*
X154278724Y-18224834D01*
X154293042Y-18222710D01*
X154307500Y-18222000D01*
X154602500Y-18222000D01*
X154616958Y-18222710D01*
G37*
G36*
X134832358Y-63868510D02*
G01*
X134846676Y-63870634D01*
X134860717Y-63874151D01*
X134874346Y-63879028D01*
X134887431Y-63885217D01*
X134899847Y-63892658D01*
X134911473Y-63901281D01*
X134922198Y-63911002D01*
X134931919Y-63921727D01*
X134940542Y-63933353D01*
X134947983Y-63945769D01*
X134954172Y-63958854D01*
X134959049Y-63972483D01*
X134962566Y-63986524D01*
X134964690Y-64000842D01*
X134965400Y-64015300D01*
X134965400Y-64310300D01*
X134964690Y-64324758D01*
X134962566Y-64339076D01*
X134959049Y-64353117D01*
X134954172Y-64366746D01*
X134947983Y-64379831D01*
X134940542Y-64392247D01*
X134931919Y-64403873D01*
X134922198Y-64414598D01*
X134911473Y-64424319D01*
X134899847Y-64432942D01*
X134887431Y-64440383D01*
X134874346Y-64446572D01*
X134860717Y-64451449D01*
X134846676Y-64454966D01*
X134832358Y-64457090D01*
X134817900Y-64457800D01*
X134472900Y-64457800D01*
X134458442Y-64457090D01*
X134444124Y-64454966D01*
X134430083Y-64451449D01*
X134416454Y-64446572D01*
X134403369Y-64440383D01*
X134390953Y-64432942D01*
X134379327Y-64424319D01*
X134368602Y-64414598D01*
X134358881Y-64403873D01*
X134350258Y-64392247D01*
X134342817Y-64379831D01*
X134336628Y-64366746D01*
X134331751Y-64353117D01*
X134328234Y-64339076D01*
X134326110Y-64324758D01*
X134325400Y-64310300D01*
X134325400Y-64015300D01*
X134326110Y-64000842D01*
X134328234Y-63986524D01*
X134331751Y-63972483D01*
X134336628Y-63958854D01*
X134342817Y-63945769D01*
X134350258Y-63933353D01*
X134358881Y-63921727D01*
X134368602Y-63911002D01*
X134379327Y-63901281D01*
X134390953Y-63892658D01*
X134403369Y-63885217D01*
X134416454Y-63879028D01*
X134430083Y-63874151D01*
X134444124Y-63870634D01*
X134458442Y-63868510D01*
X134472900Y-63867800D01*
X134817900Y-63867800D01*
X134832358Y-63868510D01*
G37*
G36*
X134832358Y-62898510D02*
G01*
X134846676Y-62900634D01*
X134860717Y-62904151D01*
X134874346Y-62909028D01*
X134887431Y-62915217D01*
X134899847Y-62922658D01*
X134911473Y-62931281D01*
X134922198Y-62941002D01*
X134931919Y-62951727D01*
X134940542Y-62963353D01*
X134947983Y-62975769D01*
X134954172Y-62988854D01*
X134959049Y-63002483D01*
X134962566Y-63016524D01*
X134964690Y-63030842D01*
X134965400Y-63045300D01*
X134965400Y-63340300D01*
X134964690Y-63354758D01*
X134962566Y-63369076D01*
X134959049Y-63383117D01*
X134954172Y-63396746D01*
X134947983Y-63409831D01*
X134940542Y-63422247D01*
X134931919Y-63433873D01*
X134922198Y-63444598D01*
X134911473Y-63454319D01*
X134899847Y-63462942D01*
X134887431Y-63470383D01*
X134874346Y-63476572D01*
X134860717Y-63481449D01*
X134846676Y-63484966D01*
X134832358Y-63487090D01*
X134817900Y-63487800D01*
X134472900Y-63487800D01*
X134458442Y-63487090D01*
X134444124Y-63484966D01*
X134430083Y-63481449D01*
X134416454Y-63476572D01*
X134403369Y-63470383D01*
X134390953Y-63462942D01*
X134379327Y-63454319D01*
X134368602Y-63444598D01*
X134358881Y-63433873D01*
X134350258Y-63422247D01*
X134342817Y-63409831D01*
X134336628Y-63396746D01*
X134331751Y-63383117D01*
X134328234Y-63369076D01*
X134326110Y-63354758D01*
X134325400Y-63340300D01*
X134325400Y-63045300D01*
X134326110Y-63030842D01*
X134328234Y-63016524D01*
X134331751Y-63002483D01*
X134336628Y-62988854D01*
X134342817Y-62975769D01*
X134350258Y-62963353D01*
X134358881Y-62951727D01*
X134368602Y-62941002D01*
X134379327Y-62931281D01*
X134390953Y-62922658D01*
X134403369Y-62915217D01*
X134416454Y-62909028D01*
X134430083Y-62904151D01*
X134444124Y-62900634D01*
X134458442Y-62898510D01*
X134472900Y-62897800D01*
X134817900Y-62897800D01*
X134832358Y-62898510D01*
G37*
G36*
X136196458Y-53655710D02*
G01*
X136210776Y-53657834D01*
X136224817Y-53661351D01*
X136238446Y-53666228D01*
X136251531Y-53672417D01*
X136263947Y-53679858D01*
X136275573Y-53688481D01*
X136286298Y-53698202D01*
X136296019Y-53708927D01*
X136304642Y-53720553D01*
X136312083Y-53732969D01*
X136318272Y-53746054D01*
X136323149Y-53759683D01*
X136326666Y-53773724D01*
X136328790Y-53788042D01*
X136329500Y-53802500D01*
X136329500Y-54147500D01*
X136328790Y-54161958D01*
X136326666Y-54176276D01*
X136323149Y-54190317D01*
X136318272Y-54203946D01*
X136312083Y-54217031D01*
X136304642Y-54229447D01*
X136296019Y-54241073D01*
X136286298Y-54251798D01*
X136275573Y-54261519D01*
X136263947Y-54270142D01*
X136251531Y-54277583D01*
X136238446Y-54283772D01*
X136224817Y-54288649D01*
X136210776Y-54292166D01*
X136196458Y-54294290D01*
X136182000Y-54295000D01*
X135887000Y-54295000D01*
X135872542Y-54294290D01*
X135858224Y-54292166D01*
X135844183Y-54288649D01*
X135830554Y-54283772D01*
X135817469Y-54277583D01*
X135805053Y-54270142D01*
X135793427Y-54261519D01*
X135782702Y-54251798D01*
X135772981Y-54241073D01*
X135764358Y-54229447D01*
X135756917Y-54217031D01*
X135750728Y-54203946D01*
X135745851Y-54190317D01*
X135742334Y-54176276D01*
X135740210Y-54161958D01*
X135739500Y-54147500D01*
X135739500Y-53802500D01*
X135740210Y-53788042D01*
X135742334Y-53773724D01*
X135745851Y-53759683D01*
X135750728Y-53746054D01*
X135756917Y-53732969D01*
X135764358Y-53720553D01*
X135772981Y-53708927D01*
X135782702Y-53698202D01*
X135793427Y-53688481D01*
X135805053Y-53679858D01*
X135817469Y-53672417D01*
X135830554Y-53666228D01*
X135844183Y-53661351D01*
X135858224Y-53657834D01*
X135872542Y-53655710D01*
X135887000Y-53655000D01*
X136182000Y-53655000D01*
X136196458Y-53655710D01*
G37*
G36*
X135226458Y-53655710D02*
G01*
X135240776Y-53657834D01*
X135254817Y-53661351D01*
X135268446Y-53666228D01*
X135281531Y-53672417D01*
X135293947Y-53679858D01*
X135305573Y-53688481D01*
X135316298Y-53698202D01*
X135326019Y-53708927D01*
X135334642Y-53720553D01*
X135342083Y-53732969D01*
X135348272Y-53746054D01*
X135353149Y-53759683D01*
X135356666Y-53773724D01*
X135358790Y-53788042D01*
X135359500Y-53802500D01*
X135359500Y-54147500D01*
X135358790Y-54161958D01*
X135356666Y-54176276D01*
X135353149Y-54190317D01*
X135348272Y-54203946D01*
X135342083Y-54217031D01*
X135334642Y-54229447D01*
X135326019Y-54241073D01*
X135316298Y-54251798D01*
X135305573Y-54261519D01*
X135293947Y-54270142D01*
X135281531Y-54277583D01*
X135268446Y-54283772D01*
X135254817Y-54288649D01*
X135240776Y-54292166D01*
X135226458Y-54294290D01*
X135212000Y-54295000D01*
X134917000Y-54295000D01*
X134902542Y-54294290D01*
X134888224Y-54292166D01*
X134874183Y-54288649D01*
X134860554Y-54283772D01*
X134847469Y-54277583D01*
X134835053Y-54270142D01*
X134823427Y-54261519D01*
X134812702Y-54251798D01*
X134802981Y-54241073D01*
X134794358Y-54229447D01*
X134786917Y-54217031D01*
X134780728Y-54203946D01*
X134775851Y-54190317D01*
X134772334Y-54176276D01*
X134770210Y-54161958D01*
X134769500Y-54147500D01*
X134769500Y-53802500D01*
X134770210Y-53788042D01*
X134772334Y-53773724D01*
X134775851Y-53759683D01*
X134780728Y-53746054D01*
X134786917Y-53732969D01*
X134794358Y-53720553D01*
X134802981Y-53708927D01*
X134812702Y-53698202D01*
X134823427Y-53688481D01*
X134835053Y-53679858D01*
X134847469Y-53672417D01*
X134860554Y-53666228D01*
X134874183Y-53661351D01*
X134888224Y-53657834D01*
X134902542Y-53655710D01*
X134917000Y-53655000D01*
X135212000Y-53655000D01*
X135226458Y-53655710D01*
G37*
G36*
X154616958Y-19302210D02*
G01*
X154631276Y-19304334D01*
X154645317Y-19307851D01*
X154658946Y-19312728D01*
X154672031Y-19318917D01*
X154684447Y-19326358D01*
X154696073Y-19334981D01*
X154706798Y-19344702D01*
X154716519Y-19355427D01*
X154725142Y-19367053D01*
X154732583Y-19379469D01*
X154738772Y-19392554D01*
X154743649Y-19406183D01*
X154747166Y-19420224D01*
X154749290Y-19434542D01*
X154750000Y-19449000D01*
X154750000Y-19794000D01*
X154749290Y-19808458D01*
X154747166Y-19822776D01*
X154743649Y-19836817D01*
X154738772Y-19850446D01*
X154732583Y-19863531D01*
X154725142Y-19875947D01*
X154716519Y-19887573D01*
X154706798Y-19898298D01*
X154696073Y-19908019D01*
X154684447Y-19916642D01*
X154672031Y-19924083D01*
X154658946Y-19930272D01*
X154645317Y-19935149D01*
X154631276Y-19938666D01*
X154616958Y-19940790D01*
X154602500Y-19941500D01*
X154307500Y-19941500D01*
X154293042Y-19940790D01*
X154278724Y-19938666D01*
X154264683Y-19935149D01*
X154251054Y-19930272D01*
X154237969Y-19924083D01*
X154225553Y-19916642D01*
X154213927Y-19908019D01*
X154203202Y-19898298D01*
X154193481Y-19887573D01*
X154184858Y-19875947D01*
X154177417Y-19863531D01*
X154171228Y-19850446D01*
X154166351Y-19836817D01*
X154162834Y-19822776D01*
X154160710Y-19808458D01*
X154160000Y-19794000D01*
X154160000Y-19449000D01*
X154160710Y-19434542D01*
X154162834Y-19420224D01*
X154166351Y-19406183D01*
X154171228Y-19392554D01*
X154177417Y-19379469D01*
X154184858Y-19367053D01*
X154193481Y-19355427D01*
X154203202Y-19344702D01*
X154213927Y-19334981D01*
X154225553Y-19326358D01*
X154237969Y-19318917D01*
X154251054Y-19312728D01*
X154264683Y-19307851D01*
X154278724Y-19304334D01*
X154293042Y-19302210D01*
X154307500Y-19301500D01*
X154602500Y-19301500D01*
X154616958Y-19302210D01*
G37*
G36*
X155586958Y-19302210D02*
G01*
X155601276Y-19304334D01*
X155615317Y-19307851D01*
X155628946Y-19312728D01*
X155642031Y-19318917D01*
X155654447Y-19326358D01*
X155666073Y-19334981D01*
X155676798Y-19344702D01*
X155686519Y-19355427D01*
X155695142Y-19367053D01*
X155702583Y-19379469D01*
X155708772Y-19392554D01*
X155713649Y-19406183D01*
X155717166Y-19420224D01*
X155719290Y-19434542D01*
X155720000Y-19449000D01*
X155720000Y-19794000D01*
X155719290Y-19808458D01*
X155717166Y-19822776D01*
X155713649Y-19836817D01*
X155708772Y-19850446D01*
X155702583Y-19863531D01*
X155695142Y-19875947D01*
X155686519Y-19887573D01*
X155676798Y-19898298D01*
X155666073Y-19908019D01*
X155654447Y-19916642D01*
X155642031Y-19924083D01*
X155628946Y-19930272D01*
X155615317Y-19935149D01*
X155601276Y-19938666D01*
X155586958Y-19940790D01*
X155572500Y-19941500D01*
X155277500Y-19941500D01*
X155263042Y-19940790D01*
X155248724Y-19938666D01*
X155234683Y-19935149D01*
X155221054Y-19930272D01*
X155207969Y-19924083D01*
X155195553Y-19916642D01*
X155183927Y-19908019D01*
X155173202Y-19898298D01*
X155163481Y-19887573D01*
X155154858Y-19875947D01*
X155147417Y-19863531D01*
X155141228Y-19850446D01*
X155136351Y-19836817D01*
X155132834Y-19822776D01*
X155130710Y-19808458D01*
X155130000Y-19794000D01*
X155130000Y-19449000D01*
X155130710Y-19434542D01*
X155132834Y-19420224D01*
X155136351Y-19406183D01*
X155141228Y-19392554D01*
X155147417Y-19379469D01*
X155154858Y-19367053D01*
X155163481Y-19355427D01*
X155173202Y-19344702D01*
X155183927Y-19334981D01*
X155195553Y-19326358D01*
X155207969Y-19318917D01*
X155221054Y-19312728D01*
X155234683Y-19307851D01*
X155248724Y-19304334D01*
X155263042Y-19302210D01*
X155277500Y-19301500D01*
X155572500Y-19301500D01*
X155586958Y-19302210D01*
G37*
G36*
X135272458Y-43368710D02*
G01*
X135286776Y-43370834D01*
X135300817Y-43374351D01*
X135314446Y-43379228D01*
X135327531Y-43385417D01*
X135339947Y-43392858D01*
X135351573Y-43401481D01*
X135362298Y-43411202D01*
X135372019Y-43421927D01*
X135380642Y-43433553D01*
X135388083Y-43445969D01*
X135394272Y-43459054D01*
X135399149Y-43472683D01*
X135402666Y-43486724D01*
X135404790Y-43501042D01*
X135405500Y-43515500D01*
X135405500Y-43860500D01*
X135404790Y-43874958D01*
X135402666Y-43889276D01*
X135399149Y-43903317D01*
X135394272Y-43916946D01*
X135388083Y-43930031D01*
X135380642Y-43942447D01*
X135372019Y-43954073D01*
X135362298Y-43964798D01*
X135351573Y-43974519D01*
X135339947Y-43983142D01*
X135327531Y-43990583D01*
X135314446Y-43996772D01*
X135300817Y-44001649D01*
X135286776Y-44005166D01*
X135272458Y-44007290D01*
X135258000Y-44008000D01*
X134963000Y-44008000D01*
X134948542Y-44007290D01*
X134934224Y-44005166D01*
X134920183Y-44001649D01*
X134906554Y-43996772D01*
X134893469Y-43990583D01*
X134881053Y-43983142D01*
X134869427Y-43974519D01*
X134858702Y-43964798D01*
X134848981Y-43954073D01*
X134840358Y-43942447D01*
X134832917Y-43930031D01*
X134826728Y-43916946D01*
X134821851Y-43903317D01*
X134818334Y-43889276D01*
X134816210Y-43874958D01*
X134815500Y-43860500D01*
X134815500Y-43515500D01*
X134816210Y-43501042D01*
X134818334Y-43486724D01*
X134821851Y-43472683D01*
X134826728Y-43459054D01*
X134832917Y-43445969D01*
X134840358Y-43433553D01*
X134848981Y-43421927D01*
X134858702Y-43411202D01*
X134869427Y-43401481D01*
X134881053Y-43392858D01*
X134893469Y-43385417D01*
X134906554Y-43379228D01*
X134920183Y-43374351D01*
X134934224Y-43370834D01*
X134948542Y-43368710D01*
X134963000Y-43368000D01*
X135258000Y-43368000D01*
X135272458Y-43368710D01*
G37*
G36*
X136242458Y-43368710D02*
G01*
X136256776Y-43370834D01*
X136270817Y-43374351D01*
X136284446Y-43379228D01*
X136297531Y-43385417D01*
X136309947Y-43392858D01*
X136321573Y-43401481D01*
X136332298Y-43411202D01*
X136342019Y-43421927D01*
X136350642Y-43433553D01*
X136358083Y-43445969D01*
X136364272Y-43459054D01*
X136369149Y-43472683D01*
X136372666Y-43486724D01*
X136374790Y-43501042D01*
X136375500Y-43515500D01*
X136375500Y-43860500D01*
X136374790Y-43874958D01*
X136372666Y-43889276D01*
X136369149Y-43903317D01*
X136364272Y-43916946D01*
X136358083Y-43930031D01*
X136350642Y-43942447D01*
X136342019Y-43954073D01*
X136332298Y-43964798D01*
X136321573Y-43974519D01*
X136309947Y-43983142D01*
X136297531Y-43990583D01*
X136284446Y-43996772D01*
X136270817Y-44001649D01*
X136256776Y-44005166D01*
X136242458Y-44007290D01*
X136228000Y-44008000D01*
X135933000Y-44008000D01*
X135918542Y-44007290D01*
X135904224Y-44005166D01*
X135890183Y-44001649D01*
X135876554Y-43996772D01*
X135863469Y-43990583D01*
X135851053Y-43983142D01*
X135839427Y-43974519D01*
X135828702Y-43964798D01*
X135818981Y-43954073D01*
X135810358Y-43942447D01*
X135802917Y-43930031D01*
X135796728Y-43916946D01*
X135791851Y-43903317D01*
X135788334Y-43889276D01*
X135786210Y-43874958D01*
X135785500Y-43860500D01*
X135785500Y-43515500D01*
X135786210Y-43501042D01*
X135788334Y-43486724D01*
X135791851Y-43472683D01*
X135796728Y-43459054D01*
X135802917Y-43445969D01*
X135810358Y-43433553D01*
X135818981Y-43421927D01*
X135828702Y-43411202D01*
X135839427Y-43401481D01*
X135851053Y-43392858D01*
X135863469Y-43385417D01*
X135876554Y-43379228D01*
X135890183Y-43374351D01*
X135904224Y-43370834D01*
X135918542Y-43368710D01*
X135933000Y-43368000D01*
X136228000Y-43368000D01*
X136242458Y-43368710D01*
G37*
G36*
X136206758Y-46772310D02*
G01*
X136221076Y-46774434D01*
X136235117Y-46777951D01*
X136248746Y-46782828D01*
X136261831Y-46789017D01*
X136274247Y-46796458D01*
X136285873Y-46805081D01*
X136296598Y-46814802D01*
X136306319Y-46825527D01*
X136314942Y-46837153D01*
X136322383Y-46849569D01*
X136328572Y-46862654D01*
X136333449Y-46876283D01*
X136336966Y-46890324D01*
X136339090Y-46904642D01*
X136339800Y-46919100D01*
X136339800Y-47264100D01*
X136339090Y-47278558D01*
X136336966Y-47292876D01*
X136333449Y-47306917D01*
X136328572Y-47320546D01*
X136322383Y-47333631D01*
X136314942Y-47346047D01*
X136306319Y-47357673D01*
X136296598Y-47368398D01*
X136285873Y-47378119D01*
X136274247Y-47386742D01*
X136261831Y-47394183D01*
X136248746Y-47400372D01*
X136235117Y-47405249D01*
X136221076Y-47408766D01*
X136206758Y-47410890D01*
X136192300Y-47411600D01*
X135897300Y-47411600D01*
X135882842Y-47410890D01*
X135868524Y-47408766D01*
X135854483Y-47405249D01*
X135840854Y-47400372D01*
X135827769Y-47394183D01*
X135815353Y-47386742D01*
X135803727Y-47378119D01*
X135793002Y-47368398D01*
X135783281Y-47357673D01*
X135774658Y-47346047D01*
X135767217Y-47333631D01*
X135761028Y-47320546D01*
X135756151Y-47306917D01*
X135752634Y-47292876D01*
X135750510Y-47278558D01*
X135749800Y-47264100D01*
X135749800Y-46919100D01*
X135750510Y-46904642D01*
X135752634Y-46890324D01*
X135756151Y-46876283D01*
X135761028Y-46862654D01*
X135767217Y-46849569D01*
X135774658Y-46837153D01*
X135783281Y-46825527D01*
X135793002Y-46814802D01*
X135803727Y-46805081D01*
X135815353Y-46796458D01*
X135827769Y-46789017D01*
X135840854Y-46782828D01*
X135854483Y-46777951D01*
X135868524Y-46774434D01*
X135882842Y-46772310D01*
X135897300Y-46771600D01*
X136192300Y-46771600D01*
X136206758Y-46772310D01*
G37*
G36*
X135236758Y-46772310D02*
G01*
X135251076Y-46774434D01*
X135265117Y-46777951D01*
X135278746Y-46782828D01*
X135291831Y-46789017D01*
X135304247Y-46796458D01*
X135315873Y-46805081D01*
X135326598Y-46814802D01*
X135336319Y-46825527D01*
X135344942Y-46837153D01*
X135352383Y-46849569D01*
X135358572Y-46862654D01*
X135363449Y-46876283D01*
X135366966Y-46890324D01*
X135369090Y-46904642D01*
X135369800Y-46919100D01*
X135369800Y-47264100D01*
X135369090Y-47278558D01*
X135366966Y-47292876D01*
X135363449Y-47306917D01*
X135358572Y-47320546D01*
X135352383Y-47333631D01*
X135344942Y-47346047D01*
X135336319Y-47357673D01*
X135326598Y-47368398D01*
X135315873Y-47378119D01*
X135304247Y-47386742D01*
X135291831Y-47394183D01*
X135278746Y-47400372D01*
X135265117Y-47405249D01*
X135251076Y-47408766D01*
X135236758Y-47410890D01*
X135222300Y-47411600D01*
X134927300Y-47411600D01*
X134912842Y-47410890D01*
X134898524Y-47408766D01*
X134884483Y-47405249D01*
X134870854Y-47400372D01*
X134857769Y-47394183D01*
X134845353Y-47386742D01*
X134833727Y-47378119D01*
X134823002Y-47368398D01*
X134813281Y-47357673D01*
X134804658Y-47346047D01*
X134797217Y-47333631D01*
X134791028Y-47320546D01*
X134786151Y-47306917D01*
X134782634Y-47292876D01*
X134780510Y-47278558D01*
X134779800Y-47264100D01*
X134779800Y-46919100D01*
X134780510Y-46904642D01*
X134782634Y-46890324D01*
X134786151Y-46876283D01*
X134791028Y-46862654D01*
X134797217Y-46849569D01*
X134804658Y-46837153D01*
X134813281Y-46825527D01*
X134823002Y-46814802D01*
X134833727Y-46805081D01*
X134845353Y-46796458D01*
X134857769Y-46789017D01*
X134870854Y-46782828D01*
X134884483Y-46777951D01*
X134898524Y-46774434D01*
X134912842Y-46772310D01*
X134927300Y-46771600D01*
X135222300Y-46771600D01*
X135236758Y-46772310D01*
G37*
M02*
