G04 #@! TF.GenerationSoftware,KiCad,Pcbnew,(5.1.5-0)*
G04 #@! TF.CreationDate,2022-04-04T15:40:44-07:00*
G04 #@! TF.ProjectId,wvr_v.1.0,7776725f-762e-4312-9e30-2e6b69636164,rev?*
G04 #@! TF.SameCoordinates,Original*
G04 #@! TF.FileFunction,Paste,Bot*
G04 #@! TF.FilePolarity,Positive*
%FSLAX46Y46*%
G04 Gerber Fmt 4.6, Leading zero omitted, Abs format (unit mm)*
G04 Created by KiCad (PCBNEW (5.1.5-0)) date 2022-04-04 15:40:44*
%MOMM*%
%LPD*%
G04 APERTURE LIST*
%ADD10C,0.100000*%
%ADD11O,2.748280X1.998980*%
G04 APERTURE END LIST*
D10*
G36*
X139160779Y-34526144D02*
G01*
X139183834Y-34529563D01*
X139206443Y-34535227D01*
X139228387Y-34543079D01*
X139249457Y-34553044D01*
X139269448Y-34565026D01*
X139288168Y-34578910D01*
X139305438Y-34594562D01*
X139321090Y-34611832D01*
X139334974Y-34630552D01*
X139346956Y-34650543D01*
X139356921Y-34671613D01*
X139364773Y-34693557D01*
X139370437Y-34716166D01*
X139373856Y-34739221D01*
X139375000Y-34762500D01*
X139375000Y-35237500D01*
X139373856Y-35260779D01*
X139370437Y-35283834D01*
X139364773Y-35306443D01*
X139356921Y-35328387D01*
X139346956Y-35349457D01*
X139334974Y-35369448D01*
X139321090Y-35388168D01*
X139305438Y-35405438D01*
X139288168Y-35421090D01*
X139269448Y-35434974D01*
X139249457Y-35446956D01*
X139228387Y-35456921D01*
X139206443Y-35464773D01*
X139183834Y-35470437D01*
X139160779Y-35473856D01*
X139137500Y-35475000D01*
X138562500Y-35475000D01*
X138539221Y-35473856D01*
X138516166Y-35470437D01*
X138493557Y-35464773D01*
X138471613Y-35456921D01*
X138450543Y-35446956D01*
X138430552Y-35434974D01*
X138411832Y-35421090D01*
X138394562Y-35405438D01*
X138378910Y-35388168D01*
X138365026Y-35369448D01*
X138353044Y-35349457D01*
X138343079Y-35328387D01*
X138335227Y-35306443D01*
X138329563Y-35283834D01*
X138326144Y-35260779D01*
X138325000Y-35237500D01*
X138325000Y-34762500D01*
X138326144Y-34739221D01*
X138329563Y-34716166D01*
X138335227Y-34693557D01*
X138343079Y-34671613D01*
X138353044Y-34650543D01*
X138365026Y-34630552D01*
X138378910Y-34611832D01*
X138394562Y-34594562D01*
X138411832Y-34578910D01*
X138430552Y-34565026D01*
X138450543Y-34553044D01*
X138471613Y-34543079D01*
X138493557Y-34535227D01*
X138516166Y-34529563D01*
X138539221Y-34526144D01*
X138562500Y-34525000D01*
X139137500Y-34525000D01*
X139160779Y-34526144D01*
G37*
G36*
X140910779Y-34526144D02*
G01*
X140933834Y-34529563D01*
X140956443Y-34535227D01*
X140978387Y-34543079D01*
X140999457Y-34553044D01*
X141019448Y-34565026D01*
X141038168Y-34578910D01*
X141055438Y-34594562D01*
X141071090Y-34611832D01*
X141084974Y-34630552D01*
X141096956Y-34650543D01*
X141106921Y-34671613D01*
X141114773Y-34693557D01*
X141120437Y-34716166D01*
X141123856Y-34739221D01*
X141125000Y-34762500D01*
X141125000Y-35237500D01*
X141123856Y-35260779D01*
X141120437Y-35283834D01*
X141114773Y-35306443D01*
X141106921Y-35328387D01*
X141096956Y-35349457D01*
X141084974Y-35369448D01*
X141071090Y-35388168D01*
X141055438Y-35405438D01*
X141038168Y-35421090D01*
X141019448Y-35434974D01*
X140999457Y-35446956D01*
X140978387Y-35456921D01*
X140956443Y-35464773D01*
X140933834Y-35470437D01*
X140910779Y-35473856D01*
X140887500Y-35475000D01*
X140312500Y-35475000D01*
X140289221Y-35473856D01*
X140266166Y-35470437D01*
X140243557Y-35464773D01*
X140221613Y-35456921D01*
X140200543Y-35446956D01*
X140180552Y-35434974D01*
X140161832Y-35421090D01*
X140144562Y-35405438D01*
X140128910Y-35388168D01*
X140115026Y-35369448D01*
X140103044Y-35349457D01*
X140093079Y-35328387D01*
X140085227Y-35306443D01*
X140079563Y-35283834D01*
X140076144Y-35260779D01*
X140075000Y-35237500D01*
X140075000Y-34762500D01*
X140076144Y-34739221D01*
X140079563Y-34716166D01*
X140085227Y-34693557D01*
X140093079Y-34671613D01*
X140103044Y-34650543D01*
X140115026Y-34630552D01*
X140128910Y-34611832D01*
X140144562Y-34594562D01*
X140161832Y-34578910D01*
X140180552Y-34565026D01*
X140200543Y-34553044D01*
X140221613Y-34543079D01*
X140243557Y-34535227D01*
X140266166Y-34529563D01*
X140289221Y-34526144D01*
X140312500Y-34525000D01*
X140887500Y-34525000D01*
X140910779Y-34526144D01*
G37*
D11*
X135453120Y-62313820D03*
X135453120Y-59773820D03*
X135453120Y-57233820D03*
X135453120Y-54693820D03*
X135453120Y-52153820D03*
X135453120Y-49613820D03*
X135453120Y-47073820D03*
X151617680Y-47073820D03*
X151617680Y-49613820D03*
X151617680Y-52153820D03*
X151617680Y-54693820D03*
X151617680Y-57233820D03*
X151617680Y-59773820D03*
X151617680Y-62313820D03*
M02*
