M48
; DRILL file {KiCad (5.1.5-0)} date Monday, October 31, 2022 at 01:11:24 pm
; FORMAT={-:-/ absolute / inch / decimal}
; #@! TF.CreationDate,2022-10-31T13:11:24-07:00
; #@! TF.GenerationSoftware,Kicad,Pcbnew,(5.1.5-0)
; #@! TF.FileFunction,NonPlated,1,2,NPTH
FMAT,2
INCH
T1C0.0217
T2C0.0394
%
G90
G05
T1
X5.6008Y-2.4238
X5.7583Y-2.4238
T2
X6.1535Y-1.1008
X6.1535Y-1.2008
X6.1535Y-1.3008
X6.1535Y-1.4008
X6.1535Y-1.5008
X6.1535Y-1.6008
X6.1535Y-1.7008
X6.1535Y-1.8008
X6.1535Y-1.9008
X6.1535Y-2.0008
X6.1535Y-2.1008
X5.1469Y-1.1008
X5.1469Y-1.2008
X5.1469Y-1.3008
X5.1469Y-1.4008
X5.1469Y-1.5008
X5.1469Y-1.6008
X5.1469Y-1.7008
X5.1469Y-1.8008
X5.1469Y-1.9008
X5.1469Y-2.0008
X5.1469Y-2.1008
T0
M30
